<svg height="200" width="500" xmlns="http://www.w3.org/2000/svg">
<rect fill="#fff" height="200" width="500" x="0" y="0"/>
<path d="M40.364017 31.895914Q39.893955 30.116394,39.591774 28.370451Q39.289593 26.624508,39.289593 24.811413Q39.289593 23.233349,39.507835 21.839954Q39.726078 20.446556,40.128986 19.271404Q40.565475 17.928371,41.270565 16.736427Q41.97566 15.544487,42.76469 14.7722435Q43.553722 14,44.15809 14Q44.963905 14,46.374092 16.853943Q47.079185 18.297703,47.41494 19.976494Q47.7507 21.655289,47.7507 23.569107Q47.7507 25.952991,47.11276 28.320087Q46.47482 30.687183,45.249302 32.768883Q44.02378 34.850586,42.311417 36.42865L43.486572 42.06939Q43.990208 42.002235,44.325966 41.96866Q44.661724 41.935085,44.829605 41.935085Q46.877728 41.935085,48.48937 43.093452Q50.101006 44.251816,51.05792 46.132065Q52.01483 48.01231,52.01483 50.26189Q52.01483 52.84723,50.688583 54.91214Q49.36234 56.977055,46.709846 57.950752Q46.877728 58.52154,47.683548 62.71852Q47.885002 63.725796,47.985733 64.31337Q48.086456 64.90095,48.120033 65.33743Q48.15361 65.77392,48.15361 66.34471Q48.15361 68.0235,47.331 69.34975Q46.508392 70.675995,45.114998 71.41466Q43.7216 72.15333,42.00923 72.15333Q40.26329 72.15333,38.920258 71.4986Q37.577225 70.84387,36.80498 69.6855Q36.032738 68.52714,36.032738 67.01623Q36.032738 65.40459,36.922497 64.33016Q37.812256 63.255733,39.45747 63.255733Q40.867657 63.255733,41.757416 64.2798Q42.647175 65.30386,42.647175 66.71404Q42.647175 67.922775,41.807777 68.82932Q40.968384 69.73587,39.62535 69.73587L39.289593 69.73587Q40.162563 71.04533,42.04281 71.04533Q44.359543 71.04533,45.669 69.53442Q46.978455 68.0235,46.978455 65.673195Q46.978455 65.1024,46.844154 64.14549Q46.709846 63.188583,46.374092 61.84555Q46.03833 60.502518,45.85367 59.629547Q45.669 58.756573,45.601845 58.38724Q44.46027 58.723,42.91578 58.723Q40.02826 58.723,37.275043 57.04421Q34.588978 55.365417,33.044487 52.612198Q31.5 49.85898,31.5 46.669277Q31.5 43.647453,32.87661 40.994965Q34.25322 38.342472,36.284554 36.126465Q38.315895 33.91046,40.364017 31.895914ZM41.270565 31.056519Q42.04281 30.653608,42.91578 29.562393Q43.788754 28.47118,44.594574 27.060995Q45.40039 25.65081,45.90403 24.223839Q46.40767 22.796864,46.40767 21.655289Q46.40767 20.446556,46.03833 19.741467Q45.669 19.036373,44.76245 19.036373Q43.95663 19.036373,43.201176 19.77504Q42.44572 20.51371,41.858143 21.739227Q41.270565 22.964745,40.934807 24.475655Q40.59905 25.986568,40.59905 27.564632Q40.59905 28.63906,40.81729 29.51203Q41.035534 30.385002,41.270565 31.056519ZM43.184387 46.06491Q42.27784 46.266365,41.47202 46.921097Q40.6662 47.575825,40.17935 48.49916Q39.6925 49.422493,39.6925 50.463345Q39.6925 51.302742,40.128986 52.1925Q40.565475 53.08226,41.203415 53.619473Q41.6399 54.02238,42.076385 54.22384Q42.580025 54.45887,42.580025 54.660324Q42.580025 54.76105,42.244263 54.86178Q40.968384 54.559597,39.94432 53.7202Q38.920258 52.880806,38.33268 51.68886Q37.745102 50.49692,37.745102 49.15389Q37.745102 47.71013,38.33268 46.367096Q38.920258 45.024063,39.977898 43.949635Q41.035534 42.87521,42.378567 42.337997L41.40487 37.268044Q37.510075 40.42417,35.68019 43.462784Q33.850307 46.501396,33.850307 49.489647Q33.850307 51.672073,34.991886 53.552322Q36.133465 55.432568,38.114437 56.590935Q40.095413 57.7493,42.580025 57.7493Q43.25154 57.7493,43.939842 57.614994Q44.628147 57.480694,45.40039 57.279236L43.184387 46.06491ZM46.441242 56.943478Q49.731674 55.533295,49.731674 51.168438Q49.731674 49.724678,48.993004 48.532734Q48.254337 47.340794,47.01203 46.6357Q45.769726 45.93061,44.22524 45.93061L46.441242 56.943478Z" fill="#000"/>
<path d="M64.11892 23.805262L64.11892 17.40347L62.01483 17.940683L62.01483 13.463906L64.11892 12.881926L64.11892 4.107443L65.506714 4.107443L65.506714 12.523784L68.50616 11.807499L68.50616 3.0777855L69.89396 3.0777855L69.89396 11.449357L72.08758 10.956912L72.08758 15.388921L69.89396 16.01567L69.89396 22.41746L72.08758 21.880247L72.08758 26.491327L69.89396 27.02854L69.89396 35.44488L68.50616 35.44488L68.50616 27.386683L65.506714 28.192501L65.506714 36.92222L64.11892 36.92222L64.11892 28.505877L62.01483 29.043089L62.01483 24.43201L64.11892 23.805262ZM68.50616 22.730835L68.50616 16.284275L65.506714 17.045328L65.506714 23.447119L68.50616 22.730835Z" fill="#000"/>
<path d="M75.191666 41.80526L75.191666 35.40347L73.08758 35.94068L73.08758 31.463905L75.191666 30.881926L75.191666 22.107443L76.57947 22.107443L76.57947 30.523785L79.5789 29.807499L79.5789 21.077785L80.966705 21.077785L80.966705 29.449356L83.160324 28.956913L83.160324 33.38892L80.966705 34.01567L80.966705 40.41746L83.160324 39.880245L83.160324 44.491325L80.966705 45.02854L80.966705 53.44488L79.5789 53.44488L79.5789 45.38668L76.57947 46.1925L76.57947 54.92222L75.191666 54.92222L75.191666 46.505875L73.08758 47.04309L73.08758 42.43201L75.191666 41.80526ZM79.5789 40.730835L79.5789 34.284275L76.57947 35.045326L76.57947 41.44712L79.5789 40.730835Z" fill="#000"/>
<path d="M86.26441 17.805262L86.26441 11.40347L84.160324 11.940683L84.160324 7.4639063L86.26441 6.8819256L86.26441 -1.8925571L87.65221 -1.8925571L87.65221 6.5237837L90.65165 5.807499L90.65165 -2.9222145L92.03945 -2.9222145L92.03945 5.449357L94.23307 4.956912L94.23307 9.388921L92.03945 10.01567L92.03945 16.41746L94.23307 15.880247L94.23307 20.491327L92.03945 21.02854L92.03945 29.444881L90.65165 29.444881L90.65165 21.386683L87.65221 22.192501L87.65221 30.922216L86.26441 30.922216L86.26441 22.505877L84.160324 23.043089L84.160324 18.43201L86.26441 17.805262ZM90.65165 16.730835L90.65165 10.284276L87.65221 11.045328L87.65221 17.447119L90.65165 16.730835Z" fill="#000"/>
<path d="M97.337166 35.80526L97.337166 29.40347L95.23308 29.940683L95.23308 25.463905L97.337166 24.881926L97.337166 16.107443L98.72496 16.107443L98.72496 24.523785L101.7244 23.807499L101.7244 15.0777855L103.112206 15.0777855L103.112206 23.449356L105.305824 22.956913L105.305824 27.38892L103.112206 28.01567L103.112206 34.41746L105.305824 33.880245L105.305824 38.491325L103.112206 39.02854L103.112206 47.44488L101.7244 47.44488L101.7244 39.38668L98.72496 40.1925L98.72496 48.92222L97.337166 48.92222L97.337166 40.505875L95.23308 41.04309L95.23308 36.43201L97.337166 35.80526ZM101.7244 34.730835L101.7244 28.284275L98.72496 29.045328L98.72496 35.44712L101.7244 34.730835Z" fill="#000"/>
<path d="M126.305824 49.246223Q126.305824 47.69334,127.43901 46.51819Q128.57219 45.343033,130.52379 44.671516Q132.47539 44,134.82568 44Q137.21797 44,139.23251 44.65053Q141.24707 45.301064,142.46419 46.47622Q143.68132 47.65137,143.68132 49.246223Q143.68132 50.883045,142.50616 52.07918Q141.33101 53.275322,139.37941 53.925854Q137.42783 54.576385,135.07751 54.576385Q132.7272 54.576385,130.73364 53.94684Q128.74007 53.31729,127.52295 52.121155Q126.305824 50.925014,126.305824 49.246223ZM135.95888 53.736988Q137.38585 53.736988,137.91048 52.687744Q138.43509 51.6385,138.43509 50.21153Q138.43509 48.742584,137.82654 47.525463Q137.21797 46.30834,136.2107 45.573868Q135.20341 44.839394,133.94432 44.839394Q132.51735 44.839394,132.0347 45.88864Q131.55205 46.937885,131.55205 48.364857Q131.55205 49.791832,132.13962 51.008953Q132.7272 52.226078,133.71349 52.981533Q134.69978 53.736988,135.95888 53.736988Z" fill="#000"/>
<line stroke="#000" stroke-width="1.5" x1="21.5" x2="299.06957785288495" y1="20" y2="20"/>
<line stroke="#000" stroke-width="1.5" x1="21.5" x2="299.06957785288495" y1="32" y2="32"/>
<line stroke="#000" stroke-width="1.5" x1="21.5" x2="299.06957785288495" y1="44" y2="44"/>
<line stroke="#000" stroke-width="1.5" x1="21.5" x2="299.06957785288495" y1="56" y2="56"/>
<line stroke="#000" stroke-width="1.5" x1="21.5" x2="299.06957785288495" y1="68" y2="68"/>
<line stroke="#000" stroke-width="1.5" x1="21.5" x2="21.5" y1="19.25" y2="68.75"/>
<line stroke="#000" stroke-width="1.5" x1="299.81957785288495" x2="299.81957785288495" y1="19.25" y2="68.75"/>
<path d="M317.06958 70.81198Q317.06958 69.259094,317.82504 68.62955Q318.5805 68,319.62973 68Q320.72095 68,321.4974 68.62955Q322.27383 69.259094,322.27383 70.81198Q322.27383 72.32289,321.4974 72.99441Q320.72095 73.665924,319.62973 73.665924Q318.5805 73.665924,317.82504 72.99441Q317.06958 72.32289,317.06958 70.81198Z" fill="#000"/>
<path d="M305.1443 79.33184Q303.12976 79.33184,301.84967 78.38752Q300.56958 77.4432,300.56958 75.51259Q300.56958 73.37213,301.76572 71.672356Q302.96185 69.97258,304.8925 68.98629Q306.8231 68,309.00552 68Q310.85217 68,311.9434 68.98629Q313.0346 69.97258,313.0346 71.77728Q313.0346 73.8338,311.9434 75.55456Q310.85217 77.27532,309.06848 78.30358Q307.28476 79.33184,305.1443 79.33184ZM301.70276 76.51987Q301.70276 76.93956,302.01755 77.27532Q302.3323 77.61108,302.87793 77.61108Q304.34686 77.61108,306.5293 76.39396Q307.99823 75.55456,309.19437 74.5263Q310.3905 73.49804,311.104 72.46978Q311.8175 71.44152,311.8175 70.728035Q311.8175 70.266365,311.58667 69.95159Q311.35583 69.63682,310.76825 69.63682Q309.97083 69.63682,308.83765 70.14046Q307.70447 70.6441,306.46634 71.44152Q305.22824 72.238945,304.13702 73.183266Q303.0458 74.12759,302.3743 75.00896Q301.70276 75.89032,301.70276 76.51987Z" fill="#000"/>
<line stroke="#000" stroke-width="1.5" x1="312.06957785288495" x2="312.06957785288495" y1="38" y2="72.5"/>
<path d="M392.2322 73.33184Q390.21768 73.33184,388.9376 72.38752Q387.6575 71.4432,387.6575 69.51259Q387.6575 67.37213,388.85364 65.672356Q390.04977 63.97258,391.9804 62.98629Q393.911 62,396.09344 62Q397.9401 62,399.0313 62.98629Q400.12253 63.97258,400.12253 65.77728Q400.12253 67.8338,399.0313 69.55456Q397.9401 71.27532,396.1564 72.30358Q394.37268 73.33184,392.2322 73.33184Z" fill="#000"/>
<line stroke="#000" stroke-width="1.5" x1="399.1574963463678" x2="399.1574963463678" y1="32" y2="66.5"/>
<line stroke="#000" stroke-width="1.5" x1="290.56957785288495" x2="454.4734352164799" y1="20" y2="20"/>
<line stroke="#000" stroke-width="1.5" x1="290.56957785288495" x2="454.4734352164799" y1="32" y2="32"/>
<line stroke="#000" stroke-width="1.5" x1="290.56957785288495" x2="454.4734352164799" y1="44" y2="44"/>
<line stroke="#000" stroke-width="1.5" x1="290.56957785288495" x2="454.4734352164799" y1="56" y2="56"/>
<line stroke="#000" stroke-width="1.5" x1="290.56957785288495" x2="454.4734352164799" y1="68" y2="68"/>
<line stroke="#000" stroke-width="1.5" x1="455.2234352164799" x2="455.2234352164799" y1="19.25" y2="68.75"/>
<path d="M36.074707 167.33185Q34.060158 167.33185,32.78008 166.38753Q31.5 165.4432,31.5 163.51259Q31.5 161.37213,32.696136 159.67236Q33.892277 157.97258,35.822887 156.98628Q37.753498 156,39.935925 156Q41.782597 156,42.87381 156.98628Q43.965027 157.97258,43.965027 159.77728Q43.965027 161.8338,42.87381 163.55457Q41.782597 165.27531,39.99888 166.30359Q38.215164 167.33185,36.074707 167.33185ZM32.633183 164.51987Q32.633183 164.93956,32.947956 165.27531Q33.26273 165.61108,33.80834 165.61108Q35.27728 165.61108,37.45971 164.39395Q38.92865 163.55457,40.12479 162.5263Q41.32093 161.49805,42.034416 160.46979Q42.747902 159.44153,42.747902 158.72803Q42.747902 158.26637,42.517067 157.9516Q42.286232 157.63683,41.698658 157.63683Q40.90123 157.63683,39.768047 158.14046Q38.634865 158.64409,37.396755 159.44153Q36.158646 160.23895,35.067432 161.18327Q33.976215 162.1276,33.3047 163.00896Q32.633183 163.89032,32.633183 164.51987Z" fill="#000"/>
<line stroke="#000" stroke-width="1.5" x1="43" x2="43" y1="126" y2="160.5"/>
<path d="M95.11814 173.33185Q93.10359 173.33185,91.82352 172.38753Q90.543434 171.4432,90.543434 169.51259Q90.543434 167.37213,91.73957 165.67236Q92.935715 163.97258,94.866325 162.98628Q96.796936 162,98.97936 162Q100.826035 162,101.917244 162.98628Q103.00846 163.97258,103.00846 165.77728Q103.00846 167.8338,101.917244 169.55457Q100.826035 171.27531,99.04231 172.30359Q97.2586 173.33185,95.11814 173.33185Z" fill="#000"/>
<line stroke="#000" stroke-width="1.5" x1="102.04343085818822" x2="102.04343085818822" y1="132" y2="166.5"/>
<path d="M134.63985 167.33185Q132.6253 167.33185,131.34521 166.38753Q130.06514 165.4432,130.06514 163.51259Q130.06514 161.37213,131.26128 159.67236Q132.45741 157.97258,134.38803 156.98628Q136.31863 156,138.50107 156Q140.34773 156,141.43895 156.98628Q142.53017 157.97258,142.53017 159.77728Q142.53017 161.8338,141.43895 163.55457Q140.34773 165.27531,138.56403 166.30359Q136.7803 167.33185,134.63985 167.33185Z" fill="#000"/>
<line stroke="#000" stroke-width="1.5" x1="141.56514628728235" x2="141.56514628728235" y1="126" y2="160.5"/>
<line stroke="#000" stroke-width="1.5" x1="21.5" x2="181.08686171637646" y1="120" y2="120"/>
<line stroke="#000" stroke-width="1.5" x1="21.5" x2="181.08686171637646" y1="132" y2="132"/>
<line stroke="#000" stroke-width="1.5" x1="21.5" x2="181.08686171637646" y1="144" y2="144"/>
<line stroke="#000" stroke-width="1.5" x1="21.5" x2="181.08686171637646" y1="156" y2="156"/>
<line stroke="#000" stroke-width="1.5" x1="21.5" x2="181.08686171637646" y1="168" y2="168"/>
<line stroke="#000" stroke-width="1.5" x1="21.5" x2="21.5" y1="119.25" y2="168.75"/>
<line stroke="#000" stroke-width="1.5" x1="181.83686171637646" x2="181.83686171637646" y1="119.25" y2="168.75"/>
<path d="M209.08687 140.81197Q209.08687 139.2591,209.84233 138.62955Q210.59778 138,211.64703 138Q212.73825 138,213.51468 138.62955Q214.29112 139.2591,214.29112 140.81197Q214.29112 142.32288,213.51468 142.9944Q212.73825 143.66591,211.64703 143.66591Q210.59778 143.66591,209.84233 142.9944Q209.08687 142.32288,209.08687 140.81197Z" fill="#000"/>
<path d="M197.16158 149.33185Q195.14702 149.33185,193.86694 148.38753Q192.58687 147.4432,192.58687 145.51259Q192.58687 143.37213,193.783 141.67236Q194.97914 139.97258,196.90974 138.98628Q198.84036 138,201.02278 138Q202.86946 138,203.96068 138.98628Q205.05188 139.97258,205.05188 141.77728Q205.05188 143.8338,203.96068 145.55457Q202.86946 147.27531,201.08574 148.30359Q199.30203 149.33185,197.16158 149.33185ZM193.72005 146.51987Q193.72005 146.93956,194.03482 147.27531Q194.3496 147.61108,194.8952 147.61108Q196.36414 147.61108,198.54657 146.39395Q200.01552 145.55457,201.21165 144.5263Q202.40779 143.49805,203.12128 142.46979Q203.83476 141.44153,203.83476 140.72803Q203.83476 140.26637,203.60393 139.9516Q203.3731 139.63683,202.78552 139.63683Q201.9881 139.63683,200.8549 140.14046Q199.72173 140.64409,198.48361 141.44153Q197.24551 142.23895,196.1543 143.18327Q195.06308 144.1276,194.39156 145.00896Q193.72005 145.89032,193.72005 146.51987Z" fill="#000"/>
<line stroke="#000" stroke-width="1.5" x1="204.08686171637643" x2="204.08686171637643" y1="108" y2="142.5"/>
<path d="M263.19052 155.33185Q261.176 155.33185,259.8959 154.38753Q258.6158 153.4432,258.6158 151.51259Q258.6158 149.37213,259.81195 147.67236Q261.0081 145.97258,262.93872 144.98628Q264.86932 144,267.05176 144Q268.8984 144,269.98962 144.98628Q271.08084 145.97258,271.08084 147.77728Q271.08084 149.8338,269.98962 151.55457Q268.8984 153.27531,267.11472 154.30359Q265.331 155.33185,263.19052 155.33185Z" fill="#000"/>
<line stroke="#000" stroke-width="1.5" x1="270.1158156218352" x2="270.1158156218352" y1="114" y2="148.5"/>
<line stroke="#000" stroke-width="1.5" x1="182.58686171637643" x2="309.63753105092934" y1="120" y2="120"/>
<line stroke="#000" stroke-width="1.5" x1="182.58686171637643" x2="309.63753105092934" y1="132" y2="132"/>
<line stroke="#000" stroke-width="1.5" x1="182.58686171637643" x2="309.63753105092934" y1="144" y2="144"/>
<line stroke="#000" stroke-width="1.5" x1="182.58686171637643" x2="309.63753105092934" y1="156" y2="156"/>
<line stroke="#000" stroke-width="1.5" x1="182.58686171637643" x2="309.63753105092934" y1="168" y2="168"/>
<line stroke="#000" stroke-width="1.5" x1="310.38753105092934" x2="310.38753105092934" y1="119.25" y2="168.75"/>
<path d="M324.9151 161.33185Q322.90057 161.33185,321.62048 160.38753Q320.3404 159.4432,320.3404 157.51259Q320.3404 155.37213,321.53653 153.67236Q322.73267 151.97258,324.6633 150.98628Q326.5939 150,328.77634 150Q330.623 150,331.7142 150.98628Q332.80542 151.97258,332.80542 153.77728Q332.80542 155.8338,331.7142 157.55457Q330.623 159.27531,328.8393 160.30359Q327.05557 161.33185,324.9151 161.33185ZM321.47357 158.51987Q321.47357 158.93956,321.78836 159.27531Q322.10312 159.61108,322.64874 159.61108Q324.11768 159.61108,326.3001 158.39395Q327.76904 157.55457,328.96518 156.5263Q330.16132 155.49805,330.87482 154.46979Q331.58832 153.44153,331.58832 152.72803Q331.58832 152.26637,331.35748 151.9516Q331.12665 151.63683,330.53906 151.63683Q329.74164 151.63683,328.60846 152.14046Q327.47528 152.64409,326.23715 153.44153Q324.99905 154.23895,323.90784 155.18327Q322.81662 156.1276,322.1451 157.00896Q321.47357 157.89032,321.47357 158.51987Z" fill="#000"/>
<line stroke="#000" stroke-width="1.5" x1="331.8403900994195" x2="331.8403900994195" y1="120" y2="154.5"/>
<path d="M383.95853 167.33185Q381.944 167.33185,380.6639 166.38753Q379.38382 165.4432,379.38382 163.51259Q379.38382 161.37213,380.57996 159.67236Q381.7761 157.97258,383.70673 156.98628Q385.63733 156,387.81976 156Q389.6664 156,390.75763 156.98628Q391.84885 157.97258,391.84885 159.77728Q391.84885 161.8338,390.75763 163.55457Q389.6664 165.27531,387.88272 166.30359Q386.099 167.33185,383.95853 167.33185Z" fill="#000"/>
<line stroke="#000" stroke-width="1.5" x1="390.8838209576077" x2="390.8838209576077" y1="126" y2="160.5"/>
<path d="M433.55298 161.33185Q431.53845 161.33185,430.25836 160.38753Q428.97827 159.4432,428.97827 157.51259Q428.97827 155.37213,430.1744 153.67236Q431.37054 151.97258,433.30118 150.98628Q435.23178 150,437.4142 150Q439.26086 150,440.35208 150.98628Q441.4433 151.97258,441.4433 153.77728Q441.4433 155.8338,440.35208 157.55457Q439.26086 159.27531,437.47717 160.30359Q435.69345 161.33185,433.55298 161.33185Z" fill="#000"/>
<line stroke="#000" stroke-width="1.5" x1="440.47828457090594" x2="440.47828457090594" y1="120" y2="154.5"/>
<line stroke="#000" stroke-width="1.5" x1="310.3403900994195" x2="480.00000000000006" y1="120" y2="120"/>
<line stroke="#000" stroke-width="1.5" x1="310.3403900994195" x2="480.00000000000006" y1="132" y2="132"/>
<line stroke="#000" stroke-width="1.5" x1="310.3403900994195" x2="480.00000000000006" y1="144" y2="144"/>
<line stroke="#000" stroke-width="1.5" x1="310.3403900994195" x2="480.00000000000006" y1="156" y2="156"/>
<line stroke="#000" stroke-width="1.5" x1="310.3403900994195" x2="480.00000000000006" y1="168" y2="168"/>
<line stroke="#000" stroke-width="1.5" x1="480.75000000000006" x2="480.75000000000006" y1="119.25" y2="168.75"/>
</svg>
