<svg height="200" width="500" xmlns="http://www.w3.org/2000/svg">
<rect fill="#fff" height="200" width="500" x="0" y="0"/>
<path d="M30.864017 21.895914Q30.393955 20.116394,30.091774 18.370451Q29.789593 16.624508,29.789593 14.811413Q29.789593 13.233349,30.007835 11.839954Q30.226078 10.446556,30.628986 9.271404Q31.065474 7.9283714,31.770565 6.7364273Q32.47566 5.544487,33.26469 4.7722435Q34.053722 4,34.65809 4Q35.463905 4,36.874092 6.853943Q37.579185 8.297703,37.91494 9.976494Q38.2507 11.655289,38.2507 13.569107Q38.2507 15.9529915,37.61276 18.320087Q36.97482 20.687183,35.749302 22.768885Q34.52378 24.850586,32.811417 26.42865L33.986572 32.06939Q34.490208 32.002235,34.825966 31.96866Q35.161724 31.935085,35.329605 31.935085Q37.377728 31.935085,38.98937 33.093452Q40.601006 34.251816,41.55792 36.132065Q42.51483 38.01231,42.51483 40.26189Q42.51483 42.84723,41.188583 44.91214Q39.86234 46.977055,37.209846 47.950752Q37.377728 48.52154,38.183548 52.71852Q38.385002 53.725796,38.485733 54.313374Q38.586456 54.90095,38.620033 55.337437Q38.65361 55.773922,38.65361 56.34471Q38.65361 58.023502,37.831 59.349747Q37.008392 60.67599,35.614998 61.41466Q34.2216 62.153328,32.50923 62.153328Q30.76329 62.153328,29.420258 61.4986Q28.077225 60.843872,27.304981 59.685505Q26.532738 58.527138,26.532738 57.016228Q26.532738 55.404587,27.422497 54.330162Q28.312256 53.255733,29.95747 53.255733Q31.367657 53.255733,32.257416 54.279797Q33.147175 55.30386,33.147175 56.714043Q33.147175 57.922775,32.307777 58.829323Q31.468384 59.73587,30.12535 59.73587L29.789593 59.73587Q30.662563 61.045326,32.54281 61.045326Q34.859543 61.045326,36.169 59.534416Q37.478455 58.023502,37.478455 55.673195Q37.478455 55.102406,37.344154 54.145493Q37.209846 53.188583,36.874092 51.84555Q36.53833 50.502518,36.35367 49.629547Q36.169 48.756573,36.101845 48.38724Q34.96027 48.723,33.41578 48.723Q30.52826 48.723,27.775042 47.04421Q25.088976 45.365417,23.544489 42.612198Q22 39.85898,22 36.669277Q22 33.647453,23.37661 30.994963Q24.753218 28.342472,26.784555 26.126467Q28.815893 23.910463,30.864017 21.895914ZM31.770565 21.056519Q32.54281 20.653608,33.41578 19.562393Q34.288754 18.47118,35.094574 17.060995Q35.90039 15.65081,36.40403 14.223839Q36.90767 12.796864,36.90767 11.655289Q36.90767 10.446556,36.53833 9.7414665Q36.169 9.036373,35.26245 9.036373Q34.45663 9.036373,33.701176 9.77504Q32.94572 10.51371,32.358143 11.739227Q31.770565 12.964745,31.434807 14.475655Q31.099049 15.986568,31.099049 17.564632Q31.099049 18.63906,31.317291 19.51203Q31.535534 20.385002,31.770565 21.056519ZM33.684387 36.06491Q32.77784 36.266365,31.97202 36.921097Q31.1662 37.575825,30.679352 38.49916Q30.192501 39.422493,30.192501 40.463345Q30.192501 41.302742,30.628986 42.1925Q31.065474 43.08226,31.703415 43.619473Q32.1399 44.02238,32.576385 44.22384Q33.080025 44.45887,33.080025 44.660324Q33.080025 44.76105,32.744263 44.86178Q31.468384 44.559597,30.44432 43.7202Q29.420258 42.880806,28.83268 41.68886Q28.245104 40.49692,28.245104 39.15389Q28.245104 37.71013,28.83268 36.367096Q29.420258 35.024063,30.477896 33.949635Q31.535534 32.87521,32.878567 32.337997L31.90487 27.268045Q28.010073 30.424173,26.180191 33.462784Q24.350307 36.501396,24.350307 39.489647Q24.350307 41.672073,25.491886 43.552322Q26.633465 45.432568,28.614437 46.590935Q30.595411 47.7493,33.080025 47.7493Q33.75154 47.7493,34.439842 47.614994Q35.128147 47.480694,35.90039 47.279236L33.684387 36.06491ZM36.941242 46.943478Q40.231674 45.533295,40.231674 41.168438Q40.231674 39.724678,39.493004 38.532734Q38.754337 37.340794,37.51203 36.6357Q36.269726 35.93061,34.72524 35.93061L36.941242 46.943478Z" fill="#000"/>
<path d="M62.51483 39.246223Q62.51483 37.69334,63.648018 36.51819Q64.781204 35.343033,66.732796 34.671516Q68.68439 34,71.0347 34Q73.42698 34,75.44153 34.65053Q77.45608 35.301064,78.6732 36.47622Q79.89032 37.65137,79.89032 39.246223Q79.89032 40.883045,78.71517 42.07918Q77.540016 43.275322,75.588425 43.925854Q73.636826 44.576385,71.286514 44.576385Q68.93621 44.576385,66.94264 43.94684Q64.94908 43.31729,63.731956 42.121155Q62.51483 40.925014,62.51483 39.246223ZM72.167885 43.736988Q73.59486 43.736988,74.11948 42.687744Q74.644104 41.6385,74.644104 40.21153Q74.644104 38.742584,74.03554 37.525463Q73.42698 36.30834,72.4197 35.573868Q71.41243 34.839394,70.153336 34.839394Q68.726364 34.839394,68.243706 35.88864Q67.761055 36.937885,67.761055 38.364857Q67.761055 39.791832,68.34863 41.008953Q68.93621 42.226078,69.9225 42.981533Q70.90879 43.736988,72.167885 43.736988Z" fill="#000"/>
<line stroke="#000" stroke-width="2" x1="12" x2="100.67015278339386" y1="10" y2="10"/>
<line stroke="#000" stroke-width="2" x1="12" x2="100.67015278339386" y1="22" y2="22"/>
<line stroke="#000" stroke-width="2" x1="12" x2="100.67015278339386" y1="34" y2="34"/>
<line stroke="#000" stroke-width="2" x1="12" x2="100.67015278339386" y1="46" y2="46"/>
<line stroke="#000" stroke-width="2" x1="12" x2="100.67015278339386" y1="58" y2="58"/>
<line stroke="#000" stroke-width="2" x1="12" x2="12" y1="9" y2="59"/>
<line stroke="#000" stroke-width="2" x1="101.67015278339386" x2="101.67015278339386" y1="9" y2="59"/>
<path d="M133.13612 60.811974Q133.13612 59.25909,133.89159 58.629547Q134.64703 58,135.69629 58Q136.7875 58,137.56393 58.629547Q138.34038 59.25909,138.34038 60.811974Q138.34038 62.322887,137.56393 62.994404Q136.7875 63.66592,135.69629 63.66592Q134.64703 63.66592,133.89159 62.994404Q133.13612 62.322887,133.13612 60.811974Z" fill="#000"/>
<path d="M120.71083 69.33184Q118.69628 69.33184,117.41621 68.38752Q116.13612 67.4432,116.13612 65.51259Q116.13612 63.37213,117.33226 61.672356Q118.528404 59.97258,120.459015 58.98629Q122.389626 58,124.57205 58Q126.418724 58,127.50993 58.98629Q128.60115 59.97258,128.60115 61.77728Q128.60115 63.8338,127.50993 65.55456Q126.418724 67.27532,124.63501 68.30358Q122.85129 69.33184,120.71083 69.33184ZM117.26931 66.51987Q117.26931 66.93956,117.58408 67.27532Q117.89886 67.61108,118.444466 67.61108Q119.91341 67.61108,122.09583 66.39396Q123.56477 65.55456,124.76092 64.5263Q125.957054 63.49804,126.67054 62.46978Q127.384026 61.44152,127.384026 60.728035Q127.384026 60.26637,127.15319 59.951595Q126.92236 59.63682,126.334785 59.63682Q125.53735 59.63682,124.404175 60.140457Q123.27099 60.644096,122.03288 61.44152Q120.79477 62.23895,119.70356 63.183266Q118.61234 64.12759,117.94083 65.00896Q117.26931 65.89032,117.26931 66.51987Z" fill="#000"/>
<line stroke="#000" stroke-width="2" x1="127.56469365528652" x2="127.56469365528652" y1="28" y2="62.5"/>
<path d="M179.1768 63.33184Q177.16225 63.33184,175.88217 62.38752Q174.6021 61.4432,174.6021 59.512592Q174.6021 57.37213,175.79823 55.672356Q176.99437 53.97258,178.92497 52.98629Q180.85559 52,183.03801 52Q184.88469 52,185.9759 52.98629Q187.06711 53.97258,187.06711 55.77728Q187.06711 57.8338,185.9759 59.55456Q184.88469 61.275322,183.10097 62.30358Q181.31726 63.33184,179.1768 63.33184Z" fill="#000"/>
<line stroke="#000" stroke-width="2" x1="186.03066309860773" x2="186.03066309860773" y1="22" y2="56.5"/>
<line stroke="#000" stroke-width="2" x1="106.13612222671509" x2="231.2233842611313" y1="10" y2="10"/>
<line stroke="#000" stroke-width="2" x1="106.13612222671509" x2="231.2233842611313" y1="22" y2="22"/>
<line stroke="#000" stroke-width="2" x1="106.13612222671509" x2="231.2233842611313" y1="34" y2="34"/>
<line stroke="#000" stroke-width="2" x1="106.13612222671509" x2="231.2233842611313" y1="46" y2="46"/>
<line stroke="#000" stroke-width="2" x1="106.13612222671509" x2="231.2233842611313" y1="58" y2="58"/>
<line stroke="#000" stroke-width="2" x1="232.2233842611313" x2="232.2233842611313" y1="9" y2="59"/>
<path d="M244.33212 57.33184Q242.31757 57.33184,241.03749 56.38752Q239.75742 55.4432,239.75742 53.512592Q239.75742 51.37213,240.95355 49.672356Q242.14969 47.97258,244.08029 46.98629Q246.01091 46,248.19333 46Q250.04001 46,251.13123 46.98629Q252.22244 47.97258,252.22244 49.77728Q252.22244 51.8338,251.13123 53.55456Q250.04001 55.275322,248.25629 56.30358Q246.47258 57.33184,244.33212 57.33184ZM240.8906 54.519867Q240.8906 54.939564,241.20537 55.275322Q241.52014 55.61108,242.06575 55.61108Q243.53468 55.61108,245.71712 54.393955Q247.18607 53.55456,248.3822 52.526302Q249.57834 51.49804,250.29182 50.46978Q251.00531 49.44152,251.00531 48.728035Q251.00531 48.26637,250.77448 47.951595Q250.54364 47.63682,249.95607 47.63682Q249.15865 47.63682,248.02545 48.140457Q246.89227 48.644096,245.65416 49.44152Q244.41606 50.23895,243.32484 51.183266Q242.23363 52.127586,241.5621 53.008953Q240.8906 53.89032,240.8906 54.519867Z" fill="#000"/>
<line stroke="#000" stroke-width="2" x1="251.18598624638147" x2="251.18598624638147" y1="16" y2="50.5"/>
<path d="M276.64276 63.33184Q274.62823 63.33184,273.34814 62.38752Q272.06805 61.4432,272.06805 59.512592Q272.06805 57.37213,273.2642 55.672356Q274.46033 53.97258,276.39096 52.98629Q278.32156 52,280.504 52Q282.35065 52,283.44186 52.98629Q284.53308 53.97258,284.53308 55.77728Q284.53308 57.8338,283.44186 59.55456Q282.35065 61.275322,280.56696 62.30358Q278.78323 63.33184,276.64276 63.33184Z" fill="#000"/>
<line stroke="#000" stroke-width="2" x1="283.496632541929" x2="283.496632541929" y1="22" y2="56.5"/>
<path d="M321.26407 57.33184Q319.24954 57.33184,317.96945 56.38752Q316.68936 55.4432,316.68936 53.512592Q316.68936 51.37213,317.8855 49.672356Q319.08163 47.97258,321.01227 46.98629Q322.94287 46,325.1253 46Q326.97195 46,328.06317 46.98629Q329.1544 47.97258,329.1544 49.77728Q329.1544 51.8338,328.06317 53.55456Q326.97195 55.275322,325.18826 56.30358Q323.40454 57.33184,321.26407 57.33184Z" fill="#000"/>
<line stroke="#000" stroke-width="2" x1="328.11792513302396" x2="328.11792513302396" y1="16" y2="50.5"/>
<line stroke="#000" stroke-width="2" x1="229.75741481781006" x2="373.3106462955475" y1="10" y2="10"/>
<line stroke="#000" stroke-width="2" x1="229.75741481781006" x2="373.3106462955475" y1="22" y2="22"/>
<line stroke="#000" stroke-width="2" x1="229.75741481781006" x2="373.3106462955475" y1="34" y2="34"/>
<line stroke="#000" stroke-width="2" x1="229.75741481781006" x2="373.3106462955475" y1="46" y2="46"/>
<line stroke="#000" stroke-width="2" x1="229.75741481781006" x2="373.3106462955475" y1="58" y2="58"/>
<line stroke="#000" stroke-width="2" x1="374.3106462955475" x2="374.3106462955475" y1="9" y2="59"/>
<path d="M395.3787 30.811974Q395.3787 29.259092,396.13416 28.629545Q396.88962 27.999998,397.93884 27.999998Q399.03006 27.999998,399.80652 28.629545Q400.58295 29.259092,400.58295 30.811974Q400.58295 32.322887,399.80652 32.994404Q399.03006 33.66592,397.93884 33.66592Q396.88962 33.66592,396.13416 32.994404Q395.3787 32.322887,395.3787 30.811974Z" fill="#000"/>
<path d="M382.9534 39.33184Q380.93887 39.33184,379.65878 38.38752Q378.3787 37.4432,378.3787 35.512592Q378.3787 33.37213,379.57483 31.672356Q380.77097 29.97258,382.7016 28.98629Q384.6322 28,386.81464 28Q388.6613 28,389.7525 28.98629Q390.84372 29.97258,390.84372 31.777279Q390.84372 33.8338,389.7525 35.55456Q388.6613 37.275322,386.8776 38.30358Q385.09387 39.33184,382.9534 39.33184ZM379.51187 36.519867Q379.51187 36.939564,379.82666 37.275322Q380.14142 37.61108,380.68704 37.61108Q382.15598 37.61108,384.3384 36.393955Q385.80734 35.55456,387.00348 34.526302Q388.19965 33.49804,388.91312 32.46978Q389.62662 31.44152,389.62662 30.728035Q389.62662 30.266369,389.39578 29.951595Q389.16495 29.636822,388.57736 29.636822Q387.77994 29.636822,386.64676 30.140457Q385.51355 30.644096,384.27545 31.44152Q383.03735 32.23895,381.94614 33.183266Q380.85492 34.127586,380.1834 35.008953Q379.51187 35.89032,379.51187 36.519867Z" fill="#000"/>
<line stroke="#000" stroke-width="2" x1="389.8072788374765" x2="389.8072788374765" y1="-2" y2="32.5"/>
<path d="M441.41937 45.33184Q439.40485 45.33184,438.12476 44.38752Q436.84467 43.4432,436.84467 41.512592Q436.84467 39.37213,438.0408 37.672356Q439.23694 35.97258,441.16757 34.98629Q443.09818 34,445.2806 34Q447.12726 34,448.21848 34.98629Q449.3097 35.97258,449.3097 37.77728Q449.3097 39.8338,448.21848 41.55456Q447.12726 43.275322,445.34357 44.30358Q443.55984 45.33184,441.41937 45.33184Z" fill="#000"/>
<line stroke="#000" stroke-width="2" x1="448.2732482807977" x2="448.2732482807977" y1="4" y2="38.5"/>
<line stroke="#000" stroke-width="2" x1="368.37870740890503" x2="493.4659694433212" y1="10" y2="10"/>
<line stroke="#000" stroke-width="2" x1="368.37870740890503" x2="493.4659694433212" y1="22" y2="22"/>
<line stroke="#000" stroke-width="2" x1="368.37870740890503" x2="493.4659694433212" y1="34" y2="34"/>
<line stroke="#000" stroke-width="2" x1="368.37870740890503" x2="493.4659694433212" y1="46" y2="46"/>
<line stroke="#000" stroke-width="2" x1="368.37870740890503" x2="493.4659694433212" y1="58" y2="58"/>
<line stroke="#000" stroke-width="2" x1="494.4659694433212" x2="494.4659694433212" y1="9" y2="59"/>
<path d="M26.574705 151.33185Q24.560156 151.33185,23.280079 150.38753Q22 149.4432,22 147.51259Q22 145.37213,23.196138 143.67236Q24.392277 141.97258,26.322887 140.98628Q28.253498 140,30.435925 140Q32.282597 140,33.37381 140.98628Q34.465027 141.97258,34.465027 143.77728Q34.465027 145.8338,33.37381 147.55457Q32.282597 149.27531,30.49888 150.30359Q28.715164 151.33185,26.574705 151.33185ZM23.133183 148.51987Q23.133183 148.93956,23.447956 149.27531Q23.76273 149.61108,24.308338 149.61108Q25.777279 149.61108,27.95971 148.39395Q29.42865 147.55457,30.62479 146.5263Q31.820929 145.49805,32.534416 144.46979Q33.247902 143.44153,33.247902 142.72803Q33.247902 142.26637,33.017067 141.9516Q32.786232 141.63683,32.198658 141.63683Q31.40123 141.63683,30.268047 142.14046Q29.134863 142.64409,27.896753 143.44153Q26.658646 144.23895,25.56743 145.18327Q24.476217 146.1276,23.8047 147.00896Q23.133183 147.89032,23.133183 148.51987Z" fill="#000"/>
<line stroke="#000" stroke-width="2" x1="33.42857142857143" x2="33.42857142857143" y1="110" y2="144.5"/>
<path d="M224.53833 157.33185Q222.52377 157.33185,221.2437 156.38753Q219.96362 155.4432,219.96362 153.51259Q219.96362 151.37213,221.15976 149.67236Q222.3559 147.97258,224.2865 146.98628Q226.21712 146,228.39954 146Q230.24622 146,231.33743 146.98628Q232.42865 147.97258,232.42865 149.77728Q232.42865 151.8338,231.33743 153.55457Q230.24622 155.27531,228.4625 156.30359Q226.67879 157.33185,224.53833 157.33185Z" fill="#000"/>
<line stroke="#000" stroke-width="2" x1="231.39219733646937" x2="231.39219733646937" y1="116" y2="150.5"/>
<path d="M610.5383 151.33185Q608.52374 151.33185,607.24365 150.38753Q605.9636 149.4432,605.9636 147.51259Q605.9636 145.37213,607.1597 143.67236Q608.3559 141.97258,610.2865 140.98628Q612.2171 140,614.39954 140Q616.2462 140,617.3374 140.98628Q618.42865 141.97258,618.42865 143.77728Q618.42865 145.8338,617.3374 147.55457Q616.2462 149.27531,614.46246 150.30359Q612.6788 151.33185,610.5383 151.33185Z" fill="#000"/>
<line stroke="#000" stroke-width="2" x1="617.3921973364694" x2="617.3921973364694" y1="110" y2="144.5"/>
<line stroke="#000" stroke-width="2" x1="12" x2="993.8908777236938" y1="110" y2="110"/>
<line stroke="#000" stroke-width="2" x1="12" x2="993.8908777236938" y1="122" y2="122"/>
<line stroke="#000" stroke-width="2" x1="12" x2="993.8908777236938" y1="134" y2="134"/>
<line stroke="#000" stroke-width="2" x1="12" x2="993.8908777236938" y1="146" y2="146"/>
<line stroke="#000" stroke-width="2" x1="12" x2="993.8908777236938" y1="158" y2="158"/>
<line stroke="#000" stroke-width="2" x1="12" x2="12" y1="109" y2="159"/>
<line stroke="#000" stroke-width="2" x1="994.8908777236938" x2="994.8908777236938" y1="109" y2="159"/>
</svg>
