<svg height="200" width="500" xmlns="http://www.w3.org/2000/svg">
<rect fill="#fff" height="200" width="500" x="0" y="0"/>
<path d="M40.364017 31.895914Q39.893955 30.116394,39.591774 28.370451Q39.289593 26.624508,39.289593 24.811413Q39.289593 23.233349,39.507835 21.839954Q39.726078 20.446556,40.128986 19.271404Q40.565475 17.928371,41.270565 16.736427Q41.97566 15.544487,42.76469 14.7722435Q43.553722 14,44.15809 14Q44.963905 14,46.374092 16.853943Q47.079185 18.297703,47.41494 19.976494Q47.7507 21.655289,47.7507 23.569107Q47.7507 25.952991,47.11276 28.320087Q46.47482 30.687183,45.249302 32.768883Q44.02378 34.850586,42.311417 36.42865L43.486572 42.06939Q43.990208 42.002235,44.325966 41.96866Q44.661724 41.935085,44.829605 41.935085Q46.877728 41.935085,48.48937 43.093452Q50.101006 44.251816,51.05792 46.132065Q52.01483 48.01231,52.01483 50.26189Q52.01483 52.84723,50.688583 54.91214Q49.36234 56.977055,46.709846 57.950752Q46.877728 58.52154,47.683548 62.71852Q47.885002 63.725796,47.985733 64.31337Q48.086456 64.90095,48.120033 65.33743Q48.15361 65.77392,48.15361 66.34471Q48.15361 68.0235,47.331 69.34975Q46.508392 70.675995,45.114998 71.41466Q43.7216 72.15333,42.00923 72.15333Q40.26329 72.15333,38.920258 71.4986Q37.577225 70.84387,36.80498 69.6855Q36.032738 68.52714,36.032738 67.01623Q36.032738 65.40459,36.922497 64.33016Q37.812256 63.255733,39.45747 63.255733Q40.867657 63.255733,41.757416 64.2798Q42.647175 65.30386,42.647175 66.71404Q42.647175 67.922775,41.807777 68.82932Q40.968384 69.73587,39.62535 69.73587L39.289593 69.73587Q40.162563 71.04533,42.04281 71.04533Q44.359543 71.04533,45.669 69.53442Q46.978455 68.0235,46.978455 65.673195Q46.978455 65.1024,46.844154 64.14549Q46.709846 63.188583,46.374092 61.84555Q46.03833 60.502518,45.85367 59.629547Q45.669 58.756573,45.601845 58.38724Q44.46027 58.723,42.91578 58.723Q40.02826 58.723,37.275043 57.04421Q34.588978 55.365417,33.044487 52.612198Q31.5 49.85898,31.5 46.669277Q31.5 43.647453,32.87661 40.994965Q34.25322 38.342472,36.284554 36.126465Q38.315895 33.91046,40.364017 31.895914ZM41.270565 31.056519Q42.04281 30.653608,42.91578 29.562393Q43.788754 28.47118,44.594574 27.060995Q45.40039 25.65081,45.90403 24.223839Q46.40767 22.796864,46.40767 21.655289Q46.40767 20.446556,46.03833 19.741467Q45.669 19.036373,44.76245 19.036373Q43.95663 19.036373,43.201176 19.77504Q42.44572 20.51371,41.858143 21.739227Q41.270565 22.964745,40.934807 24.475655Q40.59905 25.986568,40.59905 27.564632Q40.59905 28.63906,40.81729 29.51203Q41.035534 30.385002,41.270565 31.056519ZM43.184387 46.06491Q42.27784 46.266365,41.47202 46.921097Q40.6662 47.575825,40.17935 48.49916Q39.6925 49.422493,39.6925 50.463345Q39.6925 51.302742,40.128986 52.1925Q40.565475 53.08226,41.203415 53.619473Q41.6399 54.02238,42.076385 54.22384Q42.580025 54.45887,42.580025 54.660324Q42.580025 54.76105,42.244263 54.86178Q40.968384 54.559597,39.94432 53.7202Q38.920258 52.880806,38.33268 51.68886Q37.745102 50.49692,37.745102 49.15389Q37.745102 47.71013,38.33268 46.367096Q38.920258 45.024063,39.977898 43.949635Q41.035534 42.87521,42.378567 42.337997L41.40487 37.268044Q37.510075 40.42417,35.68019 43.462784Q33.850307 46.501396,33.850307 49.489647Q33.850307 51.672073,34.991886 53.552322Q36.133465 55.432568,38.114437 56.590935Q40.095413 57.7493,42.580025 57.7493Q43.25154 57.7493,43.939842 57.614994Q44.628147 57.480694,45.40039 57.279236L43.184387 46.06491ZM46.441242 56.943478Q49.731674 55.533295,49.731674 51.168438Q49.731674 49.724678,48.993004 48.532734Q48.254337 47.340794,47.01203 46.6357Q45.769726 45.93061,44.22524 45.93061L46.441242 56.943478Z" fill="#000"/>
<path d="M64.11892 37.727474L64.11892 31.325684L62.01483 31.862898L62.01483 27.38612L64.11892 26.80414L64.11892 18.029657L65.506714 18.029657L65.506714 26.446L68.50616 25.729713L68.50616 17L69.89396 17L69.89396 25.37157L72.08758 24.879128L72.08758 29.311134L69.89396 29.937885L69.89396 36.339676L72.08758 35.80246L72.08758 40.41354L69.89396 40.950756L69.89396 49.367096L68.50616 49.367096L68.50616 41.308895L65.506714 42.114716L65.506714 50.84443L64.11892 50.84443L64.11892 42.428093L62.01483 42.965305L62.01483 38.354225L64.11892 37.727474ZM68.50616 36.65305L68.50616 30.20649L65.506714 30.967543L65.506714 37.36933L68.50616 36.65305Z" fill="#000"/>
<path d="M75.191666 55.727474L75.191666 49.325684L73.08758 49.8629L73.08758 45.38612L75.191666 44.80414L75.191666 36.029655L76.57947 36.029655L76.57947 44.446L79.5789 43.729713L79.5789 35L80.966705 35L80.966705 43.37157L83.160324 42.879128L83.160324 47.311134L80.966705 47.937885L80.966705 54.339676L83.160324 53.80246L83.160324 58.41354L80.966705 58.950756L80.966705 67.367096L79.5789 67.367096L79.5789 59.308895L76.57947 60.114716L76.57947 68.84443L75.191666 68.84443L75.191666 60.428093L73.08758 60.965305L73.08758 56.354225L75.191666 55.727474ZM79.5789 54.65305L79.5789 48.20649L76.57947 48.967545L76.57947 55.36933L79.5789 54.65305Z" fill="#000"/>
<path d="M86.26441 31.727476L86.26441 25.325684L84.160324 25.862898L84.160324 21.38612L86.26441 20.80414L86.26441 12.029657L87.65221 12.029657L87.65221 20.446L90.65165 19.729713L90.65165 11L92.03945 11L92.03945 19.37157L94.23307 18.879128L94.23307 23.311134L92.03945 23.937885L92.03945 30.339674L94.23307 29.802462L94.23307 34.41354L92.03945 34.950756L92.03945 43.367096L90.65165 43.367096L90.65165 35.308895L87.65221 36.114716L87.65221 44.84443L86.26441 44.84443L86.26441 36.428093L84.160324 36.965305L84.160324 32.354225L86.26441 31.727476ZM90.65165 30.65305L90.65165 24.20649L87.65221 24.967543L87.65221 31.369333L90.65165 30.65305Z" fill="#000"/>
<path d="M97.337166 49.727474L97.337166 43.325684L95.23308 43.8629L95.23308 39.38612L97.337166 38.80414L97.337166 30.029657L98.72496 30.029657L98.72496 38.446L101.7244 37.729713L101.7244 29L103.112206 29L103.112206 37.37157L105.305824 36.879128L105.305824 41.311134L103.112206 41.937885L103.112206 48.339676L105.305824 47.80246L105.305824 52.41354L103.112206 52.950756L103.112206 61.367096L101.7244 61.367096L101.7244 53.308895L98.72496 54.114716L98.72496 62.84443L97.337166 62.84443L97.337166 54.428093L95.23308 54.965305L95.23308 50.354225L97.337166 49.727474ZM101.7244 48.65305L101.7244 42.20649L98.72496 42.967545L98.72496 49.36933L101.7244 48.65305Z" fill="#000"/>
<path d="M141.63052 37.33184Q139.61597 37.33184,138.33589 36.38752Q137.05582 35.4432,137.05582 33.512592Q137.05582 31.372131,138.25195 29.672356Q139.44809 27.97258,141.3787 26.98629Q143.30931 26,145.49173 26Q147.33841 26,148.42963 26.98629Q149.52084 27.97258,149.52084 29.777279Q149.52084 31.8338,148.42963 33.55456Q147.33841 35.275322,145.55469 36.30358Q143.77098 37.33184,141.63052 37.33184ZM138.189 34.519867Q138.189 34.939564,138.50377 35.275322Q138.81854 35.61108,139.36415 35.61108Q140.83308 35.61108,143.01552 34.393955Q144.48447 33.55456,145.6806 32.526302Q146.87674 31.498041,147.59023 30.469782Q148.30371 29.44152,148.30371 28.728035Q148.30371 28.266369,148.07288 27.951595Q147.84204 27.636822,147.25447 27.636822Q146.45705 27.636822,145.32385 28.140457Q144.19067 28.644096,142.95256 29.44152Q141.71446 30.238947,140.62325 31.183268Q139.53203 32.127586,138.8605 33.008953Q138.189 33.89032,138.189 34.519867Z" fill="#000"/>
<path d="M130.88054 31.33184Q128.86598 31.33184,127.58591 30.387522Q126.305824 29.443201,126.305824 27.51259Q126.305824 25.372131,127.50196 23.672356Q128.6981 21.97258,130.62871 20.98629Q132.55933 20,134.74174 20Q136.58842 20,137.67964 20.98629Q138.77084 21.97258,138.77084 23.777279Q138.77084 25.8338,137.67964 27.55456Q136.58842 29.275322,134.8047 30.303581Q133.021 31.33184,130.88054 31.33184ZM127.43901 28.519865Q127.43901 28.939564,127.753784 29.275322Q128.06856 29.61108,128.61417 29.61108Q130.0831 29.61108,132.26553 28.393955Q133.73448 27.55456,134.93062 26.5263Q136.12675 25.498041,136.84024 24.469782Q137.55373 23.44152,137.55373 22.728035Q137.55373 22.266369,137.32289 21.951595Q137.09206 21.636822,136.50449 21.636822Q135.70706 21.636822,134.57387 22.140457Q133.44069 22.644096,132.20258 23.44152Q130.96448 24.238947,129.87326 25.183268Q128.78204 26.127588,128.11052 27.008953Q127.43901 27.890318,127.43901 28.519865Z" fill="#000"/>
<path d="M141.63052 25.33184Q139.61597 25.33184,138.33589 24.387522Q137.05582 23.443201,137.05582 21.51259Q137.05582 19.372131,138.25195 17.672356Q139.44809 15.972579,141.3787 14.986289Q143.30931 13.999999,145.49173 13.999999Q147.33841 13.999999,148.42963 14.986289Q149.52084 15.972579,149.52084 17.777279Q149.52084 19.8338,148.42963 21.55456Q147.33841 23.275322,145.55469 24.303581Q143.77098 25.33184,141.63052 25.33184ZM138.189 22.519865Q138.189 22.939564,138.50377 23.275322Q138.81854 23.61108,139.36415 23.61108Q140.83308 23.61108,143.01552 22.393955Q144.48447 21.55456,145.6806 20.5263Q146.87674 19.498041,147.59023 18.469782Q148.30371 17.44152,148.30371 16.728035Q148.30371 16.266369,148.07288 15.951594Q147.84204 15.636821,147.25447 15.636821Q146.45705 15.636821,145.32385 16.140457Q144.19067 16.644096,142.95256 17.44152Q141.71446 18.238947,140.62325 19.183268Q139.53203 20.127588,138.8605 21.008953Q138.189 21.890318,138.189 22.519865Z" fill="#000"/>
<line stroke="#000" stroke-width="1.5" x1="137.80582237243652" x2="137.80582237243652" y1="-16" y2="30.5"/>
<path d="M289.78714 44.005596L291.17493 44.005596L291.17493 61.465027Q292.83133 59.808617,294.93542 59.808617Q296.36798 59.808617,297.53195 60.771126Q298.69592 61.73363,298.69592 63.56911Q298.69592 65.00168,297.84534 66.21041Q296.99475 67.419136,295.56216 68.62787L292.4732 71.269165Q291.6226 71.98545,290.95108 72.67935Q290.27957 73.37325,289.78714 74L289.78714 44.005596ZM291.17493 71.00056Q292.3389 69.74706,293.1447 68.69502Q293.95053 67.642975,294.3982 66.83716Q294.89066 65.98657,295.13687 65.27029Q295.3831 64.554,295.3831 63.927254Q295.3831 62.673756,294.80112 62.11416Q294.21915 61.55456,293.5476 61.55456Q292.83133 61.55456,292.13742 62.06939Q291.44354 62.58422,291.17493 63.479576L291.17493 71.00056Z" fill="#000"/>
<path d="M313.27063 85.33184Q311.2561 85.33184,309.976 84.38752Q308.69592 83.4432,308.69592 81.51259Q308.69592 79.37213,309.89206 77.672356Q311.0882 75.97258,313.01883 74.98629Q314.94943 74,317.13187 74Q318.97852 74,320.06973 74.98629Q321.16095 75.97258,321.16095 77.77728Q321.16095 79.8338,320.06973 81.55456Q318.97852 83.27532,317.19482 84.30358Q315.4111 85.33184,313.27063 85.33184Z" fill="#000"/>
<path d="M313.27063 73.33184Q311.2561 73.33184,309.976 72.38752Q308.69592 71.4432,308.69592 69.51259Q308.69592 67.37213,309.89206 65.672356Q311.0882 63.97258,313.01883 62.98629Q314.94943 62,317.13187 62Q318.97852 62,320.06973 62.98629Q321.16095 63.97258,321.16095 65.77728Q321.16095 67.8338,320.06973 69.55456Q318.97852 71.27532,317.19482 72.30358Q315.4111 73.33184,313.27063 73.33184Z" fill="#000"/>
<path d="M313.27063 61.33184Q311.2561 61.33184,309.976 60.38752Q308.69592 59.4432,308.69592 57.512592Q308.69592 55.37213,309.89206 53.672356Q311.0882 51.97258,313.01883 50.98629Q314.94943 50,317.13187 50Q318.97852 50,320.06973 50.98629Q321.16095 51.97258,321.16095 53.77728Q321.16095 55.8338,320.06973 57.55456Q318.97852 59.275322,317.19482 60.30358Q315.4111 61.33184,313.27063 61.33184Z" fill="#000"/>
<line stroke="#000" stroke-width="1.5" x1="303.6959300041199" x2="325.1959300041199" y1="68" y2="68"/>
<line stroke="#000" stroke-width="1.5" x1="303.6959300041199" x2="325.1959300041199" y1="80" y2="80"/>
<line stroke="#000" stroke-width="1.5" x1="320.1959300041199" x2="320.1959300041199" y1="20" y2="78.5"/>
<path d="M390.66565 23.805262L390.66565 17.40347L388.56158 17.940683L388.56158 13.463906L390.66565 12.881926L390.66565 4.107443L392.05347 4.107443L392.05347 12.523784L395.0529 11.807499L395.0529 3.0777855L396.4407 3.0777855L396.4407 11.449357L398.6343 10.956912L398.6343 15.388921L396.4407 16.01567L396.4407 22.41746L398.6343 21.880247L398.6343 26.491327L396.4407 27.02854L396.4407 35.44488L395.0529 35.44488L395.0529 27.386683L392.05347 28.192501L392.05347 36.92222L390.66565 36.92222L390.66565 28.505877L388.56158 29.043089L388.56158 24.43201L390.66565 23.805262ZM395.0529 22.730835L395.0529 16.284275L392.05347 17.045328L392.05347 23.447119L395.0529 22.730835Z" fill="#000"/>
<path d="M408.20905 73.33184Q406.19452 73.33184,404.91443 72.38752Q403.63434 71.4432,403.63434 69.51259Q403.63434 67.37213,404.83047 65.672356Q406.0266 63.97258,407.95724 62.98629Q409.88785 62,412.07028 62Q413.91693 62,415.00815 62.98629Q416.09937 63.97258,416.09937 65.77728Q416.09937 67.8338,415.00815 69.55456Q413.91693 71.27532,412.13324 72.30358Q410.34952 73.33184,408.20905 73.33184Z" fill="#000"/>
<path d="M408.20905 61.33184Q406.19452 61.33184,404.91443 60.38752Q403.63434 59.4432,403.63434 57.512592Q403.63434 55.37213,404.83047 53.672356Q406.0266 51.97258,407.95724 50.98629Q409.88785 50,412.07028 50Q413.91693 50,415.00815 50.98629Q416.09937 51.97258,416.09937 53.77728Q416.09937 55.8338,415.00815 57.55456Q413.91693 59.275322,412.13324 60.30358Q410.34952 61.33184,408.20905 61.33184Z" fill="#000"/>
<path d="M408.20905 25.33184Q406.19452 25.33184,404.91443 24.387522Q403.63434 23.443201,403.63434 21.51259Q403.63434 19.372131,404.83047 17.672356Q406.0266 15.972579,407.95724 14.986289Q409.88785 13.999999,412.07028 13.999999Q413.91693 13.999999,415.00815 14.986289Q416.09937 15.972579,416.09937 17.777279Q416.09937 19.8338,415.00815 21.55456Q413.91693 23.275322,412.13324 24.303581Q410.34952 25.33184,408.20905 25.33184Z" fill="#000"/>
<line stroke="#000" stroke-width="1.5" x1="415.134339094162" x2="415.134339094162" y1="-16" y2="66.5"/>
<line stroke="#000" stroke-width="1.5" x1="21.5" x2="490" y1="20" y2="20"/>
<line stroke="#000" stroke-width="1.5" x1="21.5" x2="490" y1="32" y2="32"/>
<line stroke="#000" stroke-width="1.5" x1="21.5" x2="490" y1="44" y2="44"/>
<line stroke="#000" stroke-width="1.5" x1="21.5" x2="490" y1="56" y2="56"/>
<line stroke="#000" stroke-width="1.5" x1="21.5" x2="490" y1="68" y2="68"/>
<line stroke="#000" stroke-width="1.5" x1="21.5" x2="21.5" y1="19.25" y2="68.75"/>
<line stroke="#000" stroke-width="1.5" x1="490.75" x2="490.75" y1="19.25" y2="68.75"/>
<path d="M31.5 99L32.887802 99L32.887802 116.459435Q34.54421 114.803024,36.648293 114.803024Q38.080864 114.803024,39.244823 115.76553Q40.408787 116.72804,40.408787 118.563515Q40.408787 119.996086,39.558197 121.20482Q38.70761 122.41354,37.275043 123.62228L34.186066 126.26357Q33.33548 126.97986,32.663963 127.67376Q31.992445 128.36766,31.5 128.99442L31.5 99ZM32.887802 125.994965Q34.05176 124.74147,34.857582 123.68943Q35.663403 122.63738,36.11108 121.831566Q36.603527 120.98098,36.849747 120.264694Q37.09597 119.54841,37.09597 118.92166Q37.09597 117.66817,36.513992 117.10857Q35.93201 116.548965,35.260494 116.548965Q34.54421 116.548965,33.850307 117.0638Q33.156406 117.57863,32.887802 118.47398L32.887802 125.994965Z" fill="#000"/>
<path d="M41.408787 123L42.79659 123L42.79659 140.45943Q44.452995 138.80302,46.55708 138.80302Q47.989647 138.80302,49.15361 139.76553Q50.317574 140.72804,50.317574 142.56352Q50.317574 143.9961,49.466984 145.20482Q48.616398 146.41354,47.18383 147.62227L44.094852 150.26358Q43.244267 150.97986,42.57275 151.67375Q41.901234 152.36766,41.408787 152.99442L41.408787 123ZM42.79659 149.99496Q43.96055 148.74147,44.76637 147.68942Q45.57219 146.63739,46.019867 145.83156Q46.512314 144.98097,46.758537 144.2647Q47.004757 143.54842,47.004757 142.92166Q47.004757 141.66817,46.422775 141.10857Q45.840797 140.54897,45.16928 140.54897Q44.452995 140.54897,43.759094 141.0638Q43.065193 141.57863,42.79659 142.47398L42.79659 149.99496Z" fill="#000"/>
<path d="M51.317574 105L52.705376 105L52.705376 122.459435Q54.361782 120.803024,56.465866 120.803024Q57.898438 120.803024,59.062397 121.76553Q60.22636 122.72804,60.22636 124.563515Q60.22636 125.996086,59.37577 127.20482Q58.525185 128.41354,57.092617 129.62227L54.00364 132.26358Q53.153053 132.97986,52.481537 133.67375Q51.81002 134.36766,51.317574 134.99442L51.317574 105ZM52.705376 131.99496Q53.869335 130.74147,54.675156 129.68942Q55.480976 128.63739,55.928654 127.831566Q56.4211 126.98098,56.66732 126.264694Q56.913544 125.54841,56.913544 124.92166Q56.913544 123.66817,56.331566 123.10857Q55.749584 122.548965,55.078068 122.548965Q54.361782 122.548965,53.66788 123.0638Q52.97398 123.57863,52.705376 124.47398L52.705376 131.99496Z" fill="#000"/>
<path d="M61.226357 129L62.61416 129L62.61416 146.45943Q64.27057 144.80302,66.37465 144.80302Q67.80722 144.80302,68.97118 145.76553Q70.13514 146.72804,70.13514 148.56352Q70.13514 149.9961,69.28455 151.20482Q68.43397 152.41354,67.001396 153.62227L63.912422 156.26358Q63.061836 156.97986,62.39032 157.67375Q61.718803 158.36766,61.226357 158.99442L61.226357 129ZM62.61416 155.99496Q63.77812 154.74147,64.58394 153.68942Q65.389755 152.63739,65.83743 151.83156Q66.32988 150.98097,66.5761 150.2647Q66.82233 149.54842,66.82233 148.92166Q66.82233 147.66817,66.24035 147.10857Q65.65836 146.54897,64.98685 146.54897Q64.27057 146.54897,63.576664 147.0638Q62.882763 147.57863,62.61416 148.47398L62.61416 155.99496Z" fill="#000"/>
<path d="M71.13515 111L72.52295 111L72.52295 128.45943Q74.17935 126.803024,76.28344 126.803024Q77.71601 126.803024,78.879974 127.76553Q80.04393 128.72804,80.04393 130.56352Q80.04393 131.9961,79.193344 133.20482Q78.34276 134.41354,76.91019 135.62227L73.82121 138.26358Q72.97063 138.97986,72.29911 139.67375Q71.627594 140.36766,71.13515 140.99442L71.13515 111ZM72.52295 137.99496Q73.68691 136.74147,74.49273 135.68942Q75.29855 134.63739,75.74623 133.83156Q76.23867 132.98097,76.48489 132.2647Q76.73112 131.54842,76.73112 130.92166Q76.73112 129.66817,76.14914 129.10857Q75.567154 128.54897,74.89564 128.54897Q74.17935 128.54897,73.48546 129.0638Q72.79156 129.57863,72.52295 130.47398L72.52295 137.99496Z" fill="#000"/>
<path d="M105.61864 125.33184Q103.60409 125.33184,102.32401 124.38752Q101.04393 123.4432,101.04393 121.51259Q101.04393 119.37213,102.24007 117.672356Q103.43621 115.97258,105.36682 114.98629Q107.29743 114,109.47986 114Q111.32653 114,112.41774 114.98629Q113.50896 115.97258,113.50896 117.77728Q113.50896 119.8338,112.41774 121.55456Q111.32653 123.27532,109.542816 124.30358Q107.759094 125.33184,105.61864 125.33184Z" fill="#000"/>
<line stroke="#000" stroke-width="1.5" x1="112.54392910003662" x2="112.54392910003662" y1="84" y2="118.5"/>
<path d="M152.0842 137.33185Q150.06964 137.33185,148.78957 136.38753Q147.50949 135.4432,147.50949 133.51259Q147.50949 131.37213,148.70563 129.67236Q149.90176 127.97258,151.83237 126.98629Q153.76299 126,155.9454 126Q157.79208 126,158.8833 126.98629Q159.97452 127.97258,159.97452 129.77728Q159.97452 131.8338,158.8833 133.55457Q157.79208 135.27531,156.00836 136.30359Q154.22466 137.33185,152.0842 137.33185ZM148.64267 134.51987Q148.64267 134.93956,148.95744 135.27531Q149.27222 135.61108,149.81783 135.61108Q151.28676 135.61108,153.4692 134.39395Q154.93814 133.55457,156.13428 132.5263Q157.33041 131.49805,158.0439 130.46979Q158.75739 129.44153,158.75739 128.72803Q158.75739 128.26637,158.52655 127.95159Q158.29572 127.63682,157.70815 127.63682Q156.91072 127.63682,155.77753 128.14046Q154.64435 128.64409,153.40623 129.44153Q152.16814 130.23895,151.07692 131.18327Q149.9857 132.1276,149.31418 133.00896Q148.64267 133.89032,148.64267 134.51987Z" fill="#000"/>
<line stroke="#000" stroke-width="1.5" x1="159.00949621200562" x2="159.00949621200562" y1="96" y2="130.5"/>
<path d="M235.76534 161.33185Q233.75078 161.33185,232.4707 160.38753Q231.19063 159.4432,231.19063 157.51259Q231.19063 155.37213,232.38676 153.67236Q233.5829 151.97258,235.5135 150.98628Q237.44412 150,239.62654 150Q241.47322 150,242.56444 150.98628Q243.65564 151.97258,243.65564 153.77728Q243.65564 155.8338,242.56444 157.55457Q241.47322 159.27531,239.6895 160.30359Q237.90579 161.33185,235.76534 161.33185Z" fill="#000"/>
<path d="M225.01534 155.33185Q223.00078 155.33185,221.7207 154.38753Q220.44063 153.4432,220.44063 151.51259Q220.44063 149.37213,221.63676 147.67236Q222.8329 145.97258,224.7635 144.98628Q226.69412 144,228.87654 144Q230.72322 144,231.81444 144.98628Q232.90564 145.97258,232.90564 147.77728Q232.90564 149.8338,231.81444 151.55457Q230.72322 153.27531,228.9395 154.30359Q227.15579 155.33185,225.01534 155.33185Z" fill="#000"/>
<path d="M235.76534 149.33185Q233.75078 149.33185,232.4707 148.38753Q231.19063 147.4432,231.19063 145.51259Q231.19063 143.37213,232.38676 141.67236Q233.5829 139.97258,235.5135 138.98628Q237.44412 138,239.62654 138Q241.47322 138,242.56444 138.98628Q243.65564 139.97258,243.65564 141.77728Q243.65564 143.8338,242.56444 145.55457Q241.47322 147.27531,239.6895 148.30359Q237.90579 149.33185,235.76534 149.33185Z" fill="#000"/>
<line stroke="#000" stroke-width="1.5" x1="231.9406304359436" x2="231.9406304359436" y1="108" y2="154.5"/>
<line stroke="#000" stroke-width="1.5" x1="21.5" x2="302.1561975479126" y1="120" y2="120"/>
<line stroke="#000" stroke-width="1.5" x1="21.5" x2="302.1561975479126" y1="132" y2="132"/>
<line stroke="#000" stroke-width="1.5" x1="21.5" x2="302.1561975479126" y1="144" y2="144"/>
<line stroke="#000" stroke-width="1.5" x1="21.5" x2="302.1561975479126" y1="156" y2="156"/>
<line stroke="#000" stroke-width="1.5" x1="21.5" x2="302.1561975479126" y1="168" y2="168"/>
<line stroke="#000" stroke-width="1.5" x1="21.5" x2="21.5" y1="119.25" y2="168.75"/>
<line stroke="#000" stroke-width="1.5" x1="302.9061975479126" x2="302.9061975479126" y1="119.25" y2="168.75"/>
<path d="M305.76025 153.80527L305.76025 147.40347L303.6562 147.94069L303.6562 143.46391L305.76025 142.88193L305.76025 134.10744L307.14807 134.10744L307.14807 142.52379L310.1475 141.8075L310.1475 133.07779L311.5353 133.07779L311.5353 141.44936L313.7289 140.95691L313.7289 145.38892L311.5353 146.01567L311.5353 152.41747L313.7289 151.88025L313.7289 156.49133L311.5353 157.02853L311.5353 165.44489L310.1475 165.44489L310.1475 157.38669L307.14807 158.1925L307.14807 166.92221L305.76025 166.92221L305.76025 158.50587L303.6562 159.04309L303.6562 154.432L305.76025 153.80527ZM310.1475 152.73083L310.1475 146.28427L307.14807 147.04533L307.14807 153.44711L310.1475 152.73083Z" fill="#000"/>
<path d="M321.637 155.33185Q319.62247 155.33185,318.34238 154.38753Q317.0623 153.4432,317.0623 151.51259Q317.0623 149.37213,318.25842 147.67236Q319.45456 145.97258,321.3852 144.98628Q323.3158 144,325.49823 144Q327.34488 144,328.4361 144.98628Q329.5273 145.97258,329.5273 147.77728Q329.5273 149.8338,328.4361 151.55457Q327.34488 153.27531,325.5612 154.30359Q323.77747 155.33185,321.637 155.33185ZM318.19547 152.51987Q318.19547 152.93956,318.51025 153.27531Q318.825 153.61108,319.37064 153.61108Q320.83957 153.61108,323.022 152.39395Q324.49094 151.55457,325.68707 150.5263Q326.88324 149.49805,327.5967 148.46979Q328.3102 147.44153,328.3102 146.72803Q328.3102 146.26637,328.07938 145.9516Q327.84854 145.63683,327.26096 145.63683Q326.46353 145.63683,325.33035 146.14046Q324.19714 146.64409,322.95905 147.44153Q321.72095 148.23895,320.62973 149.18327Q319.5385 150.1276,318.867 151.00896Q318.19547 151.89032,318.19547 152.51987Z" fill="#000"/>
<line stroke="#000" stroke-width="1.5" x1="328.56227906545" x2="328.56227906545" y1="114" y2="148.5"/>
<path d="M386.6601 120.0056L388.04788 120.0056L388.04788 137.46503Q389.70428 135.80862,391.80838 135.80862Q393.24094 135.80862,394.4049 136.77113Q395.56888 137.73364,395.56888 139.56912Q395.56888 141.0017,394.7183 142.21042Q393.86768 143.41914,392.43512 144.62787L389.34616 147.26918Q388.49554 147.98546,387.82404 148.67935Q387.15253 149.37326,386.6601 150.00002L386.6601 120.0056ZM388.04788 147.00056Q389.21185 145.74707,390.01767 144.69502Q390.8235 143.64299,391.27115 142.83716Q391.7636 141.98657,392.00983 141.2703Q392.25604 140.55402,392.25604 139.92726Q392.25604 138.67377,391.67407 138.11417Q391.0921 137.55457,390.42056 137.55457Q389.70428 137.55457,389.01038 138.0694Q388.3165 138.58423,388.04788 139.47958L388.04788 147.00056Z" fill="#000"/>
<path d="M403.4769 149.33185Q401.46237 149.33185,400.18228 148.38753Q398.9022 147.4432,398.9022 145.51259Q398.9022 143.37213,400.09833 141.67236Q401.29446 139.97258,403.2251 138.98628Q405.1557 138,407.33813 138Q409.18478 138,410.276 138.98628Q411.36722 139.97258,411.36722 141.77728Q411.36722 143.8338,410.276 145.55457Q409.18478 147.27531,407.4011 148.30359Q405.61737 149.33185,403.4769 149.33185ZM400.03537 146.51987Q400.03537 146.93956,400.35016 147.27531Q400.66492 147.61108,401.21054 147.61108Q402.67947 147.61108,404.8619 146.39395Q406.33084 145.55457,407.52698 144.5263Q408.72314 143.49805,409.4366 142.46979Q410.15012 141.44153,410.15012 140.72803Q410.15012 140.26637,409.91928 139.9516Q409.68845 139.63683,409.10086 139.63683Q408.30344 139.63683,407.17026 140.14046Q406.03705 140.64409,404.79895 141.44153Q403.56085 142.23895,402.46964 143.18327Q401.37842 144.1276,400.7069 145.00896Q400.03537 145.89032,400.03537 146.51987Z" fill="#000"/>
<line stroke="#000" stroke-width="1.5" x1="410.4021991093953" x2="410.4021991093953" y1="108" y2="142.5"/>
<line stroke="#000" stroke-width="1.5" x1="293.6561975479126" x2="480" y1="120" y2="120"/>
<line stroke="#000" stroke-width="1.5" x1="293.6561975479126" x2="480" y1="132" y2="132"/>
<line stroke="#000" stroke-width="1.5" x1="293.6561975479126" x2="480" y1="144" y2="144"/>
<line stroke="#000" stroke-width="1.5" x1="293.6561975479126" x2="480" y1="156" y2="156"/>
<line stroke="#000" stroke-width="1.5" x1="293.6561975479126" x2="480" y1="168" y2="168"/>
<line stroke="#000" stroke-width="1.5" x1="480.75" x2="480.75" y1="119.25" y2="168.75"/>
</svg>
