<svg height="500" width="350" xmlns="http://www.w3.org/2000/svg">
<rect fill="#fff" height="500" width="350" x="0" y="0"/>
<path d="M38.574707 33.33184Q36.560158 33.33184,35.28008 32.38752Q34 31.443201,34 29.51259Q34 27.372131,35.196136 25.672356Q36.392277 23.97258,38.322887 22.98629Q40.253498 22,42.435925 22Q44.282597 22,45.37381 22.98629Q46.465027 23.97258,46.465027 25.777279Q46.465027 27.8338,45.37381 29.55456Q44.282597 31.275322,42.49888 32.30358Q40.715164 33.33184,38.574707 33.33184Z" fill="#000"/>
<path d="M38.574707 51.33184Q36.560158 51.33184,35.28008 50.38752Q34 49.4432,34 47.512592Q34 45.37213,35.196136 43.672356Q36.392277 41.97258,38.322887 40.98629Q40.253498 40,42.435925 40Q44.282597 40,45.37381 40.98629Q46.465027 41.97258,46.465027 43.77728Q46.465027 45.8338,45.37381 47.55456Q44.282597 49.275322,42.49888 50.30358Q40.715164 51.33184,38.574707 51.33184Z" fill="#000"/>
<line stroke="#000" stroke-width="2" x1="34.85714285714286" x2="34.85714285714286" y1="29.5" y2="82"/>
<path d="M43.08507 61.80526L43.08507 55.40347L40.980988 55.94068L40.980988 51.463905L43.08507 50.881927L43.08507 42.107445L44.472874 42.107445L44.472874 50.523785L47.472313 49.8075L47.472313 41.077785L48.860115 41.077785L48.860115 49.449356L51.053734 48.956913L51.053734 53.38892L48.860115 54.01567L48.860115 60.41746L51.053734 59.880245L51.053734 64.491325L48.860115 65.02854L48.860115 73.44488L47.472313 73.44488L47.472313 65.38668L44.472874 66.192505L44.472874 74.92222L43.08507 74.92222L43.08507 66.505875L40.980988 67.04309L40.980988 62.43201L43.08507 61.80526ZM47.472313 60.730835L47.472313 54.284275L44.472874 55.045326L44.472874 61.44712L47.472313 60.730835Z" fill="#000"/>
<path d="M71.62844 63.33184Q69.61389 63.33184,68.33382 62.38752Q67.053734 61.4432,67.053734 59.512592Q67.053734 57.37213,68.24987 55.672356Q69.446014 53.97258,71.376625 52.98629Q73.307236 52,75.48966 52Q77.336334 52,78.42754 52.98629Q79.51876 53.97258,79.51876 55.77728Q79.51876 57.8338,78.42754 59.55456Q77.336334 61.275322,75.55261 62.30358Q73.7689 63.33184,71.62844 63.33184ZM68.18692 60.519867Q68.18692 60.939564,68.50169 61.275322Q68.81647 61.61108,69.362076 61.61108Q70.83102 61.61108,73.01344 60.393955Q74.48238 59.55456,75.67853 58.526302Q76.874664 57.49804,77.58815 56.46978Q78.301636 55.44152,78.301636 54.728035Q78.301636 54.26637,78.0708 53.951595Q77.839966 53.63682,77.252396 53.63682Q76.45496 53.63682,75.321785 54.140457Q74.1886 54.644096,72.95049 55.44152Q71.71238 56.23895,70.62117 57.183266Q69.52995 58.127586,68.85844 59.008953Q68.18692 59.89032,68.18692 60.519867Z" fill="#000"/>
<path d="M60.62844 57.33184Q58.61389 57.33184,57.333813 56.38752Q56.053734 55.4432,56.053734 53.512592Q56.053734 51.37213,57.249874 49.672356Q58.446014 47.97258,60.37662 46.98629Q62.30723 46,64.48966 46Q66.336334 46,67.42754 46.98629Q68.51876 47.97258,68.51876 49.77728Q68.51876 51.8338,67.42754 53.55456Q66.336334 55.275322,64.55261 56.30358Q62.7689 57.33184,60.62844 57.33184ZM57.18692 54.519867Q57.18692 54.939564,57.501694 55.275322Q57.816467 55.61108,58.362072 55.61108Q59.831017 55.61108,62.013443 54.393955Q63.482388 53.55456,64.67853 52.526302Q65.874664 51.49804,66.58815 50.46978Q67.301636 49.44152,67.301636 48.728035Q67.301636 48.26637,67.0708 47.951595Q66.839966 47.63682,66.252396 47.63682Q65.45496 47.63682,64.321785 48.140457Q63.1886 48.644096,61.95049 49.44152Q60.71238 50.23895,59.621166 51.183266Q58.529953 52.127586,57.858437 53.008953Q57.18692 53.89032,57.18692 54.519867Z" fill="#000"/>
<path d="M71.62844 51.33184Q69.61389 51.33184,68.33382 50.38752Q67.053734 49.4432,67.053734 47.512592Q67.053734 45.37213,68.24987 43.672356Q69.446014 41.97258,71.376625 40.98629Q73.307236 40,75.48966 40Q77.336334 40,78.42754 40.98629Q79.51876 41.97258,79.51876 43.77728Q79.51876 45.8338,78.42754 47.55456Q77.336334 49.275322,75.55261 50.30358Q73.7689 51.33184,71.62844 51.33184ZM68.18692 48.519867Q68.18692 48.939564,68.50169 49.275322Q68.81647 49.61108,69.362076 49.61108Q70.83102 49.61108,73.01344 48.393955Q74.48238 47.55456,75.67853 46.526302Q76.874664 45.49804,77.58815 44.46978Q78.301636 43.44152,78.301636 42.728035Q78.301636 42.26637,78.0708 41.951595Q77.839966 41.63682,77.252396 41.63682Q76.45496 41.63682,75.321785 42.140457Q74.1886 42.644096,72.95049 43.44152Q71.71238 44.23895,70.62117 45.183266Q69.52995 46.127586,68.85844 47.008953Q68.18692 47.89032,68.18692 48.519867Z" fill="#000"/>
<line stroke="#000" stroke-width="2" x1="67.48230642917679" x2="67.48230642917679" y1="10" y2="56.5"/>
<path d="M98.590416 51.33184Q96.57587 51.33184,95.29579 50.38752Q94.01571 49.4432,94.01571 47.512592Q94.01571 45.37213,95.211845 43.672356Q96.40799 41.97258,98.3386 40.98629Q100.26921 40,102.45164 40Q104.29831 40,105.38952 40.98629Q106.480736 41.97258,106.480736 43.77728Q106.480736 45.8338,105.38952 47.55456Q104.29831 49.275322,102.51459 50.30358Q100.73087 51.33184,98.590416 51.33184Z" fill="#000"/>
<line stroke="#000" stroke-width="2" x1="105.44428006197931" x2="105.44428006197931" y1="10" y2="44.5"/>
<line stroke="#000" stroke-width="2" x1="13" x2="124.99669544980914" y1="10" y2="10"/>
<line stroke="#000" stroke-width="2" x1="13" x2="124.99669544980914" y1="22" y2="22"/>
<line stroke="#000" stroke-width="2" x1="13" x2="124.99669544980914" y1="34" y2="34"/>
<line stroke="#000" stroke-width="2" x1="13" x2="124.99669544980914" y1="46" y2="46"/>
<line stroke="#000" stroke-width="2" x1="13" x2="124.99669544980914" y1="58" y2="58"/>
<line stroke="#000" stroke-width="2" x1="13" x2="13" y1="9" y2="59"/>
<line stroke="#000" stroke-width="2" x1="125.99669544980914" x2="125.99669544980914" y1="9" y2="59"/>
<path d="M151.5714 15.331842Q149.55684 15.331842,148.27676 14.387522Q146.99669 13.443202,146.99669 11.512591Q146.99669 9.372133,148.19283 7.6723566Q149.38896 5.97258,151.31956 4.98629Q153.25018 4,155.4326 4Q157.27928 4,158.3705 4.98629Q159.4617 5.97258,159.4617 7.777281Q159.4617 9.8338,158.3705 11.554562Q157.27928 13.275322,155.49556 14.303582Q153.71185 15.331842,151.5714 15.331842ZM148.12987 12.519867Q148.12987 12.939564,148.44464 13.275322Q148.75941 13.611081,149.30502 13.611081Q150.77396 13.611081,152.95639 12.393957Q154.42534 11.554562,155.62148 10.526302Q156.81761 9.498042,157.5311 8.469782Q158.24458 7.4415226,158.24458 6.728036Q158.24458 6.266369,158.01375 5.9515953Q157.78291 5.6368217,157.19534 5.6368217Q156.39792 5.6368217,155.26472 6.140459Q154.13155 6.6440964,152.89343 7.4415226Q151.65533 8.238949,150.56412 9.183269Q149.4729 10.127588,148.80138 11.008954Q148.12987 11.89032,148.12987 12.519867Z" fill="#000"/>
<line stroke="#000" stroke-width="2" x1="147.85383830695196" x2="147.85383830695196" y1="11.5" y2="46"/>
<path d="M166.99272 18L173.70789 26.184107Q171.6094 28.660324,170.47621 30.465023Q169.34303 32.269722,169.34303 34.116394Q169.34303 35.669277,170.35031 37.369053Q171.35757 39.06883,173.54001 41.670956L172.8685 42.59429Q171.02182 41.419136,169.42697 41.419136Q168.25182 41.419136,167.66425 42.19558Q167.07666 42.97202,167.07666 44.063232Q167.07666 45.406265,167.64325 46.602406Q168.20985 47.798546,169.17516 48.88976L168.62955 49.687183Q165.73363 47.588696,164.34863 45.867935Q162.96362 44.147175,162.96362 42.13262Q162.96362 40.327923,164.0968 39.488525Q165.23 38.64913,166.82484 38.64913Q168.08394 38.64913,170.09848 39.614437L170.09848 39.5305L163.63515 30.926691Q167.87408 27.191381,167.87408 23.959707Q167.87408 21.399551,165.18802 18L166.99272 18Z" fill="#000"/>
<path d="M174.05118 61.80526L174.05118 55.40347L171.9471 55.94068L171.9471 51.463905L174.05118 50.881927L174.05118 42.107445L175.43898 42.107445L175.43898 50.523785L178.43843 49.8075L178.43843 41.077785L179.82623 41.077785L179.82623 49.449356L182.01985 48.956913L182.01985 53.38892L179.82623 54.01567L179.82623 60.41746L182.01985 59.880245L182.01985 64.491325L179.82623 65.02854L179.82623 73.44488L178.43843 73.44488L178.43843 65.38668L175.43898 66.192505L175.43898 74.92222L174.05118 74.92222L174.05118 66.505875L171.9471 67.04309L171.9471 62.43201L174.05118 61.80526ZM178.43843 60.730835L178.43843 54.284275L175.43898 55.045326L175.43898 61.44712L178.43843 60.730835Z" fill="#000"/>
<path d="M196.59454 75.33184Q194.57999 75.33184,193.29991 74.38752Q192.01984 73.4432,192.01984 71.51259Q192.01984 69.37213,193.21597 67.672356Q194.41211 65.97258,196.34271 64.98629Q198.27333 64,200.45575 64Q202.30243 64,203.39365 64.98629Q204.48486 65.97258,204.48486 67.77728Q204.48486 69.8338,203.39365 71.55456Q202.30243 73.27532,200.5187 74.30358Q198.735 75.33184,196.59454 75.33184Z" fill="#000"/>
<path d="M196.59454 63.33184Q194.57999 63.33184,193.29991 62.38752Q192.01984 61.4432,192.01984 59.512592Q192.01984 57.37213,193.21597 55.672356Q194.41211 53.97258,196.34271 52.98629Q198.27333 52,200.45575 52Q202.30243 52,203.39365 52.98629Q204.48486 53.97258,204.48486 55.77728Q204.48486 57.8338,203.39365 59.55456Q202.30243 61.275322,200.5187 62.30358Q198.735 63.33184,196.59454 63.33184Z" fill="#000"/>
<line stroke="#000" stroke-width="2" x1="187.01983932114643" x2="209.01983932114643" y1="58" y2="58"/>
<line stroke="#000" stroke-width="2" x1="187.01983932114643" x2="209.01983932114643" y1="70" y2="70"/>
<line stroke="#000" stroke-width="2" x1="203.44841074971785" x2="203.44841074971785" y1="22" y2="68.5"/>
<line stroke="#000" stroke-width="2" x1="125.99669544980914" x2="223.00330455019085" y1="10" y2="10"/>
<line stroke="#000" stroke-width="2" x1="125.99669544980914" x2="223.00330455019085" y1="22" y2="22"/>
<line stroke="#000" stroke-width="2" x1="125.99669544980914" x2="223.00330455019085" y1="34" y2="34"/>
<line stroke="#000" stroke-width="2" x1="125.99669544980914" x2="223.00330455019085" y1="46" y2="46"/>
<line stroke="#000" stroke-width="2" x1="125.99669544980914" x2="223.00330455019085" y1="58" y2="58"/>
<line stroke="#000" stroke-width="2" x1="125.99669544980914" x2="125.99669544980914" y1="9" y2="59"/>
<line stroke="#000" stroke-width="2" x1="224.00330455019085" x2="224.00330455019085" y1="9" y2="59"/>
<path d="M249.57802 33.33184Q247.56346 33.33184,246.28339 32.38752Q245.00331 31.443201,245.00331 29.51259Q245.00331 27.372131,246.19945 25.672356Q247.39558 23.97258,249.32619 22.98629Q251.2568 22,253.43922 22Q255.2859 22,256.3771 22.98629Q257.46832 23.97258,257.46832 25.777279Q257.46832 27.8338,256.3771 29.55456Q255.2859 31.275322,253.50218 32.30358Q251.71848 33.33184,249.57802 33.33184Z" fill="#000"/>
<path d="M249.57802 51.33184Q247.56346 51.33184,246.28339 50.38752Q245.00331 49.4432,245.00331 47.512592Q245.00331 45.37213,246.19945 43.672356Q247.39558 41.97258,249.32619 40.98629Q251.2568 40,253.43922 40Q255.2859 40,256.3771 40.98629Q257.46832 41.97258,257.46832 43.77728Q257.46832 45.8338,256.3771 47.55456Q255.2859 49.275322,253.50218 50.30358Q251.71848 51.33184,249.57802 51.33184Z" fill="#000"/>
<line stroke="#000" stroke-width="2" x1="245.8604474073337" x2="245.8604474073337" y1="29.5" y2="82"/>
<path d="M254.08838 61.80526L254.08838 55.40347L251.9843 55.94068L251.9843 51.463905L254.08838 50.881927L254.08838 42.107445L255.47618 42.107445L255.47618 50.523785L258.47562 49.8075L258.47562 41.077785L259.86343 41.077785L259.86343 49.449356L262.05704 48.956913L262.05704 53.38892L259.86343 54.01567L259.86343 60.41746L262.05704 59.880245L262.05704 64.491325L259.86343 65.02854L259.86343 73.44488L258.47562 73.44488L258.47562 65.38668L255.47618 66.192505L255.47618 74.92222L254.08838 74.92222L254.08838 66.505875L251.9843 67.04309L251.9843 62.43201L254.08838 61.80526ZM258.47562 60.730835L258.47562 54.284275L255.47618 55.045326L255.47618 61.44712L258.47562 60.730835Z" fill="#000"/>
<path d="M282.63174 63.33184Q280.61722 63.33184,279.33713 62.38752Q278.05704 61.4432,278.05704 59.512592Q278.05704 57.37213,279.25317 55.672356Q280.4493 53.97258,282.37994 52.98629Q284.31055 52,286.49298 52Q288.33963 52,289.43085 52.98629Q290.52206 53.97258,290.52206 55.77728Q290.52206 57.8338,289.43085 59.55456Q288.33963 61.275322,286.55594 62.30358Q284.77222 63.33184,282.63174 63.33184ZM279.19022 60.519867Q279.19022 60.939564,279.505 61.275322Q279.81976 61.61108,280.3654 61.61108Q281.83432 61.61108,284.01675 60.393955Q285.4857 59.55456,286.68182 58.526302Q287.878 57.49804,288.59146 56.46978Q289.30496 55.44152,289.30496 54.728035Q289.30496 54.26637,289.07413 53.951595Q288.8433 53.63682,288.2557 53.63682Q287.45828 53.63682,286.3251 54.140457Q285.1919 54.644096,283.9538 55.44152Q282.7157 56.23895,281.62448 57.183266Q280.53326 58.127586,279.86176 59.008953Q279.19022 59.89032,279.19022 60.519867Z" fill="#000"/>
<path d="M271.63174 57.33184Q269.61722 57.33184,268.33713 56.38752Q267.05704 55.4432,267.05704 53.512592Q267.05704 51.37213,268.25317 49.672356Q269.4493 47.97258,271.37994 46.98629Q273.31055 46,275.49298 46Q277.33963 46,278.43085 46.98629Q279.52206 47.97258,279.52206 49.77728Q279.52206 51.8338,278.43085 53.55456Q277.33963 55.275322,275.55594 56.30358Q273.77222 57.33184,271.63174 57.33184ZM268.19022 54.519867Q268.19022 54.939564,268.505 55.275322Q268.81976 55.61108,269.3654 55.61108Q270.83432 55.61108,273.01675 54.393955Q274.4857 53.55456,275.68182 52.526302Q276.878 51.49804,277.59146 50.46978Q278.30496 49.44152,278.30496 48.728035Q278.30496 48.26637,278.07413 47.951595Q277.8433 47.63682,277.2557 47.63682Q276.45828 47.63682,275.3251 48.140457Q274.1919 48.644096,272.9538 49.44152Q271.7157 50.23895,270.62448 51.183266Q269.53326 52.127586,268.86176 53.008953Q268.19022 53.89032,268.19022 54.519867Z" fill="#000"/>
<path d="M282.63174 51.33184Q280.61722 51.33184,279.33713 50.38752Q278.05704 49.4432,278.05704 47.512592Q278.05704 45.37213,279.25317 43.672356Q280.4493 41.97258,282.37994 40.98629Q284.31055 40,286.49298 40Q288.33963 40,289.43085 40.98629Q290.52206 41.97258,290.52206 43.77728Q290.52206 45.8338,289.43085 47.55456Q288.33963 49.275322,286.55594 50.30358Q284.77222 51.33184,282.63174 51.33184ZM279.19022 48.519867Q279.19022 48.939564,279.505 49.275322Q279.81976 49.61108,280.3654 49.61108Q281.83432 49.61108,284.01675 48.393955Q285.4857 47.55456,286.68182 46.526302Q287.878 45.49804,288.59146 44.46978Q289.30496 43.44152,289.30496 42.728035Q289.30496 42.26637,289.07413 41.951595Q288.8433 41.63682,288.2557 41.63682Q287.45828 41.63682,286.3251 42.140457Q285.1919 42.644096,283.9538 43.44152Q282.7157 44.23895,281.62448 45.183266Q280.53326 46.127586,279.86176 47.008953Q279.19022 47.89032,279.19022 48.519867Z" fill="#000"/>
<line stroke="#000" stroke-width="2" x1="278.4856109793677" x2="278.4856109793677" y1="10" y2="56.5"/>
<path d="M309.59372 51.33184Q307.5792 51.33184,306.2991 50.38752Q305.019 49.4432,305.019 47.512592Q305.019 45.37213,306.21515 43.672356Q307.4113 41.97258,309.34192 40.98629Q311.27252 40,313.45496 40Q315.3016 40,316.39282 40.98629Q317.48404 41.97258,317.48404 43.77728Q317.48404 45.8338,316.39282 47.55456Q315.3016 49.275322,313.5179 50.30358Q311.7342 51.33184,309.59372 51.33184Z" fill="#000"/>
<line stroke="#000" stroke-width="2" x1="316.4475846121702" x2="316.4475846121702" y1="10" y2="44.5"/>
<line stroke="#000" stroke-width="2" x1="224.00330455019088" x2="336" y1="10" y2="10"/>
<line stroke="#000" stroke-width="2" x1="224.00330455019088" x2="336" y1="22" y2="22"/>
<line stroke="#000" stroke-width="2" x1="224.00330455019088" x2="336" y1="34" y2="34"/>
<line stroke="#000" stroke-width="2" x1="224.00330455019088" x2="336" y1="46" y2="46"/>
<line stroke="#000" stroke-width="2" x1="224.00330455019088" x2="336" y1="58" y2="58"/>
<line stroke="#000" stroke-width="2" x1="224.00330455019088" x2="224.00330455019088" y1="9" y2="59"/>
<line stroke="#000" stroke-width="2" x1="337" x2="337" y1="9" y2="59"/>
<path d="M38.574707 115.33184Q36.560158 115.33184,35.28008 114.38752Q34 113.4432,34 111.51259Q34 109.37213,35.196136 107.672356Q36.392277 105.97258,38.322887 104.98629Q40.253498 104,42.435925 104Q44.282597 104,45.37381 104.98629Q46.465027 105.97258,46.465027 107.77728Q46.465027 109.8338,45.37381 111.55456Q44.282597 113.27532,42.49888 114.30358Q40.715164 115.33184,38.574707 115.33184ZM35.133183 112.51987Q35.133183 112.93956,35.447956 113.27532Q35.76273 113.61108,36.30834 113.61108Q37.77728 113.61108,39.95971 112.39396Q41.42865 111.55456,42.62479 110.5263Q43.82093 109.49804,44.534416 108.46978Q45.247902 107.44152,45.247902 106.728035Q45.247902 106.266365,45.017067 105.95159Q44.786232 105.63682,44.198658 105.63682Q43.40123 105.63682,42.268047 106.14046Q41.134865 106.6441,39.896755 107.44152Q38.658646 108.238945,37.567432 109.183266Q36.476215 110.12759,35.8047 111.00896Q35.133183 111.89032,35.133183 112.51987Z" fill="#000"/>
<line stroke="#000" stroke-width="2" x1="34.85714285714286" x2="34.85714285714286" y1="111.5" y2="146"/>
<path d="M56.375492 18L63.090656 26.184107Q60.99217 28.660324,59.858982 30.465023Q58.7258 32.269722,58.7258 34.116394Q58.7258 35.669277,59.733074 37.369053Q60.74035 39.06883,62.922775 41.670956L62.25126 42.59429Q60.40459 41.419136,58.80974 41.419136Q57.634583 41.419136,57.04701 42.19558Q56.45943 42.97202,56.45943 44.063232Q56.45943 45.406265,57.026024 46.602406Q57.592613 47.798546,58.55792 48.88976L58.012314 49.687183Q55.116398 47.588696,53.731396 45.867935Q52.34639 44.147175,52.34639 42.13262Q52.34639 40.327923,53.479576 39.488525Q54.61276 38.64913,56.20761 38.64913Q57.466705 38.64913,59.481255 39.614437L59.481255 39.5305L53.017906 30.926691Q57.256855 27.191381,57.256855 23.959707Q57.256855 21.399551,54.57079 18L56.375492 18Z" fill="#000"/>
<path d="M64.62367 161.80527L64.62367 155.40347L62.51959 155.94069L62.51959 151.46391L64.62367 150.88193L64.62367 142.10744L66.011475 142.10744L66.011475 150.52379L69.01092 149.8075L69.01092 141.07779L70.39871 141.07779L70.39871 149.44936L72.59234 148.95691L72.59234 153.38892L70.39871 154.01567L70.39871 160.41747L72.59234 159.88025L72.59234 164.49133L70.39871 165.02853L70.39871 173.44489L69.01092 173.44489L69.01092 165.38669L66.011475 166.1925L66.011475 174.92221L64.62367 174.92221L64.62367 166.50587L62.51959 167.04309L62.51959 162.432L64.62367 161.80527ZM69.01092 160.73083L69.01092 154.28427L66.011475 155.04533L66.011475 161.44711L69.01092 160.73083Z" fill="#000"/>
<path d="M87.167046 175.33185Q85.1525 175.33185,83.87242 174.38753Q82.59234 173.4432,82.59234 171.51259Q82.59234 169.37213,83.788475 167.67236Q84.98462 165.97258,86.91523 164.98628Q88.84584 164,91.02827 164Q92.87494 164,93.96615 164.98628Q95.057365 165.97258,95.057365 167.77728Q95.057365 169.8338,93.96615 171.55457Q92.87494 173.27531,91.09122 174.30359Q89.3075 175.33185,87.167046 175.33185Z" fill="#000"/>
<path d="M87.167046 163.33185Q85.1525 163.33185,83.87242 162.38753Q82.59234 161.4432,82.59234 159.51259Q82.59234 157.37213,83.788475 155.67236Q84.98462 153.97258,86.91523 152.98628Q88.84584 152,91.02827 152Q92.87494 152,93.96615 152.98628Q95.057365 153.97258,95.057365 155.77728Q95.057365 157.8338,93.96615 159.55457Q92.87494 161.27531,91.09122 162.30359Q89.3075 163.33185,87.167046 163.33185Z" fill="#000"/>
<line stroke="#000" stroke-width="2" x1="77.59233560380225" x2="99.59233560380225" y1="158" y2="158"/>
<line stroke="#000" stroke-width="2" x1="77.59233560380225" x2="99.59233560380225" y1="170" y2="170"/>
<line stroke="#000" stroke-width="2" x1="94.02090703237369" x2="94.02090703237369" y1="122" y2="168.5"/>
<line stroke="#000" stroke-width="2" x1="13" x2="114.76553141033497" y1="110" y2="110"/>
<line stroke="#000" stroke-width="2" x1="13" x2="114.76553141033497" y1="122" y2="122"/>
<line stroke="#000" stroke-width="2" x1="13" x2="114.76553141033497" y1="134" y2="134"/>
<line stroke="#000" stroke-width="2" x1="13" x2="114.76553141033497" y1="146" y2="146"/>
<line stroke="#000" stroke-width="2" x1="13" x2="114.76553141033497" y1="158" y2="158"/>
<line stroke="#000" stroke-width="2" x1="13" x2="13" y1="109" y2="159"/>
<line stroke="#000" stroke-width="2" x1="115.76553141033497" x2="115.76553141033497" y1="109" y2="159"/>
<path d="M141.34024 133.33185Q139.32568 133.33185,138.04561 132.38753Q136.76553 131.4432,136.76553 129.51259Q136.76553 127.37213,137.96167 125.672356Q139.1578 123.97258,141.08841 122.98629Q143.01903 122,145.20145 122Q147.04813 122,148.13934 122.98629Q149.23056 123.97258,149.23056 125.77728Q149.23056 127.8338,148.13934 129.55457Q147.04813 131.27531,145.2644 132.30359Q143.4807 133.33185,141.34024 133.33185Z" fill="#000"/>
<path d="M141.34024 151.33185Q139.32568 151.33185,138.04561 150.38753Q136.76553 149.4432,136.76553 147.51259Q136.76553 145.37213,137.96167 143.67236Q139.1578 141.97258,141.08841 140.98628Q143.01903 140,145.20145 140Q147.04813 140,148.13934 140.98628Q149.23056 141.97258,149.23056 143.77728Q149.23056 145.8338,148.13934 147.55457Q147.04813 149.27531,145.2644 150.30359Q143.4807 151.33185,141.34024 151.33185Z" fill="#000"/>
<line stroke="#000" stroke-width="2" x1="137.6226742674778" x2="137.6226742674778" y1="129.5" y2="182"/>
<path d="M147.21866 161.80527L147.21866 155.40347L145.11458 155.94069L145.11458 151.46391L147.21866 150.88193L147.21866 142.10744L148.60646 142.10744L148.60646 150.52379L151.60591 149.8075L151.60591 141.07779L152.99371 141.07779L152.99371 149.44936L155.18733 148.95691L155.18733 153.38892L152.99371 154.01567L152.99371 160.41747L155.18733 159.88025L155.18733 164.49133L152.99371 165.02853L152.99371 173.44489L151.60591 173.44489L151.60591 165.38669L148.60646 166.1925L148.60646 174.92221L147.21866 174.92221L147.21866 166.50587L145.11458 167.04309L145.11458 162.432L147.21866 161.80527ZM151.60591 160.73083L151.60591 154.28427L148.60646 155.04533L148.60646 161.44711L151.60591 160.73083Z" fill="#000"/>
<path d="M175.76204 163.33185Q173.74748 163.33185,172.4674 162.38753Q171.18733 161.4432,171.18733 159.51259Q171.18733 157.37213,172.38347 155.67236Q173.5796 153.97258,175.51021 152.98628Q177.44083 152,179.62325 152Q181.46992 152,182.56114 152.98628Q183.65234 153.97258,183.65234 155.77728Q183.65234 157.8338,182.56114 159.55457Q181.46992 161.27531,179.6862 162.30359Q177.9025 163.33185,175.76204 163.33185ZM172.32051 160.51987Q172.32051 160.93956,172.63528 161.27531Q172.95006 161.61108,173.49567 161.61108Q174.9646 161.61108,177.14703 160.39395Q178.61598 159.55457,179.81212 158.5263Q181.00826 157.49805,181.72174 156.46979Q182.43523 155.44153,182.43523 154.72803Q182.43523 154.26637,182.20439 153.9516Q181.97356 153.63683,181.38599 153.63683Q180.58856 153.63683,179.45537 154.14046Q178.32219 154.64409,177.08408 155.44153Q175.84598 156.23895,174.75476 157.18327Q173.66354 158.1276,172.99202 159.00896Q172.32051 159.89032,172.32051 160.51987Z" fill="#000"/>
<path d="M164.76204 157.33185Q162.74748 157.33185,161.4674 156.38753Q160.18733 155.4432,160.18733 153.51259Q160.18733 151.37213,161.38347 149.67236Q162.5796 147.97258,164.51021 146.98628Q166.44083 146,168.62325 146Q170.46992 146,171.56114 146.98628Q172.65234 147.97258,172.65234 149.77728Q172.65234 151.8338,171.56114 153.55457Q170.46992 155.27531,168.6862 156.30359Q166.9025 157.33185,164.76204 157.33185ZM161.32051 154.51987Q161.32051 154.93956,161.63528 155.27531Q161.95006 155.61108,162.49567 155.61108Q163.9646 155.61108,166.14703 154.39395Q167.61598 153.55457,168.81212 152.5263Q170.00826 151.49805,170.72174 150.46979Q171.43523 149.44153,171.43523 148.72803Q171.43523 148.26637,171.20439 147.9516Q170.97356 147.63683,170.38599 147.63683Q169.58856 147.63683,168.45537 148.14046Q167.32219 148.64409,166.08408 149.44153Q164.84598 150.23895,163.75476 151.18327Q162.66354 152.1276,161.99202 153.00896Q161.32051 153.89032,161.32051 154.51987Z" fill="#000"/>
<path d="M175.76204 151.33185Q173.74748 151.33185,172.4674 150.38753Q171.18733 149.4432,171.18733 147.51259Q171.18733 145.37213,172.38347 143.67236Q173.5796 141.97258,175.51021 140.98628Q177.44083 140,179.62325 140Q181.46992 140,182.56114 140.98628Q183.65234 141.97258,183.65234 143.77728Q183.65234 145.8338,182.56114 147.55457Q181.46992 149.27531,179.6862 150.30359Q177.9025 151.33185,175.76204 151.33185ZM172.32051 148.51987Q172.32051 148.93956,172.63528 149.27531Q172.95006 149.61108,173.49567 149.61108Q174.9646 149.61108,177.14703 148.39395Q178.61598 147.55457,179.81212 146.5263Q181.00826 145.49805,181.72174 144.46979Q182.43523 143.44153,182.43523 142.72803Q182.43523 142.26637,182.20439 141.9516Q181.97356 141.63683,181.38599 141.63683Q180.58856 141.63683,179.45537 142.14046Q178.32219 142.64409,177.08408 143.44153Q175.84598 144.23895,174.75476 145.18327Q173.66354 146.1276,172.99202 147.00896Q172.32051 147.89032,172.32051 148.51987Z" fill="#000"/>
<line stroke="#000" stroke-width="2" x1="171.61589827189198" x2="171.61589827189198" y1="110" y2="156.5"/>
<path d="M205.46013 151.33185Q203.44557 151.33185,202.1655 150.38753Q200.88542 149.4432,200.88542 147.51259Q200.88542 145.37213,202.08156 143.67236Q203.2777 141.97258,205.2083 140.98628Q207.13892 140,209.32133 140Q211.16801 140,212.25923 140.98628Q213.35043 141.97258,213.35043 143.77728Q213.35043 145.8338,212.25923 147.55457Q211.16801 149.27531,209.3843 150.30359Q207.60059 151.33185,205.46013 151.33185Z" fill="#000"/>
<line stroke="#000" stroke-width="2" x1="212.31399276945496" x2="212.31399276945496" y1="110" y2="144.5"/>
<line stroke="#000" stroke-width="2" x1="115.76553141033497" x2="233.23446858966503" y1="110" y2="110"/>
<line stroke="#000" stroke-width="2" x1="115.76553141033497" x2="233.23446858966503" y1="122" y2="122"/>
<line stroke="#000" stroke-width="2" x1="115.76553141033497" x2="233.23446858966503" y1="134" y2="134"/>
<line stroke="#000" stroke-width="2" x1="115.76553141033497" x2="233.23446858966503" y1="146" y2="146"/>
<line stroke="#000" stroke-width="2" x1="115.76553141033497" x2="233.23446858966503" y1="158" y2="158"/>
<line stroke="#000" stroke-width="2" x1="115.76553141033497" x2="115.76553141033497" y1="109" y2="159"/>
<line stroke="#000" stroke-width="2" x1="234.23446858966503" x2="234.23446858966503" y1="109" y2="159"/>
<path d="M259.80917 115.33184Q257.79462 115.33184,256.51453 114.38752Q255.23447 113.4432,255.23447 111.51259Q255.23447 109.37213,256.4306 107.672356Q257.62674 105.97258,259.55734 104.98629Q261.48795 104,263.67038 104Q265.51706 104,266.60828 104.98629Q267.6995 105.97258,267.6995 107.77728Q267.6995 109.8338,266.60828 111.55456Q265.51706 113.27532,263.73334 114.30358Q261.94962 115.33184,259.80917 115.33184ZM256.36765 112.51987Q256.36765 112.93956,256.6824 113.27532Q256.9972 113.61108,257.5428 113.61108Q259.01175 113.61108,261.19418 112.39396Q262.66312 111.55456,263.85925 110.5263Q265.0554 109.49804,265.7689 108.46978Q266.48236 107.44152,266.48236 106.728035Q266.48236 106.266365,266.25153 105.95159Q266.0207 105.63682,265.4331 105.63682Q264.63568 105.63682,263.5025 106.14046Q262.36932 106.6441,261.13123 107.44152Q259.8931 108.238945,258.80188 109.183266Q257.71066 110.12759,257.03915 111.00896Q256.36765 111.89032,256.36765 112.51987Z" fill="#000"/>
<line stroke="#000" stroke-width="2" x1="256.09161144680786" x2="256.09161144680786" y1="111.5" y2="146"/>
<path d="M277.60995 18L284.32513 26.184107Q282.22662 28.660324,281.09344 30.465023Q279.96027 32.269722,279.96027 34.116394Q279.96027 35.669277,280.96753 37.369053Q281.97482 39.06883,284.15726 41.670956L283.48572 42.59429Q281.63907 41.419136,280.0442 41.419136Q278.86905 41.419136,278.28146 42.19558Q277.6939 42.97202,277.6939 44.063232Q277.6939 45.406265,278.2605 46.602406Q278.8271 47.798546,279.7924 48.88976L279.24677 49.687183Q276.35086 47.588696,274.96585 45.867935Q273.58087 44.147175,273.58087 42.13262Q273.58087 40.327923,274.71405 39.488525Q275.84723 38.64913,277.44208 38.64913Q278.70117 38.64913,280.71573 39.614437L280.71573 39.5305L274.25238 30.926691Q278.49133 27.191381,278.49133 23.959707Q278.49133 21.399551,275.80527 18L277.60995 18Z" fill="#000"/>
<path d="M285.85812 161.80527L285.85812 155.40347L283.75406 155.94069L283.75406 151.46391L285.85812 150.88193L285.85812 142.10744L287.24594 142.10744L287.24594 150.52379L290.24536 149.8075L290.24536 141.07779L291.63318 141.07779L291.63318 149.44936L293.82678 148.95691L293.82678 153.38892L291.63318 154.01567L291.63318 160.41747L293.82678 159.88025L293.82678 164.49133L291.63318 165.02853L291.63318 173.44489L290.24536 173.44489L290.24536 165.38669L287.24594 166.1925L287.24594 174.92221L285.85812 174.92221L285.85812 166.50587L283.75406 167.04309L283.75406 162.432L285.85812 161.80527ZM290.24536 160.73083L290.24536 154.28427L287.24594 155.04533L287.24594 161.44711L290.24536 160.73083Z" fill="#000"/>
<path d="M308.40152 175.33185Q306.387 175.33185,305.1069 174.38753Q303.8268 173.4432,303.8268 171.51259Q303.8268 169.37213,305.02295 167.67236Q306.2191 165.97258,308.14972 164.98628Q310.08032 164,312.26276 164Q314.1094 164,315.20062 164.98628Q316.29184 165.97258,316.29184 167.77728Q316.29184 169.8338,315.20062 171.55457Q314.1094 173.27531,312.3257 174.30359Q310.542 175.33185,308.40152 175.33185Z" fill="#000"/>
<path d="M308.40152 163.33185Q306.387 163.33185,305.1069 162.38753Q303.8268 161.4432,303.8268 159.51259Q303.8268 157.37213,305.02295 155.67236Q306.2191 153.97258,308.14972 152.98628Q310.08032 152,312.26276 152Q314.1094 152,315.20062 152.98628Q316.29184 153.97258,316.29184 155.77728Q316.29184 157.8338,315.20062 159.55457Q314.1094 161.27531,312.3257 162.30359Q310.542 163.33185,308.40152 163.33185Z" fill="#000"/>
<line stroke="#000" stroke-width="2" x1="298.82680419346724" x2="320.82680419346724" y1="158" y2="158"/>
<line stroke="#000" stroke-width="2" x1="298.82680419346724" x2="320.82680419346724" y1="170" y2="170"/>
<line stroke="#000" stroke-width="2" x1="315.2553756220387" x2="315.2553756220387" y1="122" y2="168.5"/>
<line stroke="#000" stroke-width="2" x1="234.23446858966503" x2="335.99999999999994" y1="110" y2="110"/>
<line stroke="#000" stroke-width="2" x1="234.23446858966503" x2="335.99999999999994" y1="122" y2="122"/>
<line stroke="#000" stroke-width="2" x1="234.23446858966503" x2="335.99999999999994" y1="134" y2="134"/>
<line stroke="#000" stroke-width="2" x1="234.23446858966503" x2="335.99999999999994" y1="146" y2="146"/>
<line stroke="#000" stroke-width="2" x1="234.23446858966503" x2="335.99999999999994" y1="158" y2="158"/>
<line stroke="#000" stroke-width="2" x1="234.23446858966503" x2="234.23446858966503" y1="109" y2="159"/>
<line stroke="#000" stroke-width="2" x1="336.99999999999994" x2="336.99999999999994" y1="109" y2="159"/>
<path d="M38.574707 233.33185Q36.560158 233.33185,35.28008 232.38753Q34 231.4432,34 229.51259Q34 227.37213,35.196136 225.67236Q36.392277 223.97258,38.322887 222.98628Q40.253498 222,42.435925 222Q44.282597 222,45.37381 222.98628Q46.465027 223.97258,46.465027 225.77728Q46.465027 227.8338,45.37381 229.55457Q44.282597 231.27531,42.49888 232.30359Q40.715164 233.33185,38.574707 233.33185Z" fill="#000"/>
<path d="M38.574707 251.33185Q36.560158 251.33185,35.28008 250.38753Q34 249.4432,34 247.51259Q34 245.37213,35.196136 243.67236Q36.392277 241.97258,38.322887 240.98628Q40.253498 240,42.435925 240Q44.282597 240,45.37381 240.98628Q46.465027 241.97258,46.465027 243.77728Q46.465027 245.8338,45.37381 247.55457Q44.282597 249.27531,42.49888 250.30359Q40.715164 251.33185,38.574707 251.33185Z" fill="#000"/>
<line stroke="#000" stroke-width="2" x1="34.85714285714286" x2="34.85714285714286" y1="229.5" y2="282"/>
<path d="M58.461857 261.80527L58.461857 255.40349L56.357773 255.9407L56.357773 251.46393L58.461857 250.88194L58.461857 242.10745L59.84966 242.10745L59.84966 250.5238L62.8491 249.80751L62.8491 241.0778L64.2369 241.0778L64.2369 249.44937L66.43052 248.95692L66.43052 253.38893L64.2369 254.01569L64.2369 260.41748L66.43052 259.88025L66.43052 264.49133L64.2369 265.02856L64.2369 273.4449L62.8491 273.4449L62.8491 265.3867L59.84966 266.1925L59.84966 274.92224L58.461857 274.92224L58.461857 266.5059L56.357773 267.0431L56.357773 262.43204L58.461857 261.80527ZM62.8491 260.73083L62.8491 254.28429L59.84966 255.04535L59.84966 261.44714L62.8491 260.73083Z" fill="#000"/>
<path d="M87.005226 263.33185Q84.99068 263.33185,83.7106 262.38754Q82.43052 261.4432,82.43052 259.5126Q82.43052 257.37216,83.626656 255.67236Q84.8228 253.9726,86.75341 252.9863Q88.68402 252.00002,90.86645 252.00002Q92.71312 252.00002,93.80433 252.9863Q94.895546 253.9726,94.895546 255.7773Q94.895546 257.8338,93.80433 259.55457Q92.71312 261.27533,90.9294 262.3036Q89.14568 263.33185,87.005226 263.33185ZM83.563705 260.51987Q83.563705 260.93958,83.87848 261.27533Q84.19325 261.61108,84.73886 261.61108Q86.2078 261.61108,88.39023 260.39398Q89.85917 259.55457,91.05531 258.5263Q92.25145 257.49805,92.964935 256.4698Q93.67842 255.44154,93.67842 254.72806Q93.67842 254.26639,93.447586 253.95161Q93.21675 253.63684,92.62918 253.63684Q91.83175 253.63684,90.69857 254.14047Q89.565384 254.6441,88.32728 255.44154Q87.089165 256.23895,85.997955 257.1833Q84.90674 258.1276,84.23522 259.00897Q83.563705 259.89032,83.563705 260.51987Z" fill="#000"/>
<path d="M76.005226 257.33185Q73.99068 257.33185,72.7106 256.38754Q71.43052 255.44322,71.43052 253.5126Q71.43052 251.37215,72.626656 249.67236Q73.8228 247.9726,75.75341 246.9863Q77.68402 246.00002,79.86645 246.00002Q81.71312 246.00002,82.80433 246.9863Q83.895546 247.9726,83.895546 249.7773Q83.895546 251.83382,82.80433 253.55458Q81.71312 255.27533,79.9294 256.3036Q78.14568 257.33185,76.005226 257.33185ZM72.563705 254.51988Q72.563705 254.93958,72.87848 255.27533Q73.19325 255.6111,73.73886 255.6111Q75.2078 255.6111,77.39023 254.39397Q78.85917 253.55458,80.05531 252.52632Q81.25145 251.49806,81.964935 250.4698Q82.67842 249.44154,82.67842 248.72806Q82.67842 248.26639,82.447586 247.95161Q82.21675 247.63684,81.62918 247.63684Q80.83175 247.63684,79.69857 248.14047Q78.565384 248.6441,77.32728 249.44154Q76.089165 250.23897,74.997955 251.18329Q73.90674 252.12761,73.23522 253.00897Q72.563705 253.89034,72.563705 254.51988Z" fill="#000"/>
<path d="M87.005226 251.33185Q84.99068 251.33185,83.7106 250.38753Q82.43052 249.4432,82.43052 247.51259Q82.43052 245.37213,83.626656 243.67236Q84.8228 241.97258,86.75341 240.98628Q88.68402 240,90.86645 240Q92.71312 240,93.80433 240.98628Q94.895546 241.97258,94.895546 243.77728Q94.895546 245.8338,93.80433 247.55457Q92.71312 249.27531,90.9294 250.30359Q89.14568 251.33185,87.005226 251.33185ZM83.563705 248.51987Q83.563705 248.93956,83.87848 249.27531Q84.19325 249.61108,84.73886 249.61108Q86.2078 249.61108,88.39023 248.39395Q89.85917 247.55457,91.05531 246.5263Q92.25145 245.49805,92.964935 244.46979Q93.67842 243.44153,93.67842 242.72803Q93.67842 242.26637,93.447586 241.9516Q93.21675 241.63683,92.62918 241.63683Q91.83175 241.63683,90.69857 242.14046Q89.565384 242.64409,88.32728 243.44153Q87.089165 244.23895,85.997955 245.18327Q84.90674 246.1276,84.23522 247.00896Q83.563705 247.89032,83.563705 248.51987Z" fill="#000"/>
<line stroke="#000" stroke-width="2" x1="82.85909330233979" x2="82.85909330233979" y1="210" y2="256.5"/>
<path d="M144.72078 251.33185Q142.70622 251.33185,141.42615 250.38753Q140.14607 249.4432,140.14607 247.51259Q140.14607 245.37213,141.34221 243.67236Q142.53835 241.97258,144.46895 240.98628Q146.39957 240,148.58199 240Q150.42867 240,151.51988 240.98628Q152.61108 241.97258,152.61108 243.77728Q152.61108 245.8338,151.51988 247.55457Q150.42867 249.27531,148.64494 250.30359Q146.86124 251.33185,144.72078 251.33185Z" fill="#000"/>
<line stroke="#000" stroke-width="2" x1="151.57464068146825" x2="151.57464068146825" y1="210" y2="244.5"/>
<line stroke="#000" stroke-width="2" x1="13" x2="186.5038429424611" y1="210" y2="210"/>
<line stroke="#000" stroke-width="2" x1="13" x2="186.5038429424611" y1="222" y2="222"/>
<line stroke="#000" stroke-width="2" x1="13" x2="186.5038429424611" y1="234" y2="234"/>
<line stroke="#000" stroke-width="2" x1="13" x2="186.5038429424611" y1="246" y2="246"/>
<line stroke="#000" stroke-width="2" x1="13" x2="186.5038429424611" y1="258" y2="258"/>
<line stroke="#000" stroke-width="2" x1="13" x2="13" y1="209" y2="259"/>
<line stroke="#000" stroke-width="2" x1="187.5038429424611" x2="187.5038429424611" y1="209" y2="259"/>
<path d="M213.07855 215.33185Q211.064 215.33185,209.78392 214.38753Q208.50385 213.4432,208.50385 211.51259Q208.50385 209.37213,209.69998 207.67236Q210.89612 205.97258,212.82672 204.98628Q214.75734 204,216.93976 204Q218.78644 204,219.87766 204.98628Q220.96887 205.97258,220.96887 207.77728Q220.96887 209.8338,219.87766 211.55457Q218.78644 213.27531,217.00272 214.30359Q215.21901 215.33185,213.07855 215.33185ZM209.63702 212.51987Q209.63702 212.93956,209.9518 213.27531Q210.26657 213.61108,210.81218 213.61108Q212.28111 213.61108,214.46355 212.39395Q215.9325 211.55457,217.12863 210.5263Q218.32477 209.49805,219.03825 208.46979Q219.75174 207.44153,219.75174 206.72803Q219.75174 206.26637,219.5209 205.9516Q219.29007 205.63683,218.7025 205.63683Q217.90508 205.63683,216.77188 206.14046Q215.6387 206.64409,214.40059 207.44153Q213.16249 208.23895,212.07127 209.18327Q210.98006 210.1276,210.30853 211.00896Q209.63702 211.89032,209.63702 212.51987Z" fill="#000"/>
<line stroke="#000" stroke-width="2" x1="209.36098579960392" x2="209.36098579960392" y1="211.5" y2="246"/>
<path d="M255.24464 18L261.9598 26.184107Q259.86133 28.660324,258.72815 30.465023Q257.59494 32.269722,257.59494 34.116394Q257.59494 35.669277,258.60223 37.369053Q259.6095 39.06883,261.79193 41.670956L261.12042 42.59429Q259.27374 41.419136,257.6789 41.419136Q256.50375 41.419136,255.91617 42.19558Q255.32858 42.97202,255.32858 44.063232Q255.32858 45.406265,255.89517 46.602406Q256.46176 47.798546,257.42706 48.88976L256.88147 49.687183Q253.98555 47.588696,252.60056 45.867935Q251.21555 44.147175,251.21555 42.13262Q251.21555 40.327923,252.34872 39.488525Q253.48192 38.64913,255.07677 38.64913Q256.33588 38.64913,258.3504 39.614437L258.3504 39.5305L251.88707 30.926691Q256.126 27.191381,256.126 23.959707Q256.126 21.399551,253.43994 18L255.24464 18Z" fill="#000"/>
<path d="M275.67548 261.80527L275.67548 255.40349L273.5714 255.9407L273.5714 251.46393L275.67548 250.88194L275.67548 242.10745L277.0633 242.10745L277.0633 250.5238L280.0627 249.80751L280.0627 241.0778L281.45053 241.0778L281.45053 249.44937L283.64413 248.95692L283.64413 253.38893L281.45053 254.01569L281.45053 260.41748L283.64413 259.88025L283.64413 264.49133L281.45053 265.02856L281.45053 273.4449L280.0627 273.4449L280.0627 265.3867L277.0633 266.1925L277.0633 274.92224L275.67548 274.92224L275.67548 266.5059L273.5714 267.0431L273.5714 262.43204L275.67548 261.80527ZM280.0627 260.73083L280.0627 254.28429L277.0633 255.04535L277.0633 261.44714L280.0627 260.73083Z" fill="#000"/>
<path d="M298.21884 275.33185Q296.2043 275.33185,294.92422 274.38754Q293.64413 273.4432,293.64413 271.5126Q293.64413 269.37216,294.84027 267.67236Q296.0364 265.9726,297.96704 264.9863Q299.89764 264,302.08008 264Q303.92673 264,305.01794 264.9863Q306.10916 265.9726,306.10916 267.77728Q306.10916 269.8338,305.01794 271.55457Q303.92673 273.27533,302.14304 274.3036Q300.3593 275.33185,298.21884 275.33185Z" fill="#000"/>
<path d="M298.21884 263.33185Q296.2043 263.33185,294.92422 262.38754Q293.64413 261.4432,293.64413 259.5126Q293.64413 257.37216,294.84027 255.67236Q296.0364 253.9726,297.96704 252.9863Q299.89764 252.00002,302.08008 252.00002Q303.92673 252.00002,305.01794 252.9863Q306.10916 253.9726,306.10916 255.7773Q306.10916 257.8338,305.01794 259.55457Q303.92673 261.27533,302.14304 262.3036Q300.3593 263.33185,298.21884 263.33185Z" fill="#000"/>
<line stroke="#000" stroke-width="2" x1="288.64414778166633" x2="310.64414778166633" y1="258" y2="258"/>
<line stroke="#000" stroke-width="2" x1="288.64414778166633" x2="310.64414778166633" y1="270" y2="270"/>
<line stroke="#000" stroke-width="2" x1="305.0727192102378" x2="305.0727192102378" y1="222" y2="268.5"/>
<line stroke="#000" stroke-width="2" x1="187.5038429424611" x2="338.00000000000006" y1="210" y2="210"/>
<line stroke="#000" stroke-width="2" x1="187.5038429424611" x2="338.00000000000006" y1="222" y2="222"/>
<line stroke="#000" stroke-width="2" x1="187.5038429424611" x2="338.00000000000006" y1="234" y2="234"/>
<line stroke="#000" stroke-width="2" x1="187.5038429424611" x2="338.00000000000006" y1="246" y2="246"/>
<line stroke="#000" stroke-width="2" x1="187.5038429424611" x2="338.00000000000006" y1="258" y2="258"/>
<line stroke="#000" stroke-width="2" x1="187.5038429424611" x2="187.5038429424611" y1="209" y2="259"/>
<line stroke="#000" stroke-width="2" x1="339.00000000000006" x2="339.00000000000006" y1="209" y2="259"/>
</svg>