<svg height="200" width="500" xmlns="http://www.w3.org/2000/svg">
<rect fill="#fff" height="200" width="500" x="0" y="0"/>
<path d="M22 39.246223Q22 37.69334,23.133183 36.51819Q24.266369 35.343033,26.217962 34.671516Q28.169558 34,30.519865 34Q32.912144 34,34.926693 34.65053Q36.941242 35.301064,38.158363 36.47622Q39.37549 37.65137,39.37549 39.246223Q39.37549 40.883045,38.200336 42.07918Q37.025185 43.275322,35.073586 43.925854Q33.121994 44.576385,30.771685 44.576385Q28.421375 44.576385,26.42781 43.94684Q24.434246 43.31729,23.217123 42.121155Q22 40.925014,22 39.246223ZM31.65305 43.736988Q33.08002 43.736988,33.604645 42.687744Q34.129265 41.6385,34.129265 40.21153Q34.129265 38.742584,33.520706 37.525463Q32.912144 36.30834,31.90487 35.573868Q30.897594 34.839394,29.6385 34.839394Q28.211529 34.839394,27.728874 35.88864Q27.246223 36.937885,27.246223 38.364857Q27.246223 39.791832,27.8338 41.008953Q28.421375 42.226078,29.407665 42.981533Q30.393955 43.736988,31.65305 43.736988Z" fill="#000"/>
<line stroke="#000" stroke-width="2" x1="12" x2="139.11111111111111" y1="10" y2="10"/>
<line stroke="#000" stroke-width="2" x1="12" x2="139.11111111111111" y1="22" y2="22"/>
<line stroke="#000" stroke-width="2" x1="12" x2="139.11111111111111" y1="34" y2="34"/>
<line stroke="#000" stroke-width="2" x1="12" x2="139.11111111111111" y1="46" y2="46"/>
<line stroke="#000" stroke-width="2" x1="12" x2="139.11111111111111" y1="58" y2="58"/>
<line stroke="#000" stroke-width="2" x1="12" x2="12" y1="9" y2="59"/>
<line stroke="#000" stroke-width="2" x1="140.11111111111111" x2="140.11111111111111" y1="9" y2="59"/>
<path d="M183.44444 60.811974Q183.44444 59.25909,184.1999 58.629547Q184.95535 58,186.00461 58Q187.09583 58,187.87225 58.629547Q188.6487 59.25909,188.6487 60.811974Q188.6487 62.322887,187.87225 62.994404Q187.09583 63.66592,186.00461 63.66592Q184.95535 63.66592,184.1999 62.994404Q183.44444 62.322887,183.44444 60.811974Z" fill="#000"/>
<path d="M171.01915 69.33184Q169.0046 69.33184,167.72452 68.38752Q166.44444 67.4432,166.44444 65.51259Q166.44444 63.37213,167.64058 61.672356Q168.83672 59.97258,170.76732 58.98629Q172.69794 58,174.88036 58Q176.72704 58,177.81825 58.98629Q178.90945 59.97258,178.90945 61.77728Q178.90945 63.8338,177.81825 65.55456Q176.72704 67.27532,174.94331 68.30358Q173.1596 69.33184,171.01915 69.33184ZM167.57762 66.51987Q167.57762 66.93956,167.8924 67.27532Q168.20717 67.61108,168.75278 67.61108Q170.22171 67.61108,172.40414 66.39396Q173.8731 65.55456,175.06923 64.5263Q176.26537 63.49804,176.97885 62.46978Q177.69234 61.44152,177.69234 60.728035Q177.69234 60.26637,177.4615 59.951595Q177.23067 59.63682,176.6431 59.63682Q175.84567 59.63682,174.71248 60.140457Q173.5793 60.644096,172.34119 61.44152Q171.10309 62.23895,170.01187 63.183266Q168.92065 64.12759,168.24913 65.00896Q167.57762 65.89032,167.57762 66.51987Z" fill="#000"/>
<line stroke="#000" stroke-width="2" x1="177.87301587301587" x2="177.87301587301587" y1="28" y2="62.5"/>
<path d="M253.01915 63.33184Q251.0046 63.33184,249.72452 62.38752Q248.44444 61.4432,248.44444 59.512592Q248.44444 57.37213,249.64058 55.672356Q250.83672 53.97258,252.76732 52.98629Q254.69794 52,256.88037 52Q258.72702 52,259.81824 52.98629Q260.90945 53.97258,260.90945 55.77728Q260.90945 57.8338,259.81824 59.55456Q258.72702 61.275322,256.94333 62.30358Q255.1596 63.33184,253.01915 63.33184Z" fill="#000"/>
<line stroke="#000" stroke-width="2" x1="259.8730158730159" x2="259.8730158730159" y1="22" y2="56.5"/>
<line stroke="#000" stroke-width="2" x1="156.44444444444446" x2="320.8888888888889" y1="10" y2="10"/>
<line stroke="#000" stroke-width="2" x1="156.44444444444446" x2="320.8888888888889" y1="22" y2="22"/>
<line stroke="#000" stroke-width="2" x1="156.44444444444446" x2="320.8888888888889" y1="34" y2="34"/>
<line stroke="#000" stroke-width="2" x1="156.44444444444446" x2="320.8888888888889" y1="46" y2="46"/>
<line stroke="#000" stroke-width="2" x1="156.44444444444446" x2="320.8888888888889" y1="58" y2="58"/>
<line stroke="#000" stroke-width="2" x1="321.8888888888889" x2="321.8888888888889" y1="9" y2="59"/>
<path d="M322.13025 57.33184Q320.11572 57.33184,318.83563 56.38752Q317.55554 55.4432,317.55554 53.512592Q317.55554 51.37213,318.75168 49.672356Q319.9478 47.97258,321.87845 46.98629Q323.80905 46,325.9915 46Q327.83813 46,328.92935 46.98629Q330.02057 47.97258,330.02057 49.77728Q330.02057 51.8338,328.92935 53.55456Q327.83813 55.275322,326.05444 56.30358Q324.27072 57.33184,322.13025 57.33184ZM318.68872 54.519867Q318.68872 54.939564,319.0035 55.275322Q319.31827 55.61108,319.8639 55.61108Q321.33282 55.61108,323.51526 54.393955Q324.9842 53.55456,326.18033 52.526302Q327.37646 51.49804,328.08997 50.46978Q328.80347 49.44152,328.80347 48.728035Q328.80347 48.26637,328.57263 47.951595Q328.3418 47.63682,327.7542 47.63682Q326.9568 47.63682,325.8236 48.140457Q324.69043 48.644096,323.4523 49.44152Q322.2142 50.23895,321.123 51.183266Q320.03177 52.127586,319.36026 53.008953Q318.68872 53.89032,318.68872 54.519867Z" fill="#000"/>
<line stroke="#000" stroke-width="2" x1="328.984126984127" x2="328.984126984127" y1="16" y2="50.5"/>
<path d="M392.35248 63.33184Q390.33795 63.33184,389.05786 62.38752Q387.77777 61.4432,387.77777 59.512592Q387.77777 57.37213,388.9739 55.672356Q390.17004 53.97258,392.10068 52.98629Q394.03128 52,396.2137 52Q398.06036 52,399.15158 52.98629Q400.2428 53.97258,400.2428 55.77728Q400.2428 57.8338,399.15158 59.55456Q398.06036 61.275322,396.27667 62.30358Q394.49295 63.33184,392.35248 63.33184Z" fill="#000"/>
<line stroke="#000" stroke-width="2" x1="399.2063492063492" x2="399.2063492063492" y1="22" y2="56.5"/>
<path d="M452.79694 57.33184Q450.7824 57.33184,449.50232 56.38752Q448.22223 55.4432,448.22223 53.512592Q448.22223 51.37213,449.41837 49.672356Q450.6145 47.97258,452.54514 46.98629Q454.47574 46,456.65817 46Q458.50482 46,459.59604 46.98629Q460.68726 47.97258,460.68726 49.77728Q460.68726 51.8338,459.59604 53.55456Q458.50482 55.275322,456.72113 56.30358Q454.9374 57.33184,452.79694 57.33184Z" fill="#000"/>
<line stroke="#000" stroke-width="2" x1="459.6507936507937" x2="459.6507936507937" y1="16" y2="50.5"/>
<line stroke="#000" stroke-width="2" x1="307.55555555555554" x2="520.6666666666667" y1="10" y2="10"/>
<line stroke="#000" stroke-width="2" x1="307.55555555555554" x2="520.6666666666667" y1="22" y2="22"/>
<line stroke="#000" stroke-width="2" x1="307.55555555555554" x2="520.6666666666667" y1="34" y2="34"/>
<line stroke="#000" stroke-width="2" x1="307.55555555555554" x2="520.6666666666667" y1="46" y2="46"/>
<line stroke="#000" stroke-width="2" x1="307.55555555555554" x2="520.6666666666667" y1="58" y2="58"/>
<line stroke="#000" stroke-width="2" x1="521.6666666666667" x2="521.6666666666667" y1="9" y2="59"/>
<path d="M39 130.81197Q39 129.2591,39.755455 128.62955Q40.510914 127.99999,41.560158 127.99999Q42.65137 127.99999,43.42781 128.62955Q44.204254 129.2591,44.204254 130.81197Q44.204254 132.32288,43.42781 132.9944Q42.65137 133.66591,41.560158 133.66591Q40.510914 133.66591,39.755455 132.9944Q39 132.32288,39 130.81197Z" fill="#000"/>
<path d="M26.574705 139.33185Q24.560156 139.33185,23.280079 138.38753Q22 137.4432,22 135.51259Q22 133.37213,23.196138 131.67236Q24.392277 129.97258,26.322887 128.98628Q28.253498 128,30.435925 128Q32.282597 128,33.37381 128.98628Q34.465027 129.97258,34.465027 131.77728Q34.465027 133.8338,33.37381 135.55457Q32.282597 137.27531,30.49888 138.30359Q28.715164 139.33185,26.574705 139.33185ZM23.133183 136.51987Q23.133183 136.93956,23.447956 137.27531Q23.76273 137.61108,24.308338 137.61108Q25.777279 137.61108,27.95971 136.39395Q29.42865 135.55457,30.62479 134.5263Q31.820929 133.49805,32.534416 132.46979Q33.247902 131.44153,33.247902 130.72803Q33.247902 130.26637,33.017067 129.9516Q32.786232 129.63683,32.198658 129.63683Q31.40123 129.63683,30.268047 130.14046Q29.134863 130.64409,27.896753 131.44153Q26.658646 132.23895,25.56743 133.18327Q24.476217 134.1276,23.8047 135.00896Q23.133183 135.89032,23.133183 136.51987Z" fill="#000"/>
<line stroke="#000" stroke-width="2" x1="33.42857142857143" x2="33.42857142857143" y1="98" y2="132.5"/>
<path d="M158.9641 145.33185Q156.94954 145.33185,155.66946 144.38753Q154.38939 143.4432,154.38939 141.51259Q154.38939 139.37213,155.58553 137.67236Q156.78166 135.97258,158.71227 134.98628Q160.64288 134,162.8253 134Q164.67198 134,165.7632 134.98628Q166.8544 135.97258,166.8544 137.77728Q166.8544 139.8338,165.7632 141.55457Q164.67198 143.27531,162.88826 144.30359Q161.10455 145.33185,158.9641 145.33185Z" fill="#000"/>
<line stroke="#000" stroke-width="2" x1="165.81795752616156" x2="165.81795752616156" y1="104" y2="138.5"/>
<line stroke="#000" stroke-width="2" x1="12" x2="294.0196786721548" y1="110" y2="110"/>
<line stroke="#000" stroke-width="2" x1="12" x2="294.0196786721548" y1="122" y2="122"/>
<line stroke="#000" stroke-width="2" x1="12" x2="294.0196786721548" y1="134" y2="134"/>
<line stroke="#000" stroke-width="2" x1="12" x2="294.0196786721548" y1="146" y2="146"/>
<line stroke="#000" stroke-width="2" x1="12" x2="294.0196786721548" y1="158" y2="158"/>
<line stroke="#000" stroke-width="2" x1="12" x2="12" y1="109" y2="159"/>
<line stroke="#000" stroke-width="2" x1="295.0196786721548" x2="295.0196786721548" y1="109" y2="159"/>
<path d="M244.87167 151.33185Q242.85712 151.33185,241.57704 150.38753Q240.29697 149.4432,240.29697 147.51259Q240.29697 145.37213,241.4931 143.67236Q242.68924 141.97258,244.61984 140.98628Q246.55046 140,248.73288 140Q250.57956 140,251.67078 140.98628Q252.762 141.97258,252.762 143.77728Q252.762 145.8338,251.67078 147.55457Q250.57956 149.27531,248.79584 150.30359Q247.01213 151.33185,244.87167 151.33185ZM241.43015 148.51987Q241.43015 148.93956,241.74492 149.27531Q242.0597 149.61108,242.6053 149.61108Q244.07423 149.61108,246.25667 148.39395Q247.72562 147.55457,248.92175 146.5263Q250.11789 145.49805,250.83138 144.46979Q251.54486 143.44153,251.54486 142.72803Q251.54486 142.26637,251.31403 141.9516Q251.08319 141.63683,250.49562 141.63683Q249.6982 141.63683,248.565 142.14046Q247.43182 142.64409,246.19371 143.44153Q244.95561 144.23895,243.8644 145.18327Q242.77318 146.1276,242.10165 147.00896Q241.43015 147.89032,241.43015 148.51987Z" fill="#000"/>
<line stroke="#000" stroke-width="2" x1="251.7255306698027" x2="251.7255306698027" y1="110" y2="144.5"/>
<path d="M348.6868 157.33185Q346.67227 157.33185,345.39218 156.38753Q344.1121 155.4432,344.1121 153.51259Q344.1121 151.37213,345.30823 149.67236Q346.50436 147.97258,348.435 146.98628Q350.3656 146,352.54803 146Q354.39468 146,355.4859 146.98628Q356.57712 147.97258,356.57712 149.77728Q356.57712 151.8338,355.4859 153.55457Q354.39468 155.27531,352.611 156.30359Q350.82727 157.33185,348.6868 157.33185Z" fill="#000"/>
<line stroke="#000" stroke-width="2" x1="355.54067695708505" x2="355.54067695708505" y1="116" y2="150.5"/>
<path d="M486.38986 151.33185Q484.37534 151.33185,483.09525 150.38753Q481.81516 149.4432,481.81516 147.51259Q481.81516 145.37213,483.0113 143.67236Q484.20743 141.97258,486.13806 140.98628Q488.06866 140,490.2511 140Q492.09775 140,493.18896 140.98628Q494.28018 141.97258,494.28018 143.77728Q494.28018 145.8338,493.18896 147.55457Q492.09775 149.27531,490.31406 150.30359Q488.53033 151.33185,486.38986 151.33185Z" fill="#000"/>
<line stroke="#000" stroke-width="2" x1="493.2437177158538" x2="493.2437177158538" y1="110" y2="144.5"/>
<line stroke="#000" stroke-width="2" x1="230.2969592412313" x2="621.4454388618469" y1="110" y2="110"/>
<line stroke="#000" stroke-width="2" x1="230.2969592412313" x2="621.4454388618469" y1="122" y2="122"/>
<line stroke="#000" stroke-width="2" x1="230.2969592412313" x2="621.4454388618469" y1="134" y2="134"/>
<line stroke="#000" stroke-width="2" x1="230.2969592412313" x2="621.4454388618469" y1="146" y2="146"/>
<line stroke="#000" stroke-width="2" x1="230.2969592412313" x2="621.4454388618469" y1="158" y2="158"/>
<line stroke="#000" stroke-width="2" x1="622.4454388618469" x2="622.4454388618469" y1="109" y2="159"/>
</svg>
