<svg height="200" width="500" xmlns="http://www.w3.org/2000/svg">
<rect fill="#fff" height="200" width="500" x="0" y="0"/>
<path d="M30.864017 21.895914Q30.393955 20.116394,30.091774 18.370451Q29.789593 16.624508,29.789593 14.811413Q29.789593 13.233349,30.007835 11.839954Q30.226078 10.446556,30.628986 9.271404Q31.065474 7.9283714,31.770565 6.7364273Q32.47566 5.544487,33.26469 4.7722435Q34.053722 4,34.65809 4Q35.463905 4,36.874092 6.853943Q37.579185 8.297703,37.91494 9.976494Q38.2507 11.655289,38.2507 13.569107Q38.2507 15.9529915,37.61276 18.320087Q36.97482 20.687183,35.749302 22.768885Q34.52378 24.850586,32.811417 26.42865L33.986572 32.06939Q34.490208 32.002235,34.825966 31.96866Q35.161724 31.935085,35.329605 31.935085Q37.377728 31.935085,38.98937 33.093452Q40.601006 34.251816,41.55792 36.132065Q42.51483 38.01231,42.51483 40.26189Q42.51483 42.84723,41.188583 44.91214Q39.86234 46.977055,37.209846 47.950752Q37.377728 48.52154,38.183548 52.71852Q38.385002 53.725796,38.485733 54.313374Q38.586456 54.90095,38.620033 55.337437Q38.65361 55.773922,38.65361 56.34471Q38.65361 58.023502,37.831 59.349747Q37.008392 60.67599,35.614998 61.41466Q34.2216 62.153328,32.50923 62.153328Q30.76329 62.153328,29.420258 61.4986Q28.077225 60.843872,27.304981 59.685505Q26.532738 58.527138,26.532738 57.016228Q26.532738 55.404587,27.422497 54.330162Q28.312256 53.255733,29.95747 53.255733Q31.367657 53.255733,32.257416 54.279797Q33.147175 55.30386,33.147175 56.714043Q33.147175 57.922775,32.307777 58.829323Q31.468384 59.73587,30.12535 59.73587L29.789593 59.73587Q30.662563 61.045326,32.54281 61.045326Q34.859543 61.045326,36.169 59.534416Q37.478455 58.023502,37.478455 55.673195Q37.478455 55.102406,37.344154 54.145493Q37.209846 53.188583,36.874092 51.84555Q36.53833 50.502518,36.35367 49.629547Q36.169 48.756573,36.101845 48.38724Q34.96027 48.723,33.41578 48.723Q30.52826 48.723,27.775042 47.04421Q25.088976 45.365417,23.544489 42.612198Q22 39.85898,22 36.669277Q22 33.647453,23.37661 30.994963Q24.753218 28.342472,26.784555 26.126467Q28.815893 23.910463,30.864017 21.895914ZM31.770565 21.056519Q32.54281 20.653608,33.41578 19.562393Q34.288754 18.47118,35.094574 17.060995Q35.90039 15.65081,36.40403 14.223839Q36.90767 12.796864,36.90767 11.655289Q36.90767 10.446556,36.53833 9.7414665Q36.169 9.036373,35.26245 9.036373Q34.45663 9.036373,33.701176 9.77504Q32.94572 10.51371,32.358143 11.739227Q31.770565 12.964745,31.434807 14.475655Q31.099049 15.986568,31.099049 17.564632Q31.099049 18.63906,31.317291 19.51203Q31.535534 20.385002,31.770565 21.056519ZM33.684387 36.06491Q32.77784 36.266365,31.97202 36.921097Q31.1662 37.575825,30.679352 38.49916Q30.192501 39.422493,30.192501 40.463345Q30.192501 41.302742,30.628986 42.1925Q31.065474 43.08226,31.703415 43.619473Q32.1399 44.02238,32.576385 44.22384Q33.080025 44.45887,33.080025 44.660324Q33.080025 44.76105,32.744263 44.86178Q31.468384 44.559597,30.44432 43.7202Q29.420258 42.880806,28.83268 41.68886Q28.245104 40.49692,28.245104 39.15389Q28.245104 37.71013,28.83268 36.367096Q29.420258 35.024063,30.477896 33.949635Q31.535534 32.87521,32.878567 32.337997L31.90487 27.268045Q28.010073 30.424173,26.180191 33.462784Q24.350307 36.501396,24.350307 39.489647Q24.350307 41.672073,25.491886 43.552322Q26.633465 45.432568,28.614437 46.590935Q30.595411 47.7493,33.080025 47.7493Q33.75154 47.7493,34.439842 47.614994Q35.128147 47.480694,35.90039 47.279236L33.684387 36.06491ZM36.941242 46.943478Q40.231674 45.533295,40.231674 41.168438Q40.231674 39.724678,39.493004 38.532734Q38.754337 37.340794,37.51203 36.6357Q36.269726 35.93061,34.72524 35.93061L36.941242 46.943478Z" fill="#000"/>
<line stroke="#000" stroke-width="2" x1="12" x2="87.64670737584433" y1="10" y2="10"/>
<line stroke="#000" stroke-width="2" x1="12" x2="87.64670737584433" y1="22" y2="22"/>
<line stroke="#000" stroke-width="2" x1="12" x2="87.64670737584433" y1="34" y2="34"/>
<line stroke="#000" stroke-width="2" x1="12" x2="87.64670737584433" y1="46" y2="46"/>
<line stroke="#000" stroke-width="2" x1="12" x2="87.64670737584433" y1="58" y2="58"/>
<line stroke="#000" stroke-width="2" x1="12" x2="12" y1="9" y2="59"/>
<line stroke="#000" stroke-width="2" x1="88.64670737584433" x2="88.64670737584433" y1="9" y2="59"/>
<path d="M101.75079 13.805261L101.75079 7.40347L99.646706 7.9406834L99.646706 3.4639063L101.75079 2.8819256L101.75079 -5.892557L103.138596 -5.892557L103.138596 2.5237837L106.13803 1.8074989L106.13803 -6.9222145L107.52583 -6.9222145L107.52583 1.449357L109.71945 0.95691204L109.71945 5.388921L107.52583 6.01567L107.52583 12.41746L109.71945 11.880247L109.71945 16.491327L107.52583 17.02854L107.52583 25.444881L106.13803 25.444881L106.13803 17.386683L103.138596 18.192501L103.138596 26.922216L101.75079 26.922216L101.75079 18.505877L99.646706 19.043089L99.646706 14.43201L101.75079 13.805261ZM106.13803 12.730835L106.13803 6.284276L103.138596 7.045328L103.138596 13.447119L106.13803 12.730835Z" fill="#000"/>
<path d="M112.82354 31.805262L112.82354 25.40347L110.71945 25.940683L110.71945 21.463905L112.82354 20.881926L112.82354 12.107443L114.211334 12.107443L114.211334 20.523785L117.21078 19.807499L117.21078 11.0777855L118.59858 11.0777855L118.59858 19.449356L120.7922 18.956913L120.7922 23.38892L118.59858 24.01567L118.59858 30.41746L120.7922 29.880247L120.7922 34.491325L118.59858 35.02854L118.59858 43.44488L117.21078 43.44488L117.21078 35.38668L114.211334 36.1925L114.211334 44.92222L112.82354 44.92222L112.82354 36.505875L110.71945 37.04309L110.71945 32.43201L112.82354 31.805262ZM117.21078 30.730835L117.21078 24.284275L114.211334 25.045328L114.211334 31.447119L117.21078 30.730835Z" fill="#000"/>
<path d="M123.89629 7.8052607L123.89629 1.40347L121.792206 1.9406834L121.792206 -2.5360937L123.89629 -3.1180744L123.89629 -11.892557L125.28409 -11.892557L125.28409 -3.4762163L128.28354 -4.192501L128.28354 -12.9222145L129.67133 -12.9222145L129.67133 -4.550643L131.86496 -5.043088L131.86496 -0.6110792L129.67133 0.015669823L129.67133 6.4174604L131.86496 5.880247L131.86496 10.491327L129.67133 11.02854L129.67133 19.444881L128.28354 19.444881L128.28354 11.3866825L125.28409 12.192502L125.28409 20.922216L123.89629 20.922216L123.89629 12.505877L121.792206 13.04309L121.792206 8.43201L123.89629 7.8052607ZM128.28354 6.7308345L128.28354 0.284276L125.28409 1.0453281L125.28409 7.4471188L128.28354 6.7308345Z" fill="#000"/>
<path d="M134.96902 25.805262L134.96902 19.40347L132.86494 19.940683L132.86494 15.463906L134.96902 14.881926L134.96902 6.107443L136.35683 6.107443L136.35683 14.523784L139.35628 13.807499L139.35628 5.0777855L140.74408 5.0777855L140.74408 13.449357L142.9377 12.956912L142.9377 17.38892L140.74408 18.01567L140.74408 24.41746L142.9377 23.880247L142.9377 28.491327L140.74408 29.02854L140.74408 37.44488L139.35628 37.44488L139.35628 29.386683L136.35683 30.192501L136.35683 38.92222L134.96902 38.92222L134.96902 30.505877L132.86494 31.043089L132.86494 26.43201L134.96902 25.805262ZM139.35628 24.730835L139.35628 18.284275L136.35683 19.045328L136.35683 25.447119L139.35628 24.730835Z" fill="#000"/>
<line stroke="#000" stroke-width="2" x1="89.64670737584433" x2="189.06957785288495" y1="10" y2="10"/>
<line stroke="#000" stroke-width="2" x1="89.64670737584433" x2="189.06957785288495" y1="22" y2="22"/>
<line stroke="#000" stroke-width="2" x1="89.64670737584433" x2="189.06957785288495" y1="34" y2="34"/>
<line stroke="#000" stroke-width="2" x1="89.64670737584433" x2="189.06957785288495" y1="46" y2="46"/>
<line stroke="#000" stroke-width="2" x1="89.64670737584433" x2="189.06957785288495" y1="58" y2="58"/>
<line stroke="#000" stroke-width="2" x1="190.06957785288495" x2="190.06957785288495" y1="9" y2="59"/>
<path d="M201.06958 39.246223Q201.06958 37.69334,202.20276 36.51819Q203.33594 35.343033,205.28754 34.671516Q207.23914 34,209.58945 34Q211.98172 34,213.99626 34.65053Q216.01082 35.301064,217.22794 36.47622Q218.44507 37.65137,218.44507 39.246223Q218.44507 40.883045,217.26991 42.07918Q216.09476 43.275322,214.14316 43.925854Q212.19156 44.576385,209.84126 44.576385Q207.49095 44.576385,205.49739 43.94684Q203.50381 43.31729,202.2867 42.121155Q201.06958 40.925014,201.06958 39.246223ZM210.72263 43.736988Q212.1496 43.736988,212.67422 42.687744Q213.19884 41.6385,213.19884 40.21153Q213.19884 38.742584,212.59029 37.525463Q211.98172 36.30834,210.97444 35.573868Q209.96716 34.839394,208.70807 34.839394Q207.2811 34.839394,206.79845 35.88864Q206.3158 36.937885,206.3158 38.364857Q206.3158 39.791832,206.90338 41.008953Q207.49095 42.226078,208.47723 42.981533Q209.46353 43.736988,210.72263 43.736988Z" fill="#000"/>
<line stroke="#000" stroke-width="2" x1="191.06957785288495" x2="336.20145559310913" y1="10" y2="10"/>
<line stroke="#000" stroke-width="2" x1="191.06957785288495" x2="336.20145559310913" y1="22" y2="22"/>
<line stroke="#000" stroke-width="2" x1="191.06957785288495" x2="336.20145559310913" y1="34" y2="34"/>
<line stroke="#000" stroke-width="2" x1="191.06957785288495" x2="336.20145559310913" y1="46" y2="46"/>
<line stroke="#000" stroke-width="2" x1="191.06957785288495" x2="336.20145559310913" y1="58" y2="58"/>
<line stroke="#000" stroke-width="2" x1="337.20145559310913" x2="337.20145559310913" y1="9" y2="59"/>
<path d="M365.20145 60.811974Q365.20145 59.25909,365.9569 58.629547Q366.71237 58,367.7616 58Q368.8528 58,369.62927 58.629547Q370.4057 59.25909,370.4057 60.811974Q370.4057 62.322887,369.62927 62.994404Q368.8528 63.66592,367.7616 63.66592Q366.71237 63.66592,365.9569 62.994404Q365.20145 62.322887,365.20145 60.811974Z" fill="#000"/>
<path d="M352.77615 69.33184Q350.76163 69.33184,349.48154 68.38752Q348.20145 67.4432,348.20145 65.51259Q348.20145 63.37213,349.39758 61.672356Q350.59372 59.97258,352.52435 58.98629Q354.45496 58,356.6374 58Q358.48404 58,359.57526 58.98629Q360.66647 59.97258,360.66647 61.77728Q360.66647 63.8338,359.57526 65.55456Q358.48404 67.27532,356.70035 68.30358Q354.91663 69.33184,352.77615 69.33184ZM349.33463 66.51987Q349.33463 66.93956,349.6494 67.27532Q349.96417 67.61108,350.5098 67.61108Q351.97873 67.61108,354.16116 66.39396Q355.6301 65.55456,356.82623 64.5263Q358.0224 63.49804,358.73587 62.46978Q359.44937 61.44152,359.44937 60.728035Q359.44937 60.26637,359.21854 59.951595Q358.9877 59.63682,358.40012 59.63682Q357.6027 59.63682,356.4695 60.140457Q355.3363 60.644096,354.0982 61.44152Q352.8601 62.23895,351.7689 63.183266Q350.67767 64.12759,350.00616 65.00896Q349.33463 65.89032,349.33463 66.51987Z" fill="#000"/>
<line stroke="#000" stroke-width="2" x1="359.6300270216806" x2="359.6300270216806" y1="28" y2="62.5"/>
<path d="M431.00876 63.33184Q428.99423 63.33184,427.71414 62.38752Q426.43405 61.4432,426.43405 59.512592Q426.43405 57.37213,427.6302 55.672356Q428.82632 53.97258,430.75696 52.98629Q432.68756 52,434.87 52Q436.71664 52,437.80786 52.98629Q438.89908 53.97258,438.89908 55.77728Q438.89908 57.8338,437.80786 59.55456Q436.71664 61.275322,434.93295 62.30358Q433.14923 63.33184,431.00876 63.33184Z" fill="#000"/>
<line stroke="#000" stroke-width="2" x1="437.8626325584594" x2="437.8626325584594" y1="22" y2="56.5"/>
<line stroke="#000" stroke-width="2" x1="338.20145559310913" x2="490.00000000000006" y1="10" y2="10"/>
<line stroke="#000" stroke-width="2" x1="338.20145559310913" x2="490.00000000000006" y1="22" y2="22"/>
<line stroke="#000" stroke-width="2" x1="338.20145559310913" x2="490.00000000000006" y1="34" y2="34"/>
<line stroke="#000" stroke-width="2" x1="338.20145559310913" x2="490.00000000000006" y1="46" y2="46"/>
<line stroke="#000" stroke-width="2" x1="338.20145559310913" x2="490.00000000000006" y1="58" y2="58"/>
<line stroke="#000" stroke-width="2" x1="491.00000000000006" x2="491.00000000000006" y1="9" y2="59"/>
<path d="M26.574705 157.33185Q24.560156 157.33185,23.280079 156.38753Q22 155.4432,22 153.51259Q22 151.37213,23.196138 149.67236Q24.392277 147.97258,26.322887 146.98628Q28.253498 146,30.435925 146Q32.282597 146,33.37381 146.98628Q34.465027 147.97258,34.465027 149.77728Q34.465027 151.8338,33.37381 153.55457Q32.282597 155.27531,30.49888 156.30359Q28.715164 157.33185,26.574705 157.33185ZM23.133183 154.51987Q23.133183 154.93956,23.447956 155.27531Q23.76273 155.61108,24.308338 155.61108Q25.777279 155.61108,27.95971 154.39395Q29.42865 153.55457,30.62479 152.5263Q31.820929 151.49805,32.534416 150.46979Q33.247902 149.44153,33.247902 148.72803Q33.247902 148.26637,33.017067 147.9516Q32.786232 147.63683,32.198658 147.63683Q31.40123 147.63683,30.268047 148.14046Q29.134863 148.64409,27.896753 149.44153Q26.658646 150.23895,25.56743 151.18327Q24.476217 152.1276,23.8047 153.00896Q23.133183 153.89032,23.133183 154.51987Z" fill="#000"/>
<line stroke="#000" stroke-width="2" x1="33.42857142857143" x2="33.42857142857143" y1="116" y2="150.5"/>
<path d="M87.82588 163.33185Q85.81133 163.33185,84.53126 162.38753Q83.251175 161.4432,83.251175 159.51259Q83.251175 157.37213,84.44731 155.67236Q85.643456 153.97258,87.574066 152.98628Q89.50468 152,91.6871 152Q93.533775 152,94.624985 152.98628Q95.7162 153.97258,95.7162 155.77728Q95.7162 157.8338,94.624985 159.55457Q93.533775 161.27531,91.75006 162.30359Q89.96634 163.33185,87.82588 163.33185Z" fill="#000"/>
<line stroke="#000" stroke-width="2" x1="94.67974755625247" x2="94.67974755625247" y1="122" y2="156.5"/>
<path d="M129.07706 157.33185Q127.06251 157.33185,125.78243 156.38753Q124.50235 155.4432,124.50235 153.51259Q124.50235 151.37213,125.69849 149.67236Q126.89463 147.97258,128.82524 146.98628Q130.75584 146,132.93828 146Q134.78494 146,135.87616 146.98628Q136.96738 147.97258,136.96738 149.77728Q136.96738 151.8338,135.87616 153.55457Q134.78494 155.27531,133.00124 156.30359Q131.21751 157.33185,129.07706 157.33185Z" fill="#000"/>
<line stroke="#000" stroke-width="2" x1="135.9309236839335" x2="135.9309236839335" y1="116" y2="150.5"/>
<line stroke="#000" stroke-width="2" x1="12" x2="177.7535283830431" y1="110" y2="110"/>
<line stroke="#000" stroke-width="2" x1="12" x2="177.7535283830431" y1="122" y2="122"/>
<line stroke="#000" stroke-width="2" x1="12" x2="177.7535283830431" y1="134" y2="134"/>
<line stroke="#000" stroke-width="2" x1="12" x2="177.7535283830431" y1="146" y2="146"/>
<line stroke="#000" stroke-width="2" x1="12" x2="177.7535283830431" y1="158" y2="158"/>
<line stroke="#000" stroke-width="2" x1="12" x2="12" y1="109" y2="159"/>
<line stroke="#000" stroke-width="2" x1="178.7535283830431" x2="178.7535283830431" y1="109" y2="159"/>
<path d="M206.75352 130.81197Q206.75352 129.2591,207.50899 128.62955Q208.26443 127.99999,209.31369 127.99999Q210.4049 127.99999,211.18134 128.62955Q211.95778 129.2591,211.95778 130.81197Q211.95778 132.32288,211.18134 132.9944Q210.4049 133.66591,209.31369 133.66591Q208.26443 133.66591,207.50899 132.9944Q206.75352 132.32288,206.75352 130.81197Z" fill="#000"/>
<path d="M194.32823 139.33185Q192.31367 139.33185,191.0336 138.38753Q189.75352 137.4432,189.75352 135.51259Q189.75352 133.37213,190.94966 131.67236Q192.1458 129.97258,194.0764 128.98628Q196.00702 128,198.18944 128Q200.03612 128,201.12733 128.98628Q202.21854 129.97258,202.21854 131.77728Q202.21854 133.8338,201.12733 135.55457Q200.03612 137.27531,198.2524 138.30359Q196.46869 139.33185,194.32823 139.33185ZM190.8867 136.51987Q190.8867 136.93956,191.20148 137.27531Q191.51625 137.61108,192.06186 137.61108Q193.53079 137.61108,195.71323 136.39395Q197.18217 135.55457,198.37831 134.5263Q199.57445 133.49805,200.28793 132.46979Q201.00142 131.44153,201.00142 130.72803Q201.00142 130.26637,200.77058 129.9516Q200.53975 129.63683,199.95218 129.63683Q199.15475 129.63683,198.02156 130.14046Q196.88838 130.64409,195.65027 131.44153Q194.41217 132.23895,193.32095 133.18327Q192.22974 134.1276,191.55821 135.00896Q190.8867 135.89032,190.8867 136.51987Z" fill="#000"/>
<line stroke="#000" stroke-width="2" x1="201.1820998116145" x2="201.1820998116145" y1="98" y2="132.5"/>
<path d="M262.87167 145.33185Q260.85715 145.33185,259.57706 144.38753Q258.29697 143.4432,258.29697 141.51259Q258.29697 139.37213,259.4931 137.67236Q260.68924 135.97258,262.61987 134.98628Q264.55048 134,266.7329 134Q268.57956 134,269.67078 134.98628Q270.762 135.97258,270.762 137.77728Q270.762 139.8338,269.67078 141.55457Q268.57956 143.27531,266.79587 144.30359Q265.01215 145.33185,262.87167 145.33185Z" fill="#000"/>
<line stroke="#000" stroke-width="2" x1="269.72553066980277" x2="269.72553066980277" y1="104" y2="138.5"/>
<line stroke="#000" stroke-width="2" x1="179.7535283830431" x2="312.17372343275287" y1="110" y2="110"/>
<line stroke="#000" stroke-width="2" x1="179.7535283830431" x2="312.17372343275287" y1="122" y2="122"/>
<line stroke="#000" stroke-width="2" x1="179.7535283830431" x2="312.17372343275287" y1="134" y2="134"/>
<line stroke="#000" stroke-width="2" x1="179.7535283830431" x2="312.17372343275287" y1="146" y2="146"/>
<line stroke="#000" stroke-width="2" x1="179.7535283830431" x2="312.17372343275287" y1="158" y2="158"/>
<line stroke="#000" stroke-width="2" x1="313.17372343275287" x2="313.17372343275287" y1="109" y2="159"/>
<path d="M328.74844 151.33185Q326.73392 151.33185,325.45383 150.38753Q324.17374 149.4432,324.17374 147.51259Q324.17374 145.37213,325.36987 143.67236Q326.566 141.97258,328.49664 140.98628Q330.42725 140,332.60968 140Q334.45633 140,335.54755 140.98628Q336.63876 141.97258,336.63876 143.77728Q336.63876 145.8338,335.54755 147.55457Q334.45633 149.27531,332.67264 150.30359Q330.88892 151.33185,328.74844 151.33185ZM325.30692 148.51987Q325.30692 148.93956,325.6217 149.27531Q325.93646 149.61108,326.4821 149.61108Q327.95102 149.61108,330.13345 148.39395Q331.6024 147.55457,332.79852 146.5263Q333.9947 145.49805,334.70816 144.46979Q335.42166 143.44153,335.42166 142.72803Q335.42166 142.26637,335.19083 141.9516Q334.96 141.63683,334.3724 141.63683Q333.57498 141.63683,332.4418 142.14046Q331.3086 142.64409,330.0705 143.44153Q328.8324 144.23895,327.74118 145.18327Q326.64996 146.1276,325.97845 147.00896Q325.30692 147.89032,325.30692 148.51987Z" fill="#000"/>
<line stroke="#000" stroke-width="2" x1="335.60229486132425" x2="335.60229486132425" y1="110" y2="144.5"/>
<path d="M389.9996 157.33185Q387.98508 157.33185,386.705 156.38753Q385.4249 155.4432,385.4249 153.51259Q385.4249 151.37213,386.62103 149.67236Q387.81717 147.97258,389.7478 146.98628Q391.6784 146,393.86084 146Q395.7075 146,396.7987 146.98628Q397.88992 147.97258,397.88992 149.77728Q397.88992 151.8338,396.7987 153.55457Q395.7075 155.27531,393.9238 156.30359Q392.14008 157.33185,389.9996 157.33185Z" fill="#000"/>
<line stroke="#000" stroke-width="2" x1="396.8534709890053" x2="396.8534709890053" y1="116" y2="150.5"/>
<path d="M441.32352 151.33185Q439.309 151.33185,438.0289 150.38753Q436.7488 149.4432,436.7488 147.51259Q436.7488 145.37213,437.94495 143.67236Q439.14108 141.97258,441.07172 140.98628Q443.00232 140,445.18475 140Q447.0314 140,448.12262 140.98628Q449.21384 141.97258,449.21384 143.77728Q449.21384 145.8338,448.12262 147.55457Q447.0314 149.27531,445.2477 150.30359Q443.464 151.33185,441.32352 151.33185Z" fill="#000"/>
<line stroke="#000" stroke-width="2" x1="448.17739530089045" x2="448.17739530089045" y1="110" y2="144.5"/>
<line stroke="#000" stroke-width="2" x1="314.1737234327528" x2="490.00000000000006" y1="110" y2="110"/>
<line stroke="#000" stroke-width="2" x1="314.1737234327528" x2="490.00000000000006" y1="122" y2="122"/>
<line stroke="#000" stroke-width="2" x1="314.1737234327528" x2="490.00000000000006" y1="134" y2="134"/>
<line stroke="#000" stroke-width="2" x1="314.1737234327528" x2="490.00000000000006" y1="146" y2="146"/>
<line stroke="#000" stroke-width="2" x1="314.1737234327528" x2="490.00000000000006" y1="158" y2="158"/>
<line stroke="#000" stroke-width="2" x1="491.00000000000006" x2="491.00000000000006" y1="109" y2="159"/>
</svg>
