<svg height="200" width="500" xmlns="http://www.w3.org/2000/svg">
<rect fill="#fff" height="200" width="500" x="0" y="0"/>
<path d="M30.864017 21.895914Q30.393955 20.116394,30.091774 18.370451Q29.789593 16.624508,29.789593 14.811413Q29.789593 13.233349,30.007835 11.839954Q30.226078 10.446556,30.628986 9.271404Q31.065474 7.9283714,31.770565 6.7364273Q32.47566 5.544487,33.26469 4.7722435Q34.053722 4,34.65809 4Q35.463905 4,36.874092 6.853943Q37.579185 8.297703,37.91494 9.976494Q38.2507 11.655289,38.2507 13.569107Q38.2507 15.9529915,37.61276 18.320087Q36.97482 20.687183,35.749302 22.768885Q34.52378 24.850586,32.811417 26.42865L33.986572 32.06939Q34.490208 32.002235,34.825966 31.96866Q35.161724 31.935085,35.329605 31.935085Q37.377728 31.935085,38.98937 33.093452Q40.601006 34.251816,41.55792 36.132065Q42.51483 38.01231,42.51483 40.26189Q42.51483 42.84723,41.188583 44.91214Q39.86234 46.977055,37.209846 47.950752Q37.377728 48.52154,38.183548 52.71852Q38.385002 53.725796,38.485733 54.313374Q38.586456 54.90095,38.620033 55.337437Q38.65361 55.773922,38.65361 56.34471Q38.65361 58.023502,37.831 59.349747Q37.008392 60.67599,35.614998 61.41466Q34.2216 62.153328,32.50923 62.153328Q30.76329 62.153328,29.420258 61.4986Q28.077225 60.843872,27.304981 59.685505Q26.532738 58.527138,26.532738 57.016228Q26.532738 55.404587,27.422497 54.330162Q28.312256 53.255733,29.95747 53.255733Q31.367657 53.255733,32.257416 54.279797Q33.147175 55.30386,33.147175 56.714043Q33.147175 57.922775,32.307777 58.829323Q31.468384 59.73587,30.12535 59.73587L29.789593 59.73587Q30.662563 61.045326,32.54281 61.045326Q34.859543 61.045326,36.169 59.534416Q37.478455 58.023502,37.478455 55.673195Q37.478455 55.102406,37.344154 54.145493Q37.209846 53.188583,36.874092 51.84555Q36.53833 50.502518,36.35367 49.629547Q36.169 48.756573,36.101845 48.38724Q34.96027 48.723,33.41578 48.723Q30.52826 48.723,27.775042 47.04421Q25.088976 45.365417,23.544489 42.612198Q22 39.85898,22 36.669277Q22 33.647453,23.37661 30.994963Q24.753218 28.342472,26.784555 26.126467Q28.815893 23.910463,30.864017 21.895914ZM31.770565 21.056519Q32.54281 20.653608,33.41578 19.562393Q34.288754 18.47118,35.094574 17.060995Q35.90039 15.65081,36.40403 14.223839Q36.90767 12.796864,36.90767 11.655289Q36.90767 10.446556,36.53833 9.7414665Q36.169 9.036373,35.26245 9.036373Q34.45663 9.036373,33.701176 9.77504Q32.94572 10.51371,32.358143 11.739227Q31.770565 12.964745,31.434807 14.475655Q31.099049 15.986568,31.099049 17.564632Q31.099049 18.63906,31.317291 19.51203Q31.535534 20.385002,31.770565 21.056519ZM33.684387 36.06491Q32.77784 36.266365,31.97202 36.921097Q31.1662 37.575825,30.679352 38.49916Q30.192501 39.422493,30.192501 40.463345Q30.192501 41.302742,30.628986 42.1925Q31.065474 43.08226,31.703415 43.619473Q32.1399 44.02238,32.576385 44.22384Q33.080025 44.45887,33.080025 44.660324Q33.080025 44.76105,32.744263 44.86178Q31.468384 44.559597,30.44432 43.7202Q29.420258 42.880806,28.83268 41.68886Q28.245104 40.49692,28.245104 39.15389Q28.245104 37.71013,28.83268 36.367096Q29.420258 35.024063,30.477896 33.949635Q31.535534 32.87521,32.878567 32.337997L31.90487 27.268045Q28.010073 30.424173,26.180191 33.462784Q24.350307 36.501396,24.350307 39.489647Q24.350307 41.672073,25.491886 43.552322Q26.633465 45.432568,28.614437 46.590935Q30.595411 47.7493,33.080025 47.7493Q33.75154 47.7493,34.439842 47.614994Q35.128147 47.480694,35.90039 47.279236L33.684387 36.06491ZM36.941242 46.943478Q40.231674 45.533295,40.231674 41.168438Q40.231674 39.724678,39.493004 38.532734Q38.754337 37.340794,37.51203 36.6357Q36.269726 35.93061,34.72524 35.93061L36.941242 46.943478Z" fill="#000"/>
<path d="M62.51483 39.246223Q62.51483 37.69334,63.648018 36.51819Q64.781204 35.343033,66.732796 34.671516Q68.68439 34,71.0347 34Q73.42698 34,75.44153 34.65053Q77.45608 35.301064,78.6732 36.47622Q79.89032 37.65137,79.89032 39.246223Q79.89032 40.883045,78.71517 42.07918Q77.540016 43.275322,75.588425 43.925854Q73.636826 44.576385,71.286514 44.576385Q68.93621 44.576385,66.94264 43.94684Q64.94908 43.31729,63.731956 42.121155Q62.51483 40.925014,62.51483 39.246223ZM72.167885 43.736988Q73.59486 43.736988,74.11948 42.687744Q74.644104 41.6385,74.644104 40.21153Q74.644104 38.742584,74.03554 37.525463Q73.42698 36.30834,72.4197 35.573868Q71.41243 34.839394,70.153336 34.839394Q68.726364 34.839394,68.243706 35.88864Q67.761055 36.937885,67.761055 38.364857Q67.761055 39.791832,68.34863 41.008953Q68.93621 42.226078,69.9225 42.981533Q70.90879 43.736988,72.167885 43.736988Z" fill="#000"/>
<line stroke="#000" stroke-width="2" x1="13" x2="137.00988642374674" y1="10" y2="10"/>
<line stroke="#000" stroke-width="2" x1="13" x2="137.00988642374674" y1="22" y2="22"/>
<line stroke="#000" stroke-width="2" x1="13" x2="137.00988642374674" y1="34" y2="34"/>
<line stroke="#000" stroke-width="2" x1="13" x2="137.00988642374674" y1="46" y2="46"/>
<line stroke="#000" stroke-width="2" x1="13" x2="137.00988642374674" y1="58" y2="58"/>
<line stroke="#000" stroke-width="2" x1="13" x2="13" y1="9" y2="59"/>
<line stroke="#000" stroke-width="2" x1="138.00988642374674" x2="138.00988642374674" y1="9" y2="59"/>
<path d="M171.00989 60.811974Q171.00989 59.25909,171.76535 58.629547Q172.5208 58,173.57005 58Q174.66127 58,175.4377 58.629547Q176.21414 59.25909,176.21414 60.811974Q176.21414 62.322887,175.4377 62.994404Q174.66127 63.66592,173.57005 63.66592Q172.5208 63.66592,171.76535 62.994404Q171.00989 62.322887,171.00989 60.811974Z" fill="#000"/>
<path d="M158.5846 69.33184Q156.57004 69.33184,155.28996 68.38752Q154.00989 67.4432,154.00989 65.51259Q154.00989 63.37213,155.20602 61.672356Q156.40216 59.97258,158.33276 58.98629Q160.26338 58,162.4458 58Q164.29248 58,165.3837 58.98629Q166.47491 59.97258,166.47491 61.77728Q166.47491 63.8338,165.3837 65.55456Q164.29248 67.27532,162.50876 68.30358Q160.72505 69.33184,158.5846 69.33184ZM155.14307 66.51987Q155.14307 66.93956,155.45784 67.27532Q155.77261 67.61108,156.31822 67.61108Q157.78716 67.61108,159.96959 66.39396Q161.43854 65.55456,162.63467 64.5263Q163.83081 63.49804,164.5443 62.46978Q165.25778 61.44152,165.25778 60.728035Q165.25778 60.26637,165.02695 59.951595Q164.79611 59.63682,164.20854 59.63682Q163.41112 59.63682,162.27792 60.140457Q161.14474 60.644096,159.90663 61.44152Q158.66853 62.23895,157.57732 63.183266Q156.4861 64.12759,155.81458 65.00896Q155.14307 65.89032,155.14307 66.51987Z" fill="#000"/>
<line stroke="#000" stroke-width="2" x1="149.00988642374676" x2="171.00988642374676" y1="58" y2="58"/>
<line stroke="#000" stroke-width="2" x1="165.43845785231818" x2="165.43845785231818" y1="28" y2="62.5"/>
<path d="M246.07965 63.33184Q244.0651 63.33184,242.78502 62.38752Q241.50494 61.4432,241.50494 59.512592Q241.50494 57.37213,242.70108 55.672356Q243.89722 53.97258,245.82782 52.98629Q247.75844 52,249.94086 52Q251.78754 52,252.87875 52.98629Q253.96997 53.97258,253.96997 55.77728Q253.96997 57.8338,252.87875 59.55456Q251.78754 61.275322,250.00381 62.30358Q248.22011 63.33184,246.07965 63.33184Z" fill="#000"/>
<line stroke="#000" stroke-width="2" x1="252.93351464044483" x2="252.93351464044483" y1="22" y2="56.5"/>
<line stroke="#000" stroke-width="2" x1="140.00988642374676" x2="306.6287074089051" y1="10" y2="10"/>
<line stroke="#000" stroke-width="2" x1="140.00988642374676" x2="306.6287074089051" y1="22" y2="22"/>
<line stroke="#000" stroke-width="2" x1="140.00988642374676" x2="306.6287074089051" y1="34" y2="34"/>
<line stroke="#000" stroke-width="2" x1="140.00988642374676" x2="306.6287074089051" y1="46" y2="46"/>
<line stroke="#000" stroke-width="2" x1="140.00988642374676" x2="306.6287074089051" y1="58" y2="58"/>
<line stroke="#000" stroke-width="2" x1="140.00988642374676" x2="140.00988642374676" y1="9" y2="59"/>
<line stroke="#000" stroke-width="2" x1="307.6287074089051" x2="307.6287074089051" y1="9" y2="59"/>
<path d="M320.07965 57.33184Q318.06512 57.33184,316.78503 56.38752Q315.50494 55.4432,315.50494 53.512592Q315.50494 51.37213,316.70108 49.672356Q317.89722 47.97258,319.82785 46.98629Q321.75845 46,323.9409 46Q325.78754 46,326.87875 46.98629Q327.96997 47.97258,327.96997 49.77728Q327.96997 51.8338,326.87875 53.55456Q325.78754 55.275322,324.00385 56.30358Q322.22012 57.33184,320.07965 57.33184ZM316.63812 54.519867Q316.63812 54.939564,316.9529 55.275322Q317.26767 55.61108,317.8133 55.61108Q319.28223 55.61108,321.46466 54.393955Q322.9336 53.55456,324.12973 52.526302Q325.32587 51.49804,326.03937 50.46978Q326.75287 49.44152,326.75287 48.728035Q326.75287 48.26637,326.52203 47.951595Q326.2912 47.63682,325.7036 47.63682Q324.9062 47.63682,323.773 48.140457Q322.63983 48.644096,321.4017 49.44152Q320.1636 50.23895,319.0724 51.183266Q317.98117 52.127586,317.30966 53.008953Q316.63812 53.89032,316.63812 54.519867Z" fill="#000"/>
<line stroke="#000" stroke-width="2" x1="326.93351464044486" x2="326.93351464044486" y1="16" y2="50.5"/>
<path d="M376.32718 63.33184Q374.31265 63.33184,373.03256 62.38752Q371.75247 61.4432,371.75247 59.512592Q371.75247 57.37213,372.9486 55.672356Q374.14474 53.97258,376.07538 52.98629Q378.00598 52,380.18842 52Q382.03506 52,383.12628 52.98629Q384.2175 53.97258,384.2175 55.77728Q384.2175 57.8338,383.12628 59.55456Q382.03506 61.275322,380.25137 62.30358Q378.46765 63.33184,376.32718 63.33184Z" fill="#000"/>
<line stroke="#000" stroke-width="2" x1="383.18104303450815" x2="383.18104303450815" y1="22" y2="56.5"/>
<path d="M429.45093 57.33184Q427.4364 57.33184,426.1563 56.38752Q424.87622 55.4432,424.87622 53.512592Q424.87622 51.37213,426.07236 49.672356Q427.2685 47.97258,429.19913 46.98629Q431.12973 46,433.31216 46Q435.1588 46,436.25003 46.98629Q437.34125 47.97258,437.34125 49.77728Q437.34125 51.8338,436.25003 53.55456Q435.1588 55.275322,433.37512 56.30358Q431.5914 57.33184,429.45093 57.33184Z" fill="#000"/>
<line stroke="#000" stroke-width="2" x1="436.3048072315398" x2="436.3048072315398" y1="16" y2="50.5"/>
<line stroke="#000" stroke-width="2" x1="306.5049432118734" x2="490.00000000000006" y1="10" y2="10"/>
<line stroke="#000" stroke-width="2" x1="306.5049432118734" x2="490.00000000000006" y1="22" y2="22"/>
<line stroke="#000" stroke-width="2" x1="306.5049432118734" x2="490.00000000000006" y1="34" y2="34"/>
<line stroke="#000" stroke-width="2" x1="306.5049432118734" x2="490.00000000000006" y1="46" y2="46"/>
<line stroke="#000" stroke-width="2" x1="306.5049432118734" x2="490.00000000000006" y1="58" y2="58"/>
<line stroke="#000" stroke-width="2" x1="306.5049432118734" x2="306.5049432118734" y1="9" y2="59"/>
<line stroke="#000" stroke-width="2" x1="491.00000000000006" x2="491.00000000000006" y1="9" y2="59"/>
<path d="M39 130.81197Q39 129.2591,39.755455 128.62955Q40.510914 127.99999,41.560158 127.99999Q42.65137 127.99999,43.42781 128.62955Q44.204254 129.2591,44.204254 130.81197Q44.204254 132.32288,43.42781 132.9944Q42.65137 133.66591,41.560158 133.66591Q40.510914 133.66591,39.755455 132.9944Q39 132.32288,39 130.81197Z" fill="#000"/>
<path d="M26.574705 139.33185Q24.560156 139.33185,23.280079 138.38753Q22 137.4432,22 135.51259Q22 133.37213,23.196138 131.67236Q24.392277 129.97258,26.322887 128.98628Q28.253498 128,30.435925 128Q32.282597 128,33.37381 128.98628Q34.465027 129.97258,34.465027 131.77728Q34.465027 133.8338,33.37381 135.55457Q32.282597 137.27531,30.49888 138.30359Q28.715164 139.33185,26.574705 139.33185ZM23.133183 136.51987Q23.133183 136.93956,23.447956 137.27531Q23.76273 137.61108,24.308338 137.61108Q25.777279 137.61108,27.95971 136.39395Q29.42865 135.55457,30.62479 134.5263Q31.820929 133.49805,32.534416 132.46979Q33.247902 131.44153,33.247902 130.72803Q33.247902 130.26637,33.017067 129.9516Q32.786232 129.63683,32.198658 129.63683Q31.40123 129.63683,30.268047 130.14046Q29.134863 130.64409,27.896753 131.44153Q26.658646 132.23895,25.56743 133.18327Q24.476217 134.1276,23.8047 135.00896Q23.133183 135.89032,23.133183 136.51987Z" fill="#000"/>
<line stroke="#000" stroke-width="2" x1="33.42857142857143" x2="33.42857142857143" y1="98" y2="132.5"/>
<path d="M172.53833 145.33185Q170.52377 145.33185,169.2437 144.38753Q167.96362 143.4432,167.96362 141.51259Q167.96362 139.37213,169.15976 137.67236Q170.3559 135.97258,172.2865 134.98628Q174.21712 134,176.39954 134Q178.24622 134,179.33743 134.98628Q180.42865 135.97258,180.42865 137.77728Q180.42865 139.8338,179.33743 141.55457Q178.24622 143.27531,176.4625 144.30359Q174.67879 145.33185,172.53833 145.33185Z" fill="#000"/>
<line stroke="#000" stroke-width="2" x1="179.39219733646937" x2="179.39219733646937" y1="104" y2="138.5"/>
<line stroke="#000" stroke-width="2" x1="13" x2="248.95453238487244" y1="110" y2="110"/>
<line stroke="#000" stroke-width="2" x1="13" x2="248.95453238487244" y1="122" y2="122"/>
<line stroke="#000" stroke-width="2" x1="13" x2="248.95453238487244" y1="134" y2="134"/>
<line stroke="#000" stroke-width="2" x1="13" x2="248.95453238487244" y1="146" y2="146"/>
<line stroke="#000" stroke-width="2" x1="13" x2="248.95453238487244" y1="158" y2="158"/>
<line stroke="#000" stroke-width="2" x1="13" x2="13" y1="109" y2="159"/>
<line stroke="#000" stroke-width="2" x1="249.95453238487244" x2="249.95453238487244" y1="109" y2="159"/>
<path d="M246.53833 151.33185Q244.52377 151.33185,243.2437 150.38753Q241.96362 149.4432,241.96362 147.51259Q241.96362 145.37213,243.15976 143.67236Q244.3559 141.97258,246.2865 140.98628Q248.21712 140,250.39954 140Q252.24622 140,253.33743 140.98628Q254.42865 141.97258,254.42865 143.77728Q254.42865 145.8338,253.33743 147.55457Q252.24622 149.27531,250.4625 150.30359Q248.67879 151.33185,246.53833 151.33185ZM243.0968 148.51987Q243.0968 148.93956,243.41158 149.27531Q243.72635 149.61108,244.27196 149.61108Q245.74089 149.61108,247.92332 148.39395Q249.39227 147.55457,250.58841 146.5263Q251.78455 145.49805,252.49803 144.46979Q253.21152 143.44153,253.21152 142.72803Q253.21152 142.26637,252.98068 141.9516Q252.74985 141.63683,252.16228 141.63683Q251.36485 141.63683,250.23166 142.14046Q249.09848 142.64409,247.86037 143.44153Q246.62227 144.23895,245.53105 145.18327Q244.43983 146.1276,243.76831 147.00896Q243.0968 147.89032,243.0968 148.51987Z" fill="#000"/>
<line stroke="#000" stroke-width="2" x1="253.39219733646937" x2="253.39219733646937" y1="110" y2="144.5"/>
<path d="M332.0495 155.80527L332.0495 149.40347L329.94543 149.94069L329.94543 145.46391L332.0495 144.88193L332.0495 136.10744L333.43732 136.10744L333.43732 144.52379L336.43674 143.8075L336.43674 135.07779L337.82455 135.07779L337.82455 143.44936L340.01816 142.95691L340.01816 147.38892L337.82455 148.01567L337.82455 154.41747L340.01816 153.88025L340.01816 158.49133L337.82455 159.02853L337.82455 167.44489L336.43674 167.44489L336.43674 159.38669L333.43732 160.1925L333.43732 168.92221L332.0495 168.92221L332.0495 160.50587L329.94543 161.04309L329.94543 156.432L332.0495 155.80527ZM336.43674 154.73083L336.43674 148.28427L333.43732 149.04533L333.43732 155.44711L336.43674 154.73083Z" fill="#000"/>
<path d="M349.5929 157.33185Q347.57837 157.33185,346.29828 156.38753Q345.0182 155.4432,345.0182 153.51259Q345.0182 151.37213,346.21432 149.67236Q347.41046 147.97258,349.3411 146.98628Q351.2717 146,353.45413 146Q355.30078 146,356.392 146.98628Q357.48322 147.97258,357.48322 149.77728Q357.48322 151.8338,356.392 153.55457Q355.30078 155.27531,353.5171 156.30359Q351.73337 157.33185,349.5929 157.33185Z" fill="#000"/>
<line stroke="#000" stroke-width="2" x1="356.44675847462247" x2="356.44675847462247" y1="116" y2="150.5"/>
<path d="M413.5838 151.33185Q411.56927 151.33185,410.28918 150.38753Q409.0091 149.4432,409.0091 147.51259Q409.0091 145.37213,410.20523 143.67236Q411.40137 141.97258,413.332 140.98628Q415.2626 140,417.44504 140Q419.2917 140,420.3829 140.98628Q421.47412 141.97258,421.47412 143.77728Q421.47412 145.8338,420.3829 147.55457Q419.2917 149.27531,417.508 150.30359Q415.72427 151.33185,413.5838 151.33185Z" fill="#000"/>
<line stroke="#000" stroke-width="2" x1="420.43766495159696" x2="420.43766495159696" y1="110" y2="144.5"/>
<line stroke="#000" stroke-width="2" x1="232.96362590789795" x2="490" y1="110" y2="110"/>
<line stroke="#000" stroke-width="2" x1="232.96362590789795" x2="490" y1="122" y2="122"/>
<line stroke="#000" stroke-width="2" x1="232.96362590789795" x2="490" y1="134" y2="134"/>
<line stroke="#000" stroke-width="2" x1="232.96362590789795" x2="490" y1="146" y2="146"/>
<line stroke="#000" stroke-width="2" x1="232.96362590789795" x2="490" y1="158" y2="158"/>
<line stroke="#000" stroke-width="2" x1="232.96362590789795" x2="232.96362590789795" y1="109" y2="159"/>
<line stroke="#000" stroke-width="2" x1="491" x2="491" y1="109" y2="159"/>
</svg>
