<svg height="100" width="350" xmlns="http://www.w3.org/2000/svg">
<rect fill="#fff" height="100" width="350" x="0" y="0"/>
<path d="M38.574707 33.33184Q36.560158 33.33184,35.28008 32.38752Q34 31.443201,34 29.51259Q34 27.372131,35.196136 25.672356Q36.392277 23.97258,38.322887 22.98629Q40.253498 22,42.435925 22Q44.282597 22,45.37381 22.98629Q46.465027 23.97258,46.465027 25.777279Q46.465027 27.8338,45.37381 29.55456Q44.282597 31.275322,42.49888 32.30358Q40.715164 33.33184,38.574707 33.33184Z" fill="#000"/>
<path d="M38.574707 51.33184Q36.560158 51.33184,35.28008 50.38752Q34 49.4432,34 47.512592Q34 45.37213,35.196136 43.672356Q36.392277 41.97258,38.322887 40.98629Q40.253498 40,42.435925 40Q44.282597 40,45.37381 40.98629Q46.465027 41.97258,46.465027 43.77728Q46.465027 45.8338,45.37381 47.55456Q44.282597 49.275322,42.49888 50.30358Q40.715164 51.33184,38.574707 51.33184Z" fill="#000"/>
<line stroke="#000" stroke-width="2" x1="34.85714285714286" x2="34.85714285714286" y1="29.5" y2="82"/>
<path d="M58.461857 61.80526L58.461857 55.40347L56.357773 55.94068L56.357773 51.463905L58.461857 50.881927L58.461857 42.107445L59.84966 42.107445L59.84966 50.523785L62.8491 49.8075L62.8491 41.077785L64.2369 41.077785L64.2369 49.449356L66.43052 48.956913L66.43052 53.38892L64.2369 54.01567L64.2369 60.41746L66.43052 59.880245L66.43052 64.491325L64.2369 65.02854L64.2369 73.44488L62.8491 73.44488L62.8491 65.38668L59.84966 66.192505L59.84966 74.92222L58.461857 74.92222L58.461857 66.505875L56.357773 67.04309L56.357773 62.43201L58.461857 61.80526ZM62.8491 60.730835L62.8491 54.284275L59.84966 55.045326L59.84966 61.44712L62.8491 60.730835Z" fill="#000"/>
<path d="M87.005226 63.33184Q84.99068 63.33184,83.7106 62.38752Q82.43052 61.4432,82.43052 59.512592Q82.43052 57.37213,83.626656 55.672356Q84.8228 53.97258,86.75341 52.98629Q88.68402 52,90.86645 52Q92.71312 52,93.80433 52.98629Q94.895546 53.97258,94.895546 55.77728Q94.895546 57.8338,93.80433 59.55456Q92.71312 61.275322,90.9294 62.30358Q89.14568 63.33184,87.005226 63.33184ZM83.563705 60.519867Q83.563705 60.939564,83.87848 61.275322Q84.19325 61.61108,84.73886 61.61108Q86.2078 61.61108,88.39023 60.393955Q89.85917 59.55456,91.05531 58.526302Q92.25145 57.49804,92.964935 56.46978Q93.67842 55.44152,93.67842 54.728035Q93.67842 54.26637,93.447586 53.951595Q93.21675 53.63682,92.62918 53.63682Q91.83175 53.63682,90.69857 54.140457Q89.565384 54.644096,88.32728 55.44152Q87.089165 56.23895,85.997955 57.183266Q84.90674 58.127586,84.23522 59.008953Q83.563705 59.89032,83.563705 60.519867Z" fill="#000"/>
<path d="M76.005226 57.33184Q73.99068 57.33184,72.7106 56.38752Q71.43052 55.4432,71.43052 53.512592Q71.43052 51.37213,72.626656 49.672356Q73.8228 47.97258,75.75341 46.98629Q77.68402 46,79.86645 46Q81.71312 46,82.80433 46.98629Q83.895546 47.97258,83.895546 49.77728Q83.895546 51.8338,82.80433 53.55456Q81.71312 55.275322,79.9294 56.30358Q78.14568 57.33184,76.005226 57.33184ZM72.563705 54.519867Q72.563705 54.939564,72.87848 55.275322Q73.19325 55.61108,73.73886 55.61108Q75.2078 55.61108,77.39023 54.393955Q78.85917 53.55456,80.05531 52.526302Q81.25145 51.49804,81.964935 50.46978Q82.67842 49.44152,82.67842 48.728035Q82.67842 48.26637,82.447586 47.951595Q82.21675 47.63682,81.62918 47.63682Q80.83175 47.63682,79.69857 48.140457Q78.565384 48.644096,77.32728 49.44152Q76.089165 50.23895,74.997955 51.183266Q73.90674 52.127586,73.23522 53.008953Q72.563705 53.89032,72.563705 54.519867Z" fill="#000"/>
<path d="M87.005226 51.33184Q84.99068 51.33184,83.7106 50.38752Q82.43052 49.4432,82.43052 47.512592Q82.43052 45.37213,83.626656 43.672356Q84.8228 41.97258,86.75341 40.98629Q88.68402 40,90.86645 40Q92.71312 40,93.80433 40.98629Q94.895546 41.97258,94.895546 43.77728Q94.895546 45.8338,93.80433 47.55456Q92.71312 49.275322,90.9294 50.30358Q89.14568 51.33184,87.005226 51.33184ZM83.563705 48.519867Q83.563705 48.939564,83.87848 49.275322Q84.19325 49.61108,84.73886 49.61108Q86.2078 49.61108,88.39023 48.393955Q89.85917 47.55456,91.05531 46.526302Q92.25145 45.49804,92.964935 44.46978Q93.67842 43.44152,93.67842 42.728035Q93.67842 42.26637,93.447586 41.951595Q93.21675 41.63682,92.62918 41.63682Q91.83175 41.63682,90.69857 42.140457Q89.565384 42.644096,88.32728 43.44152Q87.089165 44.23895,85.997955 45.183266Q84.90674 46.127586,84.23522 47.008953Q83.563705 47.89032,83.563705 48.519867Z" fill="#000"/>
<line stroke="#000" stroke-width="2" x1="82.85909330233979" x2="82.85909330233979" y1="10" y2="56.5"/>
<path d="M144.72078 51.33184Q142.70622 51.33184,141.42615 50.38752Q140.14607 49.4432,140.14607 47.512592Q140.14607 45.37213,141.34221 43.672356Q142.53835 41.97258,144.46895 40.98629Q146.39957 40,148.58199 40Q150.42867 40,151.51988 40.98629Q152.61108 41.97258,152.61108 43.77728Q152.61108 45.8338,151.51988 47.55456Q150.42867 49.275322,148.64494 50.30358Q146.86124 51.33184,144.72078 51.33184Z" fill="#000"/>
<line stroke="#000" stroke-width="2" x1="151.57464068146825" x2="151.57464068146825" y1="10" y2="44.5"/>
<line stroke="#000" stroke-width="2" x1="13" x2="186.5038429424611" y1="10" y2="10"/>
<line stroke="#000" stroke-width="2" x1="13" x2="186.5038429424611" y1="22" y2="22"/>
<line stroke="#000" stroke-width="2" x1="13" x2="186.5038429424611" y1="34" y2="34"/>
<line stroke="#000" stroke-width="2" x1="13" x2="186.5038429424611" y1="46" y2="46"/>
<line stroke="#000" stroke-width="2" x1="13" x2="186.5038429424611" y1="58" y2="58"/>
<line stroke="#000" stroke-width="2" x1="13" x2="13" y1="9" y2="59"/>
<line stroke="#000" stroke-width="2" x1="187.5038429424611" x2="187.5038429424611" y1="9" y2="59"/>
<path d="M213.07855 15.331842Q211.064 15.331842,209.78392 14.387522Q208.50385 13.443202,208.50385 11.512591Q208.50385 9.372133,209.69998 7.6723566Q210.89612 5.97258,212.82672 4.98629Q214.75734 4,216.93976 4Q218.78644 4,219.87766 4.98629Q220.96887 5.97258,220.96887 7.777281Q220.96887 9.8338,219.87766 11.554562Q218.78644 13.275322,217.00272 14.303582Q215.21901 15.331842,213.07855 15.331842ZM209.63702 12.519867Q209.63702 12.939564,209.9518 13.275322Q210.26657 13.611081,210.81218 13.611081Q212.28111 13.611081,214.46355 12.393957Q215.9325 11.554562,217.12863 10.526302Q218.32477 9.498042,219.03825 8.469782Q219.75174 7.4415226,219.75174 6.728036Q219.75174 6.266369,219.5209 5.9515953Q219.29007 5.6368217,218.7025 5.6368217Q217.90508 5.6368217,216.77188 6.140459Q215.6387 6.6440964,214.40059 7.4415226Q213.16249 8.238949,212.07127 9.183269Q210.98006 10.127588,210.30853 11.008954Q209.63702 11.89032,209.63702 12.519867Z" fill="#000"/>
<line stroke="#000" stroke-width="2" x1="209.36098579960392" x2="209.36098579960392" y1="11.5" y2="46"/>
<path d="M255.24464 18L261.9598 26.184107Q259.86133 28.660324,258.72815 30.465023Q257.59494 32.269722,257.59494 34.116394Q257.59494 35.669277,258.60223 37.369053Q259.6095 39.06883,261.79193 41.670956L261.12042 42.59429Q259.27374 41.419136,257.6789 41.419136Q256.50375 41.419136,255.91617 42.19558Q255.32858 42.97202,255.32858 44.063232Q255.32858 45.406265,255.89517 46.602406Q256.46176 47.798546,257.42706 48.88976L256.88147 49.687183Q253.98555 47.588696,252.60056 45.867935Q251.21555 44.147175,251.21555 42.13262Q251.21555 40.327923,252.34872 39.488525Q253.48192 38.64913,255.07677 38.64913Q256.33588 38.64913,258.3504 39.614437L258.3504 39.5305L251.88707 30.926691Q256.126 27.191381,256.126 23.959707Q256.126 21.399551,253.43994 18L255.24464 18Z" fill="#000"/>
<path d="M275.67548 61.80526L275.67548 55.40347L273.5714 55.94068L273.5714 51.463905L275.67548 50.881927L275.67548 42.107445L277.0633 42.107445L277.0633 50.523785L280.0627 49.8075L280.0627 41.077785L281.45053 41.077785L281.45053 49.449356L283.64413 48.956913L283.64413 53.38892L281.45053 54.01567L281.45053 60.41746L283.64413 59.880245L283.64413 64.491325L281.45053 65.02854L281.45053 73.44488L280.0627 73.44488L280.0627 65.38668L277.0633 66.192505L277.0633 74.92222L275.67548 74.92222L275.67548 66.505875L273.5714 67.04309L273.5714 62.43201L275.67548 61.80526ZM280.0627 60.730835L280.0627 54.284275L277.0633 55.045326L277.0633 61.44712L280.0627 60.730835Z" fill="#000"/>
<path d="M298.21884 75.33184Q296.2043 75.33184,294.92422 74.38752Q293.64413 73.4432,293.64413 71.51259Q293.64413 69.37213,294.84027 67.672356Q296.0364 65.97258,297.96704 64.98629Q299.89764 64,302.08008 64Q303.92673 64,305.01794 64.98629Q306.10916 65.97258,306.10916 67.77728Q306.10916 69.8338,305.01794 71.55456Q303.92673 73.27532,302.14304 74.30358Q300.3593 75.33184,298.21884 75.33184Z" fill="#000"/>
<path d="M298.21884 63.33184Q296.2043 63.33184,294.92422 62.38752Q293.64413 61.4432,293.64413 59.512592Q293.64413 57.37213,294.84027 55.672356Q296.0364 53.97258,297.96704 52.98629Q299.89764 52,302.08008 52Q303.92673 52,305.01794 52.98629Q306.10916 53.97258,306.10916 55.77728Q306.10916 57.8338,305.01794 59.55456Q303.92673 61.275322,302.14304 62.30358Q300.3593 63.33184,298.21884 63.33184Z" fill="#000"/>
<line stroke="#000" stroke-width="2" x1="288.64414778166633" x2="310.64414778166633" y1="58" y2="58"/>
<line stroke="#000" stroke-width="2" x1="288.64414778166633" x2="310.64414778166633" y1="70" y2="70"/>
<line stroke="#000" stroke-width="2" x1="305.0727192102378" x2="305.0727192102378" y1="22" y2="68.5"/>
<line stroke="#000" stroke-width="2" x1="187.5038429424611" x2="338.00000000000006" y1="10" y2="10"/>
<line stroke="#000" stroke-width="2" x1="187.5038429424611" x2="338.00000000000006" y1="22" y2="22"/>
<line stroke="#000" stroke-width="2" x1="187.5038429424611" x2="338.00000000000006" y1="34" y2="34"/>
<line stroke="#000" stroke-width="2" x1="187.5038429424611" x2="338.00000000000006" y1="46" y2="46"/>
<line stroke="#000" stroke-width="2" x1="187.5038429424611" x2="338.00000000000006" y1="58" y2="58"/>
<line stroke="#000" stroke-width="2" x1="187.5038429424611" x2="187.5038429424611" y1="9" y2="59"/>
<line stroke="#000" stroke-width="2" x1="339.00000000000006" x2="339.00000000000006" y1="9" y2="59"/>
</svg>
