<svg height="500" width="350" xmlns="http://www.w3.org/2000/svg">
<rect fill="#fff" height="500" width="350" x="0" y="0"/>
<path d="M22 33.246223Q22 31.69334,23.133183 30.518187Q24.266369 29.343033,26.217962 28.671516Q28.169558 28,30.519865 28Q32.912144 28,34.926693 28.650532Q36.941242 29.301064,38.158363 30.476217Q39.37549 31.651371,39.37549 33.246223Q39.37549 34.883045,38.200336 36.07918Q37.025185 37.275322,35.073586 37.925854Q33.121994 38.576385,30.771685 38.576385Q28.421375 38.576385,26.42781 37.94684Q24.434246 37.31729,23.217123 36.121155Q22 34.925014,22 33.246223ZM31.65305 37.736988Q33.08002 37.736988,33.604645 36.687744Q34.129265 35.6385,34.129265 34.21153Q34.129265 32.742584,33.520706 31.525461Q32.912144 30.308338,31.90487 29.573868Q30.897594 28.839396,29.6385 28.839396Q28.211529 28.839396,27.728874 29.888641Q27.246223 30.937885,27.246223 32.364857Q27.246223 33.791832,27.8338 35.008953Q28.421375 36.226078,29.407665 36.981533Q30.393955 37.736988,31.65305 37.736988Z" fill="#000"/>
<line stroke="#000" stroke-width="2" x1="13" x2="57.14285714285714" y1="10" y2="10"/>
<line stroke="#000" stroke-width="2" x1="13" x2="57.14285714285714" y1="22" y2="22"/>
<line stroke="#000" stroke-width="2" x1="13" x2="57.14285714285714" y1="34" y2="34"/>
<line stroke="#000" stroke-width="2" x1="13" x2="57.14285714285714" y1="46" y2="46"/>
<line stroke="#000" stroke-width="2" x1="13" x2="57.14285714285714" y1="58" y2="58"/>
<line stroke="#000" stroke-width="2" x1="13" x2="13" y1="9" y2="59"/>
<line stroke="#000" stroke-width="2" x1="58.14285714285714" x2="58.14285714285714" y1="9" y2="59"/>
<path d="M84.14286 54.811974Q84.14286 53.25909,84.898315 52.629547Q85.65377 52,86.70301 52Q87.79423 52,88.57067 52.629547Q89.34711 53.25909,89.34711 54.811974Q89.34711 56.322887,88.57067 56.994404Q87.79423 57.66592,86.70301 57.66592Q85.65377 57.66592,84.898315 56.994404Q84.14286 56.322887,84.14286 54.811974Z" fill="#000"/>
<path d="M71.71757 63.33184Q69.70302 63.33184,68.42294 62.38752Q67.14286 61.4432,67.14286 59.512592Q67.14286 57.37213,68.339 55.672356Q69.53514 53.97258,71.46575 52.98629Q73.39636 52,75.57879 52Q77.42546 52,78.51667 52.98629Q79.60789 53.97258,79.60789 55.77728Q79.60789 57.8338,78.51667 59.55456Q77.42546 61.275322,75.64174 62.30358Q73.858025 63.33184,71.71757 63.33184ZM68.27605 60.519867Q68.27605 60.939564,68.59082 61.275322Q68.905594 61.61108,69.4512 61.61108Q70.92014 61.61108,73.10257 60.393955Q74.57151 59.55456,75.767654 58.526302Q76.96379 57.49804,77.67728 56.46978Q78.39076 55.44152,78.39076 54.728035Q78.39076 54.26637,78.15993 53.951595Q77.92909 53.63682,77.34152 53.63682Q76.54409 53.63682,75.41091 54.140457Q74.277725 54.644096,73.03962 55.44152Q71.801506 56.23895,70.7103 57.183266Q69.61908 58.127586,68.94756 59.008953Q68.27605 59.89032,68.27605 60.519867Z" fill="#000"/>
<line stroke="#000" stroke-width="2" x1="78.57142857142857" x2="78.57142857142857" y1="22" y2="56.5"/>
<path d="M122.00328 57.33184Q119.98873 57.33184,118.70866 56.38752Q117.42857 55.4432,117.42857 53.512592Q117.42857 51.37213,118.62471 49.672356Q119.820854 47.97258,121.751465 46.98629Q123.682076 46,125.8645 46Q127.711174 46,128.80238 46.98629Q129.8936 47.97258,129.8936 49.77728Q129.8936 51.8338,128.80238 53.55456Q127.711174 55.275322,125.92746 56.30358Q124.14374 57.33184,122.00328 57.33184Z" fill="#000"/>
<line stroke="#000" stroke-width="2" x1="128.85714285714283" x2="128.85714285714283" y1="16" y2="50.5"/>
<line stroke="#000" stroke-width="2" x1="58.14285714285714" x2="152" y1="10" y2="10"/>
<line stroke="#000" stroke-width="2" x1="58.14285714285714" x2="152" y1="22" y2="22"/>
<line stroke="#000" stroke-width="2" x1="58.14285714285714" x2="152" y1="34" y2="34"/>
<line stroke="#000" stroke-width="2" x1="58.14285714285714" x2="152" y1="46" y2="46"/>
<line stroke="#000" stroke-width="2" x1="58.14285714285714" x2="152" y1="58" y2="58"/>
<line stroke="#000" stroke-width="2" x1="58.14285714285714" x2="58.14285714285714" y1="9" y2="59"/>
<line stroke="#000" stroke-width="2" x1="153" x2="153" y1="9" y2="59"/>
<path d="M164.00328 51.33184Q161.98872 51.33184,160.70865 50.38752Q159.42857 49.4432,159.42857 47.512592Q159.42857 45.37213,160.62471 43.672356Q161.82085 41.97258,163.75145 40.98629Q165.68207 40,167.86449 40Q169.71117 40,170.80238 40.98629Q171.89359 41.97258,171.89359 43.77728Q171.89359 45.8338,170.80238 47.55456Q169.71117 49.275322,167.92744 50.30358Q166.14374 51.33184,164.00328 51.33184ZM160.56175 48.519867Q160.56175 48.939564,160.87653 49.275322Q161.1913 49.61108,161.73691 49.61108Q163.20584 49.61108,165.38828 48.393955Q166.85722 47.55456,168.05336 46.526302Q169.2495 45.49804,169.96298 44.46978Q170.67647 43.44152,170.67647 42.728035Q170.67647 42.26637,170.44563 41.951595Q170.2148 41.63682,169.62723 41.63682Q168.8298 41.63682,167.69661 42.140457Q166.56343 42.644096,165.32532 43.44152Q164.08722 44.23895,162.996 45.183266Q161.90479 46.127586,161.23326 47.008953Q160.56175 47.89032,160.56175 48.519867Z" fill="#000"/>
<line stroke="#000" stroke-width="2" x1="170.85714285714283" x2="170.85714285714283" y1="10" y2="44.5"/>
<path d="M189.14613 57.33184Q187.13158 57.33184,185.8515 56.38752Q184.57143 55.4432,184.57143 53.512592Q184.57143 51.37213,185.76756 49.672356Q186.9637 47.97258,188.8943 46.98629Q190.82492 46,193.00734 46Q194.85402 46,195.94524 46.98629Q197.03644 47.97258,197.03644 49.77728Q197.03644 51.8338,195.94524 53.55456Q194.85402 55.275322,193.0703 56.30358Q191.28659 57.33184,189.14613 57.33184Z" fill="#000"/>
<line stroke="#000" stroke-width="2" x1="195.99999999999997" x2="195.99999999999997" y1="16" y2="50.5"/>
<path d="M211.71756 51.33184Q209.703 51.33184,208.42293 50.38752Q207.14285 49.4432,207.14285 47.512592Q207.14285 45.37213,208.33899 43.672356Q209.53513 41.97258,211.46573 40.98629Q213.39635 40,215.57877 40Q217.42545 40,218.51666 40.98629Q219.60788 41.97258,219.60788 43.77728Q219.60788 45.8338,218.51666 47.55456Q217.42545 49.275322,215.64172 50.30358Q213.85802 51.33184,211.71756 51.33184Z" fill="#000"/>
<line stroke="#000" stroke-width="2" x1="218.57142857142853" x2="218.57142857142853" y1="10" y2="44.5"/>
<line stroke="#000" stroke-width="2" x1="150.42857142857142" x2="241.71428571428567" y1="10" y2="10"/>
<line stroke="#000" stroke-width="2" x1="150.42857142857142" x2="241.71428571428567" y1="22" y2="22"/>
<line stroke="#000" stroke-width="2" x1="150.42857142857142" x2="241.71428571428567" y1="34" y2="34"/>
<line stroke="#000" stroke-width="2" x1="150.42857142857142" x2="241.71428571428567" y1="46" y2="46"/>
<line stroke="#000" stroke-width="2" x1="150.42857142857142" x2="241.71428571428567" y1="58" y2="58"/>
<line stroke="#000" stroke-width="2" x1="150.42857142857142" x2="150.42857142857142" y1="9" y2="59"/>
<line stroke="#000" stroke-width="2" x1="242.71428571428567" x2="242.71428571428567" y1="9" y2="59"/>
<path d="M280.7143 24.811975Q280.7143 23.259094,281.46976 22.629547Q282.22522 22,283.27444 22Q284.36566 22,285.14212 22.629547Q285.91855 23.259094,285.91855 24.811975Q285.91855 26.322887,285.14212 26.994404Q284.36566 27.665922,283.27444 27.665922Q282.22522 27.665922,281.46976 26.994404Q280.7143 26.322887,280.7143 24.811975Z" fill="#000"/>
<path d="M268.289 33.33184Q266.27448 33.33184,264.9944 32.38752Q263.7143 31.443201,263.7143 29.51259Q263.7143 27.372131,264.91043 25.672356Q266.10657 23.97258,268.0372 22.98629Q269.9678 22,272.15024 22Q273.9969 22,275.0881 22.98629Q276.17932 23.97258,276.17932 25.777279Q276.17932 27.8338,275.0881 29.55456Q273.9969 31.275322,272.2132 32.30358Q270.42947 33.33184,268.289 33.33184ZM264.84747 30.519865Q264.84747 30.939564,265.16226 31.275322Q265.47702 31.61108,266.02264 31.61108Q267.49158 31.61108,269.674 30.393955Q271.14294 29.55456,272.33908 28.5263Q273.53522 27.498041,274.24872 26.469782Q274.96222 25.44152,274.96222 24.728035Q274.96222 24.266369,274.73138 23.951595Q274.50055 23.636822,273.91296 23.636822Q273.11554 23.636822,271.98236 24.140457Q270.84918 24.644096,269.61105 25.44152Q268.37296 26.238947,267.28174 27.183268Q266.19052 28.127588,265.519 29.008953Q264.84747 29.890318,264.84747 30.519865Z" fill="#000"/>
<line stroke="#000" stroke-width="2" x1="264.57142857142856" x2="264.57142857142856" y1="29.5" y2="64"/>
<path d="M306.5747 39.33184Q304.56018 39.33184,303.2801 38.38752Q302 37.4432,302 35.512592Q302 33.37213,303.19614 31.672356Q304.39227 29.97258,306.3229 28.98629Q308.2535 28,310.43594 28Q312.2826 28,313.3738 28.98629Q314.46503 29.97258,314.46503 31.777279Q314.46503 33.8338,313.3738 35.55456Q312.2826 37.275322,310.4989 38.30358Q308.71518 39.33184,306.5747 39.33184Z" fill="#000"/>
<line stroke="#000" stroke-width="2" x1="313.42857142857144" x2="313.42857142857144" y1="-2" y2="32.5"/>
<line stroke="#000" stroke-width="2" x1="242.7142857142857" x2="336.57142857142856" y1="10" y2="10"/>
<line stroke="#000" stroke-width="2" x1="242.7142857142857" x2="336.57142857142856" y1="22" y2="22"/>
<line stroke="#000" stroke-width="2" x1="242.7142857142857" x2="336.57142857142856" y1="34" y2="34"/>
<line stroke="#000" stroke-width="2" x1="242.7142857142857" x2="336.57142857142856" y1="46" y2="46"/>
<line stroke="#000" stroke-width="2" x1="242.7142857142857" x2="336.57142857142856" y1="58" y2="58"/>
<line stroke="#000" stroke-width="2" x1="242.7142857142857" x2="242.7142857142857" y1="9" y2="59"/>
<line stroke="#000" stroke-width="2" x1="337.57142857142856" x2="337.57142857142856" y1="9" y2="59"/>
<path d="M31.574705 187.33185Q29.560156 187.33185,28.280079 186.38753Q27 185.4432,27 183.51259Q27 181.37213,28.196138 179.67236Q29.392277 177.97258,31.322887 176.98628Q33.253498 176,35.435925 176Q37.282597 176,38.37381 176.98628Q39.465027 177.97258,39.465027 179.77728Q39.465027 181.8338,38.37381 183.55457Q37.282597 185.27531,35.49888 186.30359Q33.715164 187.33185,31.574705 187.33185ZM28.133183 184.51987Q28.133183 184.93956,28.447956 185.27531Q28.76273 185.61108,29.308338 185.61108Q30.777279 185.61108,32.95971 184.39395Q34.42865 183.55457,35.62479 182.5263Q36.82093 181.49805,37.534416 180.46979Q38.247902 179.44153,38.247902 178.72803Q38.247902 178.26637,38.017067 177.9516Q37.786232 177.63683,37.198658 177.63683Q36.40123 177.63683,35.268047 178.14046Q34.134865 178.64409,32.896755 179.44153Q31.658646 180.23895,30.56743 181.18327Q29.476217 182.1276,28.8047 183.00896Q28.133183 183.89032,28.133183 184.51987Z" fill="#000"/>
<line stroke="#000" stroke-width="2" x1="22" x2="44" y1="158" y2="158"/>
<line stroke="#000" stroke-width="2" x1="22" x2="44" y1="170" y2="170"/>
<line stroke="#000" stroke-width="2" x1="22" x2="44" y1="182" y2="182"/>
<line stroke="#000" stroke-width="2" x1="38.42857142857143" x2="38.42857142857143" y1="146" y2="180.5"/>
<path d="M80.00623 149.80527L80.00623 143.40347L77.902145 143.94069L77.902145 139.46391L80.00623 138.88193L80.00623 130.10744L81.39403 130.10744L81.39403 138.52379L84.39347 137.8075L84.39347 129.07779L85.78127 129.07779L85.78127 137.44936L87.97489 136.95691L87.97489 141.38892L85.78127 142.01567L85.78127 148.41747L87.97489 147.88025L87.97489 152.49133L85.78127 153.02853L85.78127 161.44489L84.39347 161.44489L84.39347 153.38669L81.39403 154.1925L81.39403 162.92221L80.00623 162.92221L80.00623 154.50587L77.902145 155.04309L77.902145 150.432L80.00623 149.80527ZM84.39347 148.73083L84.39347 142.28427L81.39403 143.04533L81.39403 149.44711L84.39347 148.73083Z" fill="#000"/>
<path d="M97.5496 151.33185Q95.53505 151.33185,94.254974 150.38753Q92.97489 149.4432,92.97489 147.51259Q92.97489 145.37213,94.17103 143.67236Q95.36717 141.97258,97.29778 140.98628Q99.22839 140,101.41082 140Q103.25749 140,104.3487 140.98628Q105.43992 141.97258,105.43992 143.77728Q105.43992 145.8338,104.3487 147.55457Q103.25749 149.27531,101.47377 150.30359Q99.690056 151.33185,97.5496 151.33185Z" fill="#000"/>
<line stroke="#000" stroke-width="2" x1="104.40346146898348" x2="104.40346146898348" y1="110" y2="144.5"/>
<path d="M130.50067 187.33185Q128.48613 187.33185,127.20605 186.38753Q125.925964 185.4432,125.925964 183.51259Q125.925964 181.37213,127.1221 179.67236Q128.31824 177.97258,130.24886 176.98628Q132.17946 176,134.3619 176Q136.20856 176,137.29977 176.98628Q138.39099 177.97258,138.39099 179.77728Q138.39099 181.8338,137.29977 183.55457Q136.20856 185.27531,134.42485 186.30359Q132.64113 187.33185,130.50067 187.33185Z" fill="#000"/>
<line stroke="#000" stroke-width="2" x1="120.92596096851602" x2="142.92596096851602" y1="158" y2="158"/>
<line stroke="#000" stroke-width="2" x1="120.92596096851602" x2="142.92596096851602" y1="170" y2="170"/>
<line stroke="#000" stroke-width="2" x1="120.92596096851602" x2="142.92596096851602" y1="182" y2="182"/>
<line stroke="#000" stroke-width="2" x1="137.35453239708744" x2="137.35453239708744" y1="146" y2="180.5"/>
<line stroke="#000" stroke-width="2" x1="13" x2="175.87703189662" y1="110" y2="110"/>
<line stroke="#000" stroke-width="2" x1="13" x2="175.87703189662" y1="122" y2="122"/>
<line stroke="#000" stroke-width="2" x1="13" x2="175.87703189662" y1="134" y2="134"/>
<line stroke="#000" stroke-width="2" x1="13" x2="175.87703189662" y1="146" y2="146"/>
<line stroke="#000" stroke-width="2" x1="13" x2="175.87703189662" y1="158" y2="158"/>
<line stroke="#000" stroke-width="2" x1="13" x2="13" y1="109" y2="159"/>
<line stroke="#000" stroke-width="2" x1="176.87703189662" x2="176.87703189662" y1="109" y2="159"/>
<path d="M202.45174 121.33184Q200.43718 121.33184,199.1571 120.38752Q197.87703 119.4432,197.87703 117.51259Q197.87703 115.37213,199.07317 113.672356Q200.2693 111.97258,202.1999 110.98629Q204.13052 110,206.31294 110Q208.15962 110,209.25084 110.98629Q210.34204 111.97258,210.34204 113.77728Q210.34204 115.8338,209.25084 117.55456Q208.15962 119.27532,206.3759 120.30358Q204.5922 121.33184,202.45174 121.33184Z" fill="#000"/>
<line stroke="#000" stroke-width="2" x1="198.73417475376283" x2="198.73417475376283" y1="117.5" y2="152"/>
<path d="M218.68057 92.0056L220.06837 92.0056L220.06837 109.465034Q221.72478 107.808624,223.82887 107.808624Q225.26143 107.808624,226.4254 108.77113Q227.58936 109.73364,227.58936 111.569115Q227.58936 113.001686,226.73877 114.21042Q225.88818 115.41914,224.45561 116.62788L221.36664 119.26917Q220.51605 119.98546,219.84453 120.67936Q219.17302 121.37326,218.68057 122.00001L218.68057 92.0056ZM220.06837 119.000565Q221.23233 117.74707,222.03816 116.69503Q222.84398 115.64298,223.29166 114.837166Q223.7841 113.98658,224.03032 113.270294Q224.27655 112.55401,224.27655 111.92726Q224.27655 110.67377,223.69456 110.11417Q223.11258 109.554565,222.44107 109.554565Q221.72478 109.554565,221.03088 110.0694Q220.33698 110.58423,220.06837 111.47958L220.06837 119.000565Z" fill="#000"/>
<path d="M249.16408 121.33184Q247.14952 121.33184,245.86945 120.38752Q244.58937 119.4432,244.58937 117.51259Q244.58937 115.37213,245.7855 113.672356Q246.98164 111.97258,248.91225 110.98629Q250.84286 110,253.02528 110Q254.87196 110,255.96318 110.98629Q257.05438 111.97258,257.05438 113.77728Q257.05438 115.8338,255.96318 117.55456Q254.87196 119.27532,253.08824 120.30358Q251.30453 121.33184,249.16408 121.33184Z" fill="#000"/>
<line stroke="#000" stroke-width="2" x1="245.44650614461332" x2="245.44650614461332" y1="117.5" y2="152"/>
<path d="M276.96762 127.33184Q274.9531 127.33184,273.673 126.38752Q272.3929 125.4432,272.3929 123.51259Q272.3929 121.37213,273.58905 119.672356Q274.7852 117.97258,276.71582 116.98629Q278.64642 116,280.82886 116Q282.6755 116,283.76672 116.98629Q284.85794 117.97258,284.85794 119.77728Q284.85794 121.8338,283.76672 123.55456Q282.6755 125.27532,280.8918 126.30358Q279.1081 127.33184,276.96762 127.33184Z" fill="#000"/>
<line stroke="#000" stroke-width="2" x1="273.25005171545655" x2="273.25005171545655" y1="123.5" y2="158"/>
<path d="M309.77115 133.33185Q307.75662 133.33185,306.47653 132.38753Q305.19644 131.4432,305.19644 129.51259Q305.19644 127.37213,306.39258 125.672356Q307.5887 123.97258,309.51935 122.98629Q311.44995 122,313.6324 122Q315.47903 122,316.57025 122.98629Q317.66147 123.97258,317.66147 125.77728Q317.66147 127.8338,316.57025 129.55457Q315.47903 131.27531,313.69534 132.30359Q311.91162 133.33185,309.77115 133.33185Z" fill="#000"/>
<line stroke="#000" stroke-width="2" x1="306.0535972862997" x2="306.0535972862997" y1="129.5" y2="164"/>
<line stroke="#000" stroke-width="2" x1="176.87703189662" x2="338" y1="110" y2="110"/>
<line stroke="#000" stroke-width="2" x1="176.87703189662" x2="338" y1="122" y2="122"/>
<line stroke="#000" stroke-width="2" x1="176.87703189662" x2="338" y1="134" y2="134"/>
<line stroke="#000" stroke-width="2" x1="176.87703189662" x2="338" y1="146" y2="146"/>
<line stroke="#000" stroke-width="2" x1="176.87703189662" x2="338" y1="158" y2="158"/>
<line stroke="#000" stroke-width="2" x1="176.87703189662" x2="176.87703189662" y1="109" y2="159"/>
<line stroke="#000" stroke-width="2" x1="339" x2="339" y1="109" y2="159"/>
</svg>