<svg height="100" width="350" xmlns="http://www.w3.org/2000/svg">
<rect fill="#fff" height="100" width="350" x="0" y="0"/>
<path d="M26.574705 75.33184Q24.560156 75.33184,23.280079 74.38752Q22 73.4432,22 71.51259Q22 69.37213,23.196138 67.672356Q24.392277 65.97258,26.322887 64.98629Q28.253498 64,30.435925 64Q32.282597 64,33.37381 64.98629Q34.465027 65.97258,34.465027 67.77728Q34.465027 69.8338,33.37381 71.55456Q32.282597 73.27532,30.49888 74.30358Q28.715164 75.33184,26.574705 75.33184Z" fill="#000"/>
<line stroke="#000" stroke-width="2" x1="33.42857142857143" x2="33.42857142857143" y1="34" y2="68.5"/>
<path d="M60.604084 61.80526L60.604084 55.40347L58.5 55.94068L58.5 51.463905L60.604084 50.881927L60.604084 42.107445L61.991886 42.107445L61.991886 50.523785L64.991325 49.8075L64.991325 41.077785L66.37913 41.077785L66.37913 49.449356L68.57275 48.956913L68.57275 53.38892L66.37913 54.01567L66.37913 60.41746L68.57275 59.880245L68.57275 64.491325L66.37913 65.02854L66.37913 73.44488L64.991325 73.44488L64.991325 65.38668L61.991886 66.192505L61.991886 74.92222L60.604084 74.92222L60.604084 66.505875L58.5 67.04309L58.5 62.43201L60.604084 61.80526ZM64.991325 60.730835L64.991325 54.284275L61.991886 55.045326L61.991886 61.44712L64.991325 60.730835Z" fill="#000"/>
<path d="M78.14745 63.33184Q76.132904 63.33184,74.85283 62.38752Q73.57275 61.4432,73.57275 59.512592Q73.57275 57.37213,74.76888 55.672356Q75.96503 53.97258,77.89564 52.98629Q79.82625 52,82.008675 52Q83.85535 52,84.946556 52.98629Q86.03777 53.97258,86.03777 55.77728Q86.03777 57.8338,84.946556 59.55456Q83.85535 61.275322,82.071625 62.30358Q80.28791 63.33184,78.14745 63.33184ZM74.70593 60.519867Q74.70593 60.939564,75.020706 61.275322Q75.33548 61.61108,75.88109 61.61108Q77.35003 61.61108,79.532455 60.393955Q81.001396 59.55456,82.19754 58.526302Q83.39368 57.49804,84.10716 56.46978Q84.82065 55.44152,84.82065 54.728035Q84.82065 54.26637,84.58981 53.951595Q84.35898 53.63682,83.77141 53.63682Q82.973976 53.63682,81.8408 54.140457Q80.70761 54.644096,79.469505 55.44152Q78.23139 56.23895,77.14018 57.183266Q76.048965 58.127586,75.37745 59.008953Q74.70593 59.89032,74.70593 60.519867Z" fill="#000"/>
<line stroke="#000" stroke-width="2" x1="85.00131961277553" x2="85.00131961277553" y1="22" y2="56.5"/>
<path d="M116.07471 51.33184Q114.06016 51.33184,112.78008 50.38752Q111.5 49.4432,111.5 47.512592Q111.5 45.37213,112.69614 43.672356Q113.89228 41.97258,115.82289 40.98629Q117.7535 40,119.93593 40Q121.7826 40,122.87381 40.98629Q123.96503 41.97258,123.96503 43.77728Q123.96503 45.8338,122.87381 47.55456Q121.7826 49.275322,119.998886 50.30358Q118.215164 51.33184,116.07471 51.33184Z" fill="#000"/>
<line stroke="#000" stroke-width="2" x1="122.92857142857143" x2="122.92857142857143" y1="10" y2="44.5"/>
<line stroke="#000" stroke-width="2" x1="13" x2="160" y1="10" y2="10"/>
<line stroke="#000" stroke-width="2" x1="13" x2="160" y1="22" y2="22"/>
<line stroke="#000" stroke-width="2" x1="13" x2="160" y1="34" y2="34"/>
<line stroke="#000" stroke-width="2" x1="13" x2="160" y1="46" y2="46"/>
<line stroke="#000" stroke-width="2" x1="13" x2="160" y1="58" y2="58"/>
<line stroke="#000" stroke-width="2" x1="13" x2="13" y1="9" y2="59"/>
<line stroke="#000" stroke-width="2" x1="161" x2="161" y1="9" y2="59"/>
<path d="M186.5747 15.331842Q184.56015 15.331842,183.28008 14.387522Q182 13.443202,182 11.512591Q182 9.372133,183.19614 7.6723566Q184.39227 5.97258,186.32288 4.98629Q188.2535 4,190.43591 4Q192.2826 4,193.37381 4.98629Q194.46503 5.97258,194.46503 7.777281Q194.46503 9.8338,193.37381 11.554562Q192.2826 13.275322,190.49887 14.303582Q188.71516 15.331842,186.5747 15.331842ZM183.13318 12.519867Q183.13318 12.939564,183.44795 13.275322Q183.76273 13.611081,184.30833 13.611081Q185.77727 13.611081,187.9597 12.393957Q189.42865 11.554562,190.62479 10.526302Q191.82092 9.498042,192.53441 8.469782Q193.2479 7.4415226,193.2479 6.728036Q193.2479 6.266369,193.01706 5.9515953Q192.78622 5.6368217,192.19865 5.6368217Q191.40123 5.6368217,190.26804 6.140459Q189.13486 6.6440964,187.89674 7.4415226Q186.65865 8.238949,185.56743 9.183269Q184.47621 10.127588,183.80469 11.008954Q183.13318 11.89032,183.13318 12.519867Z" fill="#000"/>
<line stroke="#000" stroke-width="2" x1="182.85714285714283" x2="182.85714285714283" y1="11.5" y2="46"/>
<path d="M223 34.005596L224.3878 34.005596L224.3878 51.465027Q226.0442 49.808617,228.1483 49.808617Q229.58086 49.808617,230.74483 50.771126Q231.90878 51.73363,231.90878 53.56911Q231.90878 55.00168,231.0582 56.210407Q230.20761 57.41914,228.77504 58.62787L225.68607 61.269165Q224.83548 61.98545,224.16396 62.67935Q223.49245 63.373253,223 64L223 34.005596ZM224.3878 61.00056Q225.55176 59.747063,226.35759 58.69502Q227.1634 57.64298,227.61108 56.83716Q228.10353 55.98657,228.34975 55.270287Q228.59598 54.554,228.59598 53.927254Q228.59598 52.673756,228.01399 52.11416Q227.432 51.55456,226.7605 51.55456Q226.0442 51.55456,225.35031 52.06939Q224.6564 52.58422,224.3878 53.479576L224.3878 61.00056Z" fill="#000"/>
<path d="M241.48349 63.33184Q239.46893 63.33184,238.18886 62.38752Q236.90878 61.4432,236.90878 59.512592Q236.90878 57.37213,238.10492 55.672356Q239.30106 53.97258,241.23166 52.98629Q243.16228 52,245.3447 52Q247.19138 52,248.2826 52.98629Q249.37381 53.97258,249.37381 55.77728Q249.37381 57.8338,248.2826 59.55456Q247.19138 61.275322,245.40765 62.30358Q243.62395 63.33184,241.48349 63.33184Z" fill="#000"/>
<line stroke="#000" stroke-width="2" x1="248.33735724857874" x2="248.33735724857874" y1="22" y2="56.5"/>
<path d="M276.0747 33.33184Q274.06018 33.33184,272.7801 32.38752Q271.5 31.443201,271.5 29.51259Q271.5 27.372131,272.69614 25.672356Q273.89227 23.97258,275.8229 22.98629Q277.7535 22,279.93594 22Q281.7826 22,282.8738 22.98629Q283.96503 23.97258,283.96503 25.777279Q283.96503 27.8338,282.8738 29.55456Q281.7826 31.275322,279.9989 32.30358Q278.21518 33.33184,276.0747 33.33184Z" fill="#000"/>
<line stroke="#000" stroke-width="2" x1="272.3571428571429" x2="272.3571428571429" y1="29.5" y2="64"/>
<line stroke="#000" stroke-width="2" x1="161" x2="308" y1="10" y2="10"/>
<line stroke="#000" stroke-width="2" x1="161" x2="308" y1="22" y2="22"/>
<line stroke="#000" stroke-width="2" x1="161" x2="308" y1="34" y2="34"/>
<line stroke="#000" stroke-width="2" x1="161" x2="308" y1="46" y2="46"/>
<line stroke="#000" stroke-width="2" x1="161" x2="308" y1="58" y2="58"/>
<line stroke="#000" stroke-width="2" x1="161" x2="161" y1="9" y2="59"/>
<line stroke="#000" stroke-width="2" x1="309" x2="309" y1="9" y2="59"/>
</svg>
