<svg height="200" width="500" xmlns="http://www.w3.org/2000/svg">
<rect fill="#fff" height="200" width="500" x="0" y="0"/>
<path d="M40.364017 31.895914Q39.893955 30.116394,39.591774 28.370451Q39.289593 26.624508,39.289593 24.811413Q39.289593 23.233349,39.507835 21.839954Q39.726078 20.446556,40.128986 19.271404Q40.565475 17.928371,41.270565 16.736427Q41.97566 15.544487,42.76469 14.7722435Q43.553722 14,44.15809 14Q44.963905 14,46.374092 16.853943Q47.079185 18.297703,47.41494 19.976494Q47.7507 21.655289,47.7507 23.569107Q47.7507 25.952991,47.11276 28.320087Q46.47482 30.687183,45.249302 32.768883Q44.02378 34.850586,42.311417 36.42865L43.486572 42.06939Q43.990208 42.002235,44.325966 41.96866Q44.661724 41.935085,44.829605 41.935085Q46.877728 41.935085,48.48937 43.093452Q50.101006 44.251816,51.05792 46.132065Q52.01483 48.01231,52.01483 50.26189Q52.01483 52.84723,50.688583 54.91214Q49.36234 56.977055,46.709846 57.950752Q46.877728 58.52154,47.683548 62.71852Q47.885002 63.725796,47.985733 64.31337Q48.086456 64.90095,48.120033 65.33743Q48.15361 65.77392,48.15361 66.34471Q48.15361 68.0235,47.331 69.34975Q46.508392 70.675995,45.114998 71.41466Q43.7216 72.15333,42.00923 72.15333Q40.26329 72.15333,38.920258 71.4986Q37.577225 70.84387,36.80498 69.6855Q36.032738 68.52714,36.032738 67.01623Q36.032738 65.40459,36.922497 64.33016Q37.812256 63.255733,39.45747 63.255733Q40.867657 63.255733,41.757416 64.2798Q42.647175 65.30386,42.647175 66.71404Q42.647175 67.922775,41.807777 68.82932Q40.968384 69.73587,39.62535 69.73587L39.289593 69.73587Q40.162563 71.04533,42.04281 71.04533Q44.359543 71.04533,45.669 69.53442Q46.978455 68.0235,46.978455 65.673195Q46.978455 65.1024,46.844154 64.14549Q46.709846 63.188583,46.374092 61.84555Q46.03833 60.502518,45.85367 59.629547Q45.669 58.756573,45.601845 58.38724Q44.46027 58.723,42.91578 58.723Q40.02826 58.723,37.275043 57.04421Q34.588978 55.365417,33.044487 52.612198Q31.5 49.85898,31.5 46.669277Q31.5 43.647453,32.87661 40.994965Q34.25322 38.342472,36.284554 36.126465Q38.315895 33.91046,40.364017 31.895914ZM41.270565 31.056519Q42.04281 30.653608,42.91578 29.562393Q43.788754 28.47118,44.594574 27.060995Q45.40039 25.65081,45.90403 24.223839Q46.40767 22.796864,46.40767 21.655289Q46.40767 20.446556,46.03833 19.741467Q45.669 19.036373,44.76245 19.036373Q43.95663 19.036373,43.201176 19.77504Q42.44572 20.51371,41.858143 21.739227Q41.270565 22.964745,40.934807 24.475655Q40.59905 25.986568,40.59905 27.564632Q40.59905 28.63906,40.81729 29.51203Q41.035534 30.385002,41.270565 31.056519ZM43.184387 46.06491Q42.27784 46.266365,41.47202 46.921097Q40.6662 47.575825,40.17935 48.49916Q39.6925 49.422493,39.6925 50.463345Q39.6925 51.302742,40.128986 52.1925Q40.565475 53.08226,41.203415 53.619473Q41.6399 54.02238,42.076385 54.22384Q42.580025 54.45887,42.580025 54.660324Q42.580025 54.76105,42.244263 54.86178Q40.968384 54.559597,39.94432 53.7202Q38.920258 52.880806,38.33268 51.68886Q37.745102 50.49692,37.745102 49.15389Q37.745102 47.71013,38.33268 46.367096Q38.920258 45.024063,39.977898 43.949635Q41.035534 42.87521,42.378567 42.337997L41.40487 37.268044Q37.510075 40.42417,35.68019 43.462784Q33.850307 46.501396,33.850307 49.489647Q33.850307 51.672073,34.991886 53.552322Q36.133465 55.432568,38.114437 56.590935Q40.095413 57.7493,42.580025 57.7493Q43.25154 57.7493,43.939842 57.614994Q44.628147 57.480694,45.40039 57.279236L43.184387 46.06491ZM46.441242 56.943478Q49.731674 55.533295,49.731674 51.168438Q49.731674 49.724678,48.993004 48.532734Q48.254337 47.340794,47.01203 46.6357Q45.769726 45.93061,44.22524 45.93061L46.441242 56.943478Z" fill="#000"/>
<path d="M64.11892 23.805262L64.11892 17.40347L62.01483 17.940683L62.01483 13.463906L64.11892 12.881926L64.11892 4.107443L65.506714 4.107443L65.506714 12.523784L68.50616 11.807499L68.50616 3.0777855L69.89396 3.0777855L69.89396 11.449357L72.08758 10.956912L72.08758 15.388921L69.89396 16.01567L69.89396 22.41746L72.08758 21.880247L72.08758 26.491327L69.89396 27.02854L69.89396 35.44488L68.50616 35.44488L68.50616 27.386683L65.506714 28.192501L65.506714 36.92222L64.11892 36.92222L64.11892 28.505877L62.01483 29.043089L62.01483 24.43201L64.11892 23.805262ZM68.50616 22.730835L68.50616 16.284275L65.506714 17.045328L65.506714 23.447119L68.50616 22.730835Z" fill="#000"/>
<path d="M75.191666 41.80526L75.191666 35.40347L73.08758 35.94068L73.08758 31.463905L75.191666 30.881926L75.191666 22.107443L76.57947 22.107443L76.57947 30.523785L79.5789 29.807499L79.5789 21.077785L80.966705 21.077785L80.966705 29.449356L83.160324 28.956913L83.160324 33.38892L80.966705 34.01567L80.966705 40.41746L83.160324 39.880245L83.160324 44.491325L80.966705 45.02854L80.966705 53.44488L79.5789 53.44488L79.5789 45.38668L76.57947 46.1925L76.57947 54.92222L75.191666 54.92222L75.191666 46.505875L73.08758 47.04309L73.08758 42.43201L75.191666 41.80526ZM79.5789 40.730835L79.5789 34.284275L76.57947 35.045326L76.57947 41.44712L79.5789 40.730835Z" fill="#000"/>
<path d="M86.26441 17.805262L86.26441 11.40347L84.160324 11.940683L84.160324 7.4639063L86.26441 6.8819256L86.26441 -1.8925571L87.65221 -1.8925571L87.65221 6.5237837L90.65165 5.807499L90.65165 -2.9222145L92.03945 -2.9222145L92.03945 5.449357L94.23307 4.956912L94.23307 9.388921L92.03945 10.01567L92.03945 16.41746L94.23307 15.880247L94.23307 20.491327L92.03945 21.02854L92.03945 29.444881L90.65165 29.444881L90.65165 21.386683L87.65221 22.192501L87.65221 30.922216L86.26441 30.922216L86.26441 22.505877L84.160324 23.043089L84.160324 18.43201L86.26441 17.805262ZM90.65165 16.730835L90.65165 10.284276L87.65221 11.045328L87.65221 17.447119L90.65165 16.730835Z" fill="#000"/>
<path d="M97.337166 35.80526L97.337166 29.40347L95.23308 29.940683L95.23308 25.463905L97.337166 24.881926L97.337166 16.107443L98.72496 16.107443L98.72496 24.523785L101.7244 23.807499L101.7244 15.0777855L103.112206 15.0777855L103.112206 23.449356L105.305824 22.956913L105.305824 27.38892L103.112206 28.01567L103.112206 34.41746L105.305824 33.880245L105.305824 38.491325L103.112206 39.02854L103.112206 47.44488L101.7244 47.44488L101.7244 39.38668L98.72496 40.1925L98.72496 48.92222L97.337166 48.92222L97.337166 40.505875L95.23308 41.04309L95.23308 36.43201L97.337166 35.80526ZM101.7244 34.730835L101.7244 28.284275L98.72496 29.045328L98.72496 35.44712L101.7244 34.730835Z" fill="#000"/>
<path d="M141.63052 37.33184Q139.61597 37.33184,138.33589 36.38752Q137.05582 35.4432,137.05582 33.512592Q137.05582 31.372131,138.25195 29.672356Q139.44809 27.97258,141.3787 26.98629Q143.30931 26,145.49173 26Q147.33841 26,148.42963 26.98629Q149.52084 27.97258,149.52084 29.777279Q149.52084 31.8338,148.42963 33.55456Q147.33841 35.275322,145.55469 36.30358Q143.77098 37.33184,141.63052 37.33184ZM138.189 34.519867Q138.189 34.939564,138.50377 35.275322Q138.81854 35.61108,139.36415 35.61108Q140.83308 35.61108,143.01552 34.393955Q144.48447 33.55456,145.6806 32.526302Q146.87674 31.498041,147.59023 30.469782Q148.30371 29.44152,148.30371 28.728035Q148.30371 28.266369,148.07288 27.951595Q147.84204 27.636822,147.25447 27.636822Q146.45705 27.636822,145.32385 28.140457Q144.19067 28.644096,142.95256 29.44152Q141.71446 30.238947,140.62325 31.183268Q139.53203 32.127586,138.8605 33.008953Q138.189 33.89032,138.189 34.519867Z" fill="#000"/>
<path d="M130.88054 31.33184Q128.86598 31.33184,127.58591 30.387522Q126.305824 29.443201,126.305824 27.51259Q126.305824 25.372131,127.50196 23.672356Q128.6981 21.97258,130.62871 20.98629Q132.55933 20,134.74174 20Q136.58842 20,137.67964 20.98629Q138.77084 21.97258,138.77084 23.777279Q138.77084 25.8338,137.67964 27.55456Q136.58842 29.275322,134.8047 30.303581Q133.021 31.33184,130.88054 31.33184ZM127.43901 28.519865Q127.43901 28.939564,127.753784 29.275322Q128.06856 29.61108,128.61417 29.61108Q130.0831 29.61108,132.26553 28.393955Q133.73448 27.55456,134.93062 26.5263Q136.12675 25.498041,136.84024 24.469782Q137.55373 23.44152,137.55373 22.728035Q137.55373 22.266369,137.32289 21.951595Q137.09206 21.636822,136.50449 21.636822Q135.70706 21.636822,134.57387 22.140457Q133.44069 22.644096,132.20258 23.44152Q130.96448 24.238947,129.87326 25.183268Q128.78204 26.127588,128.11052 27.008953Q127.43901 27.890318,127.43901 28.519865Z" fill="#000"/>
<path d="M141.63052 25.33184Q139.61597 25.33184,138.33589 24.387522Q137.05582 23.443201,137.05582 21.51259Q137.05582 19.372131,138.25195 17.672356Q139.44809 15.972579,141.3787 14.986289Q143.30931 13.999999,145.49173 13.999999Q147.33841 13.999999,148.42963 14.986289Q149.52084 15.972579,149.52084 17.777279Q149.52084 19.8338,148.42963 21.55456Q147.33841 23.275322,145.55469 24.303581Q143.77098 25.33184,141.63052 25.33184ZM138.189 22.519865Q138.189 22.939564,138.50377 23.275322Q138.81854 23.61108,139.36415 23.61108Q140.83308 23.61108,143.01552 22.393955Q144.48447 21.55456,145.6806 20.5263Q146.87674 19.498041,147.59023 18.469782Q148.30371 17.44152,148.30371 16.728035Q148.30371 16.266369,148.07288 15.951594Q147.84204 15.636821,147.25447 15.636821Q146.45705 15.636821,145.32385 16.140457Q144.19067 16.644096,142.95256 17.44152Q141.71446 18.238947,140.62325 19.183268Q139.53203 20.127588,138.8605 21.008953Q138.189 21.890318,138.189 22.519865Z" fill="#000"/>
<line stroke="#000" stroke-width="1.5" x1="137.80582237243652" x2="137.80582237243652" y1="-16" y2="30.5"/>
<path d="M289.78714 44.005596L291.17493 44.005596L291.17493 61.465027Q292.83133 59.808617,294.93542 59.808617Q296.36798 59.808617,297.53195 60.771126Q298.69592 61.73363,298.69592 63.56911Q298.69592 65.00168,297.84534 66.21041Q296.99475 67.419136,295.56216 68.62787L292.4732 71.269165Q291.6226 71.98545,290.95108 72.67935Q290.27957 73.37325,289.78714 74L289.78714 44.005596ZM291.17493 71.00056Q292.3389 69.74706,293.1447 68.69502Q293.95053 67.642975,294.3982 66.83716Q294.89066 65.98657,295.13687 65.27029Q295.3831 64.554,295.3831 63.927254Q295.3831 62.673756,294.80112 62.11416Q294.21915 61.55456,293.5476 61.55456Q292.83133 61.55456,292.13742 62.06939Q291.44354 62.58422,291.17493 63.479576L291.17493 71.00056Z" fill="#000"/>
<path d="M313.27063 85.33184Q311.2561 85.33184,309.976 84.38752Q308.69592 83.4432,308.69592 81.51259Q308.69592 79.37213,309.89206 77.672356Q311.0882 75.97258,313.01883 74.98629Q314.94943 74,317.13187 74Q318.97852 74,320.06973 74.98629Q321.16095 75.97258,321.16095 77.77728Q321.16095 79.8338,320.06973 81.55456Q318.97852 83.27532,317.19482 84.30358Q315.4111 85.33184,313.27063 85.33184Z" fill="#000"/>
<path d="M313.27063 73.33184Q311.2561 73.33184,309.976 72.38752Q308.69592 71.4432,308.69592 69.51259Q308.69592 67.37213,309.89206 65.672356Q311.0882 63.97258,313.01883 62.98629Q314.94943 62,317.13187 62Q318.97852 62,320.06973 62.98629Q321.16095 63.97258,321.16095 65.77728Q321.16095 67.8338,320.06973 69.55456Q318.97852 71.27532,317.19482 72.30358Q315.4111 73.33184,313.27063 73.33184Z" fill="#000"/>
<path d="M313.27063 61.33184Q311.2561 61.33184,309.976 60.38752Q308.69592 59.4432,308.69592 57.512592Q308.69592 55.37213,309.89206 53.672356Q311.0882 51.97258,313.01883 50.98629Q314.94943 50,317.13187 50Q318.97852 50,320.06973 50.98629Q321.16095 51.97258,321.16095 53.77728Q321.16095 55.8338,320.06973 57.55456Q318.97852 59.275322,317.19482 60.30358Q315.4111 61.33184,313.27063 61.33184Z" fill="#000"/>
<line stroke="#000" stroke-width="1.5" x1="303.6959300041199" x2="325.1959300041199" y1="68" y2="68"/>
<line stroke="#000" stroke-width="1.5" x1="303.6959300041199" x2="325.1959300041199" y1="80" y2="80"/>
<line stroke="#000" stroke-width="1.5" x1="320.1959300041199" x2="320.1959300041199" y1="20" y2="78.5"/>
<path d="M390.66565 23.805262L390.66565 17.40347L388.56158 17.940683L388.56158 13.463906L390.66565 12.881926L390.66565 4.107443L392.05347 4.107443L392.05347 12.523784L395.0529 11.807499L395.0529 3.0777855L396.4407 3.0777855L396.4407 11.449357L398.6343 10.956912L398.6343 15.388921L396.4407 16.01567L396.4407 22.41746L398.6343 21.880247L398.6343 26.491327L396.4407 27.02854L396.4407 35.44488L395.0529 35.44488L395.0529 27.386683L392.05347 28.192501L392.05347 36.92222L390.66565 36.92222L390.66565 28.505877L388.56158 29.043089L388.56158 24.43201L390.66565 23.805262ZM395.0529 22.730835L395.0529 16.284275L392.05347 17.045328L392.05347 23.447119L395.0529 22.730835Z" fill="#000"/>
<path d="M408.20905 73.33184Q406.19452 73.33184,404.91443 72.38752Q403.63434 71.4432,403.63434 69.51259Q403.63434 67.37213,404.83047 65.672356Q406.0266 63.97258,407.95724 62.98629Q409.88785 62,412.07028 62Q413.91693 62,415.00815 62.98629Q416.09937 63.97258,416.09937 65.77728Q416.09937 67.8338,415.00815 69.55456Q413.91693 71.27532,412.13324 72.30358Q410.34952 73.33184,408.20905 73.33184Z" fill="#000"/>
<path d="M408.20905 61.33184Q406.19452 61.33184,404.91443 60.38752Q403.63434 59.4432,403.63434 57.512592Q403.63434 55.37213,404.83047 53.672356Q406.0266 51.97258,407.95724 50.98629Q409.88785 50,412.07028 50Q413.91693 50,415.00815 50.98629Q416.09937 51.97258,416.09937 53.77728Q416.09937 55.8338,415.00815 57.55456Q413.91693 59.275322,412.13324 60.30358Q410.34952 61.33184,408.20905 61.33184Z" fill="#000"/>
<path d="M408.20905 25.33184Q406.19452 25.33184,404.91443 24.387522Q403.63434 23.443201,403.63434 21.51259Q403.63434 19.372131,404.83047 17.672356Q406.0266 15.972579,407.95724 14.986289Q409.88785 13.999999,412.07028 13.999999Q413.91693 13.999999,415.00815 14.986289Q416.09937 15.972579,416.09937 17.777279Q416.09937 19.8338,415.00815 21.55456Q413.91693 23.275322,412.13324 24.303581Q410.34952 25.33184,408.20905 25.33184Z" fill="#000"/>
<line stroke="#000" stroke-width="1.5" x1="415.134339094162" x2="415.134339094162" y1="-16" y2="66.5"/>
<line stroke="#000" stroke-width="1.5" x1="21.5" x2="490" y1="20" y2="20"/>
<line stroke="#000" stroke-width="1.5" x1="21.5" x2="490" y1="32" y2="32"/>
<line stroke="#000" stroke-width="1.5" x1="21.5" x2="490" y1="44" y2="44"/>
<line stroke="#000" stroke-width="1.5" x1="21.5" x2="490" y1="56" y2="56"/>
<line stroke="#000" stroke-width="1.5" x1="21.5" x2="490" y1="68" y2="68"/>
<line stroke="#000" stroke-width="1.5" x1="21.5" x2="21.5" y1="19.25" y2="68.75"/>
<line stroke="#000" stroke-width="1.5" x1="490.75" x2="490.75" y1="19.25" y2="68.75"/>
<path d="M31.5 87.00279L32.887802 87.00279L32.887802 104.46223Q34.54421 102.80582,36.648293 102.80582Q38.080864 102.80582,39.244823 103.768326Q40.408787 104.730835,40.408787 106.56631Q40.408787 107.99888,39.558197 109.20761Q38.70761 110.416336,37.275043 111.62507L34.186066 114.266365Q33.33548 114.98265,32.663963 115.67655Q31.992445 116.37045,31.5 116.9972L31.5 87.00279ZM32.887802 113.99776Q34.05176 112.74426,34.857582 111.69222Q35.663403 110.640175,36.11108 109.83436Q36.603527 108.98377,36.849747 108.26749Q37.09597 107.5512,37.09597 106.92445Q37.09597 105.67096,36.513992 105.11136Q35.93201 104.55176,35.260494 104.55176Q34.54421 104.55176,33.850307 105.06659Q33.156406 105.58142,32.887802 106.476776L32.887802 113.99776Z" fill="#000"/>
<path d="M41.408787 111.00279L42.79659 111.00279L42.79659 128.46222Q44.452995 126.80582,46.55708 126.80582Q47.989647 126.80582,49.15361 127.768326Q50.317574 128.73083,50.317574 130.56631Q50.317574 131.99889,49.466984 133.20761Q48.616398 134.41634,47.18383 135.62506L44.094852 138.26637Q43.244267 138.98265,42.57275 139.67654Q41.901234 140.37045,41.408787 140.99721L41.408787 111.00279ZM42.79659 137.99776Q43.96055 136.74426,44.76637 135.69221Q45.57219 134.64018,46.019867 133.83435Q46.512314 132.98376,46.758537 132.26749Q47.004757 131.55121,47.004757 130.92445Q47.004757 129.67096,46.422775 129.11136Q45.840797 128.55176,45.16928 128.55176Q44.452995 128.55176,43.759094 129.06659Q43.065193 129.58142,42.79659 130.47678L42.79659 137.99776Z" fill="#000"/>
<path d="M51.317574 93.00279L52.705376 93.00279L52.705376 110.46223Q54.361782 108.80582,56.465866 108.80582Q57.898438 108.80582,59.062397 109.768326Q60.22636 110.730835,60.22636 112.56631Q60.22636 113.99888,59.37577 115.20761Q58.525185 116.416336,57.092617 117.62507L54.00364 120.266365Q53.153053 120.98265,52.481537 121.67655Q51.81002 122.37045,51.317574 122.9972L51.317574 93.00279ZM52.705376 119.99776Q53.869335 118.74426,54.675156 117.69222Q55.480976 116.640175,55.928654 115.83436Q56.4211 114.98377,56.66732 114.26749Q56.913544 113.5512,56.913544 112.92445Q56.913544 111.67096,56.331566 111.11136Q55.749584 110.55176,55.078068 110.55176Q54.361782 110.55176,53.66788 111.06659Q52.97398 111.58142,52.705376 112.476776L52.705376 119.99776Z" fill="#000"/>
<path d="M85.80106 125.33184Q83.786514 125.33184,82.50644 124.38752Q81.22636 123.4432,81.22636 121.51259Q81.22636 119.37213,82.42249 117.672356Q83.61864 115.97258,85.54925 114.98629Q87.47986 114,89.662285 114Q91.50896 114,92.60017 114.98629Q93.69138 115.97258,93.69138 117.77728Q93.69138 119.8338,92.60017 121.55456Q91.50896 123.27532,89.725235 124.30358Q87.94152 125.33184,85.80106 125.33184Z" fill="#000"/>
<line stroke="#000" stroke-width="1.5" x1="92.72635746002197" x2="92.72635746002197" y1="84" y2="118.5"/>
<path d="M134.74384 137.33185Q132.72928 137.33185,131.4492 136.38753Q130.16913 135.4432,130.16913 133.51259Q130.16913 131.37213,131.36526 129.67236Q132.5614 127.97258,134.492 126.98629Q136.42262 126,138.60504 126Q140.45172 126,141.54294 126.98629Q142.63416 127.97258,142.63416 129.77728Q142.63416 131.8338,141.54294 133.55457Q140.45172 135.27531,138.668 136.30359Q136.8843 137.33185,134.74384 137.33185ZM131.3023 134.51987Q131.3023 134.93956,131.61708 135.27531Q131.93185 135.61108,132.47746 135.61108Q133.9464 135.61108,136.12883 134.39395Q137.59778 133.55457,138.79391 132.5263Q139.99005 131.49805,140.70354 130.46979Q141.41702 129.44153,141.41702 128.72803Q141.41702 128.26637,141.18619 127.95159Q140.95535 127.63682,140.36778 127.63682Q139.57036 127.63682,138.43716 128.14046Q137.30399 128.64409,136.06587 129.44153Q134.82777 130.23895,133.73656 131.18327Q132.64534 132.1276,131.97382 133.00896Q131.3023 133.89032,131.3023 134.51987Z" fill="#000"/>
<line stroke="#000" stroke-width="1.5" x1="141.6691210269928" x2="141.6691210269928" y1="96" y2="130.5"/>
<path d="M223.37935 161.33185Q221.36479 161.33185,220.08472 160.38753Q218.80464 159.4432,218.80464 157.51259Q218.80464 155.37213,220.00078 153.67236Q221.19691 151.97258,223.12752 150.98628Q225.05814 150,227.24055 150Q229.08723 150,230.17845 150.98628Q231.26965 151.97258,231.26965 153.77728Q231.26965 155.8338,230.17845 157.55457Q229.08723 159.27531,227.30351 160.30359Q225.5198 161.33185,223.37935 161.33185Z" fill="#000"/>
<path d="M212.62935 155.33185Q210.61479 155.33185,209.33472 154.38753Q208.05464 153.4432,208.05464 151.51259Q208.05464 149.37213,209.25078 147.67236Q210.44691 145.97258,212.37752 144.98628Q214.30814 144,216.49055 144Q218.33723 144,219.42845 144.98628Q220.51965 145.97258,220.51965 147.77728Q220.51965 149.8338,219.42845 151.55457Q218.33723 153.27531,216.55351 154.30359Q214.7698 155.33185,212.62935 155.33185Z" fill="#000"/>
<path d="M223.37935 149.33185Q221.36479 149.33185,220.08472 148.38753Q218.80464 147.4432,218.80464 145.51259Q218.80464 143.37213,220.00078 141.67236Q221.19691 139.97258,223.12752 138.98628Q225.05814 138,227.24055 138Q229.08723 138,230.17845 138.98628Q231.26965 139.97258,231.26965 141.77728Q231.26965 143.8338,230.17845 145.55457Q229.08723 147.27531,227.30351 148.30359Q225.5198 149.33185,223.37935 149.33185Z" fill="#000"/>
<line stroke="#000" stroke-width="1.5" x1="219.55464816093445" x2="219.55464816093445" y1="108" y2="154.5"/>
<line stroke="#000" stroke-width="1.5" x1="21.5" x2="292.2474117279053" y1="120" y2="120"/>
<line stroke="#000" stroke-width="1.5" x1="21.5" x2="292.2474117279053" y1="132" y2="132"/>
<line stroke="#000" stroke-width="1.5" x1="21.5" x2="292.2474117279053" y1="144" y2="144"/>
<line stroke="#000" stroke-width="1.5" x1="21.5" x2="292.2474117279053" y1="156" y2="156"/>
<line stroke="#000" stroke-width="1.5" x1="21.5" x2="292.2474117279053" y1="168" y2="168"/>
<line stroke="#000" stroke-width="1.5" x1="21.5" x2="21.5" y1="119.25" y2="168.75"/>
<line stroke="#000" stroke-width="1.5" x1="292.9974117279053" x2="292.9974117279053" y1="119.25" y2="168.75"/>
<path d="M295.85147 153.80527L295.85147 147.40347L293.7474 147.94069L293.7474 143.46391L295.85147 142.88193L295.85147 134.10744L297.2393 134.10744L297.2393 142.52379L300.2387 141.8075L300.2387 133.07779L301.62653 133.07779L301.62653 141.44936L303.82013 140.95691L303.82013 145.38892L301.62653 146.01567L301.62653 152.41747L303.82013 151.88025L303.82013 156.49133L301.62653 157.02853L301.62653 165.44489L300.2387 165.44489L300.2387 157.38669L297.2393 158.1925L297.2393 166.92221L295.85147 166.92221L295.85147 158.50587L293.7474 159.04309L293.7474 154.432L295.85147 153.80527ZM300.2387 152.73083L300.2387 146.28427L297.2393 147.04533L297.2393 153.44711L300.2387 152.73083Z" fill="#000"/>
<path d="M311.7282 155.33185Q309.71368 155.33185,308.4336 154.38753Q307.1535 153.4432,307.1535 151.51259Q307.1535 149.37213,308.34964 147.67236Q309.54578 145.97258,311.4764 144.98628Q313.407 144,315.58945 144Q317.4361 144,318.5273 144.98628Q319.61853 145.97258,319.61853 147.77728Q319.61853 149.8338,318.5273 151.55457Q317.4361 153.27531,315.6524 154.30359Q313.86868 155.33185,311.7282 155.33185ZM308.28668 152.51987Q308.28668 152.93956,308.60147 153.27531Q308.91623 153.61108,309.46185 153.61108Q310.9308 153.61108,313.11322 152.39395Q314.58215 151.55457,315.7783 150.5263Q316.97443 149.49805,317.68793 148.46979Q318.40143 147.44153,318.40143 146.72803Q318.40143 146.26637,318.1706 145.9516Q317.93976 145.63683,317.35217 145.63683Q316.55475 145.63683,315.42157 146.14046Q314.2884 146.64409,313.05026 147.44153Q311.81216 148.23895,310.72095 149.18327Q309.62973 150.1276,308.95822 151.00896Q308.28668 151.89032,308.28668 152.51987Z" fill="#000"/>
<line stroke="#000" stroke-width="1.5" x1="318.6534932454427" x2="318.6534932454427" y1="114" y2="148.5"/>
<path d="M381.7057 120.0056L383.09348 120.0056L383.09348 137.46503Q384.74988 135.80862,386.85397 135.80862Q388.28653 135.80862,389.4505 136.77113Q390.61447 137.73364,390.61447 139.56912Q390.61447 141.0017,389.7639 142.21042Q388.91327 143.41914,387.4807 144.62787L384.39175 147.26918Q383.54114 147.98546,382.86963 148.67935Q382.19812 149.37326,381.7057 150.00002L381.7057 120.0056ZM383.09348 147.00056Q384.25745 145.74707,385.06326 144.69502Q385.86908 143.64299,386.31674 142.83716Q386.8092 141.98657,387.05542 141.2703Q387.30164 140.55402,387.30164 139.92726Q387.30164 138.67377,386.71967 138.11417Q386.1377 137.55457,385.46616 137.55457Q384.74988 137.55457,384.05597 138.0694Q383.3621 138.58423,383.09348 139.47958L383.09348 147.00056Z" fill="#000"/>
<path d="M398.52252 149.33185Q396.508 149.33185,395.2279 148.38753Q393.9478 147.4432,393.9478 145.51259Q393.9478 143.37213,395.14395 141.67236Q396.3401 139.97258,398.27072 138.98628Q400.20132 138,402.38376 138Q404.2304 138,405.32162 138.98628Q406.41284 139.97258,406.41284 141.77728Q406.41284 143.8338,405.32162 145.55457Q404.2304 147.27531,402.44672 148.30359Q400.663 149.33185,398.52252 149.33185ZM395.081 146.51987Q395.081 146.93956,395.39578 147.27531Q395.71054 147.61108,396.25616 147.61108Q397.7251 147.61108,399.90753 146.39395Q401.37646 145.55457,402.5726 144.5263Q403.76874 143.49805,404.48224 142.46979Q405.19574 141.44153,405.19574 140.72803Q405.19574 140.26637,404.9649 139.9516Q404.73407 139.63683,404.14648 139.63683Q403.34906 139.63683,402.21588 140.14046Q401.0827 140.64409,399.84457 141.44153Q398.60648 142.23895,397.51526 143.18327Q396.42404 144.1276,395.75253 145.00896Q395.081 145.89032,395.081 146.51987Z" fill="#000"/>
<line stroke="#000" stroke-width="1.5" x1="405.44780619939166" x2="405.44780619939166" y1="108" y2="142.5"/>
<line stroke="#000" stroke-width="1.5" x1="283.7474117279053" x2="480" y1="120" y2="120"/>
<line stroke="#000" stroke-width="1.5" x1="283.7474117279053" x2="480" y1="132" y2="132"/>
<line stroke="#000" stroke-width="1.5" x1="283.7474117279053" x2="480" y1="144" y2="144"/>
<line stroke="#000" stroke-width="1.5" x1="283.7474117279053" x2="480" y1="156" y2="156"/>
<line stroke="#000" stroke-width="1.5" x1="283.7474117279053" x2="480" y1="168" y2="168"/>
<line stroke="#000" stroke-width="1.5" x1="480.75" x2="480.75" y1="119.25" y2="168.75"/>
</svg>
