<svg height="200" width="500" xmlns="http://www.w3.org/2000/svg">
<rect fill="#fff" height="200" width="500" x="0" y="0"/>
<path d="M40.864017 31.895914Q40.393955 30.116394,40.091774 28.370451Q39.789593 26.624508,39.789593 24.811413Q39.789593 23.233349,40.007835 21.839954Q40.226078 20.446556,40.628986 19.271404Q41.065475 17.928371,41.770565 16.736427Q42.47566 15.544487,43.26469 14.7722435Q44.053722 14,44.65809 14Q45.463905 14,46.874092 16.853943Q47.579185 18.297703,47.91494 19.976494Q48.2507 21.655289,48.2507 23.569107Q48.2507 25.952991,47.61276 28.320087Q46.97482 30.687183,45.749302 32.768883Q44.52378 34.850586,42.811417 36.42865L43.986572 42.06939Q44.490208 42.002235,44.825966 41.96866Q45.161724 41.935085,45.329605 41.935085Q47.377728 41.935085,48.98937 43.093452Q50.601006 44.251816,51.55792 46.132065Q52.51483 48.01231,52.51483 50.26189Q52.51483 52.84723,51.188583 54.91214Q49.86234 56.977055,47.209846 57.950752Q47.377728 58.52154,48.183548 62.71852Q48.385002 63.725796,48.485733 64.31337Q48.586456 64.90095,48.620033 65.33743Q48.65361 65.77392,48.65361 66.34471Q48.65361 68.0235,47.831 69.34975Q47.008392 70.675995,45.614998 71.41466Q44.2216 72.15333,42.50923 72.15333Q40.76329 72.15333,39.420258 71.4986Q38.077225 70.84387,37.30498 69.6855Q36.532738 68.52714,36.532738 67.01623Q36.532738 65.40459,37.422497 64.33016Q38.312256 63.255733,39.95747 63.255733Q41.367657 63.255733,42.257416 64.2798Q43.147175 65.30386,43.147175 66.71404Q43.147175 67.922775,42.307777 68.82932Q41.468384 69.73587,40.12535 69.73587L39.789593 69.73587Q40.662563 71.04533,42.54281 71.04533Q44.859543 71.04533,46.169 69.53442Q47.478455 68.0235,47.478455 65.673195Q47.478455 65.1024,47.344154 64.14549Q47.209846 63.188583,46.874092 61.84555Q46.53833 60.502518,46.35367 59.629547Q46.169 58.756573,46.101845 58.38724Q44.96027 58.723,43.41578 58.723Q40.52826 58.723,37.775043 57.04421Q35.088978 55.365417,33.544487 52.612198Q32 49.85898,32 46.669277Q32 43.647453,33.37661 40.994965Q34.75322 38.342472,36.784554 36.126465Q38.815895 33.91046,40.864017 31.895914ZM41.770565 31.056519Q42.54281 30.653608,43.41578 29.562393Q44.288754 28.47118,45.094574 27.060995Q45.90039 25.65081,46.40403 24.223839Q46.90767 22.796864,46.90767 21.655289Q46.90767 20.446556,46.53833 19.741467Q46.169 19.036373,45.26245 19.036373Q44.45663 19.036373,43.701176 19.77504Q42.94572 20.51371,42.358143 21.739227Q41.770565 22.964745,41.434807 24.475655Q41.09905 25.986568,41.09905 27.564632Q41.09905 28.63906,41.31729 29.51203Q41.535534 30.385002,41.770565 31.056519ZM43.684387 46.06491Q42.77784 46.266365,41.97202 46.921097Q41.1662 47.575825,40.67935 48.49916Q40.1925 49.422493,40.1925 50.463345Q40.1925 51.302742,40.628986 52.1925Q41.065475 53.08226,41.703415 53.619473Q42.1399 54.02238,42.576385 54.22384Q43.080025 54.45887,43.080025 54.660324Q43.080025 54.76105,42.744263 54.86178Q41.468384 54.559597,40.44432 53.7202Q39.420258 52.880806,38.83268 51.68886Q38.245102 50.49692,38.245102 49.15389Q38.245102 47.71013,38.83268 46.367096Q39.420258 45.024063,40.477898 43.949635Q41.535534 42.87521,42.878567 42.337997L41.90487 37.268044Q38.010075 40.42417,36.18019 43.462784Q34.350307 46.501396,34.350307 49.489647Q34.350307 51.672073,35.491886 53.552322Q36.633465 55.432568,38.614437 56.590935Q40.595413 57.7493,43.080025 57.7493Q43.75154 57.7493,44.439842 57.614994Q45.128147 57.480694,45.90039 57.279236L43.684387 46.06491ZM46.941242 56.943478Q50.231674 55.533295,50.231674 51.168438Q50.231674 49.724678,49.493004 48.532734Q48.754337 47.340794,47.51203 46.6357Q46.269726 45.93061,44.72524 45.93061L46.941242 56.943478Z" fill="#000"/>
<path d="M64.61892 23.805262L64.61892 17.40347L62.51483 17.940683L62.51483 13.463906L64.61892 12.881926L64.61892 4.107443L66.006714 4.107443L66.006714 12.523784L69.00616 11.807499L69.00616 3.0777855L70.39396 3.0777855L70.39396 11.449357L72.58758 10.956912L72.58758 15.388921L70.39396 16.01567L70.39396 22.41746L72.58758 21.880247L72.58758 26.491327L70.39396 27.02854L70.39396 35.44488L69.00616 35.44488L69.00616 27.386683L66.006714 28.192501L66.006714 36.92222L64.61892 36.92222L64.61892 28.505877L62.51483 29.043089L62.51483 24.43201L64.61892 23.805262ZM69.00616 22.730835L69.00616 16.284275L66.006714 17.045328L66.006714 23.447119L69.00616 22.730835Z" fill="#000"/>
<path d="M75.691666 41.80526L75.691666 35.40347L73.58758 35.94068L73.58758 31.463905L75.691666 30.881926L75.691666 22.107443L77.07947 22.107443L77.07947 30.523785L80.0789 29.807499L80.0789 21.077785L81.466705 21.077785L81.466705 29.449356L83.660324 28.956913L83.660324 33.38892L81.466705 34.01567L81.466705 40.41746L83.660324 39.880245L83.660324 44.491325L81.466705 45.02854L81.466705 53.44488L80.0789 53.44488L80.0789 45.38668L77.07947 46.1925L77.07947 54.92222L75.691666 54.92222L75.691666 46.505875L73.58758 47.04309L73.58758 42.43201L75.691666 41.80526ZM80.0789 40.730835L80.0789 34.284275L77.07947 35.045326L77.07947 41.44712L80.0789 40.730835Z" fill="#000"/>
<path d="M86.76441 17.805262L86.76441 11.40347L84.660324 11.940683L84.660324 7.4639063L86.76441 6.8819256L86.76441 -1.8925571L88.15221 -1.8925571L88.15221 6.5237837L91.15165 5.807499L91.15165 -2.9222145L92.53945 -2.9222145L92.53945 5.449357L94.73307 4.956912L94.73307 9.388921L92.53945 10.01567L92.53945 16.41746L94.73307 15.880247L94.73307 20.491327L92.53945 21.02854L92.53945 29.444881L91.15165 29.444881L91.15165 21.386683L88.15221 22.192501L88.15221 30.922216L86.76441 30.922216L86.76441 22.505877L84.660324 23.043089L84.660324 18.43201L86.76441 17.805262ZM91.15165 16.730835L91.15165 10.284276L88.15221 11.045328L88.15221 17.447119L91.15165 16.730835Z" fill="#000"/>
<path d="M97.837166 35.80526L97.837166 29.40347L95.73308 29.940683L95.73308 25.463905L97.837166 24.881926L97.837166 16.107443L99.22496 16.107443L99.22496 24.523785L102.2244 23.807499L102.2244 15.0777855L103.612206 15.0777855L103.612206 23.449356L105.805824 22.956913L105.805824 27.38892L103.612206 28.01567L103.612206 34.41746L105.805824 33.880245L105.805824 38.491325L103.612206 39.02854L103.612206 47.44488L102.2244 47.44488L102.2244 39.38668L99.22496 40.1925L99.22496 48.92222L97.837166 48.92222L97.837166 40.505875L95.73308 41.04309L95.73308 36.43201L97.837166 35.80526ZM102.2244 34.730835L102.2244 28.284275L99.22496 29.045328L99.22496 35.44712L102.2244 34.730835Z" fill="#000"/>
<path d="M126.805824 49.246223Q126.805824 47.69334,127.93901 46.51819Q129.07219 45.343033,131.02379 44.671516Q132.97539 44,135.32568 44Q137.71797 44,139.73251 44.65053Q141.74707 45.301064,142.96419 46.47622Q144.18132 47.65137,144.18132 49.246223Q144.18132 50.883045,143.00616 52.07918Q141.83101 53.275322,139.87941 53.925854Q137.92783 54.576385,135.57751 54.576385Q133.2272 54.576385,131.23364 53.94684Q129.24007 53.31729,128.02295 52.121155Q126.805824 50.925014,126.805824 49.246223ZM136.45888 53.736988Q137.88585 53.736988,138.41048 52.687744Q138.93509 51.6385,138.93509 50.21153Q138.93509 48.742584,138.32654 47.525463Q137.71797 46.30834,136.7107 45.573868Q135.70341 44.839394,134.44432 44.839394Q133.01735 44.839394,132.5347 45.88864Q132.05205 46.937885,132.05205 48.364857Q132.05205 49.791832,132.63962 51.008953Q133.2272 52.226078,134.21349 52.981533Q135.19978 53.736988,136.45888 53.736988Z" fill="#000"/>
<line stroke="#000" stroke-width="2" x1="22" x2="299.06957785288495" y1="20" y2="20"/>
<line stroke="#000" stroke-width="2" x1="22" x2="299.06957785288495" y1="32" y2="32"/>
<line stroke="#000" stroke-width="2" x1="22" x2="299.06957785288495" y1="44" y2="44"/>
<line stroke="#000" stroke-width="2" x1="22" x2="299.06957785288495" y1="56" y2="56"/>
<line stroke="#000" stroke-width="2" x1="22" x2="299.06957785288495" y1="68" y2="68"/>
<line stroke="#000" stroke-width="2" x1="22" x2="22" y1="19" y2="69"/>
<line stroke="#000" stroke-width="2" x1="300.06957785288495" x2="300.06957785288495" y1="19" y2="69"/>
<path d="M318.06958 70.81198Q318.06958 69.259094,318.82504 68.62955Q319.5805 68,320.62973 68Q321.72095 68,322.4974 68.62955Q323.27383 69.259094,323.27383 70.81198Q323.27383 72.32289,322.4974 72.99441Q321.72095 73.665924,320.62973 73.665924Q319.5805 73.665924,318.82504 72.99441Q318.06958 72.32289,318.06958 70.81198Z" fill="#000"/>
<path d="M305.6443 79.33184Q303.62976 79.33184,302.34967 78.38752Q301.06958 77.4432,301.06958 75.51259Q301.06958 73.37213,302.26572 71.672356Q303.46185 69.97258,305.3925 68.98629Q307.3231 68,309.50552 68Q311.35217 68,312.4434 68.98629Q313.5346 69.97258,313.5346 71.77728Q313.5346 73.8338,312.4434 75.55456Q311.35217 77.27532,309.56848 78.30358Q307.78476 79.33184,305.6443 79.33184ZM302.20276 76.51987Q302.20276 76.93956,302.51755 77.27532Q302.8323 77.61108,303.37793 77.61108Q304.84686 77.61108,307.0293 76.39396Q308.49823 75.55456,309.69437 74.5263Q310.8905 73.49804,311.604 72.46978Q312.3175 71.44152,312.3175 70.728035Q312.3175 70.266365,312.08667 69.95159Q311.85583 69.63682,311.26825 69.63682Q310.47083 69.63682,309.33765 70.14046Q308.20447 70.6441,306.96634 71.44152Q305.72824 72.238945,304.63702 73.183266Q303.5458 74.12759,302.8743 75.00896Q302.20276 75.89032,302.20276 76.51987Z" fill="#000"/>
<line stroke="#000" stroke-width="2" x1="312.4981492814564" x2="312.4981492814564" y1="38" y2="72.5"/>
<path d="M392.39886 73.33184Q390.38434 73.33184,389.10425 72.38752Q387.82416 71.4432,387.82416 69.51259Q387.82416 67.37213,389.0203 65.672356Q390.21643 63.97258,392.14706 62.98629Q394.07767 62,396.2601 62Q398.10675 62,399.19797 62.98629Q400.28918 63.97258,400.28918 65.77728Q400.28918 67.8338,399.19797 69.55456Q398.10675 71.27532,396.32306 72.30358Q394.53934 73.33184,392.39886 73.33184Z" fill="#000"/>
<line stroke="#000" stroke-width="2" x1="399.25273444160587" x2="399.25273444160587" y1="32" y2="66.5"/>
<line stroke="#000" stroke-width="2" x1="291.06957785288495" x2="454.89010188314654" y1="20" y2="20"/>
<line stroke="#000" stroke-width="2" x1="291.06957785288495" x2="454.89010188314654" y1="32" y2="32"/>
<line stroke="#000" stroke-width="2" x1="291.06957785288495" x2="454.89010188314654" y1="44" y2="44"/>
<line stroke="#000" stroke-width="2" x1="291.06957785288495" x2="454.89010188314654" y1="56" y2="56"/>
<line stroke="#000" stroke-width="2" x1="291.06957785288495" x2="454.89010188314654" y1="68" y2="68"/>
<line stroke="#000" stroke-width="2" x1="455.89010188314654" x2="455.89010188314654" y1="19" y2="69"/>
<path d="M36.574707 167.33185Q34.560158 167.33185,33.28008 166.38753Q32 165.4432,32 163.51259Q32 161.37213,33.196136 159.67236Q34.392277 157.97258,36.322887 156.98628Q38.253498 156,40.435925 156Q42.282597 156,43.37381 156.98628Q44.465027 157.97258,44.465027 159.77728Q44.465027 161.8338,43.37381 163.55457Q42.282597 165.27531,40.49888 166.30359Q38.715164 167.33185,36.574707 167.33185ZM33.133183 164.51987Q33.133183 164.93956,33.447956 165.27531Q33.76273 165.61108,34.30834 165.61108Q35.77728 165.61108,37.95971 164.39395Q39.42865 163.55457,40.62479 162.5263Q41.82093 161.49805,42.534416 160.46979Q43.247902 159.44153,43.247902 158.72803Q43.247902 158.26637,43.017067 157.9516Q42.786232 157.63683,42.198658 157.63683Q41.40123 157.63683,40.268047 158.14046Q39.134865 158.64409,37.896755 159.44153Q36.658646 160.23895,35.567432 161.18327Q34.476215 162.1276,33.8047 163.00896Q33.133183 163.89032,33.133183 164.51987Z" fill="#000"/>
<line stroke="#000" stroke-width="2" x1="43.42857142857143" x2="43.42857142857143" y1="126" y2="160.5"/>
<path d="M95.11814 173.33185Q93.10359 173.33185,91.82352 172.38753Q90.543434 171.4432,90.543434 169.51259Q90.543434 167.37213,91.73957 165.67236Q92.935715 163.97258,94.866325 162.98628Q96.796936 162,98.97936 162Q100.826035 162,101.917244 162.98628Q103.00846 163.97258,103.00846 165.77728Q103.00846 167.8338,101.917244 169.55457Q100.826035 171.27531,99.04231 172.30359Q97.2586 173.33185,95.11814 173.33185Z" fill="#000"/>
<line stroke="#000" stroke-width="2" x1="101.97200228675965" x2="101.97200228675965" y1="132" y2="166.5"/>
<path d="M134.38985 167.33185Q132.3753 167.33185,131.09521 166.38753Q129.81514 165.4432,129.81514 163.51259Q129.81514 161.37213,131.01128 159.67236Q132.20741 157.97258,134.13803 156.98628Q136.06863 156,138.25107 156Q140.09773 156,141.18895 156.98628Q142.28017 157.97258,142.28017 159.77728Q142.28017 161.8338,141.18895 163.55457Q140.09773 165.27531,138.31403 166.30359Q136.5303 167.33185,134.38985 167.33185Z" fill="#000"/>
<line stroke="#000" stroke-width="2" x1="141.24371771585376" x2="141.24371771585376" y1="126" y2="160.5"/>
<line stroke="#000" stroke-width="2" x1="22" x2="181.08686171637646" y1="120" y2="120"/>
<line stroke="#000" stroke-width="2" x1="22" x2="181.08686171637646" y1="132" y2="132"/>
<line stroke="#000" stroke-width="2" x1="22" x2="181.08686171637646" y1="144" y2="144"/>
<line stroke="#000" stroke-width="2" x1="22" x2="181.08686171637646" y1="156" y2="156"/>
<line stroke="#000" stroke-width="2" x1="22" x2="181.08686171637646" y1="168" y2="168"/>
<line stroke="#000" stroke-width="2" x1="22" x2="22" y1="119" y2="169"/>
<line stroke="#000" stroke-width="2" x1="182.08686171637646" x2="182.08686171637646" y1="119" y2="169"/>
<path d="M210.08687 140.81197Q210.08687 139.2591,210.84233 138.62955Q211.59778 138,212.64703 138Q213.73825 138,214.51468 138.62955Q215.29112 139.2591,215.29112 140.81197Q215.29112 142.32288,214.51468 142.9944Q213.73825 143.66591,212.64703 143.66591Q211.59778 143.66591,210.84233 142.9944Q210.08687 142.32288,210.08687 140.81197Z" fill="#000"/>
<path d="M197.66158 149.33185Q195.64702 149.33185,194.36694 148.38753Q193.08687 147.4432,193.08687 145.51259Q193.08687 143.37213,194.283 141.67236Q195.47914 139.97258,197.40974 138.98628Q199.34036 138,201.52278 138Q203.36946 138,204.46068 138.98628Q205.55188 139.97258,205.55188 141.77728Q205.55188 143.8338,204.46068 145.55457Q203.36946 147.27531,201.58574 148.30359Q199.80203 149.33185,197.66158 149.33185ZM194.22005 146.51987Q194.22005 146.93956,194.53482 147.27531Q194.8496 147.61108,195.3952 147.61108Q196.86414 147.61108,199.04657 146.39395Q200.51552 145.55457,201.71165 144.5263Q202.90779 143.49805,203.62128 142.46979Q204.33476 141.44153,204.33476 140.72803Q204.33476 140.26637,204.10393 139.9516Q203.8731 139.63683,203.28552 139.63683Q202.4881 139.63683,201.3549 140.14046Q200.22173 140.64409,198.98361 141.44153Q197.74551 142.23895,196.6543 143.18327Q195.56308 144.1276,194.89156 145.00896Q194.22005 145.89032,194.22005 146.51987Z" fill="#000"/>
<line stroke="#000" stroke-width="2" x1="204.51543314494785" x2="204.51543314494785" y1="108" y2="142.5"/>
<path d="M263.35718 155.33185Q261.34265 155.33185,260.06256 154.38753Q258.78247 153.4432,258.78247 151.51259Q258.78247 149.37213,259.9786 147.67236Q261.17474 145.97258,263.10538 144.98628Q265.03598 144,267.2184 144Q269.06506 144,270.15628 144.98628Q271.2475 145.97258,271.2475 147.77728Q271.2475 149.8338,270.15628 151.55457Q269.06506 153.27531,267.28137 154.30359Q265.49765 155.33185,263.35718 155.33185Z" fill="#000"/>
<line stroke="#000" stroke-width="2" x1="270.21105371707336" x2="270.21105371707336" y1="114" y2="148.5"/>
<line stroke="#000" stroke-width="2" x1="183.08686171637643" x2="310.054197717596" y1="120" y2="120"/>
<line stroke="#000" stroke-width="2" x1="183.08686171637643" x2="310.054197717596" y1="132" y2="132"/>
<line stroke="#000" stroke-width="2" x1="183.08686171637643" x2="310.054197717596" y1="144" y2="144"/>
<line stroke="#000" stroke-width="2" x1="183.08686171637643" x2="310.054197717596" y1="156" y2="156"/>
<line stroke="#000" stroke-width="2" x1="183.08686171637643" x2="310.054197717596" y1="168" y2="168"/>
<line stroke="#000" stroke-width="2" x1="311.054197717596" x2="311.054197717596" y1="119" y2="169"/>
<path d="M325.4151 161.33185Q323.40057 161.33185,322.12048 160.38753Q320.8404 159.4432,320.8404 157.51259Q320.8404 155.37213,322.03653 153.67236Q323.23267 151.97258,325.1633 150.98628Q327.0939 150,329.27634 150Q331.123 150,332.2142 150.98628Q333.30542 151.97258,333.30542 153.77728Q333.30542 155.8338,332.2142 157.55457Q331.123 159.27531,329.3393 160.30359Q327.55557 161.33185,325.4151 161.33185ZM321.97357 158.51987Q321.97357 158.93956,322.28836 159.27531Q322.60312 159.61108,323.14874 159.61108Q324.61768 159.61108,326.8001 158.39395Q328.26904 157.55457,329.46518 156.5263Q330.66132 155.49805,331.37482 154.46979Q332.08832 153.44153,332.08832 152.72803Q332.08832 152.26637,331.85748 151.9516Q331.62665 151.63683,331.03906 151.63683Q330.24164 151.63683,329.10846 152.14046Q327.97528 152.64409,326.73715 153.44153Q325.49905 154.23895,324.40784 155.18327Q323.31662 156.1276,322.6451 157.00896Q321.97357 157.89032,321.97357 158.51987Z" fill="#000"/>
<line stroke="#000" stroke-width="2" x1="332.26896152799094" x2="332.26896152799094" y1="120" y2="154.5"/>
<path d="M383.95853 167.33185Q381.944 167.33185,380.6639 166.38753Q379.38382 165.4432,379.38382 163.51259Q379.38382 161.37213,380.57996 159.67236Q381.7761 157.97258,383.70673 156.98628Q385.63733 156,387.81976 156Q389.6664 156,390.75763 156.98628Q391.84885 157.97258,391.84885 159.77728Q391.84885 161.8338,390.75763 163.55457Q389.6664 165.27531,387.88272 166.30359Q386.099 167.33185,383.95853 167.33185Z" fill="#000"/>
<line stroke="#000" stroke-width="2" x1="390.81239238617917" x2="390.81239238617917" y1="126" y2="160.5"/>
<path d="M433.30298 161.33185Q431.28845 161.33185,430.00836 160.38753Q428.72827 159.4432,428.72827 157.51259Q428.72827 155.37213,429.9244 153.67236Q431.12054 151.97258,433.05118 150.98628Q434.98178 150,437.1642 150Q439.01086 150,440.10208 150.98628Q441.1933 151.97258,441.1933 153.77728Q441.1933 155.8338,440.10208 157.55457Q439.01086 159.27531,437.22717 160.30359Q435.44345 161.33185,433.30298 161.33185Z" fill="#000"/>
<line stroke="#000" stroke-width="2" x1="440.1568559994774" x2="440.1568559994774" y1="120" y2="154.5"/>
<line stroke="#000" stroke-width="2" x1="310.8403900994195" x2="480.00000000000006" y1="120" y2="120"/>
<line stroke="#000" stroke-width="2" x1="310.8403900994195" x2="480.00000000000006" y1="132" y2="132"/>
<line stroke="#000" stroke-width="2" x1="310.8403900994195" x2="480.00000000000006" y1="144" y2="144"/>
<line stroke="#000" stroke-width="2" x1="310.8403900994195" x2="480.00000000000006" y1="156" y2="156"/>
<line stroke="#000" stroke-width="2" x1="310.8403900994195" x2="480.00000000000006" y1="168" y2="168"/>
<line stroke="#000" stroke-width="2" x1="481.00000000000006" x2="481.00000000000006" y1="119" y2="169"/>
</svg>
