<svg height="100" width="350" xmlns="http://www.w3.org/2000/svg">
<rect fill="#fff" height="100" width="350" x="0" y="0"/>
<path d="M38.574707 33.33184Q36.560158 33.33184,35.28008 32.38752Q34 31.443201,34 29.51259Q34 27.372131,35.196136 25.672356Q36.392277 23.97258,38.322887 22.98629Q40.253498 22,42.435925 22Q44.282597 22,45.37381 22.98629Q46.465027 23.97258,46.465027 25.777279Q46.465027 27.8338,45.37381 29.55456Q44.282597 31.275322,42.49888 32.30358Q40.715164 33.33184,38.574707 33.33184Z" fill="#000"/>
<path d="M38.574707 51.33184Q36.560158 51.33184,35.28008 50.38752Q34 49.4432,34 47.512592Q34 45.37213,35.196136 43.672356Q36.392277 41.97258,38.322887 40.98629Q40.253498 40,42.435925 40Q44.282597 40,45.37381 40.98629Q46.465027 41.97258,46.465027 43.77728Q46.465027 45.8338,45.37381 47.55456Q44.282597 49.275322,42.49888 50.30358Q40.715164 51.33184,38.574707 51.33184Z" fill="#000"/>
<line stroke="#000" stroke-width="2" x1="34.85714285714286" x2="34.85714285714286" y1="29.5" y2="82"/>
<path d="M59.104084 61.80526L59.104084 55.40347L57 55.94068L57 51.463905L59.104084 50.881927L59.104084 42.107445L60.491886 42.107445L60.491886 50.523785L63.491325 49.8075L63.491325 41.077785L64.87913 41.077785L64.87913 49.449356L67.07275 48.956913L67.07275 53.38892L64.87913 54.01567L64.87913 60.41746L67.07275 59.880245L67.07275 64.491325L64.87913 65.02854L64.87913 73.44488L63.491325 73.44488L63.491325 65.38668L60.491886 66.192505L60.491886 74.92222L59.104084 74.92222L59.104084 66.505875L57 67.04309L57 62.43201L59.104084 61.80526ZM63.491325 60.730835L63.491325 54.284275L60.491886 55.045326L60.491886 61.44712L63.491325 60.730835Z" fill="#000"/>
<path d="M88.64745 63.33184Q86.632904 63.33184,85.35283 62.38752Q84.07275 61.4432,84.07275 59.512592Q84.07275 57.37213,85.26888 55.672356Q86.46503 53.97258,88.39564 52.98629Q90.32625 52,92.508675 52Q94.35535 52,95.446556 52.98629Q96.53777 53.97258,96.53777 55.77728Q96.53777 57.8338,95.446556 59.55456Q94.35535 61.275322,92.571625 62.30358Q90.78791 63.33184,88.64745 63.33184ZM85.20593 60.519867Q85.20593 60.939564,85.520706 61.275322Q85.83548 61.61108,86.38109 61.61108Q87.85003 61.61108,90.032455 60.393955Q91.501396 59.55456,92.69754 58.526302Q93.89368 57.49804,94.60716 56.46978Q95.32065 55.44152,95.32065 54.728035Q95.32065 54.26637,95.08981 53.951595Q94.85898 53.63682,94.27141 53.63682Q93.473976 53.63682,92.3408 54.140457Q91.20761 54.644096,89.969505 55.44152Q88.73139 56.23895,87.64018 57.183266Q86.548965 58.127586,85.87745 59.008953Q85.20593 59.89032,85.20593 60.519867Z" fill="#000"/>
<path d="M76.64745 57.33184Q74.632904 57.33184,73.35283 56.38752Q72.07275 55.4432,72.07275 53.512592Q72.07275 51.37213,73.26888 49.672356Q74.46503 47.97258,76.39564 46.98629Q78.32625 46,80.508675 46Q82.35535 46,83.446556 46.98629Q84.53777 47.97258,84.53777 49.77728Q84.53777 51.8338,83.446556 53.55456Q82.35535 55.275322,80.571625 56.30358Q78.78791 57.33184,76.64745 57.33184ZM73.20593 54.519867Q73.20593 54.939564,73.520706 55.275322Q73.83548 55.61108,74.38109 55.61108Q75.85003 55.61108,78.032455 54.393955Q79.501396 53.55456,80.69754 52.526302Q81.89368 51.49804,82.60716 50.46978Q83.32065 49.44152,83.32065 48.728035Q83.32065 48.26637,83.08981 47.951595Q82.85898 47.63682,82.27141 47.63682Q81.473976 47.63682,80.3408 48.140457Q79.20761 48.644096,77.969505 49.44152Q76.73139 50.23895,75.64018 51.183266Q74.548965 52.127586,73.87745 53.008953Q73.20593 53.89032,73.20593 54.519867Z" fill="#000"/>
<path d="M88.64745 51.33184Q86.632904 51.33184,85.35283 50.38752Q84.07275 49.4432,84.07275 47.512592Q84.07275 45.37213,85.26888 43.672356Q86.46503 41.97258,88.39564 40.98629Q90.32625 40,92.508675 40Q94.35535 40,95.446556 40.98629Q96.53777 41.97258,96.53777 43.77728Q96.53777 45.8338,95.446556 47.55456Q94.35535 49.275322,92.571625 50.30358Q90.78791 51.33184,88.64745 51.33184ZM85.20593 48.519867Q85.20593 48.939564,85.520706 49.275322Q85.83548 49.61108,86.38109 49.61108Q87.85003 49.61108,90.032455 48.393955Q91.501396 47.55456,92.69754 46.526302Q93.89368 45.49804,94.60716 44.46978Q95.32065 43.44152,95.32065 42.728035Q95.32065 42.26637,95.08981 41.951595Q94.85898 41.63682,94.27141 41.63682Q93.473976 41.63682,92.3408 42.140457Q91.20761 42.644096,89.969505 43.44152Q88.73139 44.23895,87.64018 45.183266Q86.548965 46.127586,85.87745 47.008953Q85.20593 47.89032,85.20593 48.519867Z" fill="#000"/>
<line stroke="#000" stroke-width="2" x1="83.50131961277553" x2="83.50131961277553" y1="10" y2="56.5"/>
<path d="M117.57471 51.33184Q115.56016 51.33184,114.28008 50.38752Q113 49.4432,113 47.512592Q113 45.37213,114.19614 43.672356Q115.39228 41.97258,117.32289 40.98629Q119.2535 40,121.43593 40Q123.2826 40,124.37381 40.98629Q125.46503 41.97258,125.46503 43.77728Q125.46503 45.8338,124.37381 47.55456Q123.2826 49.275322,121.498886 50.30358Q119.715164 51.33184,117.57471 51.33184Z" fill="#000"/>
<line stroke="#000" stroke-width="2" x1="124.42857142857143" x2="124.42857142857143" y1="10" y2="44.5"/>
<line stroke="#000" stroke-width="2" x1="13" x2="160" y1="10" y2="10"/>
<line stroke="#000" stroke-width="2" x1="13" x2="160" y1="22" y2="22"/>
<line stroke="#000" stroke-width="2" x1="13" x2="160" y1="34" y2="34"/>
<line stroke="#000" stroke-width="2" x1="13" x2="160" y1="46" y2="46"/>
<line stroke="#000" stroke-width="2" x1="13" x2="160" y1="58" y2="58"/>
<line stroke="#000" stroke-width="2" x1="13" x2="13" y1="9" y2="59"/>
<line stroke="#000" stroke-width="2" x1="161" x2="161" y1="9" y2="59"/>
<path d="M186.5747 15.331842Q184.56015 15.331842,183.28008 14.387522Q182 13.443202,182 11.512591Q182 9.372133,183.19614 7.6723566Q184.39227 5.97258,186.32288 4.98629Q188.2535 4,190.43591 4Q192.2826 4,193.37381 4.98629Q194.46503 5.97258,194.46503 7.777281Q194.46503 9.8338,193.37381 11.554562Q192.2826 13.275322,190.49887 14.303582Q188.71516 15.331842,186.5747 15.331842ZM183.13318 12.519867Q183.13318 12.939564,183.44795 13.275322Q183.76273 13.611081,184.30833 13.611081Q185.77727 13.611081,187.9597 12.393957Q189.42865 11.554562,190.62479 10.526302Q191.82092 9.498042,192.53441 8.469782Q193.2479 7.4415226,193.2479 6.728036Q193.2479 6.266369,193.01706 5.9515953Q192.78622 5.6368217,192.19865 5.6368217Q191.40123 5.6368217,190.26804 6.140459Q189.13486 6.6440964,187.89674 7.4415226Q186.65865 8.238949,185.56743 9.183269Q184.47621 10.127588,183.80469 11.008954Q183.13318 11.89032,183.13318 12.519867Z" fill="#000"/>
<line stroke="#000" stroke-width="2" x1="182.85714285714283" x2="182.85714285714283" y1="11.5" y2="46"/>
<path d="M234.0291 18L240.74426 26.184107Q238.64578 28.660324,237.51259 30.465023Q236.37941 32.269722,236.37941 34.116394Q236.37941 35.669277,237.38669 37.369053Q238.39395 39.06883,240.57639 41.670956L239.90488 42.59429Q238.0582 41.419136,236.46335 41.419136Q235.2882 41.419136,234.70062 42.19558Q234.11304 42.97202,234.11304 44.063232Q234.11304 45.406265,234.67963 46.602406Q235.24623 47.798546,236.21153 48.88976L235.66592 49.687183Q232.77 47.588696,231.38501 45.867935Q230 44.147175,230 42.13262Q230 40.327923,231.13318 39.488525Q232.26637 38.64913,233.86122 38.64913Q235.12032 38.64913,237.13486 39.614437L237.13486 39.5305L230.67152 30.926691Q234.91046 27.191381,234.91046 23.959707Q234.91046 21.399551,232.2244 18L234.0291 18Z" fill="#000"/>
<path d="M257.1041 61.80526L257.1041 55.40347L255 55.94068L255 51.463905L257.1041 50.881927L257.1041 42.107445L258.49188 42.107445L258.49188 50.523785L261.49133 49.8075L261.49133 41.077785L262.87912 41.077785L262.87912 49.449356L265.07275 48.956913L265.07275 53.38892L262.87912 54.01567L262.87912 60.41746L265.07275 59.880245L265.07275 64.491325L262.87912 65.02854L262.87912 73.44488L261.49133 73.44488L261.49133 65.38668L258.49188 66.192505L258.49188 74.92222L257.1041 74.92222L257.1041 66.505875L255 67.04309L255 62.43201L257.1041 61.80526ZM261.49133 60.730835L261.49133 54.284275L258.49188 55.045326L258.49188 61.44712L261.49133 60.730835Z" fill="#000"/>
<path d="M274.64746 75.33184Q272.63293 75.33184,271.35284 74.38752Q270.07275 73.4432,270.07275 71.51259Q270.07275 69.37213,271.2689 67.672356Q272.46503 65.97258,274.39566 64.98629Q276.32626 64,278.5087 64Q280.35535 64,281.44656 64.98629Q282.53778 65.97258,282.53778 67.77728Q282.53778 69.8338,281.44656 71.55456Q280.35535 73.27532,278.57166 74.30358Q276.78793 75.33184,274.64746 75.33184Z" fill="#000"/>
<path d="M274.64746 63.33184Q272.63293 63.33184,271.35284 62.38752Q270.07275 61.4432,270.07275 59.512592Q270.07275 57.37213,271.2689 55.672356Q272.46503 53.97258,274.39566 52.98629Q276.32626 52,278.5087 52Q280.35535 52,281.44656 52.98629Q282.53778 53.97258,282.53778 55.77728Q282.53778 57.8338,281.44656 59.55456Q280.35535 61.275322,278.57166 62.30358Q276.78793 63.33184,274.64746 63.33184Z" fill="#000"/>
<line stroke="#000" stroke-width="2" x1="281.50131961277555" x2="281.50131961277555" y1="22" y2="68.5"/>
<line stroke="#000" stroke-width="2" x1="161" x2="302" y1="10" y2="10"/>
<line stroke="#000" stroke-width="2" x1="161" x2="302" y1="22" y2="22"/>
<line stroke="#000" stroke-width="2" x1="161" x2="302" y1="34" y2="34"/>
<line stroke="#000" stroke-width="2" x1="161" x2="302" y1="46" y2="46"/>
<line stroke="#000" stroke-width="2" x1="161" x2="302" y1="58" y2="58"/>
<line stroke="#000" stroke-width="2" x1="161" x2="161" y1="9" y2="59"/>
<line stroke="#000" stroke-width="2" x1="303" x2="303" y1="9" y2="59"/>
</svg>
