<svg height="200" width="500" xmlns="http://www.w3.org/2000/svg">
<rect fill="#fff" height="200" width="500" x="0" y="0"/>
<path d="M30.864017 21.895914Q30.393955 20.116394,30.091774 18.370451Q29.789593 16.624508,29.789593 14.811413Q29.789593 13.233349,30.007835 11.839954Q30.226078 10.446556,30.628986 9.271404Q31.065474 7.9283714,31.770565 6.7364273Q32.47566 5.544487,33.26469 4.7722435Q34.053722 4,34.65809 4Q35.463905 4,36.874092 6.853943Q37.579185 8.297703,37.91494 9.976494Q38.2507 11.655289,38.2507 13.569107Q38.2507 15.9529915,37.61276 18.320087Q36.97482 20.687183,35.749302 22.768885Q34.52378 24.850586,32.811417 26.42865L33.986572 32.06939Q34.490208 32.002235,34.825966 31.96866Q35.161724 31.935085,35.329605 31.935085Q37.377728 31.935085,38.98937 33.093452Q40.601006 34.251816,41.55792 36.132065Q42.51483 38.01231,42.51483 40.26189Q42.51483 42.84723,41.188583 44.91214Q39.86234 46.977055,37.209846 47.950752Q37.377728 48.52154,38.183548 52.71852Q38.385002 53.725796,38.485733 54.313374Q38.586456 54.90095,38.620033 55.337437Q38.65361 55.773922,38.65361 56.34471Q38.65361 58.023502,37.831 59.349747Q37.008392 60.67599,35.614998 61.41466Q34.2216 62.153328,32.50923 62.153328Q30.76329 62.153328,29.420258 61.4986Q28.077225 60.843872,27.304981 59.685505Q26.532738 58.527138,26.532738 57.016228Q26.532738 55.404587,27.422497 54.330162Q28.312256 53.255733,29.95747 53.255733Q31.367657 53.255733,32.257416 54.279797Q33.147175 55.30386,33.147175 56.714043Q33.147175 57.922775,32.307777 58.829323Q31.468384 59.73587,30.12535 59.73587L29.789593 59.73587Q30.662563 61.045326,32.54281 61.045326Q34.859543 61.045326,36.169 59.534416Q37.478455 58.023502,37.478455 55.673195Q37.478455 55.102406,37.344154 54.145493Q37.209846 53.188583,36.874092 51.84555Q36.53833 50.502518,36.35367 49.629547Q36.169 48.756573,36.101845 48.38724Q34.96027 48.723,33.41578 48.723Q30.52826 48.723,27.775042 47.04421Q25.088976 45.365417,23.544489 42.612198Q22 39.85898,22 36.669277Q22 33.647453,23.37661 30.994963Q24.753218 28.342472,26.784555 26.126467Q28.815893 23.910463,30.864017 21.895914ZM31.770565 21.056519Q32.54281 20.653608,33.41578 19.562393Q34.288754 18.47118,35.094574 17.060995Q35.90039 15.65081,36.40403 14.223839Q36.90767 12.796864,36.90767 11.655289Q36.90767 10.446556,36.53833 9.7414665Q36.169 9.036373,35.26245 9.036373Q34.45663 9.036373,33.701176 9.77504Q32.94572 10.51371,32.358143 11.739227Q31.770565 12.964745,31.434807 14.475655Q31.099049 15.986568,31.099049 17.564632Q31.099049 18.63906,31.317291 19.51203Q31.535534 20.385002,31.770565 21.056519ZM33.684387 36.06491Q32.77784 36.266365,31.97202 36.921097Q31.1662 37.575825,30.679352 38.49916Q30.192501 39.422493,30.192501 40.463345Q30.192501 41.302742,30.628986 42.1925Q31.065474 43.08226,31.703415 43.619473Q32.1399 44.02238,32.576385 44.22384Q33.080025 44.45887,33.080025 44.660324Q33.080025 44.76105,32.744263 44.86178Q31.468384 44.559597,30.44432 43.7202Q29.420258 42.880806,28.83268 41.68886Q28.245104 40.49692,28.245104 39.15389Q28.245104 37.71013,28.83268 36.367096Q29.420258 35.024063,30.477896 33.949635Q31.535534 32.87521,32.878567 32.337997L31.90487 27.268045Q28.010073 30.424173,26.180191 33.462784Q24.350307 36.501396,24.350307 39.489647Q24.350307 41.672073,25.491886 43.552322Q26.633465 45.432568,28.614437 46.590935Q30.595411 47.7493,33.080025 47.7493Q33.75154 47.7493,34.439842 47.614994Q35.128147 47.480694,35.90039 47.279236L33.684387 36.06491ZM36.941242 46.943478Q40.231674 45.533295,40.231674 41.168438Q40.231674 39.724678,39.493004 38.532734Q38.754337 37.340794,37.51203 36.6357Q36.269726 35.93061,34.72524 35.93061L36.941242 46.943478Z" fill="#000"/>
<path d="M62.51483 39.246223Q62.51483 37.69334,63.648018 36.51819Q64.781204 35.343033,66.732796 34.671516Q68.68439 34,71.0347 34Q73.42698 34,75.44153 34.65053Q77.45608 35.301064,78.6732 36.47622Q79.89032 37.65137,79.89032 39.246223Q79.89032 40.883045,78.71517 42.07918Q77.540016 43.275322,75.588425 43.925854Q73.636826 44.576385,71.286514 44.576385Q68.93621 44.576385,66.94264 43.94684Q64.94908 43.31729,63.731956 42.121155Q62.51483 40.925014,62.51483 39.246223ZM72.167885 43.736988Q73.59486 43.736988,74.11948 42.687744Q74.644104 41.6385,74.644104 40.21153Q74.644104 38.742584,74.03554 37.525463Q73.42698 36.30834,72.4197 35.573868Q71.41243 34.839394,70.153336 34.839394Q68.726364 34.839394,68.243706 35.88864Q67.761055 36.937885,67.761055 38.364857Q67.761055 39.791832,68.34863 41.008953Q68.93621 42.226078,69.9225 42.981533Q70.90879 43.736988,72.167885 43.736988Z" fill="#000"/>
<line stroke="#000" stroke-width="2" x1="12" x2="125.38612222671509" y1="10" y2="10"/>
<line stroke="#000" stroke-width="2" x1="12" x2="125.38612222671509" y1="22" y2="22"/>
<line stroke="#000" stroke-width="2" x1="12" x2="125.38612222671509" y1="34" y2="34"/>
<line stroke="#000" stroke-width="2" x1="12" x2="125.38612222671509" y1="46" y2="46"/>
<line stroke="#000" stroke-width="2" x1="12" x2="125.38612222671509" y1="58" y2="58"/>
<line stroke="#000" stroke-width="2" x1="12" x2="12" y1="9" y2="59"/>
<line stroke="#000" stroke-width="2" x1="126.38612222671509" x2="126.38612222671509" y1="9" y2="59"/>
<path d="M159.38612 60.811974Q159.38612 59.25909,160.14159 58.629547Q160.89703 58,161.94629 58Q163.0375 58,163.81393 58.629547Q164.59038 59.25909,164.59038 60.811974Q164.59038 62.322887,163.81393 62.994404Q163.0375 63.66592,161.94629 63.66592Q160.89703 63.66592,160.14159 62.994404Q159.38612 62.322887,159.38612 60.811974Z" fill="#000"/>
<path d="M146.96083 69.33184Q144.94627 69.33184,143.6662 68.38752Q142.38612 67.4432,142.38612 65.51259Q142.38612 63.37213,143.58226 61.672356Q144.7784 59.97258,146.709 58.98629Q148.63962 58,150.82204 58Q152.66872 58,153.75993 58.98629Q154.85114 59.97258,154.85114 61.77728Q154.85114 63.8338,153.75993 65.55456Q152.66872 67.27532,150.885 68.30358Q149.10129 69.33184,146.96083 69.33184ZM143.5193 66.51987Q143.5193 66.93956,143.83408 67.27532Q144.14885 67.61108,144.69446 67.61108Q146.16339 67.61108,148.34583 66.39396Q149.81477 65.55456,151.01091 64.5263Q152.20705 63.49804,152.92053 62.46978Q153.63402 61.44152,153.63402 60.728035Q153.63402 60.26637,153.40318 59.951595Q153.17235 59.63682,152.58478 59.63682Q151.78735 59.63682,150.65416 60.140457Q149.52098 60.644096,148.28287 61.44152Q147.04477 62.23895,145.95355 63.183266Q144.86234 64.12759,144.19081 65.00896Q143.5193 65.89032,143.5193 66.51987Z" fill="#000"/>
<line stroke="#000" stroke-width="2" x1="137.3861222267151" x2="159.3861222267151" y1="58" y2="58"/>
<line stroke="#000" stroke-width="2" x1="153.8146936552865" x2="153.8146936552865" y1="28" y2="62.5"/>
<path d="M222.83212 63.33184Q220.81757 63.33184,219.53749 62.38752Q218.25742 61.4432,218.25742 59.512592Q218.25742 57.37213,219.45355 55.672356Q220.64969 53.97258,222.58029 52.98629Q224.51091 52,226.69333 52Q228.54001 52,229.63123 52.98629Q230.72244 53.97258,230.72244 55.77728Q230.72244 57.8338,229.63123 59.55456Q228.54001 61.275322,226.75629 62.30358Q224.97258 63.33184,222.83212 63.33184Z" fill="#000"/>
<line stroke="#000" stroke-width="2" x1="229.68598624638147" x2="229.68598624638147" y1="22" y2="56.5"/>
<line stroke="#000" stroke-width="2" x1="127.38612222671509" x2="257.9752379655838" y1="10" y2="10"/>
<line stroke="#000" stroke-width="2" x1="127.38612222671509" x2="257.9752379655838" y1="22" y2="22"/>
<line stroke="#000" stroke-width="2" x1="127.38612222671509" x2="257.9752379655838" y1="34" y2="34"/>
<line stroke="#000" stroke-width="2" x1="127.38612222671509" x2="257.9752379655838" y1="46" y2="46"/>
<line stroke="#000" stroke-width="2" x1="127.38612222671509" x2="257.9752379655838" y1="58" y2="58"/>
<line stroke="#000" stroke-width="2" x1="258.9752379655838" x2="258.9752379655838" y1="9" y2="59"/>
<path d="M271.83212 57.33184Q269.8176 57.33184,268.5375 56.38752Q267.25742 55.4432,267.25742 53.512592Q267.25742 51.37213,268.45355 49.672356Q269.6497 47.97258,271.58032 46.98629Q273.51093 46,275.69336 46Q277.54 46,278.63123 46.98629Q279.72244 47.97258,279.72244 49.77728Q279.72244 51.8338,278.63123 53.55456Q277.54 55.275322,275.75632 56.30358Q273.9726 57.33184,271.83212 57.33184ZM268.3906 54.519867Q268.3906 54.939564,268.70538 55.275322Q269.02014 55.61108,269.56577 55.61108Q271.0347 55.61108,273.21713 54.393955Q274.68607 53.55456,275.8822 52.526302Q277.07837 51.49804,277.79184 50.46978Q278.50534 49.44152,278.50534 48.728035Q278.50534 48.26637,278.2745 47.951595Q278.04367 47.63682,277.4561 47.63682Q276.65866 47.63682,275.52548 48.140457Q274.39227 48.644096,273.15417 49.44152Q271.91608 50.23895,270.82486 51.183266Q269.73364 52.127586,269.06213 53.008953Q268.3906 53.89032,268.3906 54.519867Z" fill="#000"/>
<line stroke="#000" stroke-width="2" x1="278.6859862463815" x2="278.6859862463815" y1="16" y2="50.5"/>
<path d="M307.26776 63.33184Q305.25323 63.33184,303.97314 62.38752Q302.69305 61.4432,302.69305 59.512592Q302.69305 57.37213,303.8892 55.672356Q305.08533 53.97258,307.01596 52.98629Q308.94656 52,311.129 52Q312.97565 52,314.06686 52.98629Q315.15808 53.97258,315.15808 55.77728Q315.15808 57.8338,314.06686 59.55456Q312.97565 61.275322,311.19196 62.30358Q309.40823 63.33184,307.26776 63.33184Z" fill="#000"/>
<line stroke="#000" stroke-width="2" x1="314.121632541929" x2="314.121632541929" y1="22" y2="56.5"/>
<path d="M334.9856 57.33184Q332.97107 57.33184,331.69098 56.38752Q330.4109 55.4432,330.4109 53.512592Q330.4109 51.37213,331.60703 49.672356Q332.80316 47.97258,334.7338 46.98629Q336.6644 46,338.84683 46Q340.69348 46,341.7847 46.98629Q342.87592 47.97258,342.87592 49.77728Q342.87592 51.8338,341.7847 53.55456Q340.69348 55.275322,338.9098 56.30358Q337.12607 57.33184,334.9856 57.33184Z" fill="#000"/>
<line stroke="#000" stroke-width="2" x1="341.83945568970273" x2="341.83945568970273" y1="16" y2="50.5"/>
<line stroke="#000" stroke-width="2" x1="257.25741481781006" x2="370.12870740890503" y1="10" y2="10"/>
<line stroke="#000" stroke-width="2" x1="257.25741481781006" x2="370.12870740890503" y1="22" y2="22"/>
<line stroke="#000" stroke-width="2" x1="257.25741481781006" x2="370.12870740890503" y1="34" y2="34"/>
<line stroke="#000" stroke-width="2" x1="257.25741481781006" x2="370.12870740890503" y1="46" y2="46"/>
<line stroke="#000" stroke-width="2" x1="257.25741481781006" x2="370.12870740890503" y1="58" y2="58"/>
<line stroke="#000" stroke-width="2" x1="371.12870740890503" x2="371.12870740890503" y1="9" y2="59"/>
<path d="M399.1287 30.811974Q399.1287 29.259092,399.88416 28.629545Q400.63962 27.999998,401.68884 27.999998Q402.78006 27.999998,403.55652 28.629545Q404.33295 29.259092,404.33295 30.811974Q404.33295 32.322887,403.55652 32.994404Q402.78006 33.66592,401.68884 33.66592Q400.63962 33.66592,399.88416 32.994404Q399.1287 32.322887,399.1287 30.811974Z" fill="#000"/>
<path d="M386.7034 39.33184Q384.68887 39.33184,383.40878 38.38752Q382.1287 37.4432,382.1287 35.512592Q382.1287 33.37213,383.32483 31.672356Q384.52097 29.97258,386.4516 28.98629Q388.3822 28,390.56464 28Q392.4113 28,393.5025 28.98629Q394.59372 29.97258,394.59372 31.777279Q394.59372 33.8338,393.5025 35.55456Q392.4113 37.275322,390.6276 38.30358Q388.84387 39.33184,386.7034 39.33184ZM383.26187 36.519867Q383.26187 36.939564,383.57666 37.275322Q383.89142 37.61108,384.43704 37.61108Q385.90598 37.61108,388.0884 36.393955Q389.55734 35.55456,390.75348 34.526302Q391.94965 33.49804,392.66312 32.46978Q393.37662 31.44152,393.37662 30.728035Q393.37662 30.266369,393.14578 29.951595Q392.91495 29.636822,392.32736 29.636822Q391.52994 29.636822,390.39676 30.140457Q389.26355 30.644096,388.02545 31.44152Q386.78735 32.23895,385.69614 33.183266Q384.60492 34.127586,383.9334 35.008953Q383.26187 35.89032,383.26187 36.519867Z" fill="#000"/>
<line stroke="#000" stroke-width="2" x1="393.5572788374765" x2="393.5572788374765" y1="-2" y2="32.5"/>
<path d="M457.5747 45.33184Q455.56018 45.33184,454.2801 44.38752Q453 43.4432,453 41.512592Q453 39.37213,454.19614 37.672356Q455.39227 35.97258,457.3229 34.98629Q459.2535 34,461.43594 34Q463.2826 34,464.3738 34.98629Q465.46503 35.97258,465.46503 37.77728Q465.46503 39.8338,464.3738 41.55456Q463.2826 43.275322,461.4989 44.30358Q459.71518 45.33184,457.5747 45.33184Z" fill="#000"/>
<line stroke="#000" stroke-width="2" x1="464.42857142857144" x2="464.42857142857144" y1="4" y2="38.5"/>
<line stroke="#000" stroke-width="2" x1="372.12870740890503" x2="492.71782314777374" y1="10" y2="10"/>
<line stroke="#000" stroke-width="2" x1="372.12870740890503" x2="492.71782314777374" y1="22" y2="22"/>
<line stroke="#000" stroke-width="2" x1="372.12870740890503" x2="492.71782314777374" y1="34" y2="34"/>
<line stroke="#000" stroke-width="2" x1="372.12870740890503" x2="492.71782314777374" y1="46" y2="46"/>
<line stroke="#000" stroke-width="2" x1="372.12870740890503" x2="492.71782314777374" y1="58" y2="58"/>
<line stroke="#000" stroke-width="2" x1="493.71782314777374" x2="493.71782314777374" y1="9" y2="59"/>
<path d="M26.574705 151.33185Q24.560156 151.33185,23.280079 150.38753Q22 149.4432,22 147.51259Q22 145.37213,23.196138 143.67236Q24.392277 141.97258,26.322887 140.98628Q28.253498 140,30.435925 140Q32.282597 140,33.37381 140.98628Q34.465027 141.97258,34.465027 143.77728Q34.465027 145.8338,33.37381 147.55457Q32.282597 149.27531,30.49888 150.30359Q28.715164 151.33185,26.574705 151.33185ZM23.133183 148.51987Q23.133183 148.93956,23.447956 149.27531Q23.76273 149.61108,24.308338 149.61108Q25.777279 149.61108,27.95971 148.39395Q29.42865 147.55457,30.62479 146.5263Q31.820929 145.49805,32.534416 144.46979Q33.247902 143.44153,33.247902 142.72803Q33.247902 142.26637,33.017067 141.9516Q32.786232 141.63683,32.198658 141.63683Q31.40123 141.63683,30.268047 142.14046Q29.134863 142.64409,27.896753 143.44153Q26.658646 144.23895,25.56743 145.18327Q24.476217 146.1276,23.8047 147.00896Q23.133183 147.89032,23.133183 148.51987Z" fill="#000"/>
<line stroke="#000" stroke-width="2" x1="33.42857142857143" x2="33.42857142857143" y1="110" y2="144.5"/>
<path d="M237.0677 155.80527L237.0677 149.40347L234.96362 149.94069L234.96362 145.46391L237.0677 144.88193L237.0677 136.10744L238.4555 136.10744L238.4555 144.52379L241.45496 143.8075L241.45496 135.07779L242.84274 135.07779L242.84274 143.44936L245.03638 142.95691L245.03638 147.38892L242.84274 148.01567L242.84274 154.41747L245.03638 153.88025L245.03638 158.49133L242.84274 159.02853L242.84274 167.44489L241.45496 167.44489L241.45496 159.38669L238.4555 160.1925L238.4555 168.92221L237.0677 168.92221L237.0677 160.50587L234.96362 161.04309L234.96362 156.432L237.0677 155.80527ZM241.45496 154.73083L241.45496 148.28427L238.4555 149.04533L238.4555 155.44711L241.45496 154.73083Z" fill="#000"/>
<path d="M254.61108 157.33185Q252.59653 157.33185,251.31645 156.38753Q250.03638 155.4432,250.03638 153.51259Q250.03638 151.37213,251.23251 149.67236Q252.42865 147.97258,254.35925 146.98628Q256.28986 146,258.4723 146Q260.31897 146,261.4102 146.98628Q262.5014 147.97258,262.5014 149.77728Q262.5014 151.8338,261.4102 153.55457Q260.31897 155.27531,258.53525 156.30359Q256.75153 157.33185,254.61108 157.33185Z" fill="#000"/>
<line stroke="#000" stroke-width="2" x1="261.4649455206735" x2="261.4649455206735" y1="116" y2="150.5"/>
<path d="M366.0929 151.33185Q364.07837 151.33185,362.79828 150.38753Q361.5182 149.4432,361.5182 147.51259Q361.5182 145.37213,362.71432 143.67236Q363.91046 141.97258,365.8411 140.98628Q367.7717 140,369.95413 140Q371.80078 140,372.892 140.98628Q373.98322 141.97258,373.98322 143.77728Q373.98322 145.8338,372.892 147.55457Q371.80078 149.27531,370.0171 150.30359Q368.23337 151.33185,366.0929 151.33185Z" fill="#000"/>
<line stroke="#000" stroke-width="2" x1="372.94675847462247" x2="372.94675847462247" y1="110" y2="144.5"/>
<line stroke="#000" stroke-width="2" x1="12" x2="490" y1="110" y2="110"/>
<line stroke="#000" stroke-width="2" x1="12" x2="490" y1="122" y2="122"/>
<line stroke="#000" stroke-width="2" x1="12" x2="490" y1="134" y2="134"/>
<line stroke="#000" stroke-width="2" x1="12" x2="490" y1="146" y2="146"/>
<line stroke="#000" stroke-width="2" x1="12" x2="490" y1="158" y2="158"/>
<line stroke="#000" stroke-width="2" x1="12" x2="12" y1="109" y2="159"/>
<line stroke="#000" stroke-width="2" x1="491" x2="491" y1="109" y2="159"/>
</svg>
