<svg height="200" width="500" xmlns="http://www.w3.org/2000/svg">
<rect fill="#fff" height="200" width="500" x="0" y="0"/>
<path d="M30.864017 21.895914Q30.393955 20.116394,30.091774 18.370451Q29.789593 16.624508,29.789593 14.811413Q29.789593 13.233349,30.007835 11.839954Q30.226078 10.446556,30.628986 9.271404Q31.065474 7.9283714,31.770565 6.7364273Q32.47566 5.544487,33.26469 4.7722435Q34.053722 4,34.65809 4Q35.463905 4,36.874092 6.853943Q37.579185 8.297703,37.91494 9.976494Q38.2507 11.655289,38.2507 13.569107Q38.2507 15.9529915,37.61276 18.320087Q36.97482 20.687183,35.749302 22.768885Q34.52378 24.850586,32.811417 26.42865L33.986572 32.06939Q34.490208 32.002235,34.825966 31.96866Q35.161724 31.935085,35.329605 31.935085Q37.377728 31.935085,38.98937 33.093452Q40.601006 34.251816,41.55792 36.132065Q42.51483 38.01231,42.51483 40.26189Q42.51483 42.84723,41.188583 44.91214Q39.86234 46.977055,37.209846 47.950752Q37.377728 48.52154,38.183548 52.71852Q38.385002 53.725796,38.485733 54.313374Q38.586456 54.90095,38.620033 55.337437Q38.65361 55.773922,38.65361 56.34471Q38.65361 58.023502,37.831 59.349747Q37.008392 60.67599,35.614998 61.41466Q34.2216 62.153328,32.50923 62.153328Q30.76329 62.153328,29.420258 61.4986Q28.077225 60.843872,27.304981 59.685505Q26.532738 58.527138,26.532738 57.016228Q26.532738 55.404587,27.422497 54.330162Q28.312256 53.255733,29.95747 53.255733Q31.367657 53.255733,32.257416 54.279797Q33.147175 55.30386,33.147175 56.714043Q33.147175 57.922775,32.307777 58.829323Q31.468384 59.73587,30.12535 59.73587L29.789593 59.73587Q30.662563 61.045326,32.54281 61.045326Q34.859543 61.045326,36.169 59.534416Q37.478455 58.023502,37.478455 55.673195Q37.478455 55.102406,37.344154 54.145493Q37.209846 53.188583,36.874092 51.84555Q36.53833 50.502518,36.35367 49.629547Q36.169 48.756573,36.101845 48.38724Q34.96027 48.723,33.41578 48.723Q30.52826 48.723,27.775042 47.04421Q25.088976 45.365417,23.544489 42.612198Q22 39.85898,22 36.669277Q22 33.647453,23.37661 30.994963Q24.753218 28.342472,26.784555 26.126467Q28.815893 23.910463,30.864017 21.895914ZM31.770565 21.056519Q32.54281 20.653608,33.41578 19.562393Q34.288754 18.47118,35.094574 17.060995Q35.90039 15.65081,36.40403 14.223839Q36.90767 12.796864,36.90767 11.655289Q36.90767 10.446556,36.53833 9.7414665Q36.169 9.036373,35.26245 9.036373Q34.45663 9.036373,33.701176 9.77504Q32.94572 10.51371,32.358143 11.739227Q31.770565 12.964745,31.434807 14.475655Q31.099049 15.986568,31.099049 17.564632Q31.099049 18.63906,31.317291 19.51203Q31.535534 20.385002,31.770565 21.056519ZM33.684387 36.06491Q32.77784 36.266365,31.97202 36.921097Q31.1662 37.575825,30.679352 38.49916Q30.192501 39.422493,30.192501 40.463345Q30.192501 41.302742,30.628986 42.1925Q31.065474 43.08226,31.703415 43.619473Q32.1399 44.02238,32.576385 44.22384Q33.080025 44.45887,33.080025 44.660324Q33.080025 44.76105,32.744263 44.86178Q31.468384 44.559597,30.44432 43.7202Q29.420258 42.880806,28.83268 41.68886Q28.245104 40.49692,28.245104 39.15389Q28.245104 37.71013,28.83268 36.367096Q29.420258 35.024063,30.477896 33.949635Q31.535534 32.87521,32.878567 32.337997L31.90487 27.268045Q28.010073 30.424173,26.180191 33.462784Q24.350307 36.501396,24.350307 39.489647Q24.350307 41.672073,25.491886 43.552322Q26.633465 45.432568,28.614437 46.590935Q30.595411 47.7493,33.080025 47.7493Q33.75154 47.7493,34.439842 47.614994Q35.128147 47.480694,35.90039 47.279236L33.684387 36.06491ZM36.941242 46.943478Q40.231674 45.533295,40.231674 41.168438Q40.231674 39.724678,39.493004 38.532734Q38.754337 37.340794,37.51203 36.6357Q36.269726 35.93061,34.72524 35.93061L36.941242 46.943478Z" fill="#000"/>
<path d="M62.51483 39.246223Q62.51483 37.69334,63.648018 36.51819Q64.781204 35.343033,66.732796 34.671516Q68.68439 34,71.0347 34Q73.42698 34,75.44153 34.65053Q77.45608 35.301064,78.6732 36.47622Q79.89032 37.65137,79.89032 39.246223Q79.89032 40.883045,78.71517 42.07918Q77.540016 43.275322,75.588425 43.925854Q73.636826 44.576385,71.286514 44.576385Q68.93621 44.576385,66.94264 43.94684Q64.94908 43.31729,63.731956 42.121155Q62.51483 40.925014,62.51483 39.246223ZM72.167885 43.736988Q73.59486 43.736988,74.11948 42.687744Q74.644104 41.6385,74.644104 40.21153Q74.644104 38.742584,74.03554 37.525463Q73.42698 36.30834,72.4197 35.573868Q71.41243 34.839394,70.153336 34.839394Q68.726364 34.839394,68.243706 35.88864Q67.761055 36.937885,67.761055 38.364857Q67.761055 39.791832,68.34863 41.008953Q68.93621 42.226078,69.9225 42.981533Q70.90879 43.736988,72.167885 43.736988Z" fill="#000"/>
<line stroke="#000" stroke-width="2" x1="12" x2="127.88612222671509" y1="10" y2="10"/>
<line stroke="#000" stroke-width="2" x1="12" x2="127.88612222671509" y1="22" y2="22"/>
<line stroke="#000" stroke-width="2" x1="12" x2="127.88612222671509" y1="34" y2="34"/>
<line stroke="#000" stroke-width="2" x1="12" x2="127.88612222671509" y1="46" y2="46"/>
<line stroke="#000" stroke-width="2" x1="12" x2="127.88612222671509" y1="58" y2="58"/>
<line stroke="#000" stroke-width="2" x1="12" x2="12" y1="9" y2="59"/>
<line stroke="#000" stroke-width="2" x1="128.8861222267151" x2="128.8861222267151" y1="9" y2="59"/>
<path d="M156.88612 60.811974Q156.88612 59.25909,157.64159 58.629547Q158.39703 58,159.44629 58Q160.5375 58,161.31393 58.629547Q162.09038 59.25909,162.09038 60.811974Q162.09038 62.322887,161.31393 62.994404Q160.5375 63.66592,159.44629 63.66592Q158.39703 63.66592,157.64159 62.994404Q156.88612 62.322887,156.88612 60.811974Z" fill="#000"/>
<path d="M144.46083 69.33184Q142.44627 69.33184,141.1662 68.38752Q139.88612 67.4432,139.88612 65.51259Q139.88612 63.37213,141.08226 61.672356Q142.2784 59.97258,144.209 58.98629Q146.13962 58,148.32204 58Q150.16872 58,151.25993 58.98629Q152.35114 59.97258,152.35114 61.77728Q152.35114 63.8338,151.25993 65.55456Q150.16872 67.27532,148.385 68.30358Q146.60129 69.33184,144.46083 69.33184ZM141.0193 66.51987Q141.0193 66.93956,141.33408 67.27532Q141.64885 67.61108,142.19446 67.61108Q143.66339 67.61108,145.84583 66.39396Q147.31477 65.55456,148.51091 64.5263Q149.70705 63.49804,150.42053 62.46978Q151.13402 61.44152,151.13402 60.728035Q151.13402 60.26637,150.90318 59.951595Q150.67235 59.63682,150.08478 59.63682Q149.28735 59.63682,148.15416 60.140457Q147.02098 60.644096,145.78287 61.44152Q144.54477 62.23895,143.45355 63.183266Q142.36234 64.12759,141.69081 65.00896Q141.0193 65.89032,141.0193 66.51987Z" fill="#000"/>
<line stroke="#000" stroke-width="2" x1="151.3146936552865" x2="151.3146936552865" y1="28" y2="62.5"/>
<path d="M217.83212 63.33184Q215.81757 63.33184,214.53749 62.38752Q213.25742 61.4432,213.25742 59.512592Q213.25742 57.37213,214.45355 55.672356Q215.64969 53.97258,217.58029 52.98629Q219.51091 52,221.69333 52Q223.54001 52,224.63123 52.98629Q225.72244 53.97258,225.72244 55.77728Q225.72244 57.8338,224.63123 59.55456Q223.54001 61.275322,221.75629 62.30358Q219.97258 63.33184,217.83212 63.33184Z" fill="#000"/>
<line stroke="#000" stroke-width="2" x1="224.68598624638147" x2="224.68598624638147" y1="22" y2="56.5"/>
<line stroke="#000" stroke-width="2" x1="129.8861222267151" x2="253.6002379655838" y1="10" y2="10"/>
<line stroke="#000" stroke-width="2" x1="129.8861222267151" x2="253.6002379655838" y1="22" y2="22"/>
<line stroke="#000" stroke-width="2" x1="129.8861222267151" x2="253.6002379655838" y1="34" y2="34"/>
<line stroke="#000" stroke-width="2" x1="129.8861222267151" x2="253.6002379655838" y1="46" y2="46"/>
<line stroke="#000" stroke-width="2" x1="129.8861222267151" x2="253.6002379655838" y1="58" y2="58"/>
<line stroke="#000" stroke-width="2" x1="254.6002379655838" x2="254.6002379655838" y1="9" y2="59"/>
<path d="M266.83212 57.33184Q264.8176 57.33184,263.5375 56.38752Q262.25742 55.4432,262.25742 53.512592Q262.25742 51.37213,263.45355 49.672356Q264.6497 47.97258,266.58032 46.98629Q268.51093 46,270.69336 46Q272.54 46,273.63123 46.98629Q274.72244 47.97258,274.72244 49.77728Q274.72244 51.8338,273.63123 53.55456Q272.54 55.275322,270.75632 56.30358Q268.9726 57.33184,266.83212 57.33184ZM263.3906 54.519867Q263.3906 54.939564,263.70538 55.275322Q264.02014 55.61108,264.56577 55.61108Q266.0347 55.61108,268.21713 54.393955Q269.68607 53.55456,270.8822 52.526302Q272.07837 51.49804,272.79184 50.46978Q273.50534 49.44152,273.50534 48.728035Q273.50534 48.26637,273.2745 47.951595Q273.04367 47.63682,272.4561 47.63682Q271.65866 47.63682,270.52548 48.140457Q269.39227 48.644096,268.15417 49.44152Q266.91608 50.23895,265.82486 51.183266Q264.73364 52.127586,264.06213 53.008953Q263.3906 53.89032,263.3906 54.519867Z" fill="#000"/>
<line stroke="#000" stroke-width="2" x1="273.6859862463815" x2="273.6859862463815" y1="16" y2="50.5"/>
<path d="M303.51776 63.33184Q301.50323 63.33184,300.22314 62.38752Q298.94305 61.4432,298.94305 59.512592Q298.94305 57.37213,300.1392 55.672356Q301.33533 53.97258,303.26596 52.98629Q305.19656 52,307.379 52Q309.22565 52,310.31686 52.98629Q311.40808 53.97258,311.40808 55.77728Q311.40808 57.8338,310.31686 59.55456Q309.22565 61.275322,307.44196 62.30358Q305.65823 63.33184,303.51776 63.33184Z" fill="#000"/>
<line stroke="#000" stroke-width="2" x1="310.371632541929" x2="310.371632541929" y1="22" y2="56.5"/>
<path d="M331.8606 57.33184Q329.84607 57.33184,328.56598 56.38752Q327.2859 55.4432,327.2859 53.512592Q327.2859 51.37213,328.48203 49.672356Q329.67816 47.97258,331.6088 46.98629Q333.5394 46,335.72183 46Q337.56848 46,338.6597 46.98629Q339.75092 47.97258,339.75092 49.77728Q339.75092 51.8338,338.6597 53.55456Q337.56848 55.275322,335.7848 56.30358Q334.00107 57.33184,331.8606 57.33184Z" fill="#000"/>
<line stroke="#000" stroke-width="2" x1="338.71445568970273" x2="338.71445568970273" y1="16" y2="50.5"/>
<line stroke="#000" stroke-width="2" x1="252.25741481781006" x2="367.62870740890503" y1="10" y2="10"/>
<line stroke="#000" stroke-width="2" x1="252.25741481781006" x2="367.62870740890503" y1="22" y2="22"/>
<line stroke="#000" stroke-width="2" x1="252.25741481781006" x2="367.62870740890503" y1="34" y2="34"/>
<line stroke="#000" stroke-width="2" x1="252.25741481781006" x2="367.62870740890503" y1="46" y2="46"/>
<line stroke="#000" stroke-width="2" x1="252.25741481781006" x2="367.62870740890503" y1="58" y2="58"/>
<line stroke="#000" stroke-width="2" x1="368.62870740890503" x2="368.62870740890503" y1="9" y2="59"/>
<path d="M396.6287 30.811974Q396.6287 29.259092,397.38416 28.629545Q398.13962 27.999998,399.18884 27.999998Q400.28006 27.999998,401.05652 28.629545Q401.83295 29.259092,401.83295 30.811974Q401.83295 32.322887,401.05652 32.994404Q400.28006 33.66592,399.18884 33.66592Q398.13962 33.66592,397.38416 32.994404Q396.6287 32.322887,396.6287 30.811974Z" fill="#000"/>
<path d="M384.2034 39.33184Q382.18887 39.33184,380.90878 38.38752Q379.6287 37.4432,379.6287 35.512592Q379.6287 33.37213,380.82483 31.672356Q382.02097 29.97258,383.9516 28.98629Q385.8822 28,388.06464 28Q389.9113 28,391.0025 28.98629Q392.09372 29.97258,392.09372 31.777279Q392.09372 33.8338,391.0025 35.55456Q389.9113 37.275322,388.1276 38.30358Q386.34387 39.33184,384.2034 39.33184ZM380.76187 36.519867Q380.76187 36.939564,381.07666 37.275322Q381.39142 37.61108,381.93704 37.61108Q383.40598 37.61108,385.5884 36.393955Q387.05734 35.55456,388.25348 34.526302Q389.44965 33.49804,390.16312 32.46978Q390.87662 31.44152,390.87662 30.728035Q390.87662 30.266369,390.64578 29.951595Q390.41495 29.636822,389.82736 29.636822Q389.02994 29.636822,387.89676 30.140457Q386.76355 30.644096,385.52545 31.44152Q384.28735 32.23895,383.19614 33.183266Q382.10492 34.127586,381.4334 35.008953Q380.76187 35.89032,380.76187 36.519867Z" fill="#000"/>
<line stroke="#000" stroke-width="2" x1="391.0572788374765" x2="391.0572788374765" y1="-2" y2="32.5"/>
<path d="M457.5747 45.33184Q455.56018 45.33184,454.2801 44.38752Q453 43.4432,453 41.512592Q453 39.37213,454.19614 37.672356Q455.39227 35.97258,457.3229 34.98629Q459.2535 34,461.43594 34Q463.2826 34,464.3738 34.98629Q465.46503 35.97258,465.46503 37.77728Q465.46503 39.8338,464.3738 41.55456Q463.2826 43.275322,461.4989 44.30358Q459.71518 45.33184,457.5747 45.33184Z" fill="#000"/>
<line stroke="#000" stroke-width="2" x1="464.42857142857144" x2="464.42857142857144" y1="4" y2="38.5"/>
<line stroke="#000" stroke-width="2" x1="369.62870740890503" x2="493.34282314777374" y1="10" y2="10"/>
<line stroke="#000" stroke-width="2" x1="369.62870740890503" x2="493.34282314777374" y1="22" y2="22"/>
<line stroke="#000" stroke-width="2" x1="369.62870740890503" x2="493.34282314777374" y1="34" y2="34"/>
<line stroke="#000" stroke-width="2" x1="369.62870740890503" x2="493.34282314777374" y1="46" y2="46"/>
<line stroke="#000" stroke-width="2" x1="369.62870740890503" x2="493.34282314777374" y1="58" y2="58"/>
<line stroke="#000" stroke-width="2" x1="494.34282314777374" x2="494.34282314777374" y1="9" y2="59"/>
<path d="M26.574705 151.33185Q24.560156 151.33185,23.280079 150.38753Q22 149.4432,22 147.51259Q22 145.37213,23.196138 143.67236Q24.392277 141.97258,26.322887 140.98628Q28.253498 140,30.435925 140Q32.282597 140,33.37381 140.98628Q34.465027 141.97258,34.465027 143.77728Q34.465027 145.8338,33.37381 147.55457Q32.282597 149.27531,30.49888 150.30359Q28.715164 151.33185,26.574705 151.33185ZM23.133183 148.51987Q23.133183 148.93956,23.447956 149.27531Q23.76273 149.61108,24.308338 149.61108Q25.777279 149.61108,27.95971 148.39395Q29.42865 147.55457,30.62479 146.5263Q31.820929 145.49805,32.534416 144.46979Q33.247902 143.44153,33.247902 142.72803Q33.247902 142.26637,33.017067 141.9516Q32.786232 141.63683,32.198658 141.63683Q31.40123 141.63683,30.268047 142.14046Q29.134863 142.64409,27.896753 143.44153Q26.658646 144.23895,25.56743 145.18327Q24.476217 146.1276,23.8047 147.00896Q23.133183 147.89032,23.133183 148.51987Z" fill="#000"/>
<line stroke="#000" stroke-width="2" x1="33.42857142857143" x2="33.42857142857143" y1="110" y2="144.5"/>
<path d="M239.53833 157.33185Q237.52377 157.33185,236.2437 156.38753Q234.96362 155.4432,234.96362 153.51259Q234.96362 151.37213,236.15976 149.67236Q237.3559 147.97258,239.2865 146.98628Q241.21712 146,243.39954 146Q245.24622 146,246.33743 146.98628Q247.42865 147.97258,247.42865 149.77728Q247.42865 151.8338,246.33743 153.55457Q245.24622 155.27531,243.4625 156.30359Q241.67879 157.33185,239.53833 157.33185Z" fill="#000"/>
<line stroke="#000" stroke-width="2" x1="246.39219733646937" x2="246.39219733646937" y1="116" y2="150.5"/>
<path d="M366.0929 151.33185Q364.07837 151.33185,362.79828 150.38753Q361.5182 149.4432,361.5182 147.51259Q361.5182 145.37213,362.71432 143.67236Q363.91046 141.97258,365.8411 140.98628Q367.7717 140,369.95413 140Q371.80078 140,372.892 140.98628Q373.98322 141.97258,373.98322 143.77728Q373.98322 145.8338,372.892 147.55457Q371.80078 149.27531,370.0171 150.30359Q368.23337 151.33185,366.0929 151.33185Z" fill="#000"/>
<line stroke="#000" stroke-width="2" x1="372.94675847462247" x2="372.94675847462247" y1="110" y2="144.5"/>
<line stroke="#000" stroke-width="2" x1="12" x2="490" y1="110" y2="110"/>
<line stroke="#000" stroke-width="2" x1="12" x2="490" y1="122" y2="122"/>
<line stroke="#000" stroke-width="2" x1="12" x2="490" y1="134" y2="134"/>
<line stroke="#000" stroke-width="2" x1="12" x2="490" y1="146" y2="146"/>
<line stroke="#000" stroke-width="2" x1="12" x2="490" y1="158" y2="158"/>
<line stroke="#000" stroke-width="2" x1="12" x2="12" y1="109" y2="159"/>
<line stroke="#000" stroke-width="2" x1="491" x2="491" y1="109" y2="159"/>
</svg>
