<svg height="500" width="350" xmlns="http://www.w3.org/2000/svg">
<rect fill="#fff" height="500" width="350" x="0" y="0"/>
<path d="M38.574707 33.33184Q36.560158 33.33184,35.28008 32.38752Q34 31.443201,34 29.51259Q34 27.372131,35.196136 25.672356Q36.392277 23.97258,38.322887 22.98629Q40.253498 22,42.435925 22Q44.282597 22,45.37381 22.98629Q46.465027 23.97258,46.465027 25.777279Q46.465027 27.8338,45.37381 29.55456Q44.282597 31.275322,42.49888 32.30358Q40.715164 33.33184,38.574707 33.33184Z" fill="#000"/>
<path d="M38.574707 51.33184Q36.560158 51.33184,35.28008 50.38752Q34 49.4432,34 47.512592Q34 45.37213,35.196136 43.672356Q36.392277 41.97258,38.322887 40.98629Q40.253498 40,42.435925 40Q44.282597 40,45.37381 40.98629Q46.465027 41.97258,46.465027 43.77728Q46.465027 45.8338,45.37381 47.55456Q44.282597 49.275322,42.49888 50.30358Q40.715164 51.33184,38.574707 51.33184Z" fill="#000"/>
<line stroke="#000" stroke-width="2" x1="34.85714285714286" x2="34.85714285714286" y1="29.5" y2="82"/>
<path d="M43.08507 61.80526L43.08507 55.40347L40.980988 55.94068L40.980988 51.463905L43.08507 50.881927L43.08507 42.107445L44.472874 42.107445L44.472874 50.523785L47.472313 49.8075L47.472313 41.077785L48.860115 41.077785L48.860115 49.449356L51.053734 48.956913L51.053734 53.38892L48.860115 54.01567L48.860115 60.41746L51.053734 59.880245L51.053734 64.491325L48.860115 65.02854L48.860115 73.44488L47.472313 73.44488L47.472313 65.38668L44.472874 66.192505L44.472874 74.92222L43.08507 74.92222L43.08507 66.505875L40.980988 67.04309L40.980988 62.43201L43.08507 61.80526ZM47.472313 60.730835L47.472313 54.284275L44.472874 55.045326L44.472874 61.44712L47.472313 60.730835Z" fill="#000"/>
<path d="M71.62844 63.33184Q69.61389 63.33184,68.33382 62.38752Q67.053734 61.4432,67.053734 59.512592Q67.053734 57.37213,68.24987 55.672356Q69.446014 53.97258,71.376625 52.98629Q73.307236 52,75.48966 52Q77.336334 52,78.42754 52.98629Q79.51876 53.97258,79.51876 55.77728Q79.51876 57.8338,78.42754 59.55456Q77.336334 61.275322,75.55261 62.30358Q73.7689 63.33184,71.62844 63.33184ZM68.18692 60.519867Q68.18692 60.939564,68.50169 61.275322Q68.81647 61.61108,69.362076 61.61108Q70.83102 61.61108,73.01344 60.393955Q74.48238 59.55456,75.67853 58.526302Q76.874664 57.49804,77.58815 56.46978Q78.301636 55.44152,78.301636 54.728035Q78.301636 54.26637,78.0708 53.951595Q77.839966 53.63682,77.252396 53.63682Q76.45496 53.63682,75.321785 54.140457Q74.1886 54.644096,72.95049 55.44152Q71.71238 56.23895,70.62117 57.183266Q69.52995 58.127586,68.85844 59.008953Q68.18692 59.89032,68.18692 60.519867Z" fill="#000"/>
<path d="M60.62844 57.33184Q58.61389 57.33184,57.333813 56.38752Q56.053734 55.4432,56.053734 53.512592Q56.053734 51.37213,57.249874 49.672356Q58.446014 47.97258,60.37662 46.98629Q62.30723 46,64.48966 46Q66.336334 46,67.42754 46.98629Q68.51876 47.97258,68.51876 49.77728Q68.51876 51.8338,67.42754 53.55456Q66.336334 55.275322,64.55261 56.30358Q62.7689 57.33184,60.62844 57.33184ZM57.18692 54.519867Q57.18692 54.939564,57.501694 55.275322Q57.816467 55.61108,58.362072 55.61108Q59.831017 55.61108,62.013443 54.393955Q63.482388 53.55456,64.67853 52.526302Q65.874664 51.49804,66.58815 50.46978Q67.301636 49.44152,67.301636 48.728035Q67.301636 48.26637,67.0708 47.951595Q66.839966 47.63682,66.252396 47.63682Q65.45496 47.63682,64.321785 48.140457Q63.1886 48.644096,61.95049 49.44152Q60.71238 50.23895,59.621166 51.183266Q58.529953 52.127586,57.858437 53.008953Q57.18692 53.89032,57.18692 54.519867Z" fill="#000"/>
<path d="M71.62844 51.33184Q69.61389 51.33184,68.33382 50.38752Q67.053734 49.4432,67.053734 47.512592Q67.053734 45.37213,68.24987 43.672356Q69.446014 41.97258,71.376625 40.98629Q73.307236 40,75.48966 40Q77.336334 40,78.42754 40.98629Q79.51876 41.97258,79.51876 43.77728Q79.51876 45.8338,78.42754 47.55456Q77.336334 49.275322,75.55261 50.30358Q73.7689 51.33184,71.62844 51.33184ZM68.18692 48.519867Q68.18692 48.939564,68.50169 49.275322Q68.81647 49.61108,69.362076 49.61108Q70.83102 49.61108,73.01344 48.393955Q74.48238 47.55456,75.67853 46.526302Q76.874664 45.49804,77.58815 44.46978Q78.301636 43.44152,78.301636 42.728035Q78.301636 42.26637,78.0708 41.951595Q77.839966 41.63682,77.252396 41.63682Q76.45496 41.63682,75.321785 42.140457Q74.1886 42.644096,72.95049 43.44152Q71.71238 44.23895,70.62117 45.183266Q69.52995 46.127586,68.85844 47.008953Q68.18692 47.89032,68.18692 48.519867Z" fill="#000"/>
<line stroke="#000" stroke-width="2" x1="67.48230642917679" x2="67.48230642917679" y1="10" y2="56.5"/>
<path d="M98.590416 51.33184Q96.57587 51.33184,95.29579 50.38752Q94.01571 49.4432,94.01571 47.512592Q94.01571 45.37213,95.211845 43.672356Q96.40799 41.97258,98.3386 40.98629Q100.26921 40,102.45164 40Q104.29831 40,105.38952 40.98629Q106.480736 41.97258,106.480736 43.77728Q106.480736 45.8338,105.38952 47.55456Q104.29831 49.275322,102.51459 50.30358Q100.73087 51.33184,98.590416 51.33184Z" fill="#000"/>
<line stroke="#000" stroke-width="2" x1="105.44428006197931" x2="105.44428006197931" y1="10" y2="44.5"/>
<line stroke="#000" stroke-width="2" x1="13" x2="124.99669544980914" y1="10" y2="10"/>
<line stroke="#000" stroke-width="2" x1="13" x2="124.99669544980914" y1="22" y2="22"/>
<line stroke="#000" stroke-width="2" x1="13" x2="124.99669544980914" y1="34" y2="34"/>
<line stroke="#000" stroke-width="2" x1="13" x2="124.99669544980914" y1="46" y2="46"/>
<line stroke="#000" stroke-width="2" x1="13" x2="124.99669544980914" y1="58" y2="58"/>
<line stroke="#000" stroke-width="2" x1="13" x2="13" y1="9" y2="59"/>
<line stroke="#000" stroke-width="2" x1="125.99669544980914" x2="125.99669544980914" y1="9" y2="59"/>
<path d="M151.5714 15.331842Q149.55684 15.331842,148.27676 14.387522Q146.99669 13.443202,146.99669 11.512591Q146.99669 9.372133,148.19283 7.6723566Q149.38896 5.97258,151.31956 4.98629Q153.25018 4,155.4326 4Q157.27928 4,158.3705 4.98629Q159.4617 5.97258,159.4617 7.777281Q159.4617 9.8338,158.3705 11.554562Q157.27928 13.275322,155.49556 14.303582Q153.71185 15.331842,151.5714 15.331842ZM148.12987 12.519867Q148.12987 12.939564,148.44464 13.275322Q148.75941 13.611081,149.30502 13.611081Q150.77396 13.611081,152.95639 12.393957Q154.42534 11.554562,155.62148 10.526302Q156.81761 9.498042,157.5311 8.469782Q158.24458 7.4415226,158.24458 6.728036Q158.24458 6.266369,158.01375 5.9515953Q157.78291 5.6368217,157.19534 5.6368217Q156.39792 5.6368217,155.26472 6.140459Q154.13155 6.6440964,152.89343 7.4415226Q151.65533 8.238949,150.56412 9.183269Q149.4729 10.127588,148.80138 11.008954Q148.12987 11.89032,148.12987 12.519867Z" fill="#000"/>
<line stroke="#000" stroke-width="2" x1="147.85383830695196" x2="147.85383830695196" y1="11.5" y2="46"/>
<path d="M166.99272 28.000004L173.70789 36.184113Q171.6094 38.660328,170.47621 40.465027Q169.34303 42.26973,169.34303 44.1164Q169.34303 45.66928,170.35031 47.369057Q171.35757 49.068832,173.54001 51.67096L172.8685 52.594296Q171.02182 51.419144,169.42697 51.419144Q168.25182 51.419144,167.66425 52.195583Q167.07666 52.972023,167.07666 54.063236Q167.07666 55.406273,167.64325 56.60241Q168.20985 57.79855,169.17516 58.889763L168.62955 59.687187Q165.73363 57.5887,164.34863 55.86794Q162.96362 54.14718,162.96362 52.13263Q162.96362 50.327927,164.0968 49.488533Q165.23 48.649136,166.82484 48.649136Q168.08394 48.649136,170.09848 49.61444L170.09848 49.530502L163.63515 40.926697Q167.87408 37.191383,167.87408 33.95971Q167.87408 31.399555,165.18802 28.000004L166.99272 28.000004Z" fill="#000"/>
<path d="M174.05118 61.80526L174.05118 55.40347L171.9471 55.94068L171.9471 51.463905L174.05118 50.881927L174.05118 42.107445L175.43898 42.107445L175.43898 50.523785L178.43843 49.8075L178.43843 41.077785L179.82623 41.077785L179.82623 49.449356L182.01985 48.956913L182.01985 53.38892L179.82623 54.01567L179.82623 60.41746L182.01985 59.880245L182.01985 64.491325L179.82623 65.02854L179.82623 73.44488L178.43843 73.44488L178.43843 65.38668L175.43898 66.192505L175.43898 74.92222L174.05118 74.92222L174.05118 66.505875L171.9471 67.04309L171.9471 62.43201L174.05118 61.80526ZM178.43843 60.730835L178.43843 54.284275L175.43898 55.045326L175.43898 61.44712L178.43843 60.730835Z" fill="#000"/>
<path d="M196.59454 75.33184Q194.57999 75.33184,193.29991 74.38752Q192.01984 73.4432,192.01984 71.51259Q192.01984 69.37213,193.21597 67.672356Q194.41211 65.97258,196.34271 64.98629Q198.27333 64,200.45575 64Q202.30243 64,203.39365 64.98629Q204.48486 65.97258,204.48486 67.77728Q204.48486 69.8338,203.39365 71.55456Q202.30243 73.27532,200.5187 74.30358Q198.735 75.33184,196.59454 75.33184Z" fill="#000"/>
<path d="M196.59454 63.33184Q194.57999 63.33184,193.29991 62.38752Q192.01984 61.4432,192.01984 59.512592Q192.01984 57.37213,193.21597 55.672356Q194.41211 53.97258,196.34271 52.98629Q198.27333 52,200.45575 52Q202.30243 52,203.39365 52.98629Q204.48486 53.97258,204.48486 55.77728Q204.48486 57.8338,203.39365 59.55456Q202.30243 61.275322,200.5187 62.30358Q198.735 63.33184,196.59454 63.33184Z" fill="#000"/>
<line stroke="#000" stroke-width="2" x1="187.01983932114643" x2="209.01983932114643" y1="58" y2="58"/>
<line stroke="#000" stroke-width="2" x1="187.01983932114643" x2="209.01983932114643" y1="70" y2="70"/>
<line stroke="#000" stroke-width="2" x1="203.44841074971785" x2="203.44841074971785" y1="22" y2="68.5"/>
<line stroke="#000" stroke-width="2" x1="125.99669544980914" x2="223.00330455019085" y1="10" y2="10"/>
<line stroke="#000" stroke-width="2" x1="125.99669544980914" x2="223.00330455019085" y1="22" y2="22"/>
<line stroke="#000" stroke-width="2" x1="125.99669544980914" x2="223.00330455019085" y1="34" y2="34"/>
<line stroke="#000" stroke-width="2" x1="125.99669544980914" x2="223.00330455019085" y1="46" y2="46"/>
<line stroke="#000" stroke-width="2" x1="125.99669544980914" x2="223.00330455019085" y1="58" y2="58"/>
<line stroke="#000" stroke-width="2" x1="125.99669544980914" x2="125.99669544980914" y1="9" y2="59"/>
<line stroke="#000" stroke-width="2" x1="224.00330455019085" x2="224.00330455019085" y1="9" y2="59"/>
<path d="M249.57802 33.33184Q247.56346 33.33184,246.28339 32.38752Q245.00331 31.443201,245.00331 29.51259Q245.00331 27.372131,246.19945 25.672356Q247.39558 23.97258,249.32619 22.98629Q251.2568 22,253.43922 22Q255.2859 22,256.3771 22.98629Q257.46832 23.97258,257.46832 25.777279Q257.46832 27.8338,256.3771 29.55456Q255.2859 31.275322,253.50218 32.30358Q251.71848 33.33184,249.57802 33.33184Z" fill="#000"/>
<path d="M249.57802 51.33184Q247.56346 51.33184,246.28339 50.38752Q245.00331 49.4432,245.00331 47.512592Q245.00331 45.37213,246.19945 43.672356Q247.39558 41.97258,249.32619 40.98629Q251.2568 40,253.43922 40Q255.2859 40,256.3771 40.98629Q257.46832 41.97258,257.46832 43.77728Q257.46832 45.8338,256.3771 47.55456Q255.2859 49.275322,253.50218 50.30358Q251.71848 51.33184,249.57802 51.33184Z" fill="#000"/>
<line stroke="#000" stroke-width="2" x1="245.8604474073337" x2="245.8604474073337" y1="29.5" y2="82"/>
<path d="M254.08838 61.80526L254.08838 55.40347L251.9843 55.94068L251.9843 51.463905L254.08838 50.881927L254.08838 42.107445L255.47618 42.107445L255.47618 50.523785L258.47562 49.8075L258.47562 41.077785L259.86343 41.077785L259.86343 49.449356L262.05704 48.956913L262.05704 53.38892L259.86343 54.01567L259.86343 60.41746L262.05704 59.880245L262.05704 64.491325L259.86343 65.02854L259.86343 73.44488L258.47562 73.44488L258.47562 65.38668L255.47618 66.192505L255.47618 74.92222L254.08838 74.92222L254.08838 66.505875L251.9843 67.04309L251.9843 62.43201L254.08838 61.80526ZM258.47562 60.730835L258.47562 54.284275L255.47618 55.045326L255.47618 61.44712L258.47562 60.730835Z" fill="#000"/>
<path d="M282.63174 63.33184Q280.61722 63.33184,279.33713 62.38752Q278.05704 61.4432,278.05704 59.512592Q278.05704 57.37213,279.25317 55.672356Q280.4493 53.97258,282.37994 52.98629Q284.31055 52,286.49298 52Q288.33963 52,289.43085 52.98629Q290.52206 53.97258,290.52206 55.77728Q290.52206 57.8338,289.43085 59.55456Q288.33963 61.275322,286.55594 62.30358Q284.77222 63.33184,282.63174 63.33184ZM279.19022 60.519867Q279.19022 60.939564,279.505 61.275322Q279.81976 61.61108,280.3654 61.61108Q281.83432 61.61108,284.01675 60.393955Q285.4857 59.55456,286.68182 58.526302Q287.878 57.49804,288.59146 56.46978Q289.30496 55.44152,289.30496 54.728035Q289.30496 54.26637,289.07413 53.951595Q288.8433 53.63682,288.2557 53.63682Q287.45828 53.63682,286.3251 54.140457Q285.1919 54.644096,283.9538 55.44152Q282.7157 56.23895,281.62448 57.183266Q280.53326 58.127586,279.86176 59.008953Q279.19022 59.89032,279.19022 60.519867Z" fill="#000"/>
<path d="M271.63174 57.33184Q269.61722 57.33184,268.33713 56.38752Q267.05704 55.4432,267.05704 53.512592Q267.05704 51.37213,268.25317 49.672356Q269.4493 47.97258,271.37994 46.98629Q273.31055 46,275.49298 46Q277.33963 46,278.43085 46.98629Q279.52206 47.97258,279.52206 49.77728Q279.52206 51.8338,278.43085 53.55456Q277.33963 55.275322,275.55594 56.30358Q273.77222 57.33184,271.63174 57.33184ZM268.19022 54.519867Q268.19022 54.939564,268.505 55.275322Q268.81976 55.61108,269.3654 55.61108Q270.83432 55.61108,273.01675 54.393955Q274.4857 53.55456,275.68182 52.526302Q276.878 51.49804,277.59146 50.46978Q278.30496 49.44152,278.30496 48.728035Q278.30496 48.26637,278.07413 47.951595Q277.8433 47.63682,277.2557 47.63682Q276.45828 47.63682,275.3251 48.140457Q274.1919 48.644096,272.9538 49.44152Q271.7157 50.23895,270.62448 51.183266Q269.53326 52.127586,268.86176 53.008953Q268.19022 53.89032,268.19022 54.519867Z" fill="#000"/>
<path d="M282.63174 51.33184Q280.61722 51.33184,279.33713 50.38752Q278.05704 49.4432,278.05704 47.512592Q278.05704 45.37213,279.25317 43.672356Q280.4493 41.97258,282.37994 40.98629Q284.31055 40,286.49298 40Q288.33963 40,289.43085 40.98629Q290.52206 41.97258,290.52206 43.77728Q290.52206 45.8338,289.43085 47.55456Q288.33963 49.275322,286.55594 50.30358Q284.77222 51.33184,282.63174 51.33184ZM279.19022 48.519867Q279.19022 48.939564,279.505 49.275322Q279.81976 49.61108,280.3654 49.61108Q281.83432 49.61108,284.01675 48.393955Q285.4857 47.55456,286.68182 46.526302Q287.878 45.49804,288.59146 44.46978Q289.30496 43.44152,289.30496 42.728035Q289.30496 42.26637,289.07413 41.951595Q288.8433 41.63682,288.2557 41.63682Q287.45828 41.63682,286.3251 42.140457Q285.1919 42.644096,283.9538 43.44152Q282.7157 44.23895,281.62448 45.183266Q280.53326 46.127586,279.86176 47.008953Q279.19022 47.89032,279.19022 48.519867Z" fill="#000"/>
<line stroke="#000" stroke-width="2" x1="278.4856109793677" x2="278.4856109793677" y1="10" y2="56.5"/>
<path d="M309.59372 51.33184Q307.5792 51.33184,306.2991 50.38752Q305.019 49.4432,305.019 47.512592Q305.019 45.37213,306.21515 43.672356Q307.4113 41.97258,309.34192 40.98629Q311.27252 40,313.45496 40Q315.3016 40,316.39282 40.98629Q317.48404 41.97258,317.48404 43.77728Q317.48404 45.8338,316.39282 47.55456Q315.3016 49.275322,313.5179 50.30358Q311.7342 51.33184,309.59372 51.33184Z" fill="#000"/>
<line stroke="#000" stroke-width="2" x1="316.4475846121702" x2="316.4475846121702" y1="10" y2="44.5"/>
<line stroke="#000" stroke-width="2" x1="224.00330455019088" x2="336" y1="10" y2="10"/>
<line stroke="#000" stroke-width="2" x1="224.00330455019088" x2="336" y1="22" y2="22"/>
<line stroke="#000" stroke-width="2" x1="224.00330455019088" x2="336" y1="34" y2="34"/>
<line stroke="#000" stroke-width="2" x1="224.00330455019088" x2="336" y1="46" y2="46"/>
<line stroke="#000" stroke-width="2" x1="224.00330455019088" x2="336" y1="58" y2="58"/>
<line stroke="#000" stroke-width="2" x1="224.00330455019088" x2="224.00330455019088" y1="9" y2="59"/>
<line stroke="#000" stroke-width="2" x1="337" x2="337" y1="9" y2="59"/>
<path d="M38.574707 115.33184Q36.560158 115.33184,35.28008 114.38752Q34 113.4432,34 111.51259Q34 109.37213,35.196136 107.672356Q36.392277 105.97258,38.322887 104.98629Q40.253498 104,42.435925 104Q44.282597 104,45.37381 104.98629Q46.465027 105.97258,46.465027 107.77728Q46.465027 109.8338,45.37381 111.55456Q44.282597 113.27532,42.49888 114.30358Q40.715164 115.33184,38.574707 115.33184ZM35.133183 112.51987Q35.133183 112.93956,35.447956 113.27532Q35.76273 113.61108,36.30834 113.61108Q37.77728 113.61108,39.95971 112.39396Q41.42865 111.55456,42.62479 110.5263Q43.82093 109.49804,44.534416 108.46978Q45.247902 107.44152,45.247902 106.728035Q45.247902 106.266365,45.017067 105.95159Q44.786232 105.63682,44.198658 105.63682Q43.40123 105.63682,42.268047 106.14046Q41.134865 106.6441,39.896755 107.44152Q38.658646 108.238945,37.567432 109.183266Q36.476215 110.12759,35.8047 111.00896Q35.133183 111.89032,35.133183 112.51987Z" fill="#000"/>
<line stroke="#000" stroke-width="2" x1="34.85714285714286" x2="34.85714285714286" y1="111.5" y2="146"/>
<path d="M168.99272 128L175.70789 136.18411Q173.6094 138.66032,172.47621 140.46503Q171.34303 142.26973,171.34303 144.1164Q171.34303 145.66928,172.35031 147.36905Q173.35757 149.06883,175.54001 151.67096L174.8685 152.5943Q173.02182 151.41914,171.42697 151.41914Q170.25182 151.41914,169.66425 152.19559Q169.07666 152.97202,169.07666 154.06323Q169.07666 155.40627,169.64325 156.60242Q170.20985 157.79855,171.17516 158.88977L170.62955 159.6872Q167.73363 157.5887,166.34863 155.86794Q164.96362 154.14717,164.96362 152.13263Q164.96362 150.32793,166.0968 149.48853Q167.23 148.64914,168.82484 148.64914Q170.08394 148.64914,172.09848 149.61444L172.09848 149.5305L165.63515 140.9267Q169.87408 137.19139,169.87408 133.95972Q169.87408 131.39955,167.18802 128L168.99272 128Z" fill="#000"/>
<path d="M233.54951 161.80527L233.54951 155.40347L231.44543 155.94069L231.44543 151.46391L233.54951 150.88193L233.54951 142.10744L234.93732 142.10744L234.93732 150.52379L237.93677 149.8075L237.93677 141.07779L239.32455 141.07779L239.32455 149.44936L241.51819 148.95691L241.51819 153.38892L239.32455 154.01567L239.32455 160.41747L241.51819 159.88025L241.51819 164.49133L239.32455 165.02853L239.32455 173.44489L237.93677 173.44489L237.93677 165.38669L234.93732 166.1925L234.93732 174.92221L233.54951 174.92221L233.54951 166.50587L231.44543 167.04309L231.44543 162.432L233.54951 161.80527ZM237.93677 160.73083L237.93677 154.28427L234.93732 155.04533L234.93732 161.44711L237.93677 160.73083Z" fill="#000"/>
<path d="M256.0929 175.33185Q254.07834 175.33185,252.79826 174.38753Q251.51819 173.4432,251.51819 171.51259Q251.51819 169.37213,252.71432 167.67236Q253.91046 165.97258,255.84106 164.98628Q257.77167 164,259.9541 164Q261.80078 164,262.892 164.98628Q263.98322 165.97258,263.98322 167.77728Q263.98322 169.8338,262.892 171.55457Q261.80078 173.27531,260.01706 174.30359Q258.23334 175.33185,256.0929 175.33185Z" fill="#000"/>
<path d="M256.0929 163.33185Q254.07834 163.33185,252.79826 162.38753Q251.51819 161.4432,251.51819 159.51259Q251.51819 157.37213,252.71432 155.67236Q253.91046 153.97258,255.84106 152.98628Q257.77167 152,259.9541 152Q261.80078 152,262.892 152.98628Q263.98322 153.97258,263.98322 155.77728Q263.98322 157.8338,262.892 159.55457Q261.80078 161.27531,260.01706 162.30359Q258.23334 163.33185,256.0929 163.33185Z" fill="#000"/>
<line stroke="#000" stroke-width="2" x1="246.51818704605103" x2="268.518187046051" y1="158" y2="158"/>
<line stroke="#000" stroke-width="2" x1="246.51818704605103" x2="268.518187046051" y1="170" y2="170"/>
<line stroke="#000" stroke-width="2" x1="262.94675847462247" x2="262.94675847462247" y1="122" y2="168.5"/>
<line stroke="#000" stroke-width="2" x1="13" x2="340" y1="110" y2="110"/>
<line stroke="#000" stroke-width="2" x1="13" x2="340" y1="122" y2="122"/>
<line stroke="#000" stroke-width="2" x1="13" x2="340" y1="134" y2="134"/>
<line stroke="#000" stroke-width="2" x1="13" x2="340" y1="146" y2="146"/>
<line stroke="#000" stroke-width="2" x1="13" x2="340" y1="158" y2="158"/>
<line stroke="#000" stroke-width="2" x1="13" x2="13" y1="109" y2="159"/>
<line stroke="#000" stroke-width="2" x1="341" x2="341" y1="109" y2="159"/>
</svg>