<svg height="200" width="500" xmlns="http://www.w3.org/2000/svg">
<rect fill="#fff" height="200" width="500" x="0" y="0"/>
<path d="M30.864017 21.895914Q30.393955 20.116394,30.091774 18.370451Q29.789593 16.624508,29.789593 14.811413Q29.789593 13.233349,30.007835 11.839954Q30.226078 10.446556,30.628986 9.271404Q31.065474 7.9283714,31.770565 6.7364273Q32.47566 5.544487,33.26469 4.7722435Q34.053722 4,34.65809 4Q35.463905 4,36.874092 6.853943Q37.579185 8.297703,37.91494 9.976494Q38.2507 11.655289,38.2507 13.569107Q38.2507 15.9529915,37.61276 18.320087Q36.97482 20.687183,35.749302 22.768885Q34.52378 24.850586,32.811417 26.42865L33.986572 32.06939Q34.490208 32.002235,34.825966 31.96866Q35.161724 31.935085,35.329605 31.935085Q37.377728 31.935085,38.98937 33.093452Q40.601006 34.251816,41.55792 36.132065Q42.51483 38.01231,42.51483 40.26189Q42.51483 42.84723,41.188583 44.91214Q39.86234 46.977055,37.209846 47.950752Q37.377728 48.52154,38.183548 52.71852Q38.385002 53.725796,38.485733 54.313374Q38.586456 54.90095,38.620033 55.337437Q38.65361 55.773922,38.65361 56.34471Q38.65361 58.023502,37.831 59.349747Q37.008392 60.67599,35.614998 61.41466Q34.2216 62.153328,32.50923 62.153328Q30.76329 62.153328,29.420258 61.4986Q28.077225 60.843872,27.304981 59.685505Q26.532738 58.527138,26.532738 57.016228Q26.532738 55.404587,27.422497 54.330162Q28.312256 53.255733,29.95747 53.255733Q31.367657 53.255733,32.257416 54.279797Q33.147175 55.30386,33.147175 56.714043Q33.147175 57.922775,32.307777 58.829323Q31.468384 59.73587,30.12535 59.73587L29.789593 59.73587Q30.662563 61.045326,32.54281 61.045326Q34.859543 61.045326,36.169 59.534416Q37.478455 58.023502,37.478455 55.673195Q37.478455 55.102406,37.344154 54.145493Q37.209846 53.188583,36.874092 51.84555Q36.53833 50.502518,36.35367 49.629547Q36.169 48.756573,36.101845 48.38724Q34.96027 48.723,33.41578 48.723Q30.52826 48.723,27.775042 47.04421Q25.088976 45.365417,23.544489 42.612198Q22 39.85898,22 36.669277Q22 33.647453,23.37661 30.994963Q24.753218 28.342472,26.784555 26.126467Q28.815893 23.910463,30.864017 21.895914ZM31.770565 21.056519Q32.54281 20.653608,33.41578 19.562393Q34.288754 18.47118,35.094574 17.060995Q35.90039 15.65081,36.40403 14.223839Q36.90767 12.796864,36.90767 11.655289Q36.90767 10.446556,36.53833 9.7414665Q36.169 9.036373,35.26245 9.036373Q34.45663 9.036373,33.701176 9.77504Q32.94572 10.51371,32.358143 11.739227Q31.770565 12.964745,31.434807 14.475655Q31.099049 15.986568,31.099049 17.564632Q31.099049 18.63906,31.317291 19.51203Q31.535534 20.385002,31.770565 21.056519ZM33.684387 36.06491Q32.77784 36.266365,31.97202 36.921097Q31.1662 37.575825,30.679352 38.49916Q30.192501 39.422493,30.192501 40.463345Q30.192501 41.302742,30.628986 42.1925Q31.065474 43.08226,31.703415 43.619473Q32.1399 44.02238,32.576385 44.22384Q33.080025 44.45887,33.080025 44.660324Q33.080025 44.76105,32.744263 44.86178Q31.468384 44.559597,30.44432 43.7202Q29.420258 42.880806,28.83268 41.68886Q28.245104 40.49692,28.245104 39.15389Q28.245104 37.71013,28.83268 36.367096Q29.420258 35.024063,30.477896 33.949635Q31.535534 32.87521,32.878567 32.337997L31.90487 27.268045Q28.010073 30.424173,26.180191 33.462784Q24.350307 36.501396,24.350307 39.489647Q24.350307 41.672073,25.491886 43.552322Q26.633465 45.432568,28.614437 46.590935Q30.595411 47.7493,33.080025 47.7493Q33.75154 47.7493,34.439842 47.614994Q35.128147 47.480694,35.90039 47.279236L33.684387 36.06491ZM36.941242 46.943478Q40.231674 45.533295,40.231674 41.168438Q40.231674 39.724678,39.493004 38.532734Q38.754337 37.340794,37.51203 36.6357Q36.269726 35.93061,34.72524 35.93061L36.941242 46.943478Z" fill="#000"/>
<path d="M62.51483 39.246223Q62.51483 37.69334,63.648018 36.51819Q64.781204 35.343033,66.732796 34.671516Q68.68439 34,71.0347 34Q73.42698 34,75.44153 34.65053Q77.45608 35.301064,78.6732 36.47622Q79.89032 37.65137,79.89032 39.246223Q79.89032 40.883045,78.71517 42.07918Q77.540016 43.275322,75.588425 43.925854Q73.636826 44.576385,71.286514 44.576385Q68.93621 44.576385,66.94264 43.94684Q64.94908 43.31729,63.731956 42.121155Q62.51483 40.925014,62.51483 39.246223ZM72.167885 43.736988Q73.59486 43.736988,74.11948 42.687744Q74.644104 41.6385,74.644104 40.21153Q74.644104 38.742584,74.03554 37.525463Q73.42698 36.30834,72.4197 35.573868Q71.41243 34.839394,70.153336 34.839394Q68.726364 34.839394,68.243706 35.88864Q67.761055 36.937885,67.761055 38.364857Q67.761055 39.791832,68.34863 41.008953Q68.93621 42.226078,69.9225 42.981533Q70.90879 43.736988,72.167885 43.736988Z" fill="#000"/>
<line stroke="#000" stroke-width="2" x1="12" x2="176.24970494376288" y1="10" y2="10"/>
<line stroke="#000" stroke-width="2" x1="12" x2="176.24970494376288" y1="22" y2="22"/>
<line stroke="#000" stroke-width="2" x1="12" x2="176.24970494376288" y1="34" y2="34"/>
<line stroke="#000" stroke-width="2" x1="12" x2="176.24970494376288" y1="46" y2="46"/>
<line stroke="#000" stroke-width="2" x1="12" x2="176.24970494376288" y1="58" y2="58"/>
<line stroke="#000" stroke-width="2" x1="12" x2="12" y1="9" y2="59"/>
<line stroke="#000" stroke-width="2" x1="177.24970494376288" x2="177.24970494376288" y1="9" y2="59"/>
<path d="M210.45433 60.811974Q210.45433 59.25909,211.2098 58.629547Q211.96524 58,213.0145 58Q214.10571 58,214.88214 58.629547Q215.65858 59.25909,215.65858 60.811974Q215.65858 62.322887,214.88214 62.994404Q214.10571 63.66592,213.0145 63.66592Q211.96524 63.66592,211.2098 62.994404Q210.45433 62.322887,210.45433 60.811974Z" fill="#000"/>
<path d="M198.02904 69.33184Q196.01448 69.33184,194.7344 68.38752Q193.45433 67.4432,193.45433 65.51259Q193.45433 63.37213,194.65047 61.672356Q195.8466 59.97258,197.7772 58.98629Q199.70782 58,201.89024 58Q203.73692 58,204.82814 58.98629Q205.91934 59.97258,205.91934 61.77728Q205.91934 63.8338,204.82814 65.55456Q203.73692 67.27532,201.9532 68.30358Q200.1695 69.33184,198.02904 69.33184ZM194.58751 66.51987Q194.58751 66.93956,194.90228 67.27532Q195.21706 67.61108,195.76266 67.61108Q197.2316 67.61108,199.41403 66.39396Q200.88298 65.55456,202.07912 64.5263Q203.27525 63.49804,203.98874 62.46978Q204.70222 61.44152,204.70222 60.728035Q204.70222 60.26637,204.47139 59.951595Q204.24055 59.63682,203.65298 59.63682Q202.85556 59.63682,201.72237 60.140457Q200.58919 60.644096,199.35107 61.44152Q198.11298 62.23895,197.02176 63.183266Q195.93054 64.12759,195.25902 65.00896Q194.58751 65.89032,194.58751 66.51987Z" fill="#000"/>
<line stroke="#000" stroke-width="2" x1="204.8829022967626" x2="204.8829022967626" y1="28" y2="62.5"/>
<path d="M269.90033 63.33184Q267.8858 63.33184,266.6057 62.38752Q265.32562 61.4432,265.32562 59.512592Q265.32562 57.37213,266.52176 55.672356Q267.7179 53.97258,269.64853 52.98629Q271.57913 52,273.76157 52Q275.60822 52,276.69943 52.98629Q277.79065 53.97258,277.79065 55.77728Q277.79065 57.8338,276.69943 59.55456Q275.60822 61.275322,273.82452 62.30358Q272.0408 63.33184,269.90033 63.33184Z" fill="#000"/>
<line stroke="#000" stroke-width="2" x1="276.7541948878576" x2="276.7541948878576" y1="22" y2="56.5"/>
<line stroke="#000" stroke-width="2" x1="183.4543308681912" x2="324.26512469185724" y1="10" y2="10"/>
<line stroke="#000" stroke-width="2" x1="183.4543308681912" x2="324.26512469185724" y1="22" y2="22"/>
<line stroke="#000" stroke-width="2" x1="183.4543308681912" x2="324.26512469185724" y1="34" y2="34"/>
<line stroke="#000" stroke-width="2" x1="183.4543308681912" x2="324.26512469185724" y1="46" y2="46"/>
<line stroke="#000" stroke-width="2" x1="183.4543308681912" x2="324.26512469185724" y1="58" y2="58"/>
<line stroke="#000" stroke-width="2" x1="325.26512469185724" x2="325.26512469185724" y1="9" y2="59"/>
<path d="M335.6352 57.33184Q333.62067 57.33184,332.34058 56.38752Q331.0605 55.4432,331.0605 53.512592Q331.0605 51.37213,332.25662 49.672356Q333.45276 47.97258,335.3834 46.98629Q337.314 46,339.49643 46Q341.34308 46,342.4343 46.98629Q343.5255 47.97258,343.5255 49.77728Q343.5255 51.8338,342.4343 53.55456Q341.34308 55.275322,339.5594 56.30358Q337.77567 57.33184,335.6352 57.33184ZM332.19366 54.519867Q332.19366 54.939564,332.50845 55.275322Q332.8232 55.61108,333.36884 55.61108Q334.83777 55.61108,337.0202 54.393955Q338.48914 53.55456,339.68527 52.526302Q340.8814 51.49804,341.5949 50.46978Q342.3084 49.44152,342.3084 48.728035Q342.3084 48.26637,342.07758 47.951595Q341.84674 47.63682,341.25916 47.63682Q340.46173 47.63682,339.32855 48.140457Q338.19537 48.644096,336.95724 49.44152Q335.71915 50.23895,334.62793 51.183266Q333.5367 52.127586,332.8652 53.008953Q332.19366 53.89032,332.19366 54.519867Z" fill="#000"/>
<line stroke="#000" stroke-width="2" x1="342.4890701960004" x2="342.4890701960004" y1="16" y2="50.5"/>
<path d="M399.10495 63.33184Q397.09042 63.33184,395.81033 62.38752Q394.53024 61.4432,394.53024 59.512592Q394.53024 57.37213,395.72638 55.672356Q396.92252 53.97258,398.85315 52.98629Q400.78375 52,402.9662 52Q404.81284 52,405.90405 52.98629Q406.99527 53.97258,406.99527 55.77728Q406.99527 57.8338,405.90405 59.55456Q404.81284 61.275322,403.02914 62.30358Q401.24542 63.33184,399.10495 63.33184Z" fill="#000"/>
<line stroke="#000" stroke-width="2" x1="405.9588208122859" x2="405.9588208122859" y1="22" y2="56.5"/>
<path d="M446.04446 57.33184Q444.02994 57.33184,442.74985 56.38752Q441.46976 55.4432,441.46976 53.512592Q441.46976 51.37213,442.6659 49.672356Q443.86203 47.97258,445.79266 46.98629Q447.72327 46,449.9057 46Q451.75235 46,452.84357 46.98629Q453.93478 47.97258,453.93478 49.77728Q453.93478 51.8338,452.84357 53.55456Q451.75235 55.275322,449.96866 56.30358Q448.18494 57.33184,446.04446 57.33184Z" fill="#000"/>
<line stroke="#000" stroke-width="2" x1="452.898322044857" x2="452.898322044857" y1="16" y2="50.5"/>
<line stroke="#000" stroke-width="2" x1="321.06049876742895" x2="500.4092518488567" y1="10" y2="10"/>
<line stroke="#000" stroke-width="2" x1="321.06049876742895" x2="500.4092518488567" y1="22" y2="22"/>
<line stroke="#000" stroke-width="2" x1="321.06049876742895" x2="500.4092518488567" y1="34" y2="34"/>
<line stroke="#000" stroke-width="2" x1="321.06049876742895" x2="500.4092518488567" y1="46" y2="46"/>
<line stroke="#000" stroke-width="2" x1="321.06049876742895" x2="500.4092518488567" y1="58" y2="58"/>
<line stroke="#000" stroke-width="2" x1="501.4092518488567" x2="501.4092518488567" y1="9" y2="59"/>
<path d="M39 130.81197Q39 129.2591,39.755455 128.62955Q40.510914 127.99999,41.560158 127.99999Q42.65137 127.99999,43.42781 128.62955Q44.204254 129.2591,44.204254 130.81197Q44.204254 132.32288,43.42781 132.9944Q42.65137 133.66591,41.560158 133.66591Q40.510914 133.66591,39.755455 132.9944Q39 132.32288,39 130.81197Z" fill="#000"/>
<path d="M26.574705 139.33185Q24.560156 139.33185,23.280079 138.38753Q22 137.4432,22 135.51259Q22 133.37213,23.196138 131.67236Q24.392277 129.97258,26.322887 128.98628Q28.253498 128,30.435925 128Q32.282597 128,33.37381 128.98628Q34.465027 129.97258,34.465027 131.77728Q34.465027 133.8338,33.37381 135.55457Q32.282597 137.27531,30.49888 138.30359Q28.715164 139.33185,26.574705 139.33185ZM23.133183 136.51987Q23.133183 136.93956,23.447956 137.27531Q23.76273 137.61108,24.308338 137.61108Q25.777279 137.61108,27.95971 136.39395Q29.42865 135.55457,30.62479 134.5263Q31.820929 133.49805,32.534416 132.46979Q33.247902 131.44153,33.247902 130.72803Q33.247902 130.26637,33.017067 129.9516Q32.786232 129.63683,32.198658 129.63683Q31.40123 129.63683,30.268047 130.14046Q29.134863 130.64409,27.896753 131.44153Q26.658646 132.23895,25.56743 133.18327Q24.476217 134.1276,23.8047 135.00896Q23.133183 135.89032,23.133183 136.51987Z" fill="#000"/>
<line stroke="#000" stroke-width="2" x1="33.42857142857143" x2="33.42857142857143" y1="98" y2="132.5"/>
<path d="M158.9641 145.33185Q156.94954 145.33185,155.66946 144.38753Q154.38939 143.4432,154.38939 141.51259Q154.38939 139.37213,155.58553 137.67236Q156.78166 135.97258,158.71227 134.98628Q160.64288 134,162.8253 134Q164.67198 134,165.7632 134.98628Q166.8544 135.97258,166.8544 137.77728Q166.8544 139.8338,165.7632 141.55457Q164.67198 143.27531,162.88826 144.30359Q161.10455 145.33185,158.9641 145.33185Z" fill="#000"/>
<line stroke="#000" stroke-width="2" x1="165.81795752616156" x2="165.81795752616156" y1="104" y2="138.5"/>
<line stroke="#000" stroke-width="2" x1="12" x2="294.0196786721548" y1="110" y2="110"/>
<line stroke="#000" stroke-width="2" x1="12" x2="294.0196786721548" y1="122" y2="122"/>
<line stroke="#000" stroke-width="2" x1="12" x2="294.0196786721548" y1="134" y2="134"/>
<line stroke="#000" stroke-width="2" x1="12" x2="294.0196786721548" y1="146" y2="146"/>
<line stroke="#000" stroke-width="2" x1="12" x2="294.0196786721548" y1="158" y2="158"/>
<line stroke="#000" stroke-width="2" x1="12" x2="12" y1="109" y2="159"/>
<line stroke="#000" stroke-width="2" x1="295.0196786721548" x2="295.0196786721548" y1="109" y2="159"/>
<path d="M244.87167 151.33185Q242.85712 151.33185,241.57704 150.38753Q240.29697 149.4432,240.29697 147.51259Q240.29697 145.37213,241.4931 143.67236Q242.68924 141.97258,244.61984 140.98628Q246.55046 140,248.73288 140Q250.57956 140,251.67078 140.98628Q252.762 141.97258,252.762 143.77728Q252.762 145.8338,251.67078 147.55457Q250.57956 149.27531,248.79584 150.30359Q247.01213 151.33185,244.87167 151.33185ZM241.43015 148.51987Q241.43015 148.93956,241.74492 149.27531Q242.0597 149.61108,242.6053 149.61108Q244.07423 149.61108,246.25667 148.39395Q247.72562 147.55457,248.92175 146.5263Q250.11789 145.49805,250.83138 144.46979Q251.54486 143.44153,251.54486 142.72803Q251.54486 142.26637,251.31403 141.9516Q251.08319 141.63683,250.49562 141.63683Q249.6982 141.63683,248.565 142.14046Q247.43182 142.64409,246.19371 143.44153Q244.95561 144.23895,243.8644 145.18327Q242.77318 146.1276,242.10165 147.00896Q241.43015 147.89032,241.43015 148.51987Z" fill="#000"/>
<line stroke="#000" stroke-width="2" x1="251.7255306698027" x2="251.7255306698027" y1="110" y2="144.5"/>
<path d="M348.6868 157.33185Q346.67227 157.33185,345.39218 156.38753Q344.1121 155.4432,344.1121 153.51259Q344.1121 151.37213,345.30823 149.67236Q346.50436 147.97258,348.435 146.98628Q350.3656 146,352.54803 146Q354.39468 146,355.4859 146.98628Q356.57712 147.97258,356.57712 149.77728Q356.57712 151.8338,355.4859 153.55457Q354.39468 155.27531,352.611 156.30359Q350.82727 157.33185,348.6868 157.33185Z" fill="#000"/>
<line stroke="#000" stroke-width="2" x1="355.54067695708505" x2="355.54067695708505" y1="116" y2="150.5"/>
<path d="M486.38986 151.33185Q484.37534 151.33185,483.09525 150.38753Q481.81516 149.4432,481.81516 147.51259Q481.81516 145.37213,483.0113 143.67236Q484.20743 141.97258,486.13806 140.98628Q488.06866 140,490.2511 140Q492.09775 140,493.18896 140.98628Q494.28018 141.97258,494.28018 143.77728Q494.28018 145.8338,493.18896 147.55457Q492.09775 149.27531,490.31406 150.30359Q488.53033 151.33185,486.38986 151.33185Z" fill="#000"/>
<line stroke="#000" stroke-width="2" x1="493.2437177158538" x2="493.2437177158538" y1="110" y2="144.5"/>
<line stroke="#000" stroke-width="2" x1="230.2969592412313" x2="621.4454388618469" y1="110" y2="110"/>
<line stroke="#000" stroke-width="2" x1="230.2969592412313" x2="621.4454388618469" y1="122" y2="122"/>
<line stroke="#000" stroke-width="2" x1="230.2969592412313" x2="621.4454388618469" y1="134" y2="134"/>
<line stroke="#000" stroke-width="2" x1="230.2969592412313" x2="621.4454388618469" y1="146" y2="146"/>
<line stroke="#000" stroke-width="2" x1="230.2969592412313" x2="621.4454388618469" y1="158" y2="158"/>
<line stroke="#000" stroke-width="2" x1="622.4454388618469" x2="622.4454388618469" y1="109" y2="159"/>
</svg>
