<svg height="500" width="500" xmlns="http://www.w3.org/2000/svg">
<rect fill="#fff" height="500" width="500" x="0" y="0"/>
<path d="M22 39.246223Q22 37.69334,23.133183 36.51819Q24.266369 35.343033,26.217962 34.671516Q28.169558 34,30.519865 34Q32.912144 34,34.926693 34.65053Q36.941242 35.301064,38.158363 36.47622Q39.37549 37.65137,39.37549 39.246223Q39.37549 40.883045,38.200336 42.07918Q37.025185 43.275322,35.073586 43.925854Q33.121994 44.576385,30.771685 44.576385Q28.421375 44.576385,26.42781 43.94684Q24.434246 43.31729,23.217123 42.121155Q22 40.925014,22 39.246223ZM31.65305 43.736988Q33.08002 43.736988,33.604645 42.687744Q34.129265 41.6385,34.129265 40.21153Q34.129265 38.742584,33.520706 37.525463Q32.912144 36.30834,31.90487 35.573868Q30.897594 34.839394,29.6385 34.839394Q28.211529 34.839394,27.728874 35.88864Q27.246223 36.937885,27.246223 38.364857Q27.246223 39.791832,27.8338 41.008953Q28.421375 42.226078,29.407665 42.981533Q30.393955 43.736988,31.65305 43.736988Z" fill="#000"/>
<line stroke="#000" stroke-width="2" x1="13" x2="110" y1="10" y2="10"/>
<line stroke="#000" stroke-width="2" x1="13" x2="110" y1="22" y2="22"/>
<line stroke="#000" stroke-width="2" x1="13" x2="110" y1="34" y2="34"/>
<line stroke="#000" stroke-width="2" x1="13" x2="110" y1="46" y2="46"/>
<line stroke="#000" stroke-width="2" x1="13" x2="110" y1="58" y2="58"/>
<line stroke="#000" stroke-width="2" x1="13" x2="13" y1="9" y2="59"/>
<line stroke="#000" stroke-width="2" x1="111" x2="111" y1="9" y2="59"/>
<path d="M144 60.811974Q144 59.25909,144.75546 58.629547Q145.51091 58,146.56017 58Q147.65138 58,148.42781 58.629547Q149.20425 59.25909,149.20425 60.811974Q149.20425 62.322887,148.42781 62.994404Q147.65138 63.66592,146.56017 63.66592Q145.51091 63.66592,144.75546 62.994404Q144 62.322887,144 60.811974Z" fill="#000"/>
<path d="M131.5747 69.33184Q129.56017 69.33184,128.28008 68.38752Q127 67.4432,127 65.51259Q127 63.37213,128.19614 61.672356Q129.39227 59.97258,131.32289 58.98629Q133.2535 58,135.43593 58Q137.2826 58,138.37381 58.98629Q139.46503 59.97258,139.46503 61.77728Q139.46503 63.8338,138.37381 65.55456Q137.2826 67.27532,135.49889 68.30358Q133.71516 69.33184,131.5747 69.33184ZM128.13318 66.51987Q128.13318 66.93956,128.44795 67.27532Q128.76273 67.61108,129.30833 67.61108Q130.77728 67.61108,132.95972 66.39396Q134.42865 65.55456,135.62479 64.5263Q136.82092 63.49804,137.53442 62.46978Q138.24791 61.44152,138.24791 60.728035Q138.24791 60.26637,138.01707 59.951595Q137.78624 59.63682,137.19865 59.63682Q136.40123 59.63682,135.26805 60.140457Q134.13486 60.644096,132.89676 61.44152Q131.65865 62.23895,130.56743 63.183266Q129.47621 64.12759,128.8047 65.00896Q128.13318 65.89032,128.13318 66.51987Z" fill="#000"/>
<line stroke="#000" stroke-width="2" x1="122" x2="144" y1="58" y2="58"/>
<line stroke="#000" stroke-width="2" x1="138.42857142857142" x2="138.42857142857142" y1="28" y2="62.5"/>
<path d="M232.5747 63.33184Q230.56015 63.33184,229.28008 62.38752Q228 61.4432,228 59.512592Q228 57.37213,229.19614 55.672356Q230.39227 53.97258,232.32288 52.98629Q234.2535 52,236.43591 52Q238.2826 52,239.37381 52.98629Q240.46503 53.97258,240.46503 55.77728Q240.46503 57.8338,239.37381 59.55456Q238.2826 61.275322,236.49887 62.30358Q234.71516 63.33184,232.5747 63.33184Z" fill="#000"/>
<line stroke="#000" stroke-width="2" x1="239.42857142857142" x2="239.42857142857142" y1="22" y2="56.5"/>
<line stroke="#000" stroke-width="2" x1="113" x2="296.5" y1="10" y2="10"/>
<line stroke="#000" stroke-width="2" x1="113" x2="296.5" y1="22" y2="22"/>
<line stroke="#000" stroke-width="2" x1="113" x2="296.5" y1="34" y2="34"/>
<line stroke="#000" stroke-width="2" x1="113" x2="296.5" y1="46" y2="46"/>
<line stroke="#000" stroke-width="2" x1="113" x2="296.5" y1="58" y2="58"/>
<line stroke="#000" stroke-width="2" x1="113" x2="113" y1="9" y2="59"/>
<line stroke="#000" stroke-width="2" x1="297.5" x2="297.5" y1="9" y2="59"/>
<path d="M306.5747 57.33184Q304.56018 57.33184,303.2801 56.38752Q302 55.4432,302 53.512592Q302 51.37213,303.19614 49.672356Q304.39227 47.97258,306.3229 46.98629Q308.2535 46,310.43594 46Q312.2826 46,313.3738 46.98629Q314.46503 47.97258,314.46503 49.77728Q314.46503 51.8338,313.3738 53.55456Q312.2826 55.275322,310.4989 56.30358Q308.71518 57.33184,306.5747 57.33184ZM303.13318 54.519867Q303.13318 54.939564,303.44797 55.275322Q303.76273 55.61108,304.30835 55.61108Q305.77728 55.61108,307.95972 54.393955Q309.42865 53.55456,310.6248 52.526302Q311.82092 51.49804,312.53442 50.46978Q313.24792 49.44152,313.24792 48.728035Q313.24792 48.26637,313.0171 47.951595Q312.78625 47.63682,312.19867 47.63682Q311.40125 47.63682,310.26807 48.140457Q309.1349 48.644096,307.89676 49.44152Q306.65866 50.23895,305.56744 51.183266Q304.47623 52.127586,303.80472 53.008953Q303.13318 53.89032,303.13318 54.519867Z" fill="#000"/>
<line stroke="#000" stroke-width="2" x1="313.42857142857144" x2="313.42857142857144" y1="16" y2="50.5"/>
<path d="M369.5747 63.33184Q367.56018 63.33184,366.2801 62.38752Q365 61.4432,365 59.512592Q365 57.37213,366.19614 55.672356Q367.39227 53.97258,369.3229 52.98629Q371.2535 52,373.43594 52Q375.2826 52,376.3738 52.98629Q377.46503 53.97258,377.46503 55.77728Q377.46503 57.8338,376.3738 59.55456Q375.2826 61.275322,373.4989 62.30358Q371.71518 63.33184,369.5747 63.33184Z" fill="#000"/>
<line stroke="#000" stroke-width="2" x1="376.42857142857144" x2="376.42857142857144" y1="22" y2="56.5"/>
<path d="M426.0747 57.33184Q424.06018 57.33184,422.7801 56.38752Q421.5 55.4432,421.5 53.512592Q421.5 51.37213,422.69614 49.672356Q423.89227 47.97258,425.8229 46.98629Q427.7535 46,429.93594 46Q431.7826 46,432.8738 46.98629Q433.96503 47.97258,433.96503 49.77728Q433.96503 51.8338,432.8738 53.55456Q431.7826 55.275322,429.9989 56.30358Q428.21518 57.33184,426.0747 57.33184Z" fill="#000"/>
<line stroke="#000" stroke-width="2" x1="432.92857142857144" x2="432.92857142857144" y1="16" y2="50.5"/>
<line stroke="#000" stroke-width="2" x1="293" x2="490" y1="10" y2="10"/>
<line stroke="#000" stroke-width="2" x1="293" x2="490" y1="22" y2="22"/>
<line stroke="#000" stroke-width="2" x1="293" x2="490" y1="34" y2="34"/>
<line stroke="#000" stroke-width="2" x1="293" x2="490" y1="46" y2="46"/>
<line stroke="#000" stroke-width="2" x1="293" x2="490" y1="58" y2="58"/>
<line stroke="#000" stroke-width="2" x1="293" x2="293" y1="9" y2="59"/>
<line stroke="#000" stroke-width="2" x1="491" x2="491" y1="9" y2="59"/>
<path d="M39 130.81197Q39 129.2591,39.755455 128.62955Q40.510914 127.99999,41.560158 127.99999Q42.65137 127.99999,43.42781 128.62955Q44.204254 129.2591,44.204254 130.81197Q44.204254 132.32288,43.42781 132.9944Q42.65137 133.66591,41.560158 133.66591Q40.510914 133.66591,39.755455 132.9944Q39 132.32288,39 130.81197Z" fill="#000"/>
<path d="M26.574705 139.33185Q24.560156 139.33185,23.280079 138.38753Q22 137.4432,22 135.51259Q22 133.37213,23.196138 131.67236Q24.392277 129.97258,26.322887 128.98628Q28.253498 128,30.435925 128Q32.282597 128,33.37381 128.98628Q34.465027 129.97258,34.465027 131.77728Q34.465027 133.8338,33.37381 135.55457Q32.282597 137.27531,30.49888 138.30359Q28.715164 139.33185,26.574705 139.33185ZM23.133183 136.51987Q23.133183 136.93956,23.447956 137.27531Q23.76273 137.61108,24.308338 137.61108Q25.777279 137.61108,27.95971 136.39395Q29.42865 135.55457,30.62479 134.5263Q31.820929 133.49805,32.534416 132.46979Q33.247902 131.44153,33.247902 130.72803Q33.247902 130.26637,33.017067 129.9516Q32.786232 129.63683,32.198658 129.63683Q31.40123 129.63683,30.268047 130.14046Q29.134863 130.64409,27.896753 131.44153Q26.658646 132.23895,25.56743 133.18327Q24.476217 134.1276,23.8047 135.00896Q23.133183 135.89032,23.133183 136.51987Z" fill="#000"/>
<line stroke="#000" stroke-width="2" x1="33.42857142857143" x2="33.42857142857143" y1="98" y2="132.5"/>
<path d="M172.53833 145.33185Q170.52377 145.33185,169.2437 144.38753Q167.96362 143.4432,167.96362 141.51259Q167.96362 139.37213,169.15976 137.67236Q170.3559 135.97258,172.2865 134.98628Q174.21712 134,176.39954 134Q178.24622 134,179.33743 134.98628Q180.42865 135.97258,180.42865 137.77728Q180.42865 139.8338,179.33743 141.55457Q178.24622 143.27531,176.4625 144.30359Q174.67879 145.33185,172.53833 145.33185Z" fill="#000"/>
<line stroke="#000" stroke-width="2" x1="179.39219733646937" x2="179.39219733646937" y1="104" y2="138.5"/>
<line stroke="#000" stroke-width="2" x1="13" x2="248.95453238487244" y1="110" y2="110"/>
<line stroke="#000" stroke-width="2" x1="13" x2="248.95453238487244" y1="122" y2="122"/>
<line stroke="#000" stroke-width="2" x1="13" x2="248.95453238487244" y1="134" y2="134"/>
<line stroke="#000" stroke-width="2" x1="13" x2="248.95453238487244" y1="146" y2="146"/>
<line stroke="#000" stroke-width="2" x1="13" x2="248.95453238487244" y1="158" y2="158"/>
<line stroke="#000" stroke-width="2" x1="13" x2="13" y1="109" y2="159"/>
<line stroke="#000" stroke-width="2" x1="249.95453238487244" x2="249.95453238487244" y1="109" y2="159"/>
<path d="M246.53833 151.33185Q244.52377 151.33185,243.2437 150.38753Q241.96362 149.4432,241.96362 147.51259Q241.96362 145.37213,243.15976 143.67236Q244.3559 141.97258,246.2865 140.98628Q248.21712 140,250.39954 140Q252.24622 140,253.33743 140.98628Q254.42865 141.97258,254.42865 143.77728Q254.42865 145.8338,253.33743 147.55457Q252.24622 149.27531,250.4625 150.30359Q248.67879 151.33185,246.53833 151.33185ZM243.0968 148.51987Q243.0968 148.93956,243.41158 149.27531Q243.72635 149.61108,244.27196 149.61108Q245.74089 149.61108,247.92332 148.39395Q249.39227 147.55457,250.58841 146.5263Q251.78455 145.49805,252.49803 144.46979Q253.21152 143.44153,253.21152 142.72803Q253.21152 142.26637,252.98068 141.9516Q252.74985 141.63683,252.16228 141.63683Q251.36485 141.63683,250.23166 142.14046Q249.09848 142.64409,247.86037 143.44153Q246.62227 144.23895,245.53105 145.18327Q244.43983 146.1276,243.76831 147.00896Q243.0968 147.89032,243.0968 148.51987Z" fill="#000"/>
<line stroke="#000" stroke-width="2" x1="253.39219733646937" x2="253.39219733646937" y1="110" y2="144.5"/>
<path d="M332.0495 155.80527L332.0495 149.40347L329.94543 149.94069L329.94543 145.46391L332.0495 144.88193L332.0495 136.10744L333.43732 136.10744L333.43732 144.52379L336.43674 143.8075L336.43674 135.07779L337.82455 135.07779L337.82455 143.44936L340.01816 142.95691L340.01816 147.38892L337.82455 148.01567L337.82455 154.41747L340.01816 153.88025L340.01816 158.49133L337.82455 159.02853L337.82455 167.44489L336.43674 167.44489L336.43674 159.38669L333.43732 160.1925L333.43732 168.92221L332.0495 168.92221L332.0495 160.50587L329.94543 161.04309L329.94543 156.432L332.0495 155.80527ZM336.43674 154.73083L336.43674 148.28427L333.43732 149.04533L333.43732 155.44711L336.43674 154.73083Z" fill="#000"/>
<path d="M349.5929 157.33185Q347.57837 157.33185,346.29828 156.38753Q345.0182 155.4432,345.0182 153.51259Q345.0182 151.37213,346.21432 149.67236Q347.41046 147.97258,349.3411 146.98628Q351.2717 146,353.45413 146Q355.30078 146,356.392 146.98628Q357.48322 147.97258,357.48322 149.77728Q357.48322 151.8338,356.392 153.55457Q355.30078 155.27531,353.5171 156.30359Q351.73337 157.33185,349.5929 157.33185Z" fill="#000"/>
<line stroke="#000" stroke-width="2" x1="356.44675847462247" x2="356.44675847462247" y1="116" y2="150.5"/>
<path d="M413.5838 151.33185Q411.56927 151.33185,410.28918 150.38753Q409.0091 149.4432,409.0091 147.51259Q409.0091 145.37213,410.20523 143.67236Q411.40137 141.97258,413.332 140.98628Q415.2626 140,417.44504 140Q419.2917 140,420.3829 140.98628Q421.47412 141.97258,421.47412 143.77728Q421.47412 145.8338,420.3829 147.55457Q419.2917 149.27531,417.508 150.30359Q415.72427 151.33185,413.5838 151.33185Z" fill="#000"/>
<line stroke="#000" stroke-width="2" x1="420.43766495159696" x2="420.43766495159696" y1="110" y2="144.5"/>
<line stroke="#000" stroke-width="2" x1="232.96362590789795" x2="490" y1="110" y2="110"/>
<line stroke="#000" stroke-width="2" x1="232.96362590789795" x2="490" y1="122" y2="122"/>
<line stroke="#000" stroke-width="2" x1="232.96362590789795" x2="490" y1="134" y2="134"/>
<line stroke="#000" stroke-width="2" x1="232.96362590789795" x2="490" y1="146" y2="146"/>
<line stroke="#000" stroke-width="2" x1="232.96362590789795" x2="490" y1="158" y2="158"/>
<line stroke="#000" stroke-width="2" x1="232.96362590789795" x2="232.96362590789795" y1="109" y2="159"/>
<line stroke="#000" stroke-width="2" x1="491" x2="491" y1="109" y2="159"/>
</svg>