<svg height="200" width="500" xmlns="http://www.w3.org/2000/svg">
<rect fill="#fff" height="200" width="500" x="0" y="0"/>
<path d="M40.364017 31.895914Q39.893955 30.116394,39.591774 28.370451Q39.289593 26.624508,39.289593 24.811413Q39.289593 23.233349,39.507835 21.839954Q39.726078 20.446556,40.128986 19.271404Q40.565475 17.928371,41.270565 16.736427Q41.97566 15.544487,42.76469 14.7722435Q43.553722 14,44.15809 14Q44.963905 14,46.374092 16.853943Q47.079185 18.297703,47.41494 19.976494Q47.7507 21.655289,47.7507 23.569107Q47.7507 25.952991,47.11276 28.320087Q46.47482 30.687183,45.249302 32.768883Q44.02378 34.850586,42.311417 36.42865L43.486572 42.06939Q43.990208 42.002235,44.325966 41.96866Q44.661724 41.935085,44.829605 41.935085Q46.877728 41.935085,48.48937 43.093452Q50.101006 44.251816,51.05792 46.132065Q52.01483 48.01231,52.01483 50.26189Q52.01483 52.84723,50.688583 54.91214Q49.36234 56.977055,46.709846 57.950752Q46.877728 58.52154,47.683548 62.71852Q47.885002 63.725796,47.985733 64.31337Q48.086456 64.90095,48.120033 65.33743Q48.15361 65.77392,48.15361 66.34471Q48.15361 68.0235,47.331 69.34975Q46.508392 70.675995,45.114998 71.41466Q43.7216 72.15333,42.00923 72.15333Q40.26329 72.15333,38.920258 71.4986Q37.577225 70.84387,36.80498 69.6855Q36.032738 68.52714,36.032738 67.01623Q36.032738 65.40459,36.922497 64.33016Q37.812256 63.255733,39.45747 63.255733Q40.867657 63.255733,41.757416 64.2798Q42.647175 65.30386,42.647175 66.71404Q42.647175 67.922775,41.807777 68.82932Q40.968384 69.73587,39.62535 69.73587L39.289593 69.73587Q40.162563 71.04533,42.04281 71.04533Q44.359543 71.04533,45.669 69.53442Q46.978455 68.0235,46.978455 65.673195Q46.978455 65.1024,46.844154 64.14549Q46.709846 63.188583,46.374092 61.84555Q46.03833 60.502518,45.85367 59.629547Q45.669 58.756573,45.601845 58.38724Q44.46027 58.723,42.91578 58.723Q40.02826 58.723,37.275043 57.04421Q34.588978 55.365417,33.044487 52.612198Q31.5 49.85898,31.5 46.669277Q31.5 43.647453,32.87661 40.994965Q34.25322 38.342472,36.284554 36.126465Q38.315895 33.91046,40.364017 31.895914ZM41.270565 31.056519Q42.04281 30.653608,42.91578 29.562393Q43.788754 28.47118,44.594574 27.060995Q45.40039 25.65081,45.90403 24.223839Q46.40767 22.796864,46.40767 21.655289Q46.40767 20.446556,46.03833 19.741467Q45.669 19.036373,44.76245 19.036373Q43.95663 19.036373,43.201176 19.77504Q42.44572 20.51371,41.858143 21.739227Q41.270565 22.964745,40.934807 24.475655Q40.59905 25.986568,40.59905 27.564632Q40.59905 28.63906,40.81729 29.51203Q41.035534 30.385002,41.270565 31.056519ZM43.184387 46.06491Q42.27784 46.266365,41.47202 46.921097Q40.6662 47.575825,40.17935 48.49916Q39.6925 49.422493,39.6925 50.463345Q39.6925 51.302742,40.128986 52.1925Q40.565475 53.08226,41.203415 53.619473Q41.6399 54.02238,42.076385 54.22384Q42.580025 54.45887,42.580025 54.660324Q42.580025 54.76105,42.244263 54.86178Q40.968384 54.559597,39.94432 53.7202Q38.920258 52.880806,38.33268 51.68886Q37.745102 50.49692,37.745102 49.15389Q37.745102 47.71013,38.33268 46.367096Q38.920258 45.024063,39.977898 43.949635Q41.035534 42.87521,42.378567 42.337997L41.40487 37.268044Q37.510075 40.42417,35.68019 43.462784Q33.850307 46.501396,33.850307 49.489647Q33.850307 51.672073,34.991886 53.552322Q36.133465 55.432568,38.114437 56.590935Q40.095413 57.7493,42.580025 57.7493Q43.25154 57.7493,43.939842 57.614994Q44.628147 57.480694,45.40039 57.279236L43.184387 46.06491ZM46.441242 56.943478Q49.731674 55.533295,49.731674 51.168438Q49.731674 49.724678,48.993004 48.532734Q48.254337 47.340794,47.01203 46.6357Q45.769726 45.93061,44.22524 45.93061L46.441242 56.943478Z" fill="#000"/>
<path d="M64.11892 37.727474L64.11892 31.325684L62.01483 31.862898L62.01483 27.38612L64.11892 26.80414L64.11892 18.029657L65.506714 18.029657L65.506714 26.446L68.50616 25.729713L68.50616 17L69.89396 17L69.89396 25.37157L72.08758 24.879128L72.08758 29.311134L69.89396 29.937885L69.89396 36.339676L72.08758 35.80246L72.08758 40.41354L69.89396 40.950756L69.89396 49.367096L68.50616 49.367096L68.50616 41.308895L65.506714 42.114716L65.506714 50.84443L64.11892 50.84443L64.11892 42.428093L62.01483 42.965305L62.01483 38.354225L64.11892 37.727474ZM68.50616 36.65305L68.50616 30.20649L65.506714 30.967543L65.506714 37.36933L68.50616 36.65305Z" fill="#000"/>
<path d="M75.191666 55.727474L75.191666 49.325684L73.08758 49.8629L73.08758 45.38612L75.191666 44.80414L75.191666 36.029655L76.57947 36.029655L76.57947 44.446L79.5789 43.729713L79.5789 35L80.966705 35L80.966705 43.37157L83.160324 42.879128L83.160324 47.311134L80.966705 47.937885L80.966705 54.339676L83.160324 53.80246L83.160324 58.41354L80.966705 58.950756L80.966705 67.367096L79.5789 67.367096L79.5789 59.308895L76.57947 60.114716L76.57947 68.84443L75.191666 68.84443L75.191666 60.428093L73.08758 60.965305L73.08758 56.354225L75.191666 55.727474ZM79.5789 54.65305L79.5789 48.20649L76.57947 48.967545L76.57947 55.36933L79.5789 54.65305Z" fill="#000"/>
<path d="M86.26441 31.727476L86.26441 25.325684L84.160324 25.862898L84.160324 21.38612L86.26441 20.80414L86.26441 12.029657L87.65221 12.029657L87.65221 20.446L90.65165 19.729713L90.65165 11L92.03945 11L92.03945 19.37157L94.23307 18.879128L94.23307 23.311134L92.03945 23.937885L92.03945 30.339674L94.23307 29.802462L94.23307 34.41354L92.03945 34.950756L92.03945 43.367096L90.65165 43.367096L90.65165 35.308895L87.65221 36.114716L87.65221 44.84443L86.26441 44.84443L86.26441 36.428093L84.160324 36.965305L84.160324 32.354225L86.26441 31.727476ZM90.65165 30.65305L90.65165 24.20649L87.65221 24.967543L87.65221 31.369333L90.65165 30.65305Z" fill="#000"/>
<path d="M97.337166 49.727474L97.337166 43.325684L95.23308 43.8629L95.23308 39.38612L97.337166 38.80414L97.337166 30.029657L98.72496 30.029657L98.72496 38.446L101.7244 37.729713L101.7244 29L103.112206 29L103.112206 37.37157L105.305824 36.879128L105.305824 41.311134L103.112206 41.937885L103.112206 48.339676L105.305824 47.80246L105.305824 52.41354L103.112206 52.950756L103.112206 61.367096L101.7244 61.367096L101.7244 53.308895L98.72496 54.114716L98.72496 62.84443L97.337166 62.84443L97.337166 54.428093L95.23308 54.965305L95.23308 50.354225L97.337166 49.727474ZM101.7244 48.65305L101.7244 42.20649L98.72496 42.967545L98.72496 49.36933L101.7244 48.65305Z" fill="#000"/>
<path d="M141.63052 37.33184Q139.61597 37.33184,138.33589 36.38752Q137.05582 35.4432,137.05582 33.512592Q137.05582 31.372131,138.25195 29.672356Q139.44809 27.97258,141.3787 26.98629Q143.30931 26,145.49173 26Q147.33841 26,148.42963 26.98629Q149.52084 27.97258,149.52084 29.777279Q149.52084 31.8338,148.42963 33.55456Q147.33841 35.275322,145.55469 36.30358Q143.77098 37.33184,141.63052 37.33184ZM138.189 34.519867Q138.189 34.939564,138.50377 35.275322Q138.81854 35.61108,139.36415 35.61108Q140.83308 35.61108,143.01552 34.393955Q144.48447 33.55456,145.6806 32.526302Q146.87674 31.498041,147.59023 30.469782Q148.30371 29.44152,148.30371 28.728035Q148.30371 28.266369,148.07288 27.951595Q147.84204 27.636822,147.25447 27.636822Q146.45705 27.636822,145.32385 28.140457Q144.19067 28.644096,142.95256 29.44152Q141.71446 30.238947,140.62325 31.183268Q139.53203 32.127586,138.8605 33.008953Q138.189 33.89032,138.189 34.519867Z" fill="#000"/>
<path d="M130.88054 31.33184Q128.86598 31.33184,127.58591 30.387522Q126.305824 29.443201,126.305824 27.51259Q126.305824 25.372131,127.50196 23.672356Q128.6981 21.97258,130.62871 20.98629Q132.55933 20,134.74174 20Q136.58842 20,137.67964 20.98629Q138.77084 21.97258,138.77084 23.777279Q138.77084 25.8338,137.67964 27.55456Q136.58842 29.275322,134.8047 30.303581Q133.021 31.33184,130.88054 31.33184ZM127.43901 28.519865Q127.43901 28.939564,127.753784 29.275322Q128.06856 29.61108,128.61417 29.61108Q130.0831 29.61108,132.26553 28.393955Q133.73448 27.55456,134.93062 26.5263Q136.12675 25.498041,136.84024 24.469782Q137.55373 23.44152,137.55373 22.728035Q137.55373 22.266369,137.32289 21.951595Q137.09206 21.636822,136.50449 21.636822Q135.70706 21.636822,134.57387 22.140457Q133.44069 22.644096,132.20258 23.44152Q130.96448 24.238947,129.87326 25.183268Q128.78204 26.127588,128.11052 27.008953Q127.43901 27.890318,127.43901 28.519865Z" fill="#000"/>
<path d="M141.63052 25.33184Q139.61597 25.33184,138.33589 24.387522Q137.05582 23.443201,137.05582 21.51259Q137.05582 19.372131,138.25195 17.672356Q139.44809 15.972579,141.3787 14.986289Q143.30931 13.999999,145.49173 13.999999Q147.33841 13.999999,148.42963 14.986289Q149.52084 15.972579,149.52084 17.777279Q149.52084 19.8338,148.42963 21.55456Q147.33841 23.275322,145.55469 24.303581Q143.77098 25.33184,141.63052 25.33184ZM138.189 22.519865Q138.189 22.939564,138.50377 23.275322Q138.81854 23.61108,139.36415 23.61108Q140.83308 23.61108,143.01552 22.393955Q144.48447 21.55456,145.6806 20.5263Q146.87674 19.498041,147.59023 18.469782Q148.30371 17.44152,148.30371 16.728035Q148.30371 16.266369,148.07288 15.951594Q147.84204 15.636821,147.25447 15.636821Q146.45705 15.636821,145.32385 16.140457Q144.19067 16.644096,142.95256 17.44152Q141.71446 18.238947,140.62325 19.183268Q139.53203 20.127588,138.8605 21.008953Q138.189 21.890318,138.189 22.519865Z" fill="#000"/>
<line stroke="#000" stroke-width="1.5" x1="137.80582237243652" x2="137.80582237243652" y1="-16" y2="32"/>
<path d="M289.78714 44.005596L291.17493 44.005596L291.17493 61.465027Q292.83133 59.808617,294.93542 59.808617Q296.36798 59.808617,297.53195 60.771126Q298.69592 61.73363,298.69592 63.56911Q298.69592 65.00168,297.84534 66.21041Q296.99475 67.419136,295.56216 68.62787L292.4732 71.269165Q291.6226 71.98545,290.95108 72.67935Q290.27957 73.37325,289.78714 74L289.78714 44.005596ZM291.17493 71.00056Q292.3389 69.74706,293.1447 68.69502Q293.95053 67.642975,294.3982 66.83716Q294.89066 65.98657,295.13687 65.27029Q295.3831 64.554,295.3831 63.927254Q295.3831 62.673756,294.80112 62.11416Q294.21915 61.55456,293.5476 61.55456Q292.83133 61.55456,292.13742 62.06939Q291.44354 62.58422,291.17493 63.479576L291.17493 71.00056Z" fill="#000"/>
<path d="M313.27063 85.33184Q311.2561 85.33184,309.976 84.38752Q308.69592 83.4432,308.69592 81.51259Q308.69592 79.37213,309.89206 77.672356Q311.0882 75.97258,313.01883 74.98629Q314.94943 74,317.13187 74Q318.97852 74,320.06973 74.98629Q321.16095 75.97258,321.16095 77.77728Q321.16095 79.8338,320.06973 81.55456Q318.97852 83.27532,317.19482 84.30358Q315.4111 85.33184,313.27063 85.33184Z" fill="#000"/>
<path d="M313.27063 73.33184Q311.2561 73.33184,309.976 72.38752Q308.69592 71.4432,308.69592 69.51259Q308.69592 67.37213,309.89206 65.672356Q311.0882 63.97258,313.01883 62.98629Q314.94943 62,317.13187 62Q318.97852 62,320.06973 62.98629Q321.16095 63.97258,321.16095 65.77728Q321.16095 67.8338,320.06973 69.55456Q318.97852 71.27532,317.19482 72.30358Q315.4111 73.33184,313.27063 73.33184Z" fill="#000"/>
<path d="M313.27063 61.33184Q311.2561 61.33184,309.976 60.38752Q308.69592 59.4432,308.69592 57.512592Q308.69592 55.37213,309.89206 53.672356Q311.0882 51.97258,313.01883 50.98629Q314.94943 50,317.13187 50Q318.97852 50,320.06973 50.98629Q321.16095 51.97258,321.16095 53.77728Q321.16095 55.8338,320.06973 57.55456Q318.97852 59.275322,317.19482 60.30358Q315.4111 61.33184,313.27063 61.33184Z" fill="#000"/>
<line stroke="#000" stroke-width="1.5" x1="303.6959300041199" x2="325.1959300041199" y1="68" y2="68"/>
<line stroke="#000" stroke-width="1.5" x1="303.6959300041199" x2="325.1959300041199" y1="80" y2="80"/>
<line stroke="#000" stroke-width="1.5" x1="320.1959300041199" x2="320.1959300041199" y1="20" y2="80"/>
<path d="M390.66565 23.805262L390.66565 17.40347L388.56158 17.940683L388.56158 13.463906L390.66565 12.881926L390.66565 4.107443L392.05347 4.107443L392.05347 12.523784L395.0529 11.807499L395.0529 3.0777855L396.4407 3.0777855L396.4407 11.449357L398.6343 10.956912L398.6343 15.388921L396.4407 16.01567L396.4407 22.41746L398.6343 21.880247L398.6343 26.491327L396.4407 27.02854L396.4407 35.44488L395.0529 35.44488L395.0529 27.386683L392.05347 28.192501L392.05347 36.92222L390.66565 36.92222L390.66565 28.505877L388.56158 29.043089L388.56158 24.43201L390.66565 23.805262ZM395.0529 22.730835L395.0529 16.284275L392.05347 17.045328L392.05347 23.447119L395.0529 22.730835Z" fill="#000"/>
<path d="M408.20905 73.33184Q406.19452 73.33184,404.91443 72.38752Q403.63434 71.4432,403.63434 69.51259Q403.63434 67.37213,404.83047 65.672356Q406.0266 63.97258,407.95724 62.98629Q409.88785 62,412.07028 62Q413.91693 62,415.00815 62.98629Q416.09937 63.97258,416.09937 65.77728Q416.09937 67.8338,415.00815 69.55456Q413.91693 71.27532,412.13324 72.30358Q410.34952 73.33184,408.20905 73.33184Z" fill="#000"/>
<path d="M408.20905 61.33184Q406.19452 61.33184,404.91443 60.38752Q403.63434 59.4432,403.63434 57.512592Q403.63434 55.37213,404.83047 53.672356Q406.0266 51.97258,407.95724 50.98629Q409.88785 50,412.07028 50Q413.91693 50,415.00815 50.98629Q416.09937 51.97258,416.09937 53.77728Q416.09937 55.8338,415.00815 57.55456Q413.91693 59.275322,412.13324 60.30358Q410.34952 61.33184,408.20905 61.33184Z" fill="#000"/>
<path d="M408.20905 25.33184Q406.19452 25.33184,404.91443 24.387522Q403.63434 23.443201,403.63434 21.51259Q403.63434 19.372131,404.83047 17.672356Q406.0266 15.972579,407.95724 14.986289Q409.88785 13.999999,412.07028 13.999999Q413.91693 13.999999,415.00815 14.986289Q416.09937 15.972579,416.09937 17.777279Q416.09937 19.8338,415.00815 21.55456Q413.91693 23.275322,412.13324 24.303581Q410.34952 25.33184,408.20905 25.33184Z" fill="#000"/>
<line stroke="#000" stroke-width="1.5" x1="415.134339094162" x2="415.134339094162" y1="-16" y2="68"/>
<line stroke="#000" stroke-width="1.5" x1="21.5" x2="490" y1="20" y2="20"/>
<line stroke="#000" stroke-width="1.5" x1="21.5" x2="490" y1="32" y2="32"/>
<line stroke="#000" stroke-width="1.5" x1="21.5" x2="490" y1="44" y2="44"/>
<line stroke="#000" stroke-width="1.5" x1="21.5" x2="490" y1="56" y2="56"/>
<line stroke="#000" stroke-width="1.5" x1="21.5" x2="490" y1="68" y2="68"/>
<line stroke="#000" stroke-width="1.5" x1="21.5" x2="21.5" y1="19.25" y2="68.75"/>
<line stroke="#000" stroke-width="1.5" x1="490.75" x2="490.75" y1="19.25" y2="68.75"/>
<path d="M500.75 99L502.1378 99L502.1378 116.459435Q503.7942 114.803024,505.8983 114.803024Q507.33084 114.803024,508.4948 115.76553Q509.65878 116.72804,509.65878 118.563515Q509.65878 119.996086,508.8082 121.20482Q507.95758 122.41354,506.52502 123.62228L503.43607 126.26357Q502.58545 126.97986,501.91394 127.67376Q501.24243 128.36766,500.75 128.99442L500.75 99ZM502.1378 125.994965Q503.30176 124.74147,504.10757 123.68943Q504.9134 122.63738,505.36105 121.831566Q505.85352 120.98098,506.09973 120.264694Q506.34595 119.54841,506.34595 118.92166Q506.34595 117.66817,505.76398 117.10857Q505.182 116.548965,504.51047 116.548965Q503.7942 116.548965,503.10028 117.0638Q502.4064 117.57863,502.1378 118.47398L502.1378 125.994965Z" fill="#000"/>
<path d="M510.65878 123L512.0466 123L512.0466 140.45943Q513.703 138.80302,515.80707 138.80302Q517.2396 138.80302,518.40356 139.76553Q519.56757 140.72804,519.56757 142.56352Q519.56757 143.9961,518.717 145.20482Q517.8664 146.41354,516.43384 147.62227L513.34485 150.26358Q512.49426 150.97986,511.82272 151.67375Q511.1512 152.36766,510.65878 152.99442L510.65878 123ZM512.0466 149.99496Q513.2105 148.74147,514.01636 147.68942Q514.82214 146.63739,515.26984 145.83156Q515.76227 144.98097,516.00854 144.2647Q516.25476 143.54842,516.25476 142.92166Q516.25476 141.66817,515.6727 141.10857Q515.09076 140.54897,514.41925 140.54897Q513.703 140.54897,513.0091 141.0638Q512.3152 141.57863,512.0466 142.47398L512.0466 149.99496Z" fill="#000"/>
<path d="M520.56757 105L521.9553 105L521.9553 122.459435Q523.61176 120.803024,525.7158 120.803024Q527.14844 120.803024,528.3124 121.76553Q529.4763 122.72804,529.4763 124.563515Q529.4763 125.996086,528.62573 127.20482Q527.77515 128.41354,526.3426 129.62227L523.2536 132.26358Q522.403 132.97986,521.7315 133.67375Q521.06 134.36766,520.56757 134.99442L520.56757 105ZM521.9553 131.99496Q523.1193 130.74147,523.9251 129.68942Q524.73096 128.63739,525.17865 127.831566Q525.6711 126.98098,525.9173 126.264694Q526.1635 125.54841,526.1635 124.92166Q526.1635 123.66817,525.58154 123.10857Q524.9996 122.548965,524.32806 122.548965Q523.61176 122.548965,522.91785 123.0638Q522.22394 123.57863,521.9553 124.47398L521.9553 131.99496Z" fill="#000"/>
<path d="M530.4764 129L531.86414 129L531.86414 146.45943Q533.52057 144.80302,535.62463 144.80302Q537.05725 144.80302,538.2212 145.76553Q539.38513 146.72804,539.38513 148.56352Q539.38513 149.9961,538.53455 151.20482Q537.68396 152.41354,536.2514 153.62227L533.1624 156.26358Q532.3118 156.97986,531.6403 157.67375Q530.9688 158.36766,530.4764 158.99442L530.4764 129ZM531.86414 155.99496Q533.02814 154.74147,533.8339 153.68942Q534.6398 152.63739,535.08746 151.83156Q535.5799 150.98097,535.8261 150.2647Q536.0723 149.54842,536.0723 148.92166Q536.0723 147.66817,535.49036 147.10857Q534.9084 146.54897,534.2369 146.54897Q533.52057 146.54897,532.82666 147.0638Q532.13275 147.57863,531.86414 148.47398L531.86414 155.99496Z" fill="#000"/>
<path d="M540.38513 111L541.7729 111L541.7729 128.45943Q543.4293 126.803024,545.5334 126.803024Q546.966 126.803024,548.12994 127.76553Q549.2939 128.72804,549.2939 130.56352Q549.2939 131.9961,548.4433 133.20482Q547.5927 134.41354,546.16016 135.62227L543.07117 138.26358Q542.2206 138.97986,541.5491 139.67375Q540.87756 140.36766,540.38513 140.99442L540.38513 111ZM541.7729 137.99496Q542.9369 136.74147,543.7427 135.68942Q544.5485 134.63739,544.9962 133.83156Q545.48865 132.98097,545.73486 132.2647Q545.9811 131.54842,545.9811 130.92166Q545.9811 129.66817,545.3991 129.10857Q544.81714 128.54897,544.1456 128.54897Q543.4293 128.54897,542.7354 129.0638Q542.0415 129.57863,541.7729 130.47398L541.7729 137.99496Z" fill="#000"/>
<path d="M574.86865 125.33184Q572.85406 125.33184,571.574 124.38752Q570.29395 123.4432,570.29395 121.51259Q570.29395 119.37213,571.49005 117.672356Q572.6862 115.97258,574.6168 114.98629Q576.5474 114,578.72986 114Q580.57654 114,581.6677 114.98629Q582.759 115.97258,582.759 117.77728Q582.759 119.8338,581.6677 121.55456Q580.57654 123.27532,578.7928 124.30358Q577.0091 125.33184,574.86865 125.33184Z" fill="#000"/>
<line stroke="#000" stroke-width="1.5" x1="571.0439291000366" x2="571.0439291000366" y1="121.5" y2="156"/>
<path d="M622.5933 137.33185Q620.57874 137.33185,619.29865 136.38753Q618.0186 135.4432,618.0186 133.51259Q618.0186 131.37213,619.2147 129.67236Q620.4109 127.97258,622.3415 126.98629Q624.2721 126,626.4545 126Q628.3012 126,629.3924 126.98629Q630.48364 127.97258,630.48364 129.77728Q630.48364 131.8338,629.3924 133.55457Q628.3012 135.27531,626.51746 136.30359Q624.73376 137.33185,622.5933 137.33185ZM619.1518 134.51987Q619.1518 134.93956,619.46655 135.27531Q619.7813 135.61108,620.3269 135.61108Q621.7959 135.61108,623.97833 134.39395Q625.44727 133.55457,626.6434 132.5263Q627.83954 131.49805,628.55304 130.46979Q629.2665 129.44153,629.2665 128.72803Q629.2665 128.26637,629.03564 127.95159Q628.8048 127.63682,628.2172 127.63682Q627.4198 127.63682,626.2866 128.14046Q625.15344 128.64409,623.91534 129.44153Q622.67725 130.23895,621.586 131.18327Q620.4948 132.1276,619.8233 133.00896Q619.1518 133.89032,619.1518 134.51987Z" fill="#000"/>
<line stroke="#000" stroke-width="1.5" x1="618.7685897350311" x2="618.7685897350311" y1="133.5" y2="168"/>
<path d="M708.7926 161.33185Q706.778 161.33185,705.4979 160.38753Q704.2179 159.4432,704.2179 157.51259Q704.2179 155.37213,705.414 153.67236Q706.61017 151.97258,708.5408 150.98628Q710.4714 150,712.6538 150Q714.5005 150,715.5917 150.98628Q716.6829 151.97258,716.6829 153.77728Q716.6829 155.8338,715.5917 157.55457Q714.5005 159.27531,712.71674 160.30359Q710.93304 161.33185,708.7926 161.33185Z" fill="#000"/>
<path d="M698.0426 155.33185Q696.028 155.33185,694.7479 154.38753Q693.4679 153.4432,693.4679 151.51259Q693.4679 149.37213,694.664 147.67236Q695.86017 145.97258,697.7908 144.98628Q699.7214 144,701.9038 144Q703.7505 144,704.8417 144.98628Q705.9329 145.97258,705.9329 147.77728Q705.9329 149.8338,704.8417 151.55457Q703.7505 153.27531,701.96674 154.30359Q700.18304 155.33185,698.0426 155.33185Z" fill="#000"/>
<path d="M708.7926 149.33185Q706.778 149.33185,705.4979 148.38753Q704.2179 147.4432,704.2179 145.51259Q704.2179 143.37213,705.414 141.67236Q706.61017 139.97258,708.5408 138.98628Q710.4714 138,712.6538 138Q714.5005 138,715.5917 138.98628Q716.6829 139.97258,716.6829 141.77728Q716.6829 143.8338,715.5917 145.55457Q714.5005 147.27531,712.71674 148.30359Q710.93304 149.33185,708.7926 149.33185Z" fill="#000"/>
<line stroke="#000" stroke-width="1.5" x1="704.9679110050201" x2="704.9679110050201" y1="108" y2="156"/>
<line stroke="#000" stroke-width="1.5" x1="490.75" x2="776.4425716400146" y1="120" y2="120"/>
<line stroke="#000" stroke-width="1.5" x1="490.75" x2="776.4425716400146" y1="132" y2="132"/>
<line stroke="#000" stroke-width="1.5" x1="490.75" x2="776.4425716400146" y1="144" y2="144"/>
<line stroke="#000" stroke-width="1.5" x1="490.75" x2="776.4425716400146" y1="156" y2="156"/>
<line stroke="#000" stroke-width="1.5" x1="490.75" x2="776.4425716400146" y1="168" y2="168"/>
<line stroke="#000" stroke-width="1.5" x1="490.75" x2="490.75" y1="119.25" y2="168.75"/>
<line stroke="#000" stroke-width="1.5" x1="777.1925716400146" x2="777.1925716400146" y1="119.25" y2="168.75"/>
<path d="M791.7673 155.33185Q789.7527 155.33185,788.4726 154.38753Q787.19257 153.4432,787.19257 151.51259Q787.19257 149.37213,788.3887 147.67236Q789.58484 145.97258,791.51544 144.98628Q793.44604 144,795.6285 144Q797.47516 144,798.56635 144.98628Q799.6576 145.97258,799.6576 147.77728Q799.6576 149.8338,798.56635 151.55457Q797.47516 153.27531,795.6914 154.30359Q793.9077 155.33185,791.7673 155.33185ZM788.32574 152.51987Q788.32574 152.93956,788.6405 153.27531Q788.95526 153.61108,789.50085 153.61108Q790.96985 153.61108,793.1523 152.39395Q794.6212 151.55457,795.8173 150.5263Q797.0135 149.49805,797.727 148.46979Q798.4404 147.44153,798.4404 146.72803Q798.4404 146.26637,798.2096 145.9516Q797.97876 145.63683,797.3912 145.63683Q796.59375 145.63683,795.4606 146.14046Q794.3274 146.64409,793.0893 147.44153Q791.8512 148.23895,790.75995 149.18327Q789.66876 150.1276,788.99725 151.00896Q788.32574 151.89032,788.32574 152.51987Z" fill="#000"/>
<line stroke="#000" stroke-width="1.5" x1="787.9425716400146" x2="787.9425716400146" y1="151.5" y2="186"/>
<path d="M862.6419 120.0056L864.02966 120.0056L864.02966 137.46503Q865.6861 135.80862,867.79016 135.80862Q869.2228 135.80862,870.3867 136.77113Q871.55066 137.73364,871.55066 139.56912Q871.55066 141.0017,870.7001 142.21042Q869.8495 143.41914,868.41693 144.62787L865.32794 147.26918Q864.47736 147.98546,863.80585 148.67935Q863.13434 149.37326,862.6419 150.00002L862.6419 120.0056ZM864.02966 147.00056Q865.19366 145.74707,865.99945 144.69502Q866.8053 143.64299,867.253 142.83716Q867.7454 141.98657,867.99164 141.2703Q868.23785 140.55402,868.23785 139.92726Q868.23785 138.67377,867.6559 138.11417Q867.0739 137.55457,866.4024 137.55457Q865.6861 137.55457,864.9922 138.0694Q864.2983 138.58423,864.02966 139.47958L864.02966 147.00056Z" fill="#000"/>
<path d="M879.45874 149.33185Q877.44415 149.33185,876.16406 148.38753Q874.88403 147.4432,874.88403 145.51259Q874.88403 143.37213,876.08014 141.67236Q877.2763 139.97258,879.2069 138.98628Q881.1375 138,883.31995 138Q885.1666 138,886.2578 138.98628Q887.34906 139.97258,887.34906 141.77728Q887.34906 143.8338,886.2578 145.55457Q885.1666 147.27531,883.3829 148.30359Q881.5992 149.33185,879.45874 149.33185ZM876.0172 146.51987Q876.0172 146.93956,876.332 147.27531Q876.6467 147.61108,877.1923 147.61108Q878.6613 147.61108,880.84375 146.39395Q882.3127 145.55457,883.5088 144.5263Q884.70496 143.49805,885.41846 142.46979Q886.1319 141.44153,886.1319 140.72803Q886.1319 140.26637,885.90106 139.9516Q885.6702 139.63683,885.08264 139.63683Q884.2852 139.63683,883.15204 140.14046Q882.01886 140.64409,880.78076 141.44153Q879.54266 142.23895,878.4514 143.18327Q877.3602 144.1276,876.6887 145.00896Q876.0172 145.89032,876.0172 146.51987Z" fill="#000"/>
<line stroke="#000" stroke-width="1.5" x1="875.6340120633444" x2="875.6340120633444" y1="145.5" y2="180"/>
<line stroke="#000" stroke-width="1.5" x1="777.1925716400146" x2="958.5" y1="120" y2="120"/>
<line stroke="#000" stroke-width="1.5" x1="777.1925716400146" x2="958.5" y1="132" y2="132"/>
<line stroke="#000" stroke-width="1.5" x1="777.1925716400146" x2="958.5" y1="144" y2="144"/>
<line stroke="#000" stroke-width="1.5" x1="777.1925716400146" x2="958.5" y1="156" y2="156"/>
<line stroke="#000" stroke-width="1.5" x1="777.1925716400146" x2="958.5" y1="168" y2="168"/>
<line stroke="#000" stroke-width="1.5" x1="959.25" x2="959.25" y1="119.25" y2="168.75"/>
<path d="M978.114 231.89592Q977.644 230.11641,977.3418 228.37047Q977.0396 226.62451,977.0396 224.81143Q977.0396 223.23337,977.2579 221.83997Q977.4761 220.44656,977.879 219.27142Q978.3155 217.92838,979.02057 216.73643Q979.72565 215.5445,980.5147 214.77225Q981.3037 214.00002,981.9081 214.00002Q982.7139 214.00002,984.1241 216.85396Q984.8292 218.29771,985.165 219.9765Q985.50073 221.6553,985.50073 223.56912Q985.50073 225.953,984.8628 228.3201Q984.22485 230.6872,982.9993 232.76889Q981.7738 234.8506,980.06146 236.42867L981.2366 242.0694Q981.74023 242.00224,982.076 241.96867Q982.41174 241.93509,982.57965 241.93509Q984.62775 241.93509,986.2394 243.09346Q987.851 244.25183,988.8079 246.13208Q989.76483 248.01233,989.76483 250.2619Q989.76483 252.84724,988.4386 254.91216Q987.11237 256.97708,984.45984 257.95078Q984.62775 258.52155,985.4336 262.71854Q985.635 263.7258,985.7358 264.3134Q985.8365 264.90097,985.87006 265.33743Q985.9036 265.77393,985.9036 266.34473Q985.9036 268.0235,985.081 269.34976Q984.2584 270.676,982.865 271.41467Q981.4716 272.15335,979.7593 272.15335Q978.0133 272.15335,976.6703 271.4986Q975.3273 270.84387,974.555 269.68552Q973.7828 268.52716,973.7828 267.01624Q973.7828 265.4046,974.6725 264.33017Q975.56226 263.25574,977.2075 263.25574Q978.6177 263.25574,979.50745 264.27982Q980.3972 265.30386,980.3972 266.71405Q980.3972 267.9228,979.5578 268.82935Q978.7184 269.73587,977.37537 269.73587L977.0396 269.73587Q977.9126 271.04535,979.79285 271.04535Q982.10956 271.04535,983.419 269.53442Q984.72845 268.0235,984.72845 265.67322Q984.72845 265.10242,984.5942 264.1455Q984.45984 263.1886,984.1241 261.84555Q983.7883 260.50253,983.6037 259.62955Q983.419 258.7566,983.35187 258.38724Q982.21027 258.72302,980.6658 258.72302Q977.77826 258.72302,975.0251 257.04422Q972.339 255.36543,970.7945 252.61221Q969.25 249.859,969.25 246.66928Q969.25 243.64746,970.62665 240.99498Q972.00323 238.34248,974.03455 236.12648Q976.0659 233.91048,978.114 231.89592ZM979.02057 231.05653Q979.79285 230.65363,980.6658 229.56241Q981.53876 228.47119,982.3446 227.061Q983.1504 225.65082,983.65405 224.22385Q984.1577 222.79688,984.1577 221.6553Q984.1577 220.44656,983.7883 219.74149Q983.419 219.03638,982.51245 219.03638Q981.70667 219.03638,980.9512 219.77505Q980.19574 220.51372,979.60815 221.73924Q979.02057 222.96475,978.6848 224.47566Q978.34906 225.98657,978.34906 227.56464Q978.34906 228.63907,978.5673 229.51204Q978.7856 230.38501,979.02057 231.05653ZM980.9344 246.06493Q980.02783 246.26637,979.22205 246.92111Q978.4162 247.57584,977.9294 248.49918Q977.4425 249.4225,977.4425 250.46335Q977.4425 251.30275,977.879 252.1925Q978.3155 253.08228,978.9534 253.61948Q979.3899 254.0224,979.8264 254.22385Q980.33 254.45888,980.33 254.66034Q980.33 254.76106,979.99426 254.86179Q978.7184 254.5596,977.69434 253.72021Q976.6703 252.88081,976.0827 251.68887Q975.4951 250.49693,975.4951 249.1539Q975.4951 247.71014,976.0827 246.36711Q976.6703 245.02408,977.7279 243.94965Q978.7856 242.87521,980.1286 242.33801L979.1549 237.26805Q975.2601 240.42418,973.43024 243.4628Q971.60034 246.5014,971.60034 249.48965Q971.60034 251.67209,972.7419 253.55234Q973.8835 255.43257,975.86444 256.59094Q977.84546 257.7493,980.33 257.7493Q981.0016 257.7493,981.6899 257.61502Q982.3782 257.4807,983.1504 257.27924L980.9344 246.06493ZM984.1913 256.94348Q987.4817 255.53331,987.4817 251.16844Q987.4817 249.72469,986.74304 248.53275Q986.00433 247.3408,984.762 246.63571Q983.5198 245.93062,981.9753 245.93062L984.1913 256.94348Z" fill="#000"/>
<path d="M1001.8689 237.72748L1001.8689 231.32568L999.76483 231.8629L999.76483 227.38612L1001.8689 226.80414L1001.8689 218.02965L1003.2567 218.02965L1003.2567 226.446L1006.25616 225.7297L1006.25616 217L1007.6439 217L1007.6439 225.37157L1009.8376 224.87912L1009.8376 229.31113L1007.6439 229.93788L1007.6439 236.33968L1009.8376 235.80246L1009.8376 240.41354L1007.6439 240.95074L1007.6439 249.3671L1006.25616 249.3671L1006.25616 241.3089L1003.2567 242.11472L1003.2567 250.84442L1001.8689 250.84442L1001.8689 242.42809L999.76483 242.9653L999.76483 238.35422L1001.8689 237.72748ZM1006.25616 236.65305L1006.25616 230.20648L1003.2567 230.96754L1003.2567 237.36932L1006.25616 236.65305Z" fill="#000"/>
<path d="M1012.94165 255.7275L1012.94165 249.3257L1010.8376 249.86292L1010.8376 245.38614L1012.94165 244.80415L1012.94165 236.02966L1014.32947 236.02966L1014.32947 244.44601L1017.3289 243.72972L1017.3289 235.00002L1018.7167 235.00002L1018.7167 243.37158L1020.91034 242.87914L1020.91034 247.31114L1018.7167 247.9379L1018.7167 254.33969L1020.91034 253.80247L1020.91034 258.41354L1018.7167 258.95078L1018.7167 267.3671L1017.3289 267.3671L1017.3289 259.3089L1014.32947 260.11472L1014.32947 268.84445L1012.94165 268.84445L1012.94165 260.4281L1010.8376 260.9653L1010.8376 256.35425L1012.94165 255.7275ZM1017.3289 254.65306L1017.3289 248.2065L1014.32947 248.96756L1014.32947 255.36934L1017.3289 254.65306Z" fill="#000"/>
<path d="M1024.0144 231.72748L1024.0144 225.32568L1021.91034 225.8629L1021.91034 221.38612L1024.0144 220.80414L1024.0144 212.02965L1025.4022 212.02965L1025.4022 220.446L1028.4016 219.7297L1028.4016 211L1029.7894 211L1029.7894 219.37157L1031.983 218.87912L1031.983 223.31113L1029.7894 223.93788L1029.7894 230.33968L1031.983 229.80246L1031.983 234.41354L1029.7894 234.95074L1029.7894 243.3671L1028.4016 243.3671L1028.4016 235.3089L1025.4022 236.11472L1025.4022 244.84442L1024.0144 244.84442L1024.0144 236.42809L1021.91034 236.9653L1021.91034 232.35422L1024.0144 231.72748ZM1028.4016 230.65305L1028.4016 224.20648L1025.4022 224.96754L1025.4022 231.36932L1028.4016 230.65305Z" fill="#000"/>
<path d="M1035.0872 249.72748L1035.0872 243.32568L1032.983 243.8629L1032.983 239.38612L1035.0872 238.80414L1035.0872 230.02965L1036.4749 230.02965L1036.4749 238.446L1039.4744 237.7297L1039.4744 229L1040.8622 229L1040.8622 237.37157L1043.0558 236.87912L1043.0558 241.31113L1040.8622 241.93788L1040.8622 248.33968L1043.0558 247.80246L1043.0558 252.41354L1040.8622 252.95074L1040.8622 261.3671L1039.4744 261.3671L1039.4744 253.3089L1036.4749 254.11472L1036.4749 262.84442L1035.0872 262.84442L1035.0872 254.42809L1032.983 254.9653L1032.983 250.35422L1035.0872 249.72748ZM1039.4744 248.65305L1039.4744 242.20648L1036.4749 242.96754L1036.4749 249.36932L1039.4744 248.65305Z" fill="#000"/>
<path d="M1079.3805 237.33185Q1077.366 237.33185,1076.0858 236.38753Q1074.8058 235.4432,1074.8058 233.51259Q1074.8058 231.37213,1076.002 229.67236Q1077.198 227.97258,1079.1287 226.98628Q1081.0592 226,1083.2417 226Q1085.0884 226,1086.1796 226.98628Q1087.2708 227.97258,1087.2708 229.77728Q1087.2708 231.8338,1086.1796 233.55457Q1085.0884 235.27531,1083.3047 236.30359Q1081.5209 237.33185,1079.3805 237.33185ZM1075.939 234.51987Q1075.939 234.93956,1076.2537 235.27531Q1076.5685 235.61108,1077.1141 235.61108Q1078.583 235.61108,1080.7655 234.39395Q1082.2344 233.55457,1083.4305 232.5263Q1084.6267 231.49805,1085.3402 230.46979Q1086.0537 229.44153,1086.0537 228.72803Q1086.0537 228.26637,1085.8229 227.9516Q1085.592 227.63683,1085.0044 227.63683Q1084.207 227.63683,1083.0739 228.14046Q1081.9407 228.64409,1080.7025 229.44153Q1079.4644 230.23895,1078.3732 231.18327Q1077.282 232.1276,1076.6105 233.00896Q1075.939 233.89032,1075.939 234.51987Z" fill="#000"/>
<path d="M1068.6305 231.33185Q1066.616 231.33185,1065.3358 230.38753Q1064.0558 229.4432,1064.0558 227.51259Q1064.0558 225.37213,1065.252 223.67236Q1066.448 221.97258,1068.3787 220.98628Q1070.3092 220,1072.4917 220Q1074.3384 220,1075.4296 220.98628Q1076.5208 221.97258,1076.5208 223.77728Q1076.5208 225.8338,1075.4296 227.55457Q1074.3384 229.27531,1072.5547 230.30359Q1070.7709 231.33185,1068.6305 231.33185ZM1065.189 228.51987Q1065.189 228.93956,1065.5037 229.27531Q1065.8185 229.61108,1066.3641 229.61108Q1067.833 229.61108,1070.0155 228.39395Q1071.4844 227.55457,1072.6805 226.5263Q1073.8767 225.49805,1074.5902 224.46979Q1075.3037 223.44153,1075.3037 222.72803Q1075.3037 222.26637,1075.0729 221.9516Q1074.842 221.63683,1074.2544 221.63683Q1073.457 221.63683,1072.3239 222.14046Q1071.1907 222.64409,1069.9525 223.44153Q1068.7144 224.23895,1067.6232 225.18327Q1066.532 226.1276,1065.8605 227.00896Q1065.189 227.89032,1065.189 228.51987Z" fill="#000"/>
<path d="M1079.3805 225.33185Q1077.366 225.33185,1076.0858 224.38753Q1074.8058 223.4432,1074.8058 221.51259Q1074.8058 219.37213,1076.002 217.67236Q1077.198 215.97258,1079.1287 214.98628Q1081.0592 214,1083.2417 214Q1085.0884 214,1086.1796 214.98628Q1087.2708 215.97258,1087.2708 217.77728Q1087.2708 219.8338,1086.1796 221.55457Q1085.0884 223.27531,1083.3047 224.30359Q1081.5209 225.33185,1079.3805 225.33185ZM1075.939 222.51987Q1075.939 222.93956,1076.2537 223.27531Q1076.5685 223.61108,1077.1141 223.61108Q1078.583 223.61108,1080.7655 222.39395Q1082.2344 221.55457,1083.4305 220.5263Q1084.6267 219.49805,1085.3402 218.46979Q1086.0537 217.44153,1086.0537 216.72803Q1086.0537 216.26637,1085.8229 215.9516Q1085.592 215.63683,1085.0044 215.63683Q1084.207 215.63683,1083.0739 216.14046Q1081.9407 216.64409,1080.7025 217.44153Q1079.4644 218.23895,1078.3732 219.18327Q1077.282 220.1276,1076.6105 221.00896Q1075.939 221.89032,1075.939 222.51987Z" fill="#000"/>
<line stroke="#000" stroke-width="1.5" x1="1075.5558223724365" x2="1075.5558223724365" y1="184" y2="232"/>
<path d="M1227.5371 244.0056L1228.9249 244.0056L1228.9249 261.46503Q1230.5813 259.80862,1232.6854 259.80862Q1234.1179 259.80862,1235.2819 260.77112Q1236.4459 261.73364,1236.4459 263.56912Q1236.4459 265.00168,1235.5953 266.21042Q1234.7448 267.41916,1233.3121 268.62787L1230.2231 271.26917Q1229.3726 271.98547,1228.701 272.67935Q1228.0295 273.37326,1227.5371 274L1227.5371 244.0056ZM1228.9249 271.00058Q1230.0889 269.74707,1230.8947 268.69504Q1231.7004 267.64297,1232.1482 266.83716Q1232.6406 265.98657,1232.8868 265.2703Q1233.133 264.55402,1233.133 263.92725Q1233.133 262.67377,1232.551 262.11417Q1231.9691 261.55457,1231.2976 261.55457Q1230.5813 261.55457,1229.8875 262.0694Q1229.1935 262.58423,1228.9249 263.47958L1228.9249 271.00058Z" fill="#000"/>
<path d="M1251.0206 285.33185Q1249.0061 285.33185,1247.726 284.38754Q1246.4459 283.4432,1246.4459 281.5126Q1246.4459 279.37216,1247.6421 277.67236Q1248.8381 275.9726,1250.7688 274.9863Q1252.6993 274,1254.8818 274Q1256.7285 274,1257.8197 274.9863Q1258.9109 275.9726,1258.9109 277.77728Q1258.9109 279.8338,1257.8197 281.55457Q1256.7285 283.27533,1254.9448 284.3036Q1253.161 285.33185,1251.0206 285.33185Z" fill="#000"/>
<path d="M1251.0206 273.33185Q1249.0061 273.33185,1247.726 272.38754Q1246.4459 271.4432,1246.4459 269.5126Q1246.4459 267.37216,1247.6421 265.67236Q1248.8381 263.9726,1250.7688 262.9863Q1252.6993 262,1254.8818 262Q1256.7285 262,1257.8197 262.9863Q1258.9109 263.9726,1258.9109 265.77728Q1258.9109 267.8338,1257.8197 269.55457Q1256.7285 271.27533,1254.9448 272.3036Q1253.161 273.33185,1251.0206 273.33185Z" fill="#000"/>
<path d="M1251.0206 261.33185Q1249.0061 261.33185,1247.726 260.38754Q1246.4459 259.4432,1246.4459 257.5126Q1246.4459 255.37215,1247.6421 253.67236Q1248.8381 251.9726,1250.7688 250.9863Q1252.6993 250.00002,1254.8818 250.00002Q1256.7285 250.00002,1257.8197 250.9863Q1258.9109 251.9726,1258.9109 253.7773Q1258.9109 255.83382,1257.8197 257.55457Q1256.7285 259.27533,1254.9448 260.3036Q1253.161 261.33185,1251.0206 261.33185Z" fill="#000"/>
<line stroke="#000" stroke-width="1.5" x1="1241.4459300041199" x2="1262.9459300041199" y1="268" y2="268"/>
<line stroke="#000" stroke-width="1.5" x1="1241.4459300041199" x2="1262.9459300041199" y1="280" y2="280"/>
<line stroke="#000" stroke-width="1.5" x1="1257.9459300041199" x2="1257.9459300041199" y1="220" y2="280"/>
<path d="M1328.4158 223.80527L1328.4158 217.40347L1326.3116 217.94069L1326.3116 213.46391L1328.4158 212.88193L1328.4158 204.10744L1329.8035 204.10744L1329.8035 212.52379L1332.803 211.8075L1332.803 203.07779L1334.1908 203.07779L1334.1908 211.44936L1336.3844 210.95691L1336.3844 215.38892L1334.1908 216.01567L1334.1908 222.41747L1336.3844 221.88025L1336.3844 226.49133L1334.1908 227.02853L1334.1908 235.44489L1332.803 235.44489L1332.803 227.38669L1329.8035 228.1925L1329.8035 236.92221L1328.4158 236.92221L1328.4158 228.50587L1326.3116 229.04309L1326.3116 224.432L1328.4158 223.80527ZM1332.803 222.73083L1332.803 216.28427L1329.8035 217.04533L1329.8035 223.44711L1332.803 222.73083Z" fill="#000"/>
<path d="M1345.9591 273.33185Q1343.9446 273.33185,1342.6644 272.38754Q1341.3844 271.4432,1341.3844 269.5126Q1341.3844 267.37216,1342.5806 265.67236Q1343.7766 263.9726,1345.7073 262.9863Q1347.6378 262,1349.8203 262Q1351.667 262,1352.7582 262.9863Q1353.8494 263.9726,1353.8494 265.77728Q1353.8494 267.8338,1352.7582 269.55457Q1351.667 271.27533,1349.8833 272.3036Q1348.0995 273.33185,1345.9591 273.33185Z" fill="#000"/>
<path d="M1345.9591 261.33185Q1343.9446 261.33185,1342.6644 260.38754Q1341.3844 259.4432,1341.3844 257.5126Q1341.3844 255.37215,1342.5806 253.67236Q1343.7766 251.9726,1345.7073 250.9863Q1347.6378 250.00002,1349.8203 250.00002Q1351.667 250.00002,1352.7582 250.9863Q1353.8494 251.9726,1353.8494 253.7773Q1353.8494 255.83382,1352.7582 257.55457Q1351.667 259.27533,1349.8833 260.3036Q1348.0995 261.33185,1345.9591 261.33185Z" fill="#000"/>
<path d="M1345.9591 225.33185Q1343.9446 225.33185,1342.6644 224.38753Q1341.3844 223.4432,1341.3844 221.51259Q1341.3844 219.37213,1342.5806 217.67236Q1343.7766 215.97258,1345.7073 214.98628Q1347.6378 214,1349.8203 214Q1351.667 214,1352.7582 214.98628Q1353.8494 215.97258,1353.8494 217.77728Q1353.8494 219.8338,1352.7582 221.55457Q1351.667 223.27531,1349.8833 224.30359Q1348.0995 225.33185,1345.9591 225.33185Z" fill="#000"/>
<line stroke="#000" stroke-width="1.5" x1="1352.884339094162" x2="1352.884339094162" y1="184" y2="268"/>
<line stroke="#000" stroke-width="1.5" x1="959.25" x2="1427.75" y1="220" y2="220"/>
<line stroke="#000" stroke-width="1.5" x1="959.25" x2="1427.75" y1="232" y2="232"/>
<line stroke="#000" stroke-width="1.5" x1="959.25" x2="1427.75" y1="244" y2="244"/>
<line stroke="#000" stroke-width="1.5" x1="959.25" x2="1427.75" y1="256" y2="256"/>
<line stroke="#000" stroke-width="1.5" x1="959.25" x2="1427.75" y1="268" y2="268"/>
<line stroke="#000" stroke-width="1.5" x1="959.25" x2="959.25" y1="219.25" y2="268.75"/>
<line stroke="#000" stroke-width="1.5" x1="1428.5" x2="1428.5" y1="219.25" y2="268.75"/>
<path d="M1438.5 299L1439.8878 299L1439.8878 316.4594Q1441.5442 314.803,1443.6483 314.803Q1445.0808 314.803,1446.2448 315.7655Q1447.4088 316.72803,1447.4088 318.5635Q1447.4088 319.99606,1446.5582 321.2048Q1445.7076 322.41354,1444.275 323.62225L1441.186 326.26355Q1440.3354 326.97986,1439.664 327.67374Q1438.9924 328.36765,1438.5 328.9944L1438.5 299ZM1439.8878 325.99496Q1441.0518 324.74146,1441.8575 323.68942Q1442.6633 322.63736,1443.1111 321.83154Q1443.6035 320.98096,1443.8497 320.26468Q1444.096 319.5484,1444.096 318.92163Q1444.096 317.66815,1443.5139 317.10855Q1442.932 316.54895,1442.2605 316.54895Q1441.5442 316.54895,1440.8503 317.06378Q1440.1564 317.5786,1439.8878 318.47397L1439.8878 325.99496Z" fill="#000"/>
<path d="M1448.4088 323L1449.7966 323L1449.7966 340.4594Q1451.453 338.803,1453.5571 338.803Q1454.9896 338.803,1456.1536 339.7655Q1457.3176 340.72803,1457.3176 342.5635Q1457.3176 343.99606,1456.467 345.2048Q1455.6165 346.41354,1454.1838 347.62225L1451.0948 350.26355Q1450.2443 350.97986,1449.5728 351.67374Q1448.9012 352.36765,1448.4088 352.9944L1448.4088 323ZM1449.7966 349.99496Q1450.9606 348.74146,1451.7664 347.68942Q1452.5721 346.63736,1453.0199 345.83154Q1453.5123 344.98096,1453.7585 344.26468Q1454.0048 343.5484,1454.0048 342.92163Q1454.0048 341.66815,1453.4227 341.10855Q1452.8408 340.54895,1452.1693 340.54895Q1451.453 340.54895,1450.7592 341.06378Q1450.0652 341.5786,1449.7966 342.47397L1449.7966 349.99496Z" fill="#000"/>
<path d="M1458.3176 305L1459.7054 305L1459.7054 322.4594Q1461.3618 320.803,1463.466 320.803Q1464.8984 320.803,1466.0624 321.7655Q1467.2264 322.72803,1467.2264 324.5635Q1467.2264 325.99606,1466.3759 327.2048Q1465.5253 328.41354,1464.0927 329.62225L1461.0037 332.26355Q1460.1531 332.97986,1459.4816 333.67374Q1458.81 334.36765,1458.3176 334.9944L1458.3176 305ZM1459.7054 331.99496Q1460.8694 330.74146,1461.6752 329.68942Q1462.481 328.63736,1462.9287 327.83154Q1463.4211 326.98096,1463.6674 326.26468Q1463.9136 325.5484,1463.9136 324.92163Q1463.9136 323.66815,1463.3315 323.10855Q1462.7496 322.54895,1462.0781 322.54895Q1461.3618 322.54895,1460.668 323.06378Q1459.974 323.5786,1459.7054 324.47397L1459.7054 331.99496Z" fill="#000"/>
<path d="M1468.2263 329L1469.6141 329L1469.6141 346.4594Q1471.2705 344.803,1473.3746 344.803Q1474.8071 344.803,1475.9711 345.7655Q1477.1351 346.72803,1477.1351 348.5635Q1477.1351 349.99606,1476.2845 351.2048Q1475.434 352.41354,1474.0013 353.62225L1470.9124 356.26355Q1470.0618 356.97986,1469.3903 357.67374Q1468.7188 358.36765,1468.2263 358.9944L1468.2263 329ZM1469.6141 355.99496Q1470.7781 354.74146,1471.5839 353.68942Q1472.3896 352.63736,1472.8374 351.83154Q1473.3298 350.98096,1473.576 350.26468Q1473.8223 349.5484,1473.8223 348.92163Q1473.8223 347.66815,1473.2402 347.10855Q1472.6583 346.54895,1471.9868 346.54895Q1471.2705 346.54895,1470.5767 347.06378Q1469.8827 347.5786,1469.6141 348.47397L1469.6141 355.99496Z" fill="#000"/>
<path d="M1478.1351 311L1479.523 311L1479.523 328.4594Q1481.1793 326.803,1483.2834 326.803Q1484.716 326.803,1485.8799 327.7655Q1487.044 328.72803,1487.044 330.5635Q1487.044 331.99606,1486.1934 333.2048Q1485.3428 334.41354,1483.9102 335.62225L1480.8212 338.26355Q1479.9706 338.97986,1479.2991 339.67374Q1478.6276 340.36765,1478.1351 340.9944L1478.1351 311ZM1479.523 337.99496Q1480.6869 336.74146,1481.4927 335.68942Q1482.2985 334.63736,1482.7462 333.83154Q1483.2386 332.98096,1483.4849 332.26468Q1483.7311 331.5484,1483.7311 330.92163Q1483.7311 329.66815,1483.149 329.10855Q1482.5671 328.54895,1481.8956 328.54895Q1481.1793 328.54895,1480.4855 329.06378Q1479.7915 329.5786,1479.523 330.47397L1479.523 337.99496Z" fill="#000"/>
<path d="M1512.6187 325.33185Q1510.6041 325.33185,1509.324 324.38754Q1508.044 323.4432,1508.044 321.5126Q1508.044 319.37216,1509.2401 317.67236Q1510.4362 315.9726,1512.3668 314.9863Q1514.2974 314,1516.4799 314Q1518.3265 314,1519.4177 314.9863Q1520.5089 315.9726,1520.5089 317.77728Q1520.5089 319.8338,1519.4177 321.55457Q1518.3265 323.27533,1516.5428 324.3036Q1514.759 325.33185,1512.6187 325.33185Z" fill="#000"/>
<line stroke="#000" stroke-width="1.5" x1="1508.7939291000366" x2="1508.7939291000366" y1="321.5" y2="356"/>
<path d="M1560.3433 337.33185Q1558.3287 337.33185,1557.0486 336.38754Q1555.7686 335.4432,1555.7686 333.5126Q1555.7686 331.37216,1556.9647 329.67236Q1558.1608 327.9726,1560.0914 326.9863Q1562.022 326,1564.2045 326Q1566.0511 326,1567.1423 326.9863Q1568.2335 327.9726,1568.2335 329.77728Q1568.2335 331.8338,1567.1423 333.55457Q1566.0511 335.27533,1564.2675 336.3036Q1562.4836 337.33185,1560.3433 337.33185ZM1556.9017 334.51987Q1556.9017 334.93958,1557.2164 335.27533Q1557.5313 335.61108,1558.0769 335.61108Q1559.5458 335.61108,1561.7283 334.39398Q1563.1971 333.55457,1564.3933 332.5263Q1565.5895 331.49805,1566.303 330.4698Q1567.0165 329.44153,1567.0165 328.72806Q1567.0165 328.2664,1566.7856 327.9516Q1566.5548 327.63684,1565.9672 327.63684Q1565.1698 327.63684,1564.0366 328.14047Q1562.9034 328.6441,1561.6653 329.44153Q1560.4271 330.23895,1559.3359 331.1833Q1558.2448 332.1276,1557.5732 333.00897Q1556.9017 333.89032,1556.9017 334.51987Z" fill="#000"/>
<line stroke="#000" stroke-width="1.5" x1="1556.5185897350311" x2="1556.5185897350311" y1="333.5" y2="368"/>
<path d="M1646.5426 361.33185Q1644.5281 361.33185,1643.2479 360.38754Q1641.9679 359.4432,1641.9679 357.5126Q1641.9679 355.37216,1643.1641 353.67236Q1644.3601 351.9726,1646.2908 350.9863Q1648.2213 350,1650.4038 350Q1652.2505 350,1653.3417 350.9863Q1654.4329 351.9726,1654.4329 353.77728Q1654.4329 355.8338,1653.3417 357.55457Q1652.2505 359.27533,1650.4668 360.3036Q1648.683 361.33185,1646.5426 361.33185Z" fill="#000"/>
<path d="M1635.7926 355.33185Q1633.7781 355.33185,1632.4979 354.38754Q1631.2179 353.4432,1631.2179 351.5126Q1631.2179 349.37216,1632.4141 347.67236Q1633.6101 345.9726,1635.5408 344.9863Q1637.4713 344,1639.6538 344Q1641.5005 344,1642.5917 344.9863Q1643.6829 345.9726,1643.6829 347.77728Q1643.6829 349.8338,1642.5917 351.55457Q1641.5005 353.27533,1639.7168 354.3036Q1637.933 355.33185,1635.7926 355.33185Z" fill="#000"/>
<path d="M1646.5426 349.33185Q1644.5281 349.33185,1643.2479 348.38754Q1641.9679 347.4432,1641.9679 345.5126Q1641.9679 343.37216,1643.1641 341.67236Q1644.3601 339.9726,1646.2908 338.9863Q1648.2213 338,1650.4038 338Q1652.2505 338,1653.3417 338.9863Q1654.4329 339.9726,1654.4329 341.77728Q1654.4329 343.8338,1653.3417 345.55457Q1652.2505 347.27533,1650.4668 348.3036Q1648.683 349.33185,1646.5426 349.33185Z" fill="#000"/>
<line stroke="#000" stroke-width="1.5" x1="1642.7179110050201" x2="1642.7179110050201" y1="308" y2="356"/>
<line stroke="#000" stroke-width="1.5" x1="1428.5" x2="1714.1925716400146" y1="320" y2="320"/>
<line stroke="#000" stroke-width="1.5" x1="1428.5" x2="1714.1925716400146" y1="332" y2="332"/>
<line stroke="#000" stroke-width="1.5" x1="1428.5" x2="1714.1925716400146" y1="344" y2="344"/>
<line stroke="#000" stroke-width="1.5" x1="1428.5" x2="1714.1925716400146" y1="356" y2="356"/>
<line stroke="#000" stroke-width="1.5" x1="1428.5" x2="1714.1925716400146" y1="368" y2="368"/>
<line stroke="#000" stroke-width="1.5" x1="1428.5" x2="1428.5" y1="319.25" y2="368.75"/>
<line stroke="#000" stroke-width="1.5" x1="1714.9425716400146" x2="1714.9425716400146" y1="319.25" y2="368.75"/>
<path d="M1729.5173 355.33185Q1727.5028 355.33185,1726.2227 354.38754Q1724.9426 353.4432,1724.9426 351.5126Q1724.9426 349.37216,1726.1388 347.67236Q1727.3348 345.9726,1729.2655 344.9863Q1731.196 344,1733.3785 344Q1735.2252 344,1736.3164 344.9863Q1737.4076 345.9726,1737.4076 347.77728Q1737.4076 349.8338,1736.3164 351.55457Q1735.2252 353.27533,1733.4415 354.3036Q1731.6577 355.33185,1729.5173 355.33185ZM1726.0758 352.51987Q1726.0758 352.93958,1726.3905 353.27533Q1726.7053 353.61108,1727.251 353.61108Q1728.7198 353.61108,1730.9023 352.39398Q1732.3712 351.55457,1733.5674 350.5263Q1734.7635 349.49805,1735.477 348.4698Q1736.1906 347.44153,1736.1906 346.72806Q1736.1906 346.2664,1735.9597 345.9516Q1735.7289 345.63684,1735.1412 345.63684Q1734.3439 345.63684,1733.2107 346.14047Q1732.0775 346.6441,1730.8394 347.44153Q1729.6012 348.23895,1728.51 349.1833Q1727.4188 350.1276,1726.7473 351.00897Q1726.0758 351.89032,1726.0758 352.51987Z" fill="#000"/>
<line stroke="#000" stroke-width="1.5" x1="1725.6925716400146" x2="1725.6925716400146" y1="351.5" y2="386"/>
<path d="M1800.3918 320.00558L1801.7797 320.00558L1801.7797 337.465Q1803.436 335.8086,1805.5402 335.8086Q1806.9727 335.8086,1808.1366 336.7711Q1809.3007 337.7336,1809.3007 339.5691Q1809.3007 341.00165,1808.4501 342.2104Q1807.5995 343.41913,1806.1669 344.62784L1803.0779 347.26913Q1802.2273 347.98544,1801.5558 348.67932Q1800.8843 349.37323,1800.3918 349.99997L1800.3918 320.00558ZM1801.7797 347.00055Q1802.9436 345.74704,1803.7494 344.695Q1804.5552 343.64294,1805.0029 342.83713Q1805.4954 341.98654,1805.7416 341.27026Q1805.9878 340.554,1805.9878 339.92722Q1805.9878 338.67374,1805.4058 338.11414Q1804.8239 337.55453,1804.1523 337.55453Q1803.436 337.55453,1802.7422 338.06937Q1802.0482 338.5842,1801.7797 339.47955L1801.7797 347.00055Z" fill="#000"/>
<path d="M1817.2087 349.33185Q1815.1942 349.33185,1813.9141 348.38754Q1812.634 347.4432,1812.634 345.5126Q1812.634 343.37216,1813.8302 341.67236Q1815.0262 339.9726,1816.9569 338.9863Q1818.8875 338,1821.07 338Q1822.9166 338,1824.0078 338.9863Q1825.099 339.9726,1825.099 341.77728Q1825.099 343.8338,1824.0078 345.55457Q1822.9166 347.27533,1821.1329 348.3036Q1819.3491 349.33185,1817.2087 349.33185ZM1813.7672 346.51987Q1813.7672 346.93958,1814.0819 347.27533Q1814.3967 347.61108,1814.9424 347.61108Q1816.4113 347.61108,1818.5938 346.39398Q1820.0626 345.55457,1821.2588 344.5263Q1822.455 343.49805,1823.1685 342.4698Q1823.882 341.44153,1823.882 340.72806Q1823.882 340.2664,1823.6511 339.9516Q1823.4203 339.63684,1822.8326 339.63684Q1822.0353 339.63684,1820.9021 340.14047Q1819.7689 340.6441,1818.5308 341.44153Q1817.2926 342.23895,1816.2014 343.1833Q1815.1102 344.1276,1814.4387 345.00897Q1813.7672 345.89032,1813.7672 346.51987Z" fill="#000"/>
<line stroke="#000" stroke-width="1.5" x1="1813.3840120633442" x2="1813.3840120633442" y1="345.5" y2="380"/>
<line stroke="#000" stroke-width="1.5" x1="1714.9425716400146" x2="1896.25" y1="320" y2="320"/>
<line stroke="#000" stroke-width="1.5" x1="1714.9425716400146" x2="1896.25" y1="332" y2="332"/>
<line stroke="#000" stroke-width="1.5" x1="1714.9425716400146" x2="1896.25" y1="344" y2="344"/>
<line stroke="#000" stroke-width="1.5" x1="1714.9425716400146" x2="1896.25" y1="356" y2="356"/>
<line stroke="#000" stroke-width="1.5" x1="1714.9425716400146" x2="1896.25" y1="368" y2="368"/>
<line stroke="#000" stroke-width="1.5" x1="1897" x2="1897" y1="319.25" y2="368.75"/>
<path d="M1915.864 431.89594Q1915.3939 430.1164,1915.0917 428.37045Q1914.7896 426.6245,1914.7896 424.81143Q1914.7896 423.23337,1915.0078 421.83997Q1915.2261 420.44656,1915.6289 419.27142Q1916.0654 417.92838,1916.7705 416.73645Q1917.4756 415.5445,1918.2646 414.77225Q1919.0537 414,1919.6581 414Q1920.4639 414,1921.874 416.85394Q1922.5791 418.29773,1922.9149 419.9765Q1923.2506 421.6553,1923.2506 423.56912Q1923.2506 425.953,1922.6127 428.3201Q1921.9747 430.6872,1920.7493 432.7689Q1919.5237 434.8506,1917.8114 436.42865L1918.9866 442.0694Q1919.4901 442.00226,1919.8259 441.96866Q1920.1616 441.9351,1920.3296 441.9351Q1922.3777 441.9351,1923.9894 443.09348Q1925.601 444.25183,1926.5579 446.13208Q1927.5148 448.01233,1927.5148 450.2619Q1927.5148 452.84723,1926.1886 454.91214Q1924.8623 456.97708,1922.2098 457.95078Q1922.3777 458.52155,1923.1835 462.71854Q1923.385 463.7258,1923.4857 464.3134Q1923.5864 464.90097,1923.62 465.33743Q1923.6536 465.77393,1923.6536 466.34473Q1923.6536 468.0235,1922.8309 469.34976Q1922.0083 470.676,1920.615 471.41467Q1919.2216 472.15335,1917.5092 472.15335Q1915.7633 472.15335,1914.4202 471.4986Q1913.0771 470.84387,1912.3049 469.68552Q1911.5327 468.52716,1911.5327 467.01624Q1911.5327 465.4046,1912.4225 464.33017Q1913.3123 463.25574,1914.9574 463.25574Q1916.3676 463.25574,1917.2573 464.27982Q1918.1471 465.30386,1918.1471 466.71405Q1918.1471 467.9228,1917.3077 468.82935Q1916.4684 469.73587,1915.1254 469.73587L1914.7896 469.73587Q1915.6625 471.04535,1917.5427 471.04535Q1919.8595 471.04535,1921.169 469.53442Q1922.4784 468.0235,1922.4784 465.67322Q1922.4784 465.10242,1922.3441 464.1455Q1922.2098 463.1886,1921.874 461.84555Q1921.5383 460.50253,1921.3536 459.62955Q1921.169 458.7566,1921.1018 458.38724Q1919.9602 458.72302,1918.4158 458.72302Q1915.5282 458.72302,1912.775 457.04422Q1910.089 455.36542,1908.5444 452.6122Q1907 449.85898,1907 446.66928Q1907 443.64746,1908.3766 440.99496Q1909.7532 438.34247,1911.7845 436.12646Q1913.8158 433.91046,1915.864 431.89594ZM1916.7705 431.05652Q1917.5427 430.65363,1918.4158 429.5624Q1919.2887 428.4712,1920.0945 427.061Q1920.9004 425.65082,1921.4039 424.22385Q1921.9076 422.79688,1921.9076 421.6553Q1921.9076 420.44656,1921.5383 419.7415Q1921.169 419.03638,1920.2625 419.03638Q1919.4565 419.03638,1918.7012 419.77505Q1917.9457 420.51373,1917.3582 421.73923Q1916.7705 422.96475,1916.4348 424.47568Q1916.099 425.98657,1916.099 427.56464Q1916.099 428.63907,1916.3173 429.51205Q1916.5355 430.385,1916.7705 431.05652ZM1918.6843 446.0649Q1917.7778 446.2664,1916.9719 446.9211Q1916.1661 447.57584,1915.6793 448.49918Q1915.1925 449.42252,1915.1925 450.46335Q1915.1925 451.30276,1915.6289 452.1925Q1916.0654 453.08228,1916.7034 453.61948Q1917.1399 454.0224,1917.5763 454.22385Q1918.08 454.4589,1918.08 454.66034Q1918.08 454.76105,1917.7443 454.8618Q1916.4684 454.5596,1915.4443 453.7202Q1914.4202 452.88083,1913.8326 451.68887Q1913.2451 450.49692,1913.2451 449.1539Q1913.2451 447.71014,1913.8326 446.3671Q1914.4202 445.02408,1915.4779 443.94965Q1916.5355 442.8752,1917.8785 442.338L1916.9048 437.26807Q1913.01 440.4242,1911.1802 443.4628Q1909.3502 446.5014,1909.3502 449.48965Q1909.3502 451.6721,1910.4918 453.55234Q1911.6334 455.4326,1913.6144 456.59094Q1915.5953 457.7493,1918.08 457.7493Q1918.7515 457.7493,1919.4398 457.61502Q1920.128 457.4807,1920.9004 457.27924L1918.6843 446.0649ZM1921.9412 456.94348Q1925.2317 455.5333,1925.2317 451.16846Q1925.2317 449.7247,1924.4929 448.53275Q1923.7543 447.34082,1922.512 446.6357Q1921.2697 445.93063,1919.7252 445.93063L1921.9412 456.94348Z" fill="#000"/>
<path d="M1939.6189 437.72748L1939.6189 431.32568L1937.5148 431.8629L1937.5148 427.38614L1939.6189 426.80414L1939.6189 418.02966L1941.0066 418.02966L1941.0066 426.446L1944.0061 425.72974L1944.0061 417L1945.3939 417L1945.3939 425.37158L1947.5875 424.87915L1947.5875 429.31116L1945.3939 429.9379L1945.3939 436.3397L1947.5875 435.80246L1947.5875 440.41354L1945.3939 440.95078L1945.3939 449.3671L1944.0061 449.3671L1944.0061 441.3089L1941.0066 442.11472L1941.0066 450.84445L1939.6189 450.84445L1939.6189 442.4281L1937.5148 442.9653L1937.5148 438.35425L1939.6189 437.72748ZM1944.0061 436.65305L1944.0061 430.2065L1941.0066 430.96756L1941.0066 437.36935L1944.0061 436.65305Z" fill="#000"/>
<path d="M1950.6917 455.72748L1950.6917 449.32568L1948.5875 449.8629L1948.5875 445.38614L1950.6917 444.80414L1950.6917 436.02966L1952.0793 436.02966L1952.0793 444.446L1955.0789 443.72974L1955.0789 435L1956.4667 435L1956.4667 443.37158L1958.6603 442.87915L1958.6603 447.31116L1956.4667 447.9379L1956.4667 454.3397L1958.6603 453.80246L1958.6603 458.41354L1956.4667 458.95078L1956.4667 467.3671L1955.0789 467.3671L1955.0789 459.3089L1952.0793 460.11472L1952.0793 468.84445L1950.6917 468.84445L1950.6917 460.4281L1948.5875 460.9653L1948.5875 456.35425L1950.6917 455.72748ZM1955.0789 454.65305L1955.0789 448.2065L1952.0793 448.96756L1952.0793 455.36935L1955.0789 454.65305Z" fill="#000"/>
<path d="M1961.7644 431.72748L1961.7644 425.32568L1959.6603 425.8629L1959.6603 421.38614L1961.7644 420.80414L1961.7644 412.02966L1963.1521 412.02966L1963.1521 420.446L1966.1516 419.72974L1966.1516 411L1967.5394 411L1967.5394 419.37158L1969.733 418.87915L1969.733 423.31116L1967.5394 423.9379L1967.5394 430.3397L1969.733 429.80246L1969.733 434.41354L1967.5394 434.95078L1967.5394 443.3671L1966.1516 443.3671L1966.1516 435.3089L1963.1521 436.11472L1963.1521 444.84445L1961.7644 444.84445L1961.7644 436.4281L1959.6603 436.9653L1959.6603 432.35425L1961.7644 431.72748ZM1966.1516 430.65305L1966.1516 424.2065L1963.1521 424.96756L1963.1521 431.36935L1966.1516 430.65305Z" fill="#000"/>
<path d="M1972.8372 449.72748L1972.8372 443.32568L1970.733 443.8629L1970.733 439.38614L1972.8372 438.80414L1972.8372 430.02966L1974.2249 430.02966L1974.2249 438.446L1977.2244 437.72974L1977.2244 429L1978.6122 429L1978.6122 437.37158L1980.8058 436.87915L1980.8058 441.31116L1978.6122 441.9379L1978.6122 448.3397L1980.8058 447.80246L1980.8058 452.41354L1978.6122 452.95078L1978.6122 461.3671L1977.2244 461.3671L1977.2244 453.3089L1974.2249 454.11472L1974.2249 462.84445L1972.8372 462.84445L1972.8372 454.4281L1970.733 454.9653L1970.733 450.35425L1972.8372 449.72748ZM1977.2244 448.65305L1977.2244 442.2065L1974.2249 442.96756L1974.2249 449.36935L1977.2244 448.65305Z" fill="#000"/>
<path d="M2017.1305 437.33185Q2015.116 437.33185,2013.8358 436.38754Q2012.5558 435.4432,2012.5558 433.5126Q2012.5558 431.37216,2013.752 429.67236Q2014.948 427.9726,2016.8787 426.9863Q2018.8092 426,2020.9917 426Q2022.8384 426,2023.9296 426.9863Q2025.0208 427.9726,2025.0208 429.77728Q2025.0208 431.8338,2023.9296 433.55457Q2022.8384 435.27533,2021.0547 436.3036Q2019.2709 437.33185,2017.1305 437.33185ZM2013.689 434.51987Q2013.689 434.93958,2014.0037 435.27533Q2014.3185 435.61108,2014.8641 435.61108Q2016.333 435.61108,2018.5155 434.39398Q2019.9844 433.55457,2021.1805 432.5263Q2022.3767 431.49805,2023.0902 430.4698Q2023.8037 429.44153,2023.8037 428.72806Q2023.8037 428.2664,2023.5729 427.9516Q2023.342 427.63684,2022.7544 427.63684Q2021.957 427.63684,2020.8239 428.14047Q2019.6907 428.6441,2018.4525 429.44153Q2017.2144 430.23895,2016.1232 431.1833Q2015.032 432.1276,2014.3605 433.00897Q2013.689 433.89032,2013.689 434.51987Z" fill="#000"/>
<path d="M2006.3805 431.33185Q2004.366 431.33185,2003.0858 430.38754Q2001.8058 429.4432,2001.8058 427.5126Q2001.8058 425.37216,2003.002 423.67236Q2004.198 421.9726,2006.1287 420.9863Q2008.0592 420,2010.2417 420Q2012.0884 420,2013.1796 420.9863Q2014.2708 421.9726,2014.2708 423.77728Q2014.2708 425.8338,2013.1796 427.55457Q2012.0884 429.27533,2010.3047 430.3036Q2008.5209 431.33185,2006.3805 431.33185ZM2002.939 428.51987Q2002.939 428.93958,2003.2537 429.27533Q2003.5685 429.61108,2004.1141 429.61108Q2005.583 429.61108,2007.7655 428.39398Q2009.2344 427.55457,2010.4305 426.5263Q2011.6267 425.49805,2012.3402 424.4698Q2013.0537 423.44153,2013.0537 422.72806Q2013.0537 422.2664,2012.8229 421.9516Q2012.592 421.63684,2012.0044 421.63684Q2011.207 421.63684,2010.0739 422.14047Q2008.9407 422.6441,2007.7025 423.44153Q2006.4644 424.23895,2005.3732 425.1833Q2004.282 426.1276,2003.6105 427.00897Q2002.939 427.89032,2002.939 428.51987Z" fill="#000"/>
<path d="M2017.1305 425.33185Q2015.116 425.33185,2013.8358 424.38754Q2012.5558 423.4432,2012.5558 421.5126Q2012.5558 419.37216,2013.752 417.67236Q2014.948 415.9726,2016.8787 414.9863Q2018.8092 414,2020.9917 414Q2022.8384 414,2023.9296 414.9863Q2025.0208 415.9726,2025.0208 417.77728Q2025.0208 419.8338,2023.9296 421.55457Q2022.8384 423.27533,2021.0547 424.3036Q2019.2709 425.33185,2017.1305 425.33185ZM2013.689 422.51987Q2013.689 422.93958,2014.0037 423.27533Q2014.3185 423.61108,2014.8641 423.61108Q2016.333 423.61108,2018.5155 422.39398Q2019.9844 421.55457,2021.1805 420.5263Q2022.3767 419.49805,2023.0902 418.4698Q2023.8037 417.44153,2023.8037 416.72806Q2023.8037 416.2664,2023.5729 415.9516Q2023.342 415.63684,2022.7544 415.63684Q2021.957 415.63684,2020.8239 416.14047Q2019.6907 416.6441,2018.4525 417.44153Q2017.2144 418.23895,2016.1232 419.1833Q2015.032 420.1276,2014.3605 421.00897Q2013.689 421.89032,2013.689 422.51987Z" fill="#000"/>
<line stroke="#000" stroke-width="1.5" x1="2013.3058223724365" x2="2013.3058223724365" y1="384" y2="432"/>
<path d="M2165.287 444.00558L2166.675 444.00558L2166.675 461.465Q2168.3315 459.8086,2170.4355 459.8086Q2171.8682 459.8086,2173.032 460.7711Q2174.196 461.7336,2174.196 463.5691Q2174.196 465.00165,2173.3455 466.2104Q2172.4949 467.41913,2171.0623 468.62784L2167.9734 471.26913Q2167.1228 471.98544,2166.4512 472.67932Q2165.7795 473.37323,2165.287 473.99997L2165.287 444.00558ZM2166.675 471.00055Q2167.8389 469.74704,2168.6448 468.695Q2169.4507 467.64294,2169.8982 466.83713Q2170.3906 465.98654,2170.637 465.27026Q2170.8833 464.554,2170.8833 463.92722Q2170.8833 462.67374,2170.3013 462.11414Q2169.7192 461.55453,2169.0476 461.55453Q2168.3315 461.55453,2167.6375 462.06937Q2166.9436 462.5842,2166.675 463.47955L2166.675 471.00055Z" fill="#000"/>
<path d="M2188.7708 485.33185Q2186.7563 485.33185,2185.4763 484.38754Q2184.196 483.4432,2184.196 481.5126Q2184.196 479.37216,2185.3923 477.67236Q2186.5884 475.9726,2188.519 474.9863Q2190.4497 474,2192.632 474Q2194.4788 474,2195.57 474.9863Q2196.6611 475.9726,2196.6611 477.77728Q2196.6611 479.8338,2195.57 481.55457Q2194.4788 483.27533,2192.695 484.3036Q2190.9114 485.33185,2188.7708 485.33185Z" fill="#000"/>
<path d="M2188.7708 473.33185Q2186.7563 473.33185,2185.4763 472.38754Q2184.196 471.4432,2184.196 469.5126Q2184.196 467.37216,2185.3923 465.67236Q2186.5884 463.9726,2188.519 462.9863Q2190.4497 462,2192.632 462Q2194.4788 462,2195.57 462.9863Q2196.6611 463.9726,2196.6611 465.77728Q2196.6611 467.8338,2195.57 469.55457Q2194.4788 471.27533,2192.695 472.3036Q2190.9114 473.33185,2188.7708 473.33185Z" fill="#000"/>
<path d="M2188.7708 461.33185Q2186.7563 461.33185,2185.4763 460.38754Q2184.196 459.4432,2184.196 457.5126Q2184.196 455.37216,2185.3923 453.67236Q2186.5884 451.9726,2188.519 450.9863Q2190.4497 450,2192.632 450Q2194.4788 450,2195.57 450.9863Q2196.6611 451.9726,2196.6611 453.77728Q2196.6611 455.8338,2195.57 457.55457Q2194.4788 459.27533,2192.695 460.3036Q2190.9114 461.33185,2188.7708 461.33185Z" fill="#000"/>
<line stroke="#000" stroke-width="1.5" x1="2179.19593000412" x2="2200.69593000412" y1="468" y2="468"/>
<line stroke="#000" stroke-width="1.5" x1="2179.19593000412" x2="2200.69593000412" y1="480" y2="480"/>
<line stroke="#000" stroke-width="1.5" x1="2195.69593000412" x2="2195.69593000412" y1="420" y2="480"/>
<path d="M2266.1658 423.80527L2266.1658 417.40347L2264.0615 417.9407L2264.0615 413.46393L2266.1658 412.88193L2266.1658 404.10745L2267.5535 404.10745L2267.5535 412.5238L2270.553 411.80753L2270.553 403.0778L2271.9407 403.0778L2271.9407 411.44937L2274.1343 410.95694L2274.1343 415.38895L2271.9407 416.0157L2271.9407 422.41748L2274.1343 421.88025L2274.1343 426.49133L2271.9407 427.02856L2271.9407 435.4449L2270.553 435.4449L2270.553 427.3867L2267.5535 428.1925L2267.5535 436.92224L2266.1658 436.92224L2266.1658 428.5059L2264.0615 429.0431L2264.0615 424.43204L2266.1658 423.80527ZM2270.553 422.73083L2270.553 416.2843L2267.5535 417.04535L2267.5535 423.44714L2270.553 422.73083Z" fill="#000"/>
<path d="M2283.709 473.33185Q2281.6946 473.33185,2280.4146 472.38754Q2279.1343 471.4432,2279.1343 469.5126Q2279.1343 467.37216,2280.3306 465.67236Q2281.5266 463.9726,2283.4573 462.9863Q2285.388 462,2287.5703 462Q2289.417 462,2290.5083 462.9863Q2291.5994 463.9726,2291.5994 465.77728Q2291.5994 467.8338,2290.5083 469.55457Q2289.417 471.27533,2287.6333 472.3036Q2285.8496 473.33185,2283.709 473.33185Z" fill="#000"/>
<path d="M2283.709 461.33185Q2281.6946 461.33185,2280.4146 460.38754Q2279.1343 459.4432,2279.1343 457.5126Q2279.1343 455.37216,2280.3306 453.67236Q2281.5266 451.9726,2283.4573 450.9863Q2285.388 450,2287.5703 450Q2289.417 450,2290.5083 450.9863Q2291.5994 451.9726,2291.5994 453.77728Q2291.5994 455.8338,2290.5083 457.55457Q2289.417 459.27533,2287.6333 460.3036Q2285.8496 461.33185,2283.709 461.33185Z" fill="#000"/>
<path d="M2283.709 425.33185Q2281.6946 425.33185,2280.4146 424.38754Q2279.1343 423.4432,2279.1343 421.5126Q2279.1343 419.37216,2280.3306 417.67236Q2281.5266 415.9726,2283.4573 414.9863Q2285.388 414,2287.5703 414Q2289.417 414,2290.5083 414.9863Q2291.5994 415.9726,2291.5994 417.77728Q2291.5994 419.8338,2290.5083 421.55457Q2289.417 423.27533,2287.6333 424.3036Q2285.8496 425.33185,2283.709 425.33185Z" fill="#000"/>
<line stroke="#000" stroke-width="1.5" x1="2290.634339094162" x2="2290.634339094162" y1="384" y2="468"/>
<line stroke="#000" stroke-width="1.5" x1="1897" x2="2365.5" y1="420" y2="420"/>
<line stroke="#000" stroke-width="1.5" x1="1897" x2="2365.5" y1="432" y2="432"/>
<line stroke="#000" stroke-width="1.5" x1="1897" x2="2365.5" y1="444" y2="444"/>
<line stroke="#000" stroke-width="1.5" x1="1897" x2="2365.5" y1="456" y2="456"/>
<line stroke="#000" stroke-width="1.5" x1="1897" x2="2365.5" y1="468" y2="468"/>
<line stroke="#000" stroke-width="1.5" x1="1897" x2="1897" y1="419.25" y2="468.75"/>
<line stroke="#000" stroke-width="1.5" x1="2366.25" x2="2366.25" y1="419.25" y2="468.75"/>
<path d="M2376.25 499L2377.638 499L2377.638 516.4594Q2379.2944 514.80304,2381.3984 514.80304Q2382.831 514.80304,2383.9949 515.7655Q2385.159 516.728,2385.159 518.5635Q2385.159 519.9961,2384.3083 521.2048Q2383.4578 522.4135,2382.0251 523.62225L2378.9363 526.26355Q2378.0857 526.97986,2377.414 527.67377Q2376.7424 528.3676,2376.25 528.9944L2376.25 499ZM2377.638 525.99493Q2378.8018 524.74146,2379.6077 523.6894Q2380.4136 522.6374,2380.861 521.83154Q2381.3535 520.98096,2381.5999 520.26465Q2381.8462 519.5484,2381.8462 518.92163Q2381.8462 517.66815,2381.2642 517.1085Q2380.6821 516.54895,2380.0105 516.54895Q2379.2944 516.54895,2378.6003 517.0638Q2377.9065 517.5786,2377.638 518.47394L2377.638 525.99493Z" fill="#000"/>
<path d="M2386.1587 523L2387.5466 523L2387.5466 540.4594Q2389.2031 538.80304,2391.3071 538.80304Q2392.7397 538.80304,2393.9036 539.7655Q2395.0676 540.728,2395.0676 542.5635Q2395.0676 543.9961,2394.217 545.2048Q2393.3665 546.4135,2391.9338 547.62225L2388.845 550.26355Q2387.9944 550.97986,2387.3228 551.67377Q2386.6511 552.3676,2386.1587 552.9944L2386.1587 523ZM2387.5466 549.99493Q2388.7104 548.74146,2389.5164 547.6894Q2390.3223 546.6374,2390.7698 545.83154Q2391.2622 544.98096,2391.5085 544.26465Q2391.755 543.5484,2391.755 542.92163Q2391.755 541.66815,2391.1729 541.1085Q2390.5908 540.54895,2389.9192 540.54895Q2389.2031 540.54895,2388.509 541.0638Q2387.8152 541.5786,2387.5466 542.47394L2387.5466 549.99493Z" fill="#000"/>
<path d="M2396.0676 505L2397.4556 505L2397.4556 522.4594Q2399.112 520.80304,2401.216 520.80304Q2402.6487 520.80304,2403.8125 521.7655Q2404.9766 522.728,2404.9766 524.5635Q2404.9766 525.9961,2404.126 527.2048Q2403.2754 528.4135,2401.8428 529.62225L2398.754 532.26355Q2397.9033 532.97986,2397.2317 533.67377Q2396.56 534.3676,2396.0676 534.9944L2396.0676 505ZM2397.4556 531.99493Q2398.6194 530.74146,2399.4253 529.6894Q2400.2312 528.6374,2400.6787 527.83154Q2401.1711 526.98096,2401.4175 526.26465Q2401.6638 525.5484,2401.6638 524.92163Q2401.6638 523.66815,2401.0818 523.1085Q2400.4998 522.54895,2399.8281 522.54895Q2399.112 522.54895,2398.418 523.0638Q2397.724 523.5786,2397.4556 524.47394L2397.4556 531.99493Z" fill="#000"/>
<path d="M2405.9763 529L2407.3643 529L2407.3643 546.4594Q2409.0208 544.80304,2411.1248 544.80304Q2412.5574 544.80304,2413.7212 545.7655Q2414.8853 546.728,2414.8853 548.5635Q2414.8853 549.9961,2414.0347 551.2048Q2413.184 552.4135,2411.7515 553.62225L2408.6626 556.26355Q2407.812 556.97986,2407.1404 557.67377Q2406.4688 558.3676,2405.9763 558.9944L2405.9763 529ZM2407.3643 555.99493Q2408.528 554.74146,2409.334 553.6894Q2410.14 552.6374,2410.5874 551.83154Q2411.0798 550.98096,2411.3262 550.26465Q2411.5725 549.5484,2411.5725 548.92163Q2411.5725 547.66815,2410.9905 547.1085Q2410.4084 546.54895,2409.7368 546.54895Q2409.0208 546.54895,2408.3267 547.0638Q2407.6328 547.5786,2407.3643 548.47394L2407.3643 555.99493Z" fill="#000"/>
<path d="M2415.8853 511L2417.2732 511L2417.2732 528.4594Q2418.9297 526.80304,2421.0337 526.80304Q2422.4663 526.80304,2423.6301 527.7655Q2424.7942 528.728,2424.7942 530.5635Q2424.7942 531.9961,2423.9436 533.2048Q2423.093 534.4135,2421.6604 535.62225L2418.5715 538.26355Q2417.721 538.97986,2417.0493 539.67377Q2416.3777 540.3676,2415.8853 540.9944L2415.8853 511ZM2417.2732 537.99493Q2418.437 536.74146,2419.243 535.6894Q2420.0488 534.6374,2420.4963 533.83154Q2420.9888 532.98096,2421.235 532.26465Q2421.4814 531.5484,2421.4814 530.92163Q2421.4814 529.66815,2420.8994 529.1085Q2420.3174 528.54895,2419.6458 528.54895Q2418.9297 528.54895,2418.2356 529.0638Q2417.5417 529.5786,2417.2732 530.47394L2417.2732 537.99493Z" fill="#000"/>
<path d="M2450.3687 525.33185Q2448.3542 525.33185,2447.0742 524.3875Q2445.794 523.4432,2445.794 521.5126Q2445.794 519.37213,2446.9902 517.67236Q2448.1863 515.97253,2450.117 514.98627Q2452.0476 514,2454.23 514Q2456.0767 514,2457.168 514.98627Q2458.259 515.97253,2458.259 517.7773Q2458.259 519.8338,2457.168 521.55457Q2456.0767 523.2753,2454.293 524.3036Q2452.5093 525.33185,2450.3687 525.33185Z" fill="#000"/>
<line stroke="#000" stroke-width="1.5" x1="2446.5439291000366" x2="2446.5439291000366" y1="521.5" y2="556"/>
<path d="M2498.0933 537.33185Q2496.0789 537.33185,2494.7988 536.3875Q2493.5186 535.4432,2493.5186 533.5126Q2493.5186 531.37213,2494.7148 529.67236Q2495.911 527.97253,2497.8416 526.98627Q2499.7722 526,2501.9546 526Q2503.8013 526,2504.8926 526.98627Q2505.9836 527.97253,2505.9836 529.7773Q2505.9836 531.8338,2504.8926 533.55457Q2503.8013 535.2753,2502.0176 536.3036Q2500.234 537.33185,2498.0933 537.33185ZM2494.6519 534.51984Q2494.6519 534.9396,2494.9666 535.2753Q2495.2815 535.6111,2495.827 535.6111Q2497.296 535.6111,2499.4783 534.3939Q2500.9473 533.55457,2502.1436 532.5263Q2503.3396 531.49805,2504.053 530.4698Q2504.7666 529.4415,2504.7666 528.728Q2504.7666 528.26636,2504.5356 527.9516Q2504.305 527.6368,2503.7173 527.6368Q2502.92 527.6368,2501.7866 528.14044Q2500.6536 528.6441,2499.4155 529.4415Q2498.1772 530.23895,2497.0862 531.1832Q2495.9949 532.12756,2495.3232 533.0089Q2494.6519 533.8903,2494.6519 534.51984Z" fill="#000"/>
<line stroke="#000" stroke-width="1.5" x1="2494.268589735031" x2="2494.268589735031" y1="533.5" y2="568"/>
<path d="M2584.2927 561.33185Q2582.2783 561.33185,2580.9983 560.3875Q2579.718 559.4432,2579.718 557.5126Q2579.718 555.37213,2580.9143 553.67236Q2582.1104 551.97253,2584.041 550.98627Q2585.9717 550,2588.154 550Q2590.0007 550,2591.092 550.98627Q2592.183 551.97253,2592.183 553.7773Q2592.183 555.8338,2591.092 557.55457Q2590.0007 559.2753,2588.217 560.3036Q2586.4333 561.33185,2584.2927 561.33185Z" fill="#000"/>
<path d="M2573.5427 555.33185Q2571.5283 555.33185,2570.2483 554.3875Q2568.968 553.4432,2568.968 551.5126Q2568.968 549.37213,2570.1643 547.67236Q2571.3604 545.97253,2573.291 544.98627Q2575.2217 544,2577.404 544Q2579.2507 544,2580.342 544.98627Q2581.433 545.97253,2581.433 547.7773Q2581.433 549.8338,2580.342 551.55457Q2579.2507 553.2753,2577.467 554.3036Q2575.6833 555.33185,2573.5427 555.33185Z" fill="#000"/>
<path d="M2584.2927 549.33185Q2582.2783 549.33185,2580.9983 548.3875Q2579.718 547.4432,2579.718 545.5126Q2579.718 543.37213,2580.9143 541.67236Q2582.1104 539.97253,2584.041 538.98627Q2585.9717 538,2588.154 538Q2590.0007 538,2591.092 538.98627Q2592.183 539.97253,2592.183 541.7773Q2592.183 543.8338,2591.092 545.55457Q2590.0007 547.2753,2588.217 548.3036Q2586.4333 549.33185,2584.2927 549.33185Z" fill="#000"/>
<line stroke="#000" stroke-width="1.5" x1="2580.46791100502" x2="2580.46791100502" y1="508" y2="556"/>
<line stroke="#000" stroke-width="1.5" x1="2366.25" x2="2651.9425716400146" y1="520" y2="520"/>
<line stroke="#000" stroke-width="1.5" x1="2366.25" x2="2651.9425716400146" y1="532" y2="532"/>
<line stroke="#000" stroke-width="1.5" x1="2366.25" x2="2651.9425716400146" y1="544" y2="544"/>
<line stroke="#000" stroke-width="1.5" x1="2366.25" x2="2651.9425716400146" y1="556" y2="556"/>
<line stroke="#000" stroke-width="1.5" x1="2366.25" x2="2651.9425716400146" y1="568" y2="568"/>
<line stroke="#000" stroke-width="1.5" x1="2366.25" x2="2366.25" y1="519.25" y2="568.75"/>
<line stroke="#000" stroke-width="1.5" x1="2652.6925716400146" x2="2652.6925716400146" y1="519.25" y2="568.75"/>
<path d="M2667.2673 555.33185Q2665.253 555.33185,2663.973 554.3875Q2662.6926 553.4432,2662.6926 551.5126Q2662.6926 549.37213,2663.889 547.67236Q2665.085 545.97253,2667.0156 544.98627Q2668.9463 544,2671.1287 544Q2672.9753 544,2674.0667 544.98627Q2675.1577 545.97253,2675.1577 547.7773Q2675.1577 549.8338,2674.0667 551.55457Q2672.9753 553.2753,2671.1917 554.3036Q2669.408 555.33185,2667.2673 555.33185ZM2663.826 552.51984Q2663.826 552.9396,2664.1406 553.2753Q2664.4556 553.6111,2665.001 553.6111Q2666.47 553.6111,2668.6523 552.3939Q2670.1213 551.55457,2671.3176 550.5263Q2672.5137 549.49805,2673.227 548.4698Q2673.9407 547.4415,2673.9407 546.728Q2673.9407 546.26636,2673.7097 545.9516Q2673.479 545.6368,2672.8914 545.6368Q2672.094 545.6368,2670.9607 546.14044Q2669.8276 546.6441,2668.5896 547.4415Q2667.3513 548.23895,2666.2603 549.1832Q2665.169 550.12756,2664.4973 551.0089Q2663.826 551.8903,2663.826 552.51984Z" fill="#000"/>
<line stroke="#000" stroke-width="1.5" x1="2663.4425716400146" x2="2663.4425716400146" y1="551.5" y2="586"/>
<path d="M2738.1418 520.0056L2739.5298 520.0056L2739.5298 537.465Q2741.1863 535.80865,2743.2903 535.80865Q2744.723 535.80865,2745.8867 536.7711Q2747.0508 537.73364,2747.0508 539.5691Q2747.0508 541.0017,2746.2002 542.2104Q2745.3496 543.4191,2743.917 544.62787L2740.8281 547.26917Q2739.9775 547.9855,2739.306 548.6794Q2738.6343 549.3732,2738.1418 550L2738.1418 520.0056ZM2739.5298 547.00055Q2740.6936 545.7471,2741.4995 544.695Q2742.3054 543.643,2742.753 542.83716Q2743.2454 541.9866,2743.4917 541.27026Q2743.738 540.554,2743.738 539.92725Q2743.738 538.67377,2743.156 538.11414Q2742.574 537.55457,2741.9023 537.55457Q2741.1863 537.55457,2740.4922 538.0694Q2739.7983 538.5842,2739.5298 539.47955L2739.5298 547.00055Z" fill="#000"/>
<path d="M2754.9587 549.33185Q2752.9443 549.33185,2751.6643 548.3875Q2750.384 547.4432,2750.384 545.5126Q2750.384 543.37213,2751.5803 541.67236Q2752.7764 539.97253,2754.707 538.98627Q2756.6377 538,2758.82 538Q2760.6667 538,2761.758 538.98627Q2762.849 539.97253,2762.849 541.7773Q2762.849 543.8338,2761.758 545.55457Q2760.6667 547.2753,2758.883 548.3036Q2757.0994 549.33185,2754.9587 549.33185ZM2751.5173 546.51984Q2751.5173 546.9396,2751.832 547.2753Q2752.147 547.6111,2752.6924 547.6111Q2754.1614 547.6111,2756.3438 546.3939Q2757.8127 545.55457,2759.009 544.5263Q2760.205 543.49805,2760.9185 542.4698Q2761.632 541.4415,2761.632 540.728Q2761.632 540.26636,2761.4011 539.9516Q2761.1704 539.6368,2760.5828 539.6368Q2759.7854 539.6368,2758.652 540.14044Q2757.519 540.6441,2756.281 541.4415Q2755.0427 542.23895,2753.9517 543.1832Q2752.8604 544.12756,2752.1887 545.0089Q2751.5173 545.8903,2751.5173 546.51984Z" fill="#000"/>
<line stroke="#000" stroke-width="1.5" x1="2751.1340120633445" x2="2751.1340120633445" y1="545.5" y2="580"/>
<line stroke="#000" stroke-width="1.5" x1="2652.6925716400146" x2="2834" y1="520" y2="520"/>
<line stroke="#000" stroke-width="1.5" x1="2652.6925716400146" x2="2834" y1="532" y2="532"/>
<line stroke="#000" stroke-width="1.5" x1="2652.6925716400146" x2="2834" y1="544" y2="544"/>
<line stroke="#000" stroke-width="1.5" x1="2652.6925716400146" x2="2834" y1="556" y2="556"/>
<line stroke="#000" stroke-width="1.5" x1="2652.6925716400146" x2="2834" y1="568" y2="568"/>
<line stroke="#000" stroke-width="1.5" x1="2834.75" x2="2834.75" y1="519.25" y2="568.75"/>
</svg>
