<svg height="500" width="350" xmlns="http://www.w3.org/2000/svg">
<rect fill="#fff" height="500" width="350" x="0" y="0"/>
<path d="M22 33.246223Q22 31.69334,23.133183 30.518187Q24.266369 29.343033,26.217962 28.671516Q28.169558 28,30.519865 28Q32.912144 28,34.926693 28.650532Q36.941242 29.301064,38.158363 30.476217Q39.37549 31.651371,39.37549 33.246223Q39.37549 34.883045,38.200336 36.07918Q37.025185 37.275322,35.073586 37.925854Q33.121994 38.576385,30.771685 38.576385Q28.421375 38.576385,26.42781 37.94684Q24.434246 37.31729,23.217123 36.121155Q22 34.925014,22 33.246223ZM31.65305 37.736988Q33.08002 37.736988,33.604645 36.687744Q34.129265 35.6385,34.129265 34.21153Q34.129265 32.742584,33.520706 31.525461Q32.912144 30.308338,31.90487 29.573868Q30.897594 28.839396,29.6385 28.839396Q28.211529 28.839396,27.728874 29.888641Q27.246223 30.937885,27.246223 32.364857Q27.246223 33.791832,27.8338 35.008953Q28.421375 36.226078,29.407665 36.981533Q30.393955 37.736988,31.65305 37.736988Z" fill="#000"/>
<line stroke="#000" stroke-width="2" x1="13" x2="73.33333333333334" y1="10" y2="10"/>
<line stroke="#000" stroke-width="2" x1="13" x2="73.33333333333334" y1="22" y2="22"/>
<line stroke="#000" stroke-width="2" x1="13" x2="73.33333333333334" y1="34" y2="34"/>
<line stroke="#000" stroke-width="2" x1="13" x2="73.33333333333334" y1="46" y2="46"/>
<line stroke="#000" stroke-width="2" x1="13" x2="73.33333333333334" y1="58" y2="58"/>
<line stroke="#000" stroke-width="2" x1="13" x2="13" y1="9" y2="59"/>
<line stroke="#000" stroke-width="2" x1="74.33333333333334" x2="74.33333333333334" y1="9" y2="59"/>
<path d="M102.333336 54.811974Q102.333336 53.25909,103.08879 52.629547Q103.844246 52,104.893486 52Q105.9847 52,106.76115 52.629547Q107.53758 53.25909,107.53758 54.811974Q107.53758 56.322887,106.76115 56.994404Q105.9847 57.66592,104.893486 57.66592Q103.844246 57.66592,103.08879 56.994404Q102.333336 56.322887,102.333336 54.811974Z" fill="#000"/>
<path d="M89.90804 63.33184Q87.89349 63.33184,86.61342 62.38752Q85.333336 61.4432,85.333336 59.512592Q85.333336 57.37213,86.52947 55.672356Q87.72562 53.97258,89.65623 52.98629Q91.58684 52,93.769264 52Q95.61594 52,96.707146 52.98629Q97.79836 53.97258,97.79836 55.77728Q97.79836 57.8338,96.707146 59.55456Q95.61594 61.275322,93.832214 62.30358Q92.0485 63.33184,89.90804 63.33184ZM86.46652 60.519867Q86.46652 60.939564,86.781296 61.275322Q87.09607 61.61108,87.64168 61.61108Q89.11062 61.61108,91.293045 60.393955Q92.761986 59.55456,93.95813 58.526302Q95.15427 57.49804,95.86775 56.46978Q96.58124 55.44152,96.58124 54.728035Q96.58124 54.26637,96.3504 53.951595Q96.11957 53.63682,95.532 53.63682Q94.734566 53.63682,93.60139 54.140457Q92.4682 54.644096,91.230095 55.44152Q89.99198 56.23895,88.90077 57.183266Q87.809555 58.127586,87.13804 59.008953Q86.46652 59.89032,86.46652 60.519867Z" fill="#000"/>
<line stroke="#000" stroke-width="2" x1="96.76190476190477" x2="96.76190476190477" y1="22" y2="56.5"/>
<path d="M149.24138 57.33184Q147.22682 57.33184,145.94675 56.38752Q144.66667 55.4432,144.66667 53.512592Q144.66667 51.37213,145.86281 49.672356Q147.05894 47.97258,148.98955 46.98629Q150.92017 46,153.10258 46Q154.94926 46,156.04048 46.98629Q157.13168 47.97258,157.13168 49.77728Q157.13168 51.8338,156.04048 53.55456Q154.94926 55.275322,153.16554 56.30358Q151.38184 57.33184,149.24138 57.33184Z" fill="#000"/>
<line stroke="#000" stroke-width="2" x1="156.0952380952381" x2="156.0952380952381" y1="16" y2="50.5"/>
<line stroke="#000" stroke-width="2" x1="76.33333333333334" x2="196.50000000000003" y1="10" y2="10"/>
<line stroke="#000" stroke-width="2" x1="76.33333333333334" x2="196.50000000000003" y1="22" y2="22"/>
<line stroke="#000" stroke-width="2" x1="76.33333333333334" x2="196.50000000000003" y1="34" y2="34"/>
<line stroke="#000" stroke-width="2" x1="76.33333333333334" x2="196.50000000000003" y1="46" y2="46"/>
<line stroke="#000" stroke-width="2" x1="76.33333333333334" x2="196.50000000000003" y1="58" y2="58"/>
<line stroke="#000" stroke-width="2" x1="76.33333333333334" x2="76.33333333333334" y1="9" y2="59"/>
<line stroke="#000" stroke-width="2" x1="197.50000000000003" x2="197.50000000000003" y1="9" y2="59"/>
<path d="M213.24138 51.33184Q211.22682 51.33184,209.94675 50.38752Q208.66667 49.4432,208.66667 47.512592Q208.66667 45.37213,209.86281 43.672356Q211.05894 41.97258,212.98955 40.98629Q214.92017 40,217.10258 40Q218.94926 40,220.04048 40.98629Q221.13168 41.97258,221.13168 43.77728Q221.13168 45.8338,220.04048 47.55456Q218.94926 49.275322,217.16554 50.30358Q215.38184 51.33184,213.24138 51.33184ZM209.79985 48.519867Q209.79985 48.939564,210.11462 49.275322Q210.4294 49.61108,210.975 49.61108Q212.44394 49.61108,214.62637 48.393955Q216.09532 47.55456,217.29146 46.526302Q218.4876 45.49804,219.20108 44.46978Q219.91457 43.44152,219.91457 42.728035Q219.91457 42.26637,219.68373 41.951595Q219.4529 41.63682,218.86533 41.63682Q218.0679 41.63682,216.93471 42.140457Q215.80153 42.644096,214.56342 43.44152Q213.32532 44.23895,212.2341 45.183266Q211.14288 46.127586,210.47136 47.008953Q209.79985 47.89032,209.79985 48.519867Z" fill="#000"/>
<line stroke="#000" stroke-width="2" x1="220.0952380952381" x2="220.0952380952381" y1="10" y2="44.5"/>
<path d="M252.90804 57.33184Q250.89348 57.33184,249.6134 56.38752Q248.33333 55.4432,248.33333 53.512592Q248.33333 51.37213,249.52946 49.672356Q250.7256 47.97258,252.6562 46.98629Q254.58682 46,256.76926 46Q258.6159 46,259.70712 46.98629Q260.79834 47.97258,260.79834 49.77728Q260.79834 51.8338,259.70712 53.55456Q258.6159 55.275322,256.8322 56.30358Q255.0485 57.33184,252.90804 57.33184Z" fill="#000"/>
<line stroke="#000" stroke-width="2" x1="259.7619047619048" x2="259.7619047619048" y1="16" y2="50.5"/>
<path d="M292.74136 51.33184Q290.72684 51.33184,289.44675 50.38752Q288.16666 49.4432,288.16666 47.512592Q288.16666 45.37213,289.3628 43.672356Q290.55893 41.97258,292.48956 40.98629Q294.42017 40,296.6026 40Q298.44925 40,299.54047 40.98629Q300.63168 41.97258,300.63168 43.77728Q300.63168 45.8338,299.54047 47.55456Q298.44925 49.275322,296.66556 50.30358Q294.88184 51.33184,292.74136 51.33184Z" fill="#000"/>
<line stroke="#000" stroke-width="2" x1="299.59523809523813" x2="299.59523809523813" y1="10" y2="44.5"/>
<line stroke="#000" stroke-width="2" x1="199.66666666666669" x2="340" y1="10" y2="10"/>
<line stroke="#000" stroke-width="2" x1="199.66666666666669" x2="340" y1="22" y2="22"/>
<line stroke="#000" stroke-width="2" x1="199.66666666666669" x2="340" y1="34" y2="34"/>
<line stroke="#000" stroke-width="2" x1="199.66666666666669" x2="340" y1="46" y2="46"/>
<line stroke="#000" stroke-width="2" x1="199.66666666666669" x2="340" y1="58" y2="58"/>
<line stroke="#000" stroke-width="2" x1="199.66666666666669" x2="199.66666666666669" y1="9" y2="59"/>
<line stroke="#000" stroke-width="2" x1="341" x2="341" y1="9" y2="59"/>
<path d="M51 124.81198Q51 123.259094,51.755455 122.62955Q52.510914 122,53.560158 122Q54.65137 122,55.42781 122.62955Q56.204254 123.259094,56.204254 124.81198Q56.204254 126.32289,55.42781 126.99441Q54.65137 127.665924,53.560158 127.665924Q52.510914 127.665924,51.755455 126.99441Q51 126.32289,51 124.81198Z" fill="#000"/>
<path d="M38.574707 133.33185Q36.560158 133.33185,35.28008 132.38753Q34 131.4432,34 129.51259Q34 127.37213,35.196136 125.672356Q36.392277 123.97258,38.322887 122.98629Q40.253498 122,42.435925 122Q44.282597 122,45.37381 122.98629Q46.465027 123.97258,46.465027 125.77728Q46.465027 127.8338,45.37381 129.55457Q44.282597 131.27531,42.49888 132.30359Q40.715164 133.33185,38.574707 133.33185ZM35.133183 130.51987Q35.133183 130.93956,35.447956 131.27531Q35.76273 131.61108,36.30834 131.61108Q37.77728 131.61108,39.95971 130.39395Q41.42865 129.55457,42.62479 128.5263Q43.82093 127.49804,44.534416 126.46978Q45.247902 125.44152,45.247902 124.728035Q45.247902 124.266365,45.017067 123.95159Q44.786232 123.63682,44.198658 123.63682Q43.40123 123.63682,42.268047 124.14046Q41.134865 124.6441,39.896755 125.44152Q38.658646 126.238945,37.567432 127.183266Q36.476215 128.1276,35.8047 129.00896Q35.133183 129.89032,35.133183 130.51987Z" fill="#000"/>
<line stroke="#000" stroke-width="2" x1="34.85714285714286" x2="34.85714285714286" y1="129.5" y2="164"/>
<path d="M102.53833 139.33185Q100.52378 139.33185,99.243706 138.38753Q97.96362 137.4432,97.96362 135.51259Q97.96362 133.37213,99.15976 131.67236Q100.3559 129.97258,102.286514 128.98628Q104.217125 128,106.39955 128Q108.24622 128,109.33743 128.98628Q110.42865 129.97258,110.42865 131.77728Q110.42865 133.8338,109.33743 135.55457Q108.24622 137.27531,106.46251 138.30359Q104.67879 139.33185,102.53833 139.33185Z" fill="#000"/>
<line stroke="#000" stroke-width="2" x1="109.39219733646938" x2="109.39219733646938" y1="98" y2="132.5"/>
<line stroke="#000" stroke-width="2" x1="13" x2="153.95453238487244" y1="110" y2="110"/>
<line stroke="#000" stroke-width="2" x1="13" x2="153.95453238487244" y1="122" y2="122"/>
<line stroke="#000" stroke-width="2" x1="13" x2="153.95453238487244" y1="134" y2="134"/>
<line stroke="#000" stroke-width="2" x1="13" x2="153.95453238487244" y1="146" y2="146"/>
<line stroke="#000" stroke-width="2" x1="13" x2="153.95453238487244" y1="158" y2="158"/>
<line stroke="#000" stroke-width="2" x1="13" x2="13" y1="109" y2="159"/>
<line stroke="#000" stroke-width="2" x1="154.95453238487244" x2="154.95453238487244" y1="109" y2="159"/>
<path d="M171.53833 187.33185Q169.52377 187.33185,168.2437 186.38753Q166.96362 185.4432,166.96362 183.51259Q166.96362 181.37213,168.15976 179.67236Q169.3559 177.97258,171.2865 176.98628Q173.21712 176,175.39954 176Q177.24622 176,178.33743 176.98628Q179.42865 177.97258,179.42865 179.77728Q179.42865 181.8338,178.33743 183.55457Q177.24622 185.27531,175.4625 186.30359Q173.67879 187.33185,171.53833 187.33185ZM168.0968 184.51987Q168.0968 184.93956,168.41158 185.27531Q168.72635 185.61108,169.27196 185.61108Q170.74089 185.61108,172.92332 184.39395Q174.39227 183.55457,175.58841 182.5263Q176.78455 181.49805,177.49803 180.46979Q178.21152 179.44153,178.21152 178.72803Q178.21152 178.26637,177.98068 177.9516Q177.74985 177.63683,177.16228 177.63683Q176.36485 177.63683,175.23166 178.14046Q174.09848 178.64409,172.86037 179.44153Q171.62227 180.23895,170.53105 181.18327Q169.43983 182.1276,168.76831 183.00896Q168.0968 183.89032,168.0968 184.51987Z" fill="#000"/>
<line stroke="#000" stroke-width="2" x1="161.96362590789795" x2="183.96362590789795" y1="158" y2="158"/>
<line stroke="#000" stroke-width="2" x1="161.96362590789795" x2="183.96362590789795" y1="170" y2="170"/>
<line stroke="#000" stroke-width="2" x1="161.96362590789795" x2="183.96362590789795" y1="182" y2="182"/>
<line stroke="#000" stroke-width="2" x1="178.39219733646937" x2="178.39219733646937" y1="146" y2="180.5"/>
<path d="M222.04951 149.80527L222.04951 143.40347L219.94543 143.94069L219.94543 139.46391L222.04951 138.88193L222.04951 130.10744L223.43732 130.10744L223.43732 138.52379L226.43677 137.8075L226.43677 129.07779L227.82455 129.07779L227.82455 137.44936L230.01819 136.95691L230.01819 141.38892L227.82455 142.01567L227.82455 148.41747L230.01819 147.88025L230.01819 152.49133L227.82455 153.02853L227.82455 161.44489L226.43677 161.44489L226.43677 153.38669L223.43732 154.1925L223.43732 162.92221L222.04951 162.92221L222.04951 154.50587L219.94543 155.04309L219.94543 150.432L222.04951 149.80527ZM226.43677 148.73083L226.43677 142.28427L223.43732 143.04533L223.43732 149.44711L226.43677 148.73083Z" fill="#000"/>
<path d="M239.5929 151.33185Q237.57834 151.33185,236.29826 150.38753Q235.01819 149.4432,235.01819 147.51259Q235.01819 145.37213,236.21432 143.67236Q237.41046 141.97258,239.34106 140.98628Q241.27168 140,243.4541 140Q245.30078 140,246.392 140.98628Q247.48322 141.97258,247.48322 143.77728Q247.48322 145.8338,246.392 147.55457Q245.30078 149.27531,243.51706 150.30359Q241.73335 151.33185,239.5929 151.33185Z" fill="#000"/>
<line stroke="#000" stroke-width="2" x1="246.44675847462244" x2="246.44675847462244" y1="110" y2="144.5"/>
<path d="M283.5838 187.33185Q281.56927 187.33185,280.28918 186.38753Q279.0091 185.4432,279.0091 183.51259Q279.0091 181.37213,280.20523 179.67236Q281.40137 177.97258,283.332 176.98628Q285.2626 176,287.44504 176Q289.2917 176,290.3829 176.98628Q291.47412 177.97258,291.47412 179.77728Q291.47412 181.8338,290.3829 183.55457Q289.2917 185.27531,287.508 186.30359Q285.72427 187.33185,283.5838 187.33185Z" fill="#000"/>
<line stroke="#000" stroke-width="2" x1="274.0090935230255" x2="296.0090935230255" y1="158" y2="158"/>
<line stroke="#000" stroke-width="2" x1="274.0090935230255" x2="296.0090935230255" y1="170" y2="170"/>
<line stroke="#000" stroke-width="2" x1="274.0090935230255" x2="296.0090935230255" y1="182" y2="182"/>
<line stroke="#000" stroke-width="2" x1="290.43766495159696" x2="290.43766495159696" y1="146" y2="180.5"/>
<line stroke="#000" stroke-width="2" x1="152.96362590789795" x2="340" y1="110" y2="110"/>
<line stroke="#000" stroke-width="2" x1="152.96362590789795" x2="340" y1="122" y2="122"/>
<line stroke="#000" stroke-width="2" x1="152.96362590789795" x2="340" y1="134" y2="134"/>
<line stroke="#000" stroke-width="2" x1="152.96362590789795" x2="340" y1="146" y2="146"/>
<line stroke="#000" stroke-width="2" x1="152.96362590789795" x2="340" y1="158" y2="158"/>
<line stroke="#000" stroke-width="2" x1="152.96362590789795" x2="152.96362590789795" y1="109" y2="159"/>
<line stroke="#000" stroke-width="2" x1="341" x2="341" y1="109" y2="159"/>
<path d="M38.574707 221.33185Q36.560158 221.33185,35.28008 220.38753Q34 219.4432,34 217.51259Q34 215.37213,35.196136 213.67236Q36.392277 211.97258,38.322887 210.98628Q40.253498 210,42.435925 210Q44.282597 210,45.37381 210.98628Q46.465027 211.97258,46.465027 213.77728Q46.465027 215.8338,45.37381 217.55457Q44.282597 219.27531,42.49888 220.30359Q40.715164 221.33185,38.574707 221.33185Z" fill="#000"/>
<line stroke="#000" stroke-width="2" x1="34.85714285714286" x2="34.85714285714286" y1="217.5" y2="252"/>
<path d="M96.272804 192.0056L97.66061 192.0056L97.66061 209.46503Q99.31702 207.80862,101.4211 207.80862Q102.85367 207.80862,104.01763 208.77113Q105.18159 209.73364,105.18159 211.56912Q105.18159 213.0017,104.331 214.21042Q103.480415 215.41914,102.047844 216.62787L98.95887 219.26918Q98.108284 219.98546,97.43677 220.67935Q96.76525 221.37326,96.272804 222.00002L96.272804 192.0056ZM97.66061 219.00056Q98.82457 217.74707,99.63039 216.69502Q100.4362 215.64299,100.88388 214.83716Q101.37633 213.98657,101.62255 213.2703Q101.868774 212.55402,101.868774 211.92726Q101.868774 210.67377,101.2868 210.11417Q100.70481 209.55457,100.033295 209.55457Q99.31702 209.55457,98.623116 210.0694Q97.929214 210.58423,97.66061 211.47958L97.66061 219.00056Z" fill="#000"/>
<path d="M126.756294 221.33185Q124.741745 221.33185,123.46167 220.38753Q122.18159 219.4432,122.18159 217.51259Q122.18159 215.37213,123.37772 213.67236Q124.57387 211.97258,126.50448 210.98628Q128.43509 210,130.61751 210Q132.46419 210,133.5554 210.98628Q134.6466 211.97258,134.6466 213.77728Q134.6466 215.8338,133.5554 217.55457Q132.46419 219.27531,130.68047 220.30359Q128.89676 221.33185,126.756294 221.33185Z" fill="#000"/>
<line stroke="#000" stroke-width="2" x1="123.03873222214835" x2="123.03873222214835" y1="217.5" y2="252"/>
<path d="M196.0291 227.33185Q194.01454 227.33185,192.73447 226.38753Q191.45439 225.4432,191.45439 223.51259Q191.45439 221.37213,192.65053 219.67236Q193.84666 217.97258,195.77727 216.98628Q197.70789 216,199.8903 216Q201.73698 216,202.8282 216.98628Q203.9194 217.97258,203.9194 219.77728Q203.9194 221.8338,202.8282 223.55457Q201.73698 225.27531,199.95326 226.30359Q198.16956 227.33185,196.0291 227.33185Z" fill="#000"/>
<line stroke="#000" stroke-width="2" x1="192.3115357671465" x2="192.3115357671465" y1="223.5" y2="258"/>
<path d="M270.3019 233.33185Q268.28738 233.33185,267.0073 232.38753Q265.7272 231.4432,265.7272 229.51259Q265.7272 227.37213,266.92334 225.67236Q268.11948 223.97258,270.0501 222.98628Q271.9807 222,274.16315 222Q276.0098 222,277.101 222.98628Q278.19223 223.97258,278.19223 225.77728Q278.19223 227.8338,277.101 229.55457Q276.0098 231.27531,274.2261 232.30359Q272.44238 233.33185,270.3019 233.33185Z" fill="#000"/>
<line stroke="#000" stroke-width="2" x1="266.5843393121447" x2="266.5843393121447" y1="229.5" y2="264"/>
<line stroke="#000" stroke-width="2" x1="13" x2="340" y1="210" y2="210"/>
<line stroke="#000" stroke-width="2" x1="13" x2="340" y1="222" y2="222"/>
<line stroke="#000" stroke-width="2" x1="13" x2="340" y1="234" y2="234"/>
<line stroke="#000" stroke-width="2" x1="13" x2="340" y1="246" y2="246"/>
<line stroke="#000" stroke-width="2" x1="13" x2="340" y1="258" y2="258"/>
<line stroke="#000" stroke-width="2" x1="13" x2="13" y1="209" y2="259"/>
<line stroke="#000" stroke-width="2" x1="341" x2="341" y1="209" y2="259"/>
</svg>