<svg height="100" width="350" xmlns="http://www.w3.org/2000/svg">
<rect fill="#fff" height="100" width="350" x="0" y="0"/>
<path d="M38.574707 33.33184Q36.560158 33.33184,35.28008 32.38752Q34 31.443201,34 29.51259Q34 27.372131,35.196136 25.672356Q36.392277 23.97258,38.322887 22.98629Q40.253498 22,42.435925 22Q44.282597 22,45.37381 22.98629Q46.465027 23.97258,46.465027 25.777279Q46.465027 27.8338,45.37381 29.55456Q44.282597 31.275322,42.49888 32.30358Q40.715164 33.33184,38.574707 33.33184Z" fill="#000"/>
<path d="M38.574707 51.33184Q36.560158 51.33184,35.28008 50.38752Q34 49.4432,34 47.512592Q34 45.37213,35.196136 43.672356Q36.392277 41.97258,38.322887 40.98629Q40.253498 40,42.435925 40Q44.282597 40,45.37381 40.98629Q46.465027 41.97258,46.465027 43.77728Q46.465027 45.8338,45.37381 47.55456Q44.282597 49.275322,42.49888 50.30358Q40.715164 51.33184,38.574707 51.33184Z" fill="#000"/>
<line stroke="#000" stroke-width="2" x1="34.85714285714286" x2="34.85714285714286" y1="29.5" y2="82"/>
<path d="M60.612816 61.80526L60.612816 55.40347L58.50873 55.94068L58.50873 51.463905L60.612816 50.881927L60.612816 42.107445L62.000618 42.107445L62.000618 50.523785L65.00006 49.8075L65.00006 41.077785L66.38786 41.077785L66.38786 49.449356L68.58148 48.956913L68.58148 53.38892L66.38786 54.01567L66.38786 60.41746L68.58148 59.880245L68.58148 64.491325L66.38786 65.02854L66.38786 73.44488L65.00006 73.44488L65.00006 65.38668L62.000618 66.192505L62.000618 74.92222L60.612816 74.92222L60.612816 66.505875L58.50873 67.04309L58.50873 62.43201L60.612816 61.80526ZM65.00006 60.730835L65.00006 54.284275L62.000618 55.045326L62.000618 61.44712L65.00006 60.730835Z" fill="#000"/>
<path d="M89.15619 63.33184Q87.14164 63.33184,85.861565 62.38752Q84.58148 61.4432,84.58148 59.512592Q84.58148 57.37213,85.77762 55.672356Q86.97376 53.97258,88.90437 52.98629Q90.834984 52,93.01741 52Q94.86408 52,95.95529 52.98629Q97.04651 53.97258,97.04651 55.77728Q97.04651 57.8338,95.95529 59.55456Q94.86408 61.275322,93.08037 62.30358Q91.296646 63.33184,89.15619 63.33184ZM85.71467 60.519867Q85.71467 60.939564,86.02944 61.275322Q86.344215 61.61108,86.889824 61.61108Q88.358765 61.61108,90.54119 60.393955Q92.01013 59.55456,93.206276 58.526302Q94.40241 57.49804,95.1159 56.46978Q95.829384 55.44152,95.829384 54.728035Q95.829384 54.26637,95.59855 53.951595Q95.36772 53.63682,94.78014 53.63682Q93.98271 53.63682,92.84953 54.140457Q91.71635 54.644096,90.47824 55.44152Q89.24013 56.23895,88.14892 57.183266Q87.0577 58.127586,86.386185 59.008953Q85.71467 59.89032,85.71467 60.519867Z" fill="#000"/>
<path d="M78.15619 57.33184Q76.14164 57.33184,74.861565 56.38752Q73.58148 55.4432,73.58148 53.512592Q73.58148 51.37213,74.77762 49.672356Q75.97376 47.97258,77.90437 46.98629Q79.834984 46,82.01741 46Q83.86408 46,84.95529 46.98629Q86.04651 47.97258,86.04651 49.77728Q86.04651 51.8338,84.95529 53.55456Q83.86408 55.275322,82.08037 56.30358Q80.296646 57.33184,78.15619 57.33184ZM74.71467 54.519867Q74.71467 54.939564,75.02944 55.275322Q75.344215 55.61108,75.889824 55.61108Q77.358765 55.61108,79.54119 54.393955Q81.01013 53.55456,82.206276 52.526302Q83.40241 51.49804,84.1159 50.46978Q84.829384 49.44152,84.829384 48.728035Q84.829384 48.26637,84.59855 47.951595Q84.36772 47.63682,83.78014 47.63682Q82.98271 47.63682,81.84953 48.140457Q80.71635 48.644096,79.47824 49.44152Q78.24013 50.23895,77.14892 51.183266Q76.0577 52.127586,75.386185 53.008953Q74.71467 53.89032,74.71467 54.519867Z" fill="#000"/>
<path d="M89.15619 51.33184Q87.14164 51.33184,85.861565 50.38752Q84.58148 49.4432,84.58148 47.512592Q84.58148 45.37213,85.77762 43.672356Q86.97376 41.97258,88.90437 40.98629Q90.834984 40,93.01741 40Q94.86408 40,95.95529 40.98629Q97.04651 41.97258,97.04651 43.77728Q97.04651 45.8338,95.95529 47.55456Q94.86408 49.275322,93.08037 50.30358Q91.296646 51.33184,89.15619 51.33184ZM85.71467 48.519867Q85.71467 48.939564,86.02944 49.275322Q86.344215 49.61108,86.889824 49.61108Q88.358765 49.61108,90.54119 48.393955Q92.01013 47.55456,93.206276 46.526302Q94.40241 45.49804,95.1159 44.46978Q95.829384 43.44152,95.829384 42.728035Q95.829384 42.26637,95.59855 41.951595Q95.36772 41.63682,94.78014 41.63682Q93.98271 41.63682,92.84953 42.140457Q91.71635 42.644096,90.47824 43.44152Q89.24013 44.23895,88.14892 45.183266Q87.0577 46.127586,86.386185 47.008953Q85.71467 47.89032,85.71467 48.519867Z" fill="#000"/>
<line stroke="#000" stroke-width="2" x1="85.01005257352807" x2="85.01005257352807" y1="10" y2="56.5"/>
<path d="M151.17366 51.33184Q149.1591 51.33184,147.87903 50.38752Q146.59895 49.4432,146.59895 47.512592Q146.59895 45.37213,147.79509 43.672356Q148.99123 41.97258,150.92183 40.98629Q152.85245 40,155.03487 40Q156.88155 40,157.97276 40.98629Q159.06396 41.97258,159.06396 43.77728Q159.06396 45.8338,157.97276 47.55456Q156.88155 49.275322,155.09782 50.30358Q153.31412 51.33184,151.17366 51.33184Z" fill="#000"/>
<line stroke="#000" stroke-width="2" x1="158.02751849503315" x2="158.02751849503315" y1="10" y2="44.5"/>
<line stroke="#000" stroke-width="2" x1="13" x2="195.10768002721426" y1="10" y2="10"/>
<line stroke="#000" stroke-width="2" x1="13" x2="195.10768002721426" y1="22" y2="22"/>
<line stroke="#000" stroke-width="2" x1="13" x2="195.10768002721426" y1="34" y2="34"/>
<line stroke="#000" stroke-width="2" x1="13" x2="195.10768002721426" y1="46" y2="46"/>
<line stroke="#000" stroke-width="2" x1="13" x2="195.10768002721426" y1="58" y2="58"/>
<line stroke="#000" stroke-width="2" x1="13" x2="13" y1="9" y2="59"/>
<line stroke="#000" stroke-width="2" x1="196.10768002721426" x2="196.10768002721426" y1="9" y2="59"/>
<path d="M221.68239 15.331842Q219.66783 15.331842,218.38776 14.387522Q217.10768 13.443202,217.10768 11.512591Q217.10768 9.372133,218.30382 7.6723566Q219.49995 5.97258,221.43056 4.98629Q223.36118 4,225.5436 4Q227.39027 4,228.48149 4.98629Q229.5727 5.97258,229.5727 7.777281Q229.5727 9.8338,228.48149 11.554562Q227.39027 13.275322,225.60655 14.303582Q223.82285 15.331842,221.68239 15.331842ZM218.24086 12.519867Q218.24086 12.939564,218.55563 13.275322Q218.8704 13.611081,219.41602 13.611081Q220.88495 13.611081,223.06738 12.393957Q224.53633 11.554562,225.73247 10.526302Q226.9286 9.498042,227.64209 8.469782Q228.35558 7.4415226,228.35558 6.728036Q228.35558 6.266369,228.12474 5.9515953Q227.8939 5.6368217,227.30634 5.6368217Q226.50891 5.6368217,225.37572 6.140459Q224.24254 6.6440964,223.00443 7.4415226Q221.76633 8.238949,220.67511 9.183269Q219.5839 10.127588,218.91237 11.008954Q218.24086 11.89032,218.24086 12.519867Z" fill="#000"/>
<line stroke="#000" stroke-width="2" x1="217.9648228843571" x2="217.9648228843571" y1="11.5" y2="46"/>
<path d="M264.54654 18L271.26172 26.184107Q269.1632 28.660324,268.03003 30.465023Q266.89685 32.269722,266.89685 34.116394Q266.89685 35.669277,267.9041 37.369053Q268.9114 39.06883,271.09384 41.670956L270.4223 42.59429Q268.57565 41.419136,266.98077 41.419136Q265.80563 41.419136,265.21805 42.19558Q264.6305 42.97202,264.6305 44.063232Q264.6305 45.406265,265.19708 46.602406Q265.76367 47.798546,266.72897 48.88976L266.18335 49.687183Q263.28745 47.588696,261.90244 45.867935Q260.51746 44.147175,260.51746 42.13262Q260.51746 40.327923,261.65063 39.488525Q262.7838 38.64913,264.37866 38.64913Q265.63776 38.64913,267.6523 39.614437L267.6523 39.5305L261.18896 30.926691Q265.42792 27.191381,265.42792 23.959707Q265.42792 21.399551,262.74185 18L264.54654 18Z" fill="#000"/>
<path d="M285.32642 61.80526L285.32642 55.40347L283.22235 55.94068L283.22235 51.463905L285.32642 50.881927L285.32642 42.107445L286.71423 42.107445L286.71423 50.523785L289.71365 49.8075L289.71365 41.077785L291.10147 41.077785L291.10147 49.449356L293.29507 48.956913L293.29507 53.38892L291.10147 54.01567L291.10147 60.41746L293.29507 59.880245L293.29507 64.491325L291.10147 65.02854L291.10147 73.44488L289.71365 73.44488L289.71365 65.38668L286.71423 66.192505L286.71423 74.92222L285.32642 74.92222L285.32642 66.505875L283.22235 67.04309L283.22235 62.43201L285.32642 61.80526ZM289.71365 60.730835L289.71365 54.284275L286.71423 55.045326L286.71423 61.44712L289.71365 60.730835Z" fill="#000"/>
<path d="M302.8698 75.33184Q300.8553 75.33184,299.5752 74.38752Q298.2951 73.4432,298.2951 71.51259Q298.2951 69.37213,299.49124 67.672356Q300.68738 65.97258,302.618 64.98629Q304.5486 64,306.73105 64Q308.5777 64,309.6689 64.98629Q310.76013 65.97258,310.76013 67.77728Q310.76013 69.8338,309.6689 71.55456Q308.5777 73.27532,306.794 74.30358Q305.01028 75.33184,302.8698 75.33184Z" fill="#000"/>
<path d="M302.8698 63.33184Q300.8553 63.33184,299.5752 62.38752Q298.2951 61.4432,298.2951 59.512592Q298.2951 57.37213,299.49124 55.672356Q300.68738 53.97258,302.618 52.98629Q304.5486 52,306.73105 52Q308.5777 52,309.6689 52.98629Q310.76013 53.97258,310.76013 55.77728Q310.76013 57.8338,309.6689 59.55456Q308.5777 61.275322,306.794 62.30358Q305.01028 63.33184,302.8698 63.33184Z" fill="#000"/>
<line stroke="#000" stroke-width="2" x1="309.723678481426" x2="309.723678481426" y1="22" y2="68.5"/>
<line stroke="#000" stroke-width="2" x1="196.10768002721426" x2="338" y1="10" y2="10"/>
<line stroke="#000" stroke-width="2" x1="196.10768002721426" x2="338" y1="22" y2="22"/>
<line stroke="#000" stroke-width="2" x1="196.10768002721426" x2="338" y1="34" y2="34"/>
<line stroke="#000" stroke-width="2" x1="196.10768002721426" x2="338" y1="46" y2="46"/>
<line stroke="#000" stroke-width="2" x1="196.10768002721426" x2="338" y1="58" y2="58"/>
<line stroke="#000" stroke-width="2" x1="196.10768002721426" x2="196.10768002721426" y1="9" y2="59"/>
<line stroke="#000" stroke-width="2" x1="339" x2="339" y1="9" y2="59"/>
</svg>
