<svg height="500" width="350" xmlns="http://www.w3.org/2000/svg">
<rect fill="#fff" height="500" width="350" x="0" y="0"/>
<path d="M22 33.246223Q22 31.69334,23.133183 30.518187Q24.266369 29.343033,26.217962 28.671516Q28.169558 28,30.519865 28Q32.912144 28,34.926693 28.650532Q36.941242 29.301064,38.158363 30.476217Q39.37549 31.651371,39.37549 33.246223Q39.37549 34.883045,38.200336 36.07918Q37.025185 37.275322,35.073586 37.925854Q33.121994 38.576385,30.771685 38.576385Q28.421375 38.576385,26.42781 37.94684Q24.434246 37.31729,23.217123 36.121155Q22 34.925014,22 33.246223ZM31.65305 37.736988Q33.08002 37.736988,33.604645 36.687744Q34.129265 35.6385,34.129265 34.21153Q34.129265 32.742584,33.520706 31.525461Q32.912144 30.308338,31.90487 29.573868Q30.897594 28.839396,29.6385 28.839396Q28.211529 28.839396,27.728874 29.888641Q27.246223 30.937885,27.246223 32.364857Q27.246223 33.791832,27.8338 35.008953Q28.421375 36.226078,29.407665 36.981533Q30.393955 37.736988,31.65305 37.736988Z" fill="#000"/>
<line stroke="#000" stroke-width="2" x1="13" x2="62.5" y1="10" y2="10"/>
<line stroke="#000" stroke-width="2" x1="13" x2="62.5" y1="22" y2="22"/>
<line stroke="#000" stroke-width="2" x1="13" x2="62.5" y1="34" y2="34"/>
<line stroke="#000" stroke-width="2" x1="13" x2="62.5" y1="46" y2="46"/>
<line stroke="#000" stroke-width="2" x1="13" x2="62.5" y1="58" y2="58"/>
<line stroke="#000" stroke-width="2" x1="13" x2="13" y1="9" y2="59"/>
<line stroke="#000" stroke-width="2" x1="63.5" x2="63.5" y1="9" y2="59"/>
<path d="M91.5 54.811974Q91.5 53.25909,92.255455 52.629547Q93.01091 52,94.06015 52Q95.15137 52,95.92781 52.629547Q96.704254 53.25909,96.704254 54.811974Q96.704254 56.322887,95.92781 56.994404Q95.15137 57.66592,94.06015 57.66592Q93.01091 57.66592,92.255455 56.994404Q91.5 56.322887,91.5 54.811974Z" fill="#000"/>
<path d="M79.07471 63.33184Q77.06016 63.33184,75.78008 62.38752Q74.5 61.4432,74.5 59.512592Q74.5 57.37213,75.69614 55.672356Q76.89228 53.97258,78.82289 52.98629Q80.7535 52,82.93593 52Q84.7826 52,85.87381 52.98629Q86.96503 53.97258,86.96503 55.77728Q86.96503 57.8338,85.87381 59.55456Q84.7826 61.275322,82.998886 62.30358Q81.215164 63.33184,79.07471 63.33184ZM75.63319 60.519867Q75.63319 60.939564,75.94796 61.275322Q76.26273 61.61108,76.80834 61.61108Q78.27728 61.61108,80.45971 60.393955Q81.92865 59.55456,83.124794 58.526302Q84.32093 57.49804,85.03442 56.46978Q85.7479 55.44152,85.7479 54.728035Q85.7479 54.26637,85.51707 53.951595Q85.28624 53.63682,84.69866 53.63682Q83.90123 53.63682,82.76805 54.140457Q81.634865 54.644096,80.39676 55.44152Q79.158646 56.23895,78.06744 57.183266Q76.97622 58.127586,76.3047 59.008953Q75.63319 59.89032,75.63319 60.519867Z" fill="#000"/>
<line stroke="#000" stroke-width="2" x1="85.92857142857143" x2="85.92857142857143" y1="22" y2="56.5"/>
<path d="M127.57471 57.33184Q125.56016 57.33184,124.28008 56.38752Q123 55.4432,123 53.512592Q123 51.37213,124.19614 49.672356Q125.39228 47.97258,127.32289 46.98629Q129.2535 46,131.43593 46Q133.2826 46,134.37381 46.98629Q135.46503 47.97258,135.46503 49.77728Q135.46503 51.8338,134.37381 53.55456Q133.2826 55.275322,131.49889 56.30358Q129.71516 57.33184,127.57471 57.33184Z" fill="#000"/>
<line stroke="#000" stroke-width="2" x1="134.42857142857142" x2="134.42857142857142" y1="16" y2="50.5"/>
<line stroke="#000" stroke-width="2" x1="65.5" x2="157.125" y1="10" y2="10"/>
<line stroke="#000" stroke-width="2" x1="65.5" x2="157.125" y1="22" y2="22"/>
<line stroke="#000" stroke-width="2" x1="65.5" x2="157.125" y1="34" y2="34"/>
<line stroke="#000" stroke-width="2" x1="65.5" x2="157.125" y1="46" y2="46"/>
<line stroke="#000" stroke-width="2" x1="65.5" x2="157.125" y1="58" y2="58"/>
<line stroke="#000" stroke-width="2" x1="65.5" x2="65.5" y1="9" y2="59"/>
<line stroke="#000" stroke-width="2" x1="158.125" x2="158.125" y1="9" y2="59"/>
<path d="M171.5747 51.33184Q169.56015 51.33184,168.28008 50.38752Q167 49.4432,167 47.512592Q167 45.37213,168.19614 43.672356Q169.39227 41.97258,171.32288 40.98629Q173.2535 40,175.43591 40Q177.2826 40,178.37381 40.98629Q179.46503 41.97258,179.46503 43.77728Q179.46503 45.8338,178.37381 47.55456Q177.2826 49.275322,175.49887 50.30358Q173.71516 51.33184,171.5747 51.33184ZM168.13318 48.519867Q168.13318 48.939564,168.44795 49.275322Q168.76273 49.61108,169.30833 49.61108Q170.77727 49.61108,172.9597 48.393955Q174.42865 47.55456,175.62479 46.526302Q176.82092 45.49804,177.53441 44.46978Q178.2479 43.44152,178.2479 42.728035Q178.2479 42.26637,178.01706 41.951595Q177.78622 41.63682,177.19865 41.63682Q176.40123 41.63682,175.26804 42.140457Q174.13486 42.644096,172.89674 43.44152Q171.65865 44.23895,170.56743 45.183266Q169.47621 46.127586,168.80469 47.008953Q168.13318 47.89032,168.13318 48.519867Z" fill="#000"/>
<line stroke="#000" stroke-width="2" x1="178.42857142857142" x2="178.42857142857142" y1="10" y2="44.5"/>
<path d="M195.8247 57.33184Q193.81015 57.33184,192.53008 56.38752Q191.25 55.4432,191.25 53.512592Q191.25 51.37213,192.44614 49.672356Q193.64227 47.97258,195.57288 46.98629Q197.5035 46,199.68591 46Q201.5326 46,202.62381 46.98629Q203.71503 47.97258,203.71503 49.77728Q203.71503 51.8338,202.62381 53.55456Q201.5326 55.275322,199.74887 56.30358Q197.96516 57.33184,195.8247 57.33184Z" fill="#000"/>
<line stroke="#000" stroke-width="2" x1="202.67857142857142" x2="202.67857142857142" y1="16" y2="50.5"/>
<path d="M217.9497 51.33184Q215.93515 51.33184,214.65508 50.38752Q213.375 49.4432,213.375 47.512592Q213.375 45.37213,214.57114 43.672356Q215.76727 41.97258,217.69788 40.98629Q219.6285 40,221.81091 40Q223.6576 40,224.74881 40.98629Q225.84003 41.97258,225.84003 43.77728Q225.84003 45.8338,224.74881 47.55456Q223.6576 49.275322,221.87387 50.30358Q220.09016 51.33184,217.9497 51.33184Z" fill="#000"/>
<line stroke="#000" stroke-width="2" x1="224.80357142857142" x2="224.80357142857142" y1="10" y2="44.5"/>
<line stroke="#000" stroke-width="2" x1="158" x2="247.5" y1="10" y2="10"/>
<line stroke="#000" stroke-width="2" x1="158" x2="247.5" y1="22" y2="22"/>
<line stroke="#000" stroke-width="2" x1="158" x2="247.5" y1="34" y2="34"/>
<line stroke="#000" stroke-width="2" x1="158" x2="247.5" y1="46" y2="46"/>
<line stroke="#000" stroke-width="2" x1="158" x2="247.5" y1="58" y2="58"/>
<line stroke="#000" stroke-width="2" x1="158" x2="158" y1="9" y2="59"/>
<line stroke="#000" stroke-width="2" x1="248.5" x2="248.5" y1="9" y2="59"/>
<path d="M288.5 24.811975Q288.5 23.259094,289.25546 22.629547Q290.01093 22,291.06015 22Q292.15137 22,292.92783 22.629547Q293.70425 23.259094,293.70425 24.811975Q293.70425 26.322887,292.92783 26.994404Q292.15137 27.665922,291.06015 27.665922Q290.01093 27.665922,289.25546 26.994404Q288.5 26.322887,288.5 24.811975Z" fill="#000"/>
<path d="M276.0747 33.33184Q274.06018 33.33184,272.7801 32.38752Q271.5 31.443201,271.5 29.51259Q271.5 27.372131,272.69614 25.672356Q273.89227 23.97258,275.8229 22.98629Q277.7535 22,279.93594 22Q281.7826 22,282.8738 22.98629Q283.96503 23.97258,283.96503 25.777279Q283.96503 27.8338,282.8738 29.55456Q281.7826 31.275322,279.9989 32.30358Q278.21518 33.33184,276.0747 33.33184ZM272.63318 30.519865Q272.63318 30.939564,272.94797 31.275322Q273.26273 31.61108,273.80835 31.61108Q275.27728 31.61108,277.45972 30.393955Q278.92865 29.55456,280.1248 28.5263Q281.32092 27.498041,282.03442 26.469782Q282.74792 25.44152,282.74792 24.728035Q282.74792 24.266369,282.5171 23.951595Q282.28625 23.636822,281.69867 23.636822Q280.90125 23.636822,279.76807 24.140457Q278.6349 24.644096,277.39676 25.44152Q276.15866 26.238947,275.06744 27.183268Q273.97623 28.127588,273.30472 29.008953Q272.63318 29.890318,272.63318 30.519865Z" fill="#000"/>
<line stroke="#000" stroke-width="2" x1="272.3571428571429" x2="272.3571428571429" y1="29.5" y2="64"/>
<path d="M312.5747 39.33184Q310.56018 39.33184,309.2801 38.38752Q308 37.4432,308 35.512592Q308 33.37213,309.19614 31.672356Q310.39227 29.97258,312.3229 28.98629Q314.2535 28,316.43594 28Q318.2826 28,319.3738 28.98629Q320.46503 29.97258,320.46503 31.777279Q320.46503 33.8338,319.3738 35.55456Q318.2826 37.275322,316.4989 38.30358Q314.71518 39.33184,312.5747 39.33184Z" fill="#000"/>
<line stroke="#000" stroke-width="2" x1="319.42857142857144" x2="319.42857142857144" y1="-2" y2="32.5"/>
<line stroke="#000" stroke-width="2" x1="250.5" x2="342.125" y1="10" y2="10"/>
<line stroke="#000" stroke-width="2" x1="250.5" x2="342.125" y1="22" y2="22"/>
<line stroke="#000" stroke-width="2" x1="250.5" x2="342.125" y1="34" y2="34"/>
<line stroke="#000" stroke-width="2" x1="250.5" x2="342.125" y1="46" y2="46"/>
<line stroke="#000" stroke-width="2" x1="250.5" x2="342.125" y1="58" y2="58"/>
<line stroke="#000" stroke-width="2" x1="250.5" x2="250.5" y1="9" y2="59"/>
<line stroke="#000" stroke-width="2" x1="343.125" x2="343.125" y1="9" y2="59"/>
<path d="M31.574705 187.33185Q29.560156 187.33185,28.280079 186.38753Q27 185.4432,27 183.51259Q27 181.37213,28.196138 179.67236Q29.392277 177.97258,31.322887 176.98628Q33.253498 176,35.435925 176Q37.282597 176,38.37381 176.98628Q39.465027 177.97258,39.465027 179.77728Q39.465027 181.8338,38.37381 183.55457Q37.282597 185.27531,35.49888 186.30359Q33.715164 187.33185,31.574705 187.33185ZM28.133183 184.51987Q28.133183 184.93956,28.447956 185.27531Q28.76273 185.61108,29.308338 185.61108Q30.777279 185.61108,32.95971 184.39395Q34.42865 183.55457,35.62479 182.5263Q36.82093 181.49805,37.534416 180.46979Q38.247902 179.44153,38.247902 178.72803Q38.247902 178.26637,38.017067 177.9516Q37.786232 177.63683,37.198658 177.63683Q36.40123 177.63683,35.268047 178.14046Q34.134865 178.64409,32.896755 179.44153Q31.658646 180.23895,30.56743 181.18327Q29.476217 182.1276,28.8047 183.00896Q28.133183 183.89032,28.133183 184.51987Z" fill="#000"/>
<line stroke="#000" stroke-width="2" x1="22" x2="44" y1="158" y2="158"/>
<line stroke="#000" stroke-width="2" x1="22" x2="44" y1="170" y2="170"/>
<line stroke="#000" stroke-width="2" x1="22" x2="44" y1="182" y2="182"/>
<line stroke="#000" stroke-width="2" x1="38.42857142857143" x2="38.42857142857143" y1="146" y2="180.5"/>
<path d="M79.8587 149.80527L79.8587 143.40347L77.754616 143.94069L77.754616 139.46391L79.8587 138.88193L79.8587 130.10744L81.246506 130.10744L81.246506 138.52379L84.24594 137.8075L84.24594 129.07779L85.63374 129.07779L85.63374 137.44936L87.82736 136.95691L87.82736 141.38892L85.63374 142.01567L85.63374 148.41747L87.82736 147.88025L87.82736 152.49133L85.63374 153.02853L85.63374 161.44489L84.24594 161.44489L84.24594 153.38669L81.246506 154.1925L81.246506 162.92221L79.8587 162.92221L79.8587 154.50587L77.754616 155.04309L77.754616 150.432L79.8587 149.80527ZM84.24594 148.73083L84.24594 142.28427L81.246506 143.04533L81.246506 149.44711L84.24594 148.73083Z" fill="#000"/>
<path d="M97.40207 151.33185Q95.38752 151.33185,94.107445 150.38753Q92.82736 149.4432,92.82736 147.51259Q92.82736 145.37213,94.0235 143.67236Q95.21964 141.97258,97.15025 140.98628Q99.080864 140,101.26329 140Q103.10996 140,104.20117 140.98628Q105.29239 141.97258,105.29239 143.77728Q105.29239 145.8338,104.20117 147.55457Q103.10996 149.27531,101.32625 150.30359Q99.54253 151.33185,97.40207 151.33185Z" fill="#000"/>
<line stroke="#000" stroke-width="2" x1="104.25593611172268" x2="104.25593611172268" y1="110" y2="144.5"/>
<path d="M130.27939 187.33185Q128.26483 187.33185,126.98476 186.38753Q125.70467 185.4432,125.70467 183.51259Q125.70467 181.37213,126.90081 179.67236Q128.09695 177.97258,130.02756 176.98628Q131.95818 176,134.1406 176Q135.98727 176,137.07849 176.98628Q138.16971 177.97258,138.16971 179.77728Q138.16971 181.8338,137.07849 183.55457Q135.98727 185.27531,134.20355 186.30359Q132.41985 187.33185,130.27939 187.33185Z" fill="#000"/>
<line stroke="#000" stroke-width="2" x1="120.70467293262482" x2="142.70467293262482" y1="158" y2="158"/>
<line stroke="#000" stroke-width="2" x1="120.70467293262482" x2="142.70467293262482" y1="170" y2="170"/>
<line stroke="#000" stroke-width="2" x1="120.70467293262482" x2="142.70467293262482" y1="182" y2="182"/>
<line stroke="#000" stroke-width="2" x1="137.13324436119623" x2="137.13324436119623" y1="146" y2="180.5"/>
<line stroke="#000" stroke-width="2" x1="13" x2="175.5819811820984" y1="110" y2="110"/>
<line stroke="#000" stroke-width="2" x1="13" x2="175.5819811820984" y1="122" y2="122"/>
<line stroke="#000" stroke-width="2" x1="13" x2="175.5819811820984" y1="134" y2="134"/>
<line stroke="#000" stroke-width="2" x1="13" x2="175.5819811820984" y1="146" y2="146"/>
<line stroke="#000" stroke-width="2" x1="13" x2="175.5819811820984" y1="158" y2="158"/>
<line stroke="#000" stroke-width="2" x1="13" x2="13" y1="109" y2="159"/>
<line stroke="#000" stroke-width="2" x1="176.5819811820984" x2="176.5819811820984" y1="109" y2="159"/>
<path d="M204.1567 121.33184Q202.14214 121.33184,200.86206 120.38752Q199.58199 119.4432,199.58199 117.51259Q199.58199 115.37213,200.77812 113.672356Q201.97426 111.97258,203.90486 110.98629Q205.83548 110,208.0179 110Q209.86458 110,210.9558 110.98629Q212.047 111.97258,212.047 113.77728Q212.047 115.8338,210.9558 117.55456Q209.86458 119.27532,208.08086 120.30358Q206.29715 121.33184,204.1567 121.33184Z" fill="#000"/>
<line stroke="#000" stroke-width="2" x1="200.43912403924122" x2="200.43912403924122" y1="117.5" y2="152"/>
<path d="M220.45929 92.0056L221.84709 92.0056L221.84709 109.465034Q223.5035 107.808624,225.60759 107.808624Q227.04015 107.808624,228.20412 108.77113Q229.36807 109.73364,229.36807 111.569115Q229.36807 113.001686,228.51749 114.21042Q227.6669 115.41914,226.23433 116.62788L223.14536 119.26917Q222.29477 119.98546,221.62325 120.67936Q220.95174 121.37326,220.45929 122.00001L220.45929 92.0056ZM221.84709 119.000565Q223.01105 117.74707,223.81688 116.69503Q224.6227 115.64298,225.07037 114.837166Q225.56282 113.98658,225.80904 113.270294Q226.05527 112.55401,226.05527 111.92726Q226.05527 110.67377,225.47328 110.11417Q224.8913 109.554565,224.21979 109.554565Q223.5035 109.554565,222.8096 110.0694Q222.11569 110.58423,221.84709 111.47958L221.84709 119.000565Z" fill="#000"/>
<path d="M250.94278 121.33184Q248.92822 121.33184,247.64815 120.38752Q246.36807 119.4432,246.36807 117.51259Q246.36807 115.37213,247.56421 113.672356Q248.76035 111.97258,250.69095 110.98629Q252.62157 110,254.80399 110Q256.65067 110,257.74188 110.98629Q258.8331 111.97258,258.8331 113.77728Q258.8331 115.8338,257.74188 117.55456Q256.65067 119.27532,254.86694 120.30358Q253.08324 121.33184,250.94278 121.33184Z" fill="#000"/>
<line stroke="#000" stroke-width="2" x1="247.22521810872212" x2="247.22521810872212" y1="117.5" y2="152"/>
<path d="M278.8201 127.33184Q276.80557 127.33184,275.52548 126.38752Q274.2454 125.4432,274.2454 123.51259Q274.2454 121.37213,275.44153 119.672356Q276.63766 117.97258,278.5683 116.98629Q280.4989 116,282.68134 116Q284.52798 116,285.6192 116.98629Q286.71042 117.97258,286.71042 119.77728Q286.71042 121.8338,285.6192 123.55456Q284.52798 125.27532,282.7443 126.30358Q280.96057 127.33184,278.8201 127.33184Z" fill="#000"/>
<line stroke="#000" stroke-width="2" x1="275.10252635819575" x2="275.10252635819575" y1="123.5" y2="158"/>
<path d="M311.6974 133.33185Q309.68286 133.33185,308.40277 132.38753Q307.12268 131.4432,307.12268 129.51259Q307.12268 127.37213,308.31882 125.672356Q309.51495 123.97258,311.4456 122.98629Q313.3762 122,315.55862 122Q317.40527 122,318.4965 122.98629Q319.5877 123.97258,319.5877 125.77728Q319.5877 127.8338,318.4965 129.55457Q317.40527 131.27531,315.62158 132.30359Q313.83786 133.33185,311.6974 133.33185Z" fill="#000"/>
<line stroke="#000" stroke-width="2" x1="307.9798346076693" x2="307.9798346076693" y1="129.5" y2="164"/>
<line stroke="#000" stroke-width="2" x1="178.5819811820984" x2="340" y1="110" y2="110"/>
<line stroke="#000" stroke-width="2" x1="178.5819811820984" x2="340" y1="122" y2="122"/>
<line stroke="#000" stroke-width="2" x1="178.5819811820984" x2="340" y1="134" y2="134"/>
<line stroke="#000" stroke-width="2" x1="178.5819811820984" x2="340" y1="146" y2="146"/>
<line stroke="#000" stroke-width="2" x1="178.5819811820984" x2="340" y1="158" y2="158"/>
<line stroke="#000" stroke-width="2" x1="178.5819811820984" x2="178.5819811820984" y1="109" y2="159"/>
<line stroke="#000" stroke-width="2" x1="341" x2="341" y1="109" y2="159"/>
</svg>