<svg height="200" width="500" xmlns="http://www.w3.org/2000/svg">
<rect fill="#fff" height="200" width="500" x="0" y="0"/>
<path d="M40.364017 31.895914Q39.893955 30.116394,39.591774 28.370451Q39.289593 26.624508,39.289593 24.811413Q39.289593 23.233349,39.507835 21.839954Q39.726078 20.446556,40.128986 19.271404Q40.565475 17.928371,41.270565 16.736427Q41.97566 15.544487,42.76469 14.7722435Q43.553722 14,44.15809 14Q44.963905 14,46.374092 16.853943Q47.079185 18.297703,47.41494 19.976494Q47.7507 21.655289,47.7507 23.569107Q47.7507 25.952991,47.11276 28.320087Q46.47482 30.687183,45.249302 32.768883Q44.02378 34.850586,42.311417 36.42865L43.486572 42.06939Q43.990208 42.002235,44.325966 41.96866Q44.661724 41.935085,44.829605 41.935085Q46.877728 41.935085,48.48937 43.093452Q50.101006 44.251816,51.05792 46.132065Q52.01483 48.01231,52.01483 50.26189Q52.01483 52.84723,50.688583 54.91214Q49.36234 56.977055,46.709846 57.950752Q46.877728 58.52154,47.683548 62.71852Q47.885002 63.725796,47.985733 64.31337Q48.086456 64.90095,48.120033 65.33743Q48.15361 65.77392,48.15361 66.34471Q48.15361 68.0235,47.331 69.34975Q46.508392 70.675995,45.114998 71.41466Q43.7216 72.15333,42.00923 72.15333Q40.26329 72.15333,38.920258 71.4986Q37.577225 70.84387,36.80498 69.6855Q36.032738 68.52714,36.032738 67.01623Q36.032738 65.40459,36.922497 64.33016Q37.812256 63.255733,39.45747 63.255733Q40.867657 63.255733,41.757416 64.2798Q42.647175 65.30386,42.647175 66.71404Q42.647175 67.922775,41.807777 68.82932Q40.968384 69.73587,39.62535 69.73587L39.289593 69.73587Q40.162563 71.04533,42.04281 71.04533Q44.359543 71.04533,45.669 69.53442Q46.978455 68.0235,46.978455 65.673195Q46.978455 65.1024,46.844154 64.14549Q46.709846 63.188583,46.374092 61.84555Q46.03833 60.502518,45.85367 59.629547Q45.669 58.756573,45.601845 58.38724Q44.46027 58.723,42.91578 58.723Q40.02826 58.723,37.275043 57.04421Q34.588978 55.365417,33.044487 52.612198Q31.5 49.85898,31.5 46.669277Q31.5 43.647453,32.87661 40.994965Q34.25322 38.342472,36.284554 36.126465Q38.315895 33.91046,40.364017 31.895914ZM41.270565 31.056519Q42.04281 30.653608,42.91578 29.562393Q43.788754 28.47118,44.594574 27.060995Q45.40039 25.65081,45.90403 24.223839Q46.40767 22.796864,46.40767 21.655289Q46.40767 20.446556,46.03833 19.741467Q45.669 19.036373,44.76245 19.036373Q43.95663 19.036373,43.201176 19.77504Q42.44572 20.51371,41.858143 21.739227Q41.270565 22.964745,40.934807 24.475655Q40.59905 25.986568,40.59905 27.564632Q40.59905 28.63906,40.81729 29.51203Q41.035534 30.385002,41.270565 31.056519ZM43.184387 46.06491Q42.27784 46.266365,41.47202 46.921097Q40.6662 47.575825,40.17935 48.49916Q39.6925 49.422493,39.6925 50.463345Q39.6925 51.302742,40.128986 52.1925Q40.565475 53.08226,41.203415 53.619473Q41.6399 54.02238,42.076385 54.22384Q42.580025 54.45887,42.580025 54.660324Q42.580025 54.76105,42.244263 54.86178Q40.968384 54.559597,39.94432 53.7202Q38.920258 52.880806,38.33268 51.68886Q37.745102 50.49692,37.745102 49.15389Q37.745102 47.71013,38.33268 46.367096Q38.920258 45.024063,39.977898 43.949635Q41.035534 42.87521,42.378567 42.337997L41.40487 37.268044Q37.510075 40.42417,35.68019 43.462784Q33.850307 46.501396,33.850307 49.489647Q33.850307 51.672073,34.991886 53.552322Q36.133465 55.432568,38.114437 56.590935Q40.095413 57.7493,42.580025 57.7493Q43.25154 57.7493,43.939842 57.614994Q44.628147 57.480694,45.40039 57.279236L43.184387 46.06491ZM46.441242 56.943478Q49.731674 55.533295,49.731674 51.168438Q49.731674 49.724678,48.993004 48.532734Q48.254337 47.340794,47.01203 46.6357Q45.769726 45.93061,44.22524 45.93061L46.441242 56.943478Z" fill="#000"/>
<path d="M64.11892 23.805262L64.11892 17.40347L62.01483 17.940683L62.01483 13.463906L64.11892 12.881926L64.11892 4.107443L65.506714 4.107443L65.506714 12.523784L68.50616 11.807499L68.50616 3.0777855L69.89396 3.0777855L69.89396 11.449357L72.08758 10.956912L72.08758 15.388921L69.89396 16.01567L69.89396 22.41746L72.08758 21.880247L72.08758 26.491327L69.89396 27.02854L69.89396 35.44488L68.50616 35.44488L68.50616 27.386683L65.506714 28.192501L65.506714 36.92222L64.11892 36.92222L64.11892 28.505877L62.01483 29.043089L62.01483 24.43201L64.11892 23.805262ZM68.50616 22.730835L68.50616 16.284275L65.506714 17.045328L65.506714 23.447119L68.50616 22.730835Z" fill="#000"/>
<path d="M75.191666 41.80526L75.191666 35.40347L73.08758 35.94068L73.08758 31.463905L75.191666 30.881926L75.191666 22.107443L76.57947 22.107443L76.57947 30.523785L79.5789 29.807499L79.5789 21.077785L80.966705 21.077785L80.966705 29.449356L83.160324 28.956913L83.160324 33.38892L80.966705 34.01567L80.966705 40.41746L83.160324 39.880245L83.160324 44.491325L80.966705 45.02854L80.966705 53.44488L79.5789 53.44488L79.5789 45.38668L76.57947 46.1925L76.57947 54.92222L75.191666 54.92222L75.191666 46.505875L73.08758 47.04309L73.08758 42.43201L75.191666 41.80526ZM79.5789 40.730835L79.5789 34.284275L76.57947 35.045326L76.57947 41.44712L79.5789 40.730835Z" fill="#000"/>
<path d="M86.26441 17.805262L86.26441 11.40347L84.160324 11.940683L84.160324 7.4639063L86.26441 6.8819256L86.26441 -1.8925571L87.65221 -1.8925571L87.65221 6.5237837L90.65165 5.807499L90.65165 -2.9222145L92.03945 -2.9222145L92.03945 5.449357L94.23307 4.956912L94.23307 9.388921L92.03945 10.01567L92.03945 16.41746L94.23307 15.880247L94.23307 20.491327L92.03945 21.02854L92.03945 29.444881L90.65165 29.444881L90.65165 21.386683L87.65221 22.192501L87.65221 30.922216L86.26441 30.922216L86.26441 22.505877L84.160324 23.043089L84.160324 18.43201L86.26441 17.805262ZM90.65165 16.730835L90.65165 10.284276L87.65221 11.045328L87.65221 17.447119L90.65165 16.730835Z" fill="#000"/>
<path d="M97.337166 35.80526L97.337166 29.40347L95.23308 29.940683L95.23308 25.463905L97.337166 24.881926L97.337166 16.107443L98.72496 16.107443L98.72496 24.523785L101.7244 23.807499L101.7244 15.0777855L103.112206 15.0777855L103.112206 23.449356L105.305824 22.956913L105.305824 27.38892L103.112206 28.01567L103.112206 34.41746L105.305824 33.880245L105.305824 38.491325L103.112206 39.02854L103.112206 47.44488L101.7244 47.44488L101.7244 39.38668L98.72496 40.1925L98.72496 48.92222L97.337166 48.92222L97.337166 40.505875L95.23308 41.04309L95.23308 36.43201L97.337166 35.80526ZM101.7244 34.730835L101.7244 28.284275L98.72496 29.045328L98.72496 35.44712L101.7244 34.730835Z" fill="#000"/>
<path d="M126.305824 49.246223Q126.305824 47.69334,127.43901 46.51819Q128.57219 45.343033,130.52379 44.671516Q132.47539 44,134.82568 44Q137.21797 44,139.23251 44.65053Q141.24707 45.301064,142.46419 46.47622Q143.68132 47.65137,143.68132 49.246223Q143.68132 50.883045,142.50616 52.07918Q141.33101 53.275322,139.37941 53.925854Q137.42783 54.576385,135.07751 54.576385Q132.7272 54.576385,130.73364 53.94684Q128.74007 53.31729,127.52295 52.121155Q126.305824 50.925014,126.305824 49.246223ZM135.95888 53.736988Q137.38585 53.736988,137.91048 52.687744Q138.43509 51.6385,138.43509 50.21153Q138.43509 48.742584,137.82654 47.525463Q137.21797 46.30834,136.2107 45.573868Q135.20341 44.839394,133.94432 44.839394Q132.51735 44.839394,132.0347 45.88864Q131.55205 46.937885,131.55205 48.364857Q131.55205 49.791832,132.13962 51.008953Q132.7272 52.226078,133.71349 52.981533Q134.69978 53.736988,135.95888 53.736988Z" fill="#000"/>
<line stroke="#000" stroke-width="1.5" x1="21.5" x2="310.52791118621826" y1="20" y2="20"/>
<line stroke="#000" stroke-width="1.5" x1="21.5" x2="310.52791118621826" y1="32" y2="32"/>
<line stroke="#000" stroke-width="1.5" x1="21.5" x2="310.52791118621826" y1="44" y2="44"/>
<line stroke="#000" stroke-width="1.5" x1="21.5" x2="310.52791118621826" y1="56" y2="56"/>
<line stroke="#000" stroke-width="1.5" x1="21.5" x2="310.52791118621826" y1="68" y2="68"/>
<line stroke="#000" stroke-width="1.5" x1="21.5" x2="21.5" y1="19.25" y2="68.75"/>
<line stroke="#000" stroke-width="1.5" x1="311.27791118621826" x2="311.27791118621826" y1="19.25" y2="68.75"/>
<path d="M327.35263 37.33184Q325.3381 37.33184,324.058 36.38752Q322.77792 35.4432,322.77792 33.512592Q322.77792 31.372131,323.97406 29.672356Q325.1702 27.97258,327.10083 26.98629Q329.03143 26,331.21387 26Q333.06052 26,334.15173 26.98629Q335.24295 27.97258,335.24295 29.777279Q335.24295 31.8338,334.15173 33.55456Q333.06052 35.275322,331.27682 36.30358Q329.4931 37.33184,327.35263 37.33184ZM323.9111 34.519867Q323.9111 34.939564,324.2259 35.275322Q324.54065 35.61108,325.08627 35.61108Q326.5552 35.61108,328.73764 34.393955Q330.20657 33.55456,331.4027 32.526302Q332.59888 31.498041,333.31235 30.469782Q334.02585 29.44152,334.02585 28.728035Q334.02585 28.266369,333.795 27.951595Q333.56418 27.636822,332.9766 27.636822Q332.17917 27.636822,331.046 28.140457Q329.91278 28.644096,328.67468 29.44152Q327.43658 30.238947,326.34537 31.183268Q325.25415 32.127586,324.58264 33.008953Q323.9111 33.89032,323.9111 34.519867Z" fill="#000"/>
<path d="M316.60263 31.33184Q314.5881 31.33184,313.308 30.387522Q312.02792 29.443201,312.02792 27.51259Q312.02792 25.372131,313.22406 23.672356Q314.4202 21.97258,316.35083 20.98629Q318.28143 20,320.46387 20Q322.31052 20,323.40173 20.98629Q324.49295 21.97258,324.49295 23.777279Q324.49295 25.8338,323.40173 27.55456Q322.31052 29.275322,320.52682 30.303581Q318.7431 31.33184,316.60263 31.33184ZM313.1611 28.519865Q313.1611 28.939564,313.4759 29.275322Q313.79065 29.61108,314.33627 29.61108Q315.8052 29.61108,317.98764 28.393955Q319.45657 27.55456,320.6527 26.5263Q321.84888 25.498041,322.56235 24.469782Q323.27585 23.44152,323.27585 22.728035Q323.27585 22.266369,323.045 21.951595Q322.81418 21.636822,322.2266 21.636822Q321.42917 21.636822,320.296 22.140457Q319.16278 22.644096,317.92468 23.44152Q316.68658 24.238947,315.59537 25.183268Q314.50415 26.127588,313.83264 27.008953Q313.1611 27.890318,313.1611 28.519865Z" fill="#000"/>
<line stroke="#000" stroke-width="1.5" x1="323.52791118621826" x2="323.52791118621826" y1="-10" y2="30.5"/>
<line stroke="#000" stroke-width="1.5" x1="302.02791118621826" x2="443.63895559310913" y1="20" y2="20"/>
<line stroke="#000" stroke-width="1.5" x1="302.02791118621826" x2="443.63895559310913" y1="32" y2="32"/>
<line stroke="#000" stroke-width="1.5" x1="302.02791118621826" x2="443.63895559310913" y1="44" y2="44"/>
<line stroke="#000" stroke-width="1.5" x1="302.02791118621826" x2="443.63895559310913" y1="56" y2="56"/>
<line stroke="#000" stroke-width="1.5" x1="302.02791118621826" x2="443.63895559310913" y1="68" y2="68"/>
<line stroke="#000" stroke-width="1.5" x1="444.38895559310913" x2="444.38895559310913" y1="19.25" y2="68.75"/>
</svg>
