<svg height="180" width="298" xmlns="http://www.w3.org/2000/svg">
<path d="M156 69.17068L136.98265 69.17068L136.98265 66.22943L144.51707 58.614437Q146.69278 56.438725,148.18355 54.746502Q149.67432 53.054283,150.43985 51.422497Q151.20538 49.79071,151.20538 47.856743Q151.20538 45.479576,149.7952 44.2507Q148.38501 43.021828,146.12871 43.021828Q144.03358 43.021828,142.4421 43.747063Q140.85059 44.4723,139.19867 45.761612L137.305 43.384445Q138.99721 41.97426,141.19307 40.98713Q143.38893 40,146.12871 40Q150.1578 40,152.49469 42.0347Q154.83157 44.06939,154.83157 47.65529Q154.83157 49.911583,153.90488 51.88584Q152.97818 53.8601,151.32625 55.773922Q149.67432 57.687744,147.45831 59.863457L141.45496 65.78623L141.45496 65.947395L156 65.947395L156 69.17068Z" fill="#000"/>
<path d="M134.98265 68.76777L131.51762 68.76777L131.51762 48.662567Q131.51762 46.930054,131.55792 45.882484Q131.5982 44.834923,131.67879 43.70677Q131.03413 44.35143,130.51035 44.794632Q129.98657 45.23783,129.18076 45.922775L126.11864 48.420822L124.26525 46.04365L132.04141 40L134.98265 40L134.98265 68.76777Z" fill="#000"/>
<line stroke="#000" stroke-width="2" x1="170.5" x2="170.5" y1="30" y2="170"/>
<line stroke="#000" stroke-width="2" x1="195.5" x2="195.5" y1="30" y2="170"/>
<line stroke="#000" stroke-width="2" x1="220.5" x2="220.5" y1="30" y2="170"/>
<line stroke="#000" stroke-width="2" x1="245.5" x2="245.5" y1="30" y2="170"/>
<line stroke="#000" stroke-width="2" x1="270.5" x2="270.5" y1="30" y2="170"/>
<line stroke="#000" stroke-width="2" x1="295.5" x2="295.5" y1="30" y2="170"/>
<line stroke="#000" stroke-width="4" x1="169.5" x2="296.5" y1="30" y2="30"/>
<line stroke="#000" stroke-width="2" x1="169.5" x2="296.5" y1="60" y2="60"/>
<line stroke="#000" stroke-width="2" x1="169.5" x2="296.5" y1="90" y2="90"/>
<line stroke="#000" stroke-width="2" x1="169.5" x2="296.5" y1="120" y2="120"/>
<line stroke="#000" stroke-width="2" x1="169.5" x2="296.5" y1="150" y2="150"/>
<line stroke="#000" stroke-width="2" x1="239.25" x2="251.75" y1="7.5" y2="22.5"/>
<line stroke="#000" stroke-width="2" x1="251.75" x2="239.25" y1="7.5" y2="22.5"/>
<rect fill="#000" height="20" rx="10" stroke-width="10" width="20" x="160.5" y="65"/>
<rect fill="#000" height="20" rx="10" stroke-width="10" width="70" x="160.5" y="35"/>
</svg>