<svg height="380" width="500" xmlns="http://www.w3.org/2000/svg">
<path d="M108 92.78046L95.32177 92.78046L95.32177 90.819626L100.34471 85.742966Q101.79519 84.29249,102.78903 83.16434Q103.782875 82.036194,104.29323 80.94833Q104.80358 79.86048,104.80358 78.57117Q104.80358 76.98639,103.86346 76.16714Q102.92333 75.347885,101.419136 75.347885Q100.022385 75.347885,98.96139 75.83138Q97.90039 76.31487,96.7991 77.174416L95.53665 75.58963Q96.6648 74.64951,98.12871 73.991425Q99.59261 73.33334,101.419136 73.33334Q104.1052 73.33334,105.663124 74.689804Q107.22104 76.046265,107.22104 78.43687Q107.22104 79.94106,106.60324 81.25723Q105.98545 82.57341,104.88416 83.84929Q103.782875 85.12517,102.30554 86.575645L98.3033 90.52416L98.3033 90.63161L108 90.63161L108 92.78046Z" fill="#000"/>
<path d="M93.32176 92.51185L91.01175 92.51185L91.01175 79.10838Q91.01175 77.95337,91.03861 77.25499Q91.06547 76.55662,91.119194 75.80452Q90.68942 76.23429,90.34023 76.529755Q89.99104 76.825226,89.453835 77.28185L87.41242 78.94721L86.176834 77.362434L91.36094 73.333336L93.32176 73.333336L93.32176 92.51185Z" fill="#000"/>
<line stroke="#000" stroke-width="2" x1="41.666666666666664" x2="41.666666666666664" y1="63.333333333333336" y2="370"/>
<line stroke="#000" stroke-width="2" x1="125" x2="125" y1="63.333333333333336" y2="370"/>
<line stroke="#000" stroke-width="2" x1="208.33333333333331" x2="208.33333333333331" y1="63.333333333333336" y2="370"/>
<line stroke="#000" stroke-width="2" x1="291.6666666666667" x2="291.6666666666667" y1="63.333333333333336" y2="370"/>
<line stroke="#000" stroke-width="2" x1="375" x2="375" y1="63.333333333333336" y2="370"/>
<line stroke="#000" stroke-width="2" x1="458.3333333333333" x2="458.3333333333333" y1="63.333333333333336" y2="370"/>
<line stroke="#000" stroke-width="4" x1="40.666666666666664" x2="459.3333333333333" y1="63.333333333333336" y2="63.333333333333336"/>
<line stroke="#000" stroke-width="2" x1="40.666666666666664" x2="459.3333333333333" y1="126.66666666666667" y2="126.66666666666667"/>
<line stroke="#000" stroke-width="2" x1="40.666666666666664" x2="459.3333333333333" y1="190" y2="190"/>
<line stroke="#000" stroke-width="2" x1="40.666666666666664" x2="459.3333333333333" y1="253.33333333333334" y2="253.33333333333334"/>
<line stroke="#000" stroke-width="2" x1="40.666666666666664" x2="459.3333333333333" y1="316.6666666666667" y2="316.6666666666667"/>
</svg>