<svg height="250" width="200" xmlns="http://www.w3.org/2000/svg">
<rect fill="#fff" height="250" width="200" x="0" y="0"/>
<line stroke="#000" stroke-width="1.5" x1="20" x2="20" y1="20" y2="210"/>
<line stroke="#000" stroke-width="1.5" x1="52" x2="52" y1="20" y2="210"/>
<line stroke="#000" stroke-width="1.5" x1="84" x2="84" y1="20" y2="210"/>
<line stroke="#000" stroke-width="1.5" x1="116" x2="116" y1="20" y2="210"/>
<line stroke="#000" stroke-width="1.5" x1="148" x2="148" y1="20" y2="210"/>
<line stroke="#000" stroke-width="1.5" x1="180" x2="180" y1="20" y2="210"/>
<line stroke="#000" stroke-width="1.5" x1="20" x2="180" y1="20" y2="20"/>
<line stroke="#000" stroke-width="1.5" x1="20" x2="180" y1="55" y2="55"/>
<line stroke="#000" stroke-width="1.5" x1="20" x2="180" y1="90" y2="90"/>
<line stroke="#000" stroke-width="1.5" x1="20" x2="180" y1="125" y2="125"/>
<line stroke="#000" stroke-width="1.5" x1="20" x2="180" y1="160" y2="160"/>
<line stroke="#000" stroke-width="1.5" x1="20" x2="180" y1="195" y2="195"/>
<rect height="23.333333333333332" rx="11.666666666666666" width="151.33333333333334" x="40.333333333333336" y="25.833333333333332"/>
<rect height="23.333333333333332" rx="11.666666666666666" width="87.33333333333333" x="8.333333333333334" y="95.83333333333333"/>
<rect height="23.333333333333332" rx="11.666666666666666" width="23.333333333333332" x="40.333333333333336" y="130.83333333333334"/>
</svg>