<svg height="250" width="400" xmlns="http://www.w3.org/2000/svg">
<rect fill="#fff" height="250" width="400" x="0" y="0"/>
<path d="M91.08725 50.56855L88.832214 50.56855L88.832214 45.212845Q90.98658 44.065193,93.17114 43.461166Q95.355705 42.85714,97.44966 42.85714Q102.14094 42.85714,104.85906 45.13231Q107.57718 47.40748,107.57718 51.313515Q107.57718 55.72291,101.41611 61.863853Q100.932884 62.32694,100.69128 62.56855L93.10067 70.15915L105.644295 70.15915L105.644295 66.45445L108 66.45445L108 73.46117L88.61074 73.46117L88.61074 71.26653L97.731544 62.165863Q100.75168 59.14573,102.04027 56.618885Q103.32886 54.09204,103.32886 51.313515Q103.32886 48.273247,101.74832 46.561836Q100.167786 44.85043,97.38926 44.85043Q94.51007 44.85043,92.9396 46.27996Q91.369125 47.709488,91.08725 50.56855Z" fill="#000"/>
<path d="M72.09397 73.46117L72.09397 71.326935L77.328865 71.326935L77.328865 46.32023L71.26846 50.246403L71.26846 47.608818L78.59732 42.85714L81.37585 42.85714L81.37585 71.326935L86.61075 71.326935L86.61075 73.46117L72.09397 73.46117Z" fill="#000"/>
<line stroke="#000" stroke-width="1.5" x1="125" x2="125" y1="42.857142857142854" y2="230"/>
<line stroke="#000" stroke-width="1.5" x1="155" x2="155" y1="42.857142857142854" y2="230"/>
<line stroke="#000" stroke-width="1.5" x1="185" x2="185" y1="42.857142857142854" y2="230"/>
<line stroke="#000" stroke-width="1.5" x1="215" x2="215" y1="42.857142857142854" y2="230"/>
<line stroke="#000" stroke-width="1.5" x1="245" x2="245" y1="42.857142857142854" y2="230"/>
<line stroke="#000" stroke-width="1.5" x1="275" x2="275" y1="42.857142857142854" y2="230"/>
<line stroke="#000" stroke-width="3" x1="124.25" x2="275.75" y1="42.857142857142854" y2="42.857142857142854"/>
<line stroke="#000" stroke-width="1.5" x1="124.25" x2="275.75" y1="75.71428571428571" y2="75.71428571428571"/>
<line stroke="#000" stroke-width="1.5" x1="124.25" x2="275.75" y1="108.57142857142856" y2="108.57142857142856"/>
<line stroke="#000" stroke-width="1.5" x1="124.25" x2="275.75" y1="141.42857142857142" y2="141.42857142857142"/>
<line stroke="#000" stroke-width="1.5" x1="124.25" x2="275.75" y1="174.28571428571428" y2="174.28571428571428"/>
<line stroke="#000" stroke-width="1.5" x1="124.25" x2="275.75" y1="207.14285714285714" y2="207.14285714285714"/>
<line stroke="#000" stroke-width="1.5" x1="207.5" x2="222.5" y1="19.714285714285715" y2="36.14285714285714"/>
<line stroke="#000" stroke-width="1.5" x1="222.5" x2="207.5" y1="19.714285714285715" y2="36.14285714285714"/>
<rect fill="transparent" height="21.9047619047619" rx="10.95238095238095" stroke="#000" width="21.9047619047619" x="114.04761904761905" y="16.976190476190474"/>
<rect height="21.9047619047619" rx="10.95238095238095" width="21.9047619047619" x="144.04761904761904" y="115.54761904761904"/>
</svg>