<svg height="300" width="400" xmlns="http://www.w3.org/2000/svg">
<rect fill="#fff" height="300" width="400" x="0" y="0"/>
<path d="M91.08725 57.71141L88.832214 57.71141L88.832214 52.355705Q90.98658 51.208054,93.17114 50.604027Q95.355705 50,97.44966 50Q102.14094 50,104.85906 52.27517Q107.57718 54.55034,107.57718 58.456375Q107.57718 62.865772,101.41611 69.006714Q100.932884 69.4698,100.69128 69.71141L93.10067 77.30202L105.644295 77.30202L105.644295 73.59731L108 73.59731L108 80.60403L88.61074 80.60403L88.61074 78.40939L97.731544 69.30872Q100.75168 66.28859,102.04027 63.761745Q103.32886 61.2349,103.32886 58.456375Q103.32886 55.416107,101.74832 53.704697Q100.167786 51.99329,97.38926 51.99329Q94.51007 51.99329,92.9396 53.42282Q91.369125 54.85235,91.08725 57.71141Z" fill="#000"/>
<path d="M72.09397 80.60403L72.09397 78.469795L77.328865 78.469795L77.328865 53.46309L71.26846 57.389263L71.26846 54.75168L78.59732 50L81.37585 50L81.37585 78.469795L86.61075 78.469795L86.61075 80.60403L72.09397 80.60403Z" fill="#000"/>
<line stroke="#000" stroke-width="1.5" x1="125" x2="125" y1="50" y2="280"/>
<line stroke="#000" stroke-width="1.5" x1="155" x2="155" y1="50" y2="280"/>
<line stroke="#000" stroke-width="1.5" x1="185" x2="185" y1="50" y2="280"/>
<line stroke="#000" stroke-width="1.5" x1="215" x2="215" y1="50" y2="280"/>
<line stroke="#000" stroke-width="1.5" x1="245" x2="245" y1="50" y2="280"/>
<line stroke="#000" stroke-width="1.5" x1="275" x2="275" y1="50" y2="280"/>
<line stroke="#000" stroke-width="1.5" x1="125" x2="275" y1="50" y2="50"/>
<line stroke="#000" stroke-width="1.5" x1="125" x2="275" y1="90" y2="90"/>
<line stroke="#000" stroke-width="1.5" x1="125" x2="275" y1="130" y2="130"/>
<line stroke="#000" stroke-width="1.5" x1="125" x2="275" y1="170" y2="170"/>
<line stroke="#000" stroke-width="1.5" x1="125" x2="275" y1="210" y2="210"/>
<line stroke="#000" stroke-width="1.5" x1="125" x2="275" y1="250" y2="250"/>
<line stroke="#000" stroke-width="1.5" x1="207.5" x2="222.5" y1="20" y2="40"/>
<line stroke="#000" stroke-width="1.5" x1="222.5" x2="207.5" y1="20" y2="40"/>
<rect fill="transparent" height="26.666666666666668" rx="13.333333333333334" stroke="#000" width="26.666666666666668" x="111.66666666666667" y="16.666666666666668"/>
<rect height="26.666666666666668" rx="13.333333333333334" width="26.666666666666668" x="141.66666666666666" y="136.66666666666666"/>
</svg>