<svg height="200" width="310.5" xmlns="http://www.w3.org/2000/svg">
<rect fill="#fff" height="200" width="310.5" x="0" y="0"/>
<path d="M155.11359 45.702934Q155.11359 48.60388,153.50195 50.316254Q151.89032 52.028618,149.15053 52.59269L149.15053 52.753857Q152.61555 53.156765,154.30777 54.92957Q156 56.702374,156 59.563034Q156 62.061073,154.83156 64.01519Q153.66312 65.9693,151.22551 67.05716Q148.7879 68.14501,144.96027 68.14501Q142.70396 68.14501,140.77 67.80254Q138.83603 67.46007,137.06323 66.57366L137.06323 63.269806Q138.87633 64.156204,140.97145 64.65984Q143.06659 65.16348,145.00055 65.16348Q148.86848 65.16348,150.58086 63.65257Q152.29323 62.141655,152.29323 59.482452Q152.29323 56.782955,150.17795 55.59437Q148.06267 54.405785,144.23503 54.405785L141.45496 54.405785L141.45496 51.383965L144.27531 51.383965Q147.82092 51.383965,149.65416 49.893196Q151.48741 48.402428,151.48741 45.94468Q151.48741 43.84955,150.07722 42.701256Q148.66704 41.552963,146.24957 41.552963Q143.9127 41.552963,142.26077 42.237907Q140.60884 42.92285,138.9972 43.97042L137.2244 41.552963Q138.75545 40.34423,141.03189 39.45783Q143.30833 38.571426,146.20929 38.571426Q150.72188 38.571426,152.91774 40.585976Q155.11359 42.600525,155.11359 45.702934Z" fill="#000"/>
<line stroke="#000" stroke-width="2" x1="170.5" x2="170.5" y1="28.571428571428573" y2="190"/>
<line stroke="#000" stroke-width="2" x1="195.5" x2="195.5" y1="28.571428571428573" y2="190"/>
<line stroke="#000" stroke-width="2" x1="220.5" x2="220.5" y1="28.571428571428573" y2="190"/>
<line stroke="#000" stroke-width="2" x1="245.5" x2="245.5" y1="28.571428571428573" y2="190"/>
<line stroke="#000" stroke-width="2" x1="270.5" x2="270.5" y1="28.571428571428573" y2="190"/>
<line stroke="#000" stroke-width="2" x1="295.5" x2="295.5" y1="28.571428571428573" y2="190"/>
<line stroke="#000" stroke-width="4" x1="169.5" x2="296.5" y1="28.571428571428573" y2="28.571428571428573"/>
<line stroke="#000" stroke-width="2" x1="169.5" x2="296.5" y1="57.142857142857146" y2="57.142857142857146"/>
<line stroke="#000" stroke-width="2" x1="169.5" x2="296.5" y1="85.71428571428572" y2="85.71428571428572"/>
<line stroke="#000" stroke-width="2" x1="169.5" x2="296.5" y1="114.28571428571429" y2="114.28571428571429"/>
<line stroke="#000" stroke-width="2" x1="169.5" x2="296.5" y1="142.85714285714286" y2="142.85714285714286"/>
<line stroke="#000" stroke-width="2" x1="169.5" x2="296.5" y1="171.42857142857144" y2="171.42857142857144"/>
<line stroke="#000" stroke-width="2" x1="164.25" x2="176.75" y1="7.142857142857143" y2="21.42857142857143"/>
<line stroke="#000" stroke-width="2" x1="176.75" x2="164.25" y1="7.142857142857143" y2="21.42857142857143"/>
<rect fill="#000" height="19.047619047619047" rx="9.523809523809524" stroke="#000" stroke-width="0" width="119.04761904761905" x="185.97619047619048" y="33.333333333333336"/>
<rect fill="#000" height="19.047619047619047" rx="9.523809523809524" stroke="#000" stroke-width="0" width="19.047619047619047" x="235.97619047619048" y="61.904761904761905"/>
<rect fill="#000" height="19.047619047619047" rx="9.523809523809524" stroke="#000" stroke-width="0" width="19.047619047619047" x="210.97619047619048" y="90.47619047619048"/>
<rect fill="#000" height="19.047619047619047" rx="9.523809523809524" stroke="#000" stroke-width="0" width="19.047619047619047" x="260.9761904761905" y="90.47619047619048"/>
</svg>