<svg height="250" width="200" xmlns="http://www.w3.org/2000/svg">
<rect fill="#fff" height="250" width="200" x="0" y="0"/>
<line stroke="#000" stroke-width="1.5" x1="20" x2="20" y1="50" y2="210"/>
<line stroke="#000" stroke-width="1.5" x1="52" x2="52" y1="50" y2="210"/>
<line stroke="#000" stroke-width="1.5" x1="84" x2="84" y1="50" y2="210"/>
<line stroke="#000" stroke-width="1.5" x1="116" x2="116" y1="50" y2="210"/>
<line stroke="#000" stroke-width="1.5" x1="148" x2="148" y1="50" y2="210"/>
<line stroke="#000" stroke-width="1.5" x1="180" x2="180" y1="50" y2="210"/>
<line stroke="#000" stroke-width="1.5" x1="20" x2="180" y1="50" y2="50"/>
<line stroke="#000" stroke-width="1.5" x1="20" x2="180" y1="80" y2="80"/>
<line stroke="#000" stroke-width="1.5" x1="20" x2="180" y1="110" y2="110"/>
<line stroke="#000" stroke-width="1.5" x1="20" x2="180" y1="140" y2="140"/>
<line stroke="#000" stroke-width="1.5" x1="20" x2="180" y1="170" y2="170"/>
<line stroke="#000" stroke-width="1.5" x1="20" x2="180" y1="200" y2="200"/>
<line stroke="#000" stroke-width="1.5" x1="124" x2="140" y1="27.5" y2="42.5"/>
<line stroke="#000" stroke-width="1.5" x1="140" x2="124" y1="27.5" y2="42.5"/>
<rect fill="transparent" height="20" rx="10" stroke="#000" width="20" x="10" y="25"/>
<rect height="20" rx="10" width="20" x="42" y="115"/>
</svg>