<svg height="250" width="400" xmlns="http://www.w3.org/2000/svg">
<rect fill="#fff" height="250" width="400" x="0" y="0"/>
<path d="M91.08725 56.04474L88.832214 56.04474L88.832214 50.689034Q90.98658 49.54138,93.17114 48.937355Q95.355705 48.33333,97.44966 48.33333Q102.14094 48.33333,104.85906 50.608498Q107.57718 52.883667,107.57718 56.789703Q107.57718 61.1991,101.41611 67.34004Q100.932884 67.80313,100.69128 68.04474L93.10067 75.635345L105.644295 75.635345L105.644295 71.93064L108 71.93064L108 78.937355L88.61074 78.937355L88.61074 76.74272L97.731544 67.64205Q100.75168 64.62192,102.04027 62.095074Q103.32886 59.56823,103.32886 56.789703Q103.32886 53.749435,101.74832 52.038025Q100.167786 50.32662,97.38926 50.32662Q94.51007 50.32662,92.9396 51.75615Q91.369125 53.185677,91.08725 56.04474Z" fill="#000"/>
<path d="M72.09397 78.937355L72.09397 76.80312L77.328865 76.80312L77.328865 51.796417L71.26846 55.72259L71.26846 53.085007L78.59732 48.33333L81.37585 48.33333L81.37585 76.80312L86.61075 76.80312L86.61075 78.937355L72.09397 78.937355Z" fill="#000"/>
<line stroke="#000" stroke-width="1.5" x1="125" x2="125" y1="48.333333333333336" y2="220"/>
<line stroke="#000" stroke-width="1.5" x1="155" x2="155" y1="48.333333333333336" y2="220"/>
<line stroke="#000" stroke-width="1.5" x1="185" x2="185" y1="48.333333333333336" y2="220"/>
<line stroke="#000" stroke-width="1.5" x1="215" x2="215" y1="48.333333333333336" y2="220"/>
<line stroke="#000" stroke-width="1.5" x1="245" x2="245" y1="48.333333333333336" y2="220"/>
<line stroke="#000" stroke-width="1.5" x1="275" x2="275" y1="48.333333333333336" y2="220"/>
<line stroke="#000" stroke-width="3" x1="124.25" x2="275.75" y1="48.333333333333336" y2="48.333333333333336"/>
<line stroke="#000" stroke-width="1.5" x1="124.25" x2="275.75" y1="86.66666666666667" y2="86.66666666666667"/>
<line stroke="#000" stroke-width="1.5" x1="124.25" x2="275.75" y1="125" y2="125"/>
<line stroke="#000" stroke-width="1.5" x1="124.25" x2="275.75" y1="163.33333333333334" y2="163.33333333333334"/>
<line stroke="#000" stroke-width="1.5" x1="124.25" x2="275.75" y1="201.66666666666669" y2="201.66666666666669"/>
<line stroke="#000" stroke-width="1.5" x1="207.5" x2="222.5" y1="21.083333333333336" y2="40.25"/>
<line stroke="#000" stroke-width="1.5" x1="222.5" x2="207.5" y1="21.083333333333336" y2="40.25"/>
<rect height="25.555555555555557" rx="12.777777777777779" width="25.555555555555557" x="112.22222222222223" y="94.55555555555556"/>
<rect height="25.555555555555557" rx="12.777777777777779" width="85.55555555555556" x="112.22222222222223" y="56.22222222222223"/>
</svg>