<svg height="200" width="298" xmlns="http://www.w3.org/2000/svg">
<rect fill="#fff" height="200" width="298" x="0" y="0"/>
<line stroke="#000" stroke-width="2" x1="170.5" x2="170.5" y1="28.571428571428573" y2="190"/>
<line stroke="#000" stroke-width="2" x1="195.5" x2="195.5" y1="28.571428571428573" y2="190"/>
<line stroke="#000" stroke-width="2" x1="220.5" x2="220.5" y1="28.571428571428573" y2="190"/>
<line stroke="#000" stroke-width="2" x1="245.5" x2="245.5" y1="28.571428571428573" y2="190"/>
<line stroke="#000" stroke-width="2" x1="270.5" x2="270.5" y1="28.571428571428573" y2="190"/>
<line stroke="#000" stroke-width="2" x1="295.5" x2="295.5" y1="28.571428571428573" y2="190"/>
<line stroke="#000" stroke-width="4" x1="169.5" x2="296.5" y1="28.571428571428573" y2="28.571428571428573"/>
<line stroke="#000" stroke-width="2" x1="169.5" x2="296.5" y1="57.142857142857146" y2="57.142857142857146"/>
<line stroke="#000" stroke-width="2" x1="169.5" x2="296.5" y1="85.71428571428572" y2="85.71428571428572"/>
<line stroke="#000" stroke-width="2" x1="169.5" x2="296.5" y1="114.28571428571429" y2="114.28571428571429"/>
<line stroke="#000" stroke-width="2" x1="169.5" x2="296.5" y1="142.85714285714286" y2="142.85714285714286"/>
<line stroke="#000" stroke-width="2" x1="169.5" x2="296.5" y1="171.42857142857144" y2="171.42857142857144"/>
<rect fill="#000" height="19.047619047619047" rx="9.523809523809524" stroke-width="9.523809523809524" width="19.047619047619047" x="235.97619047619048" y="4.761904761904762"/>
<rect fill="#000" height="19.047619047619047" rx="9.523809523809524" stroke-width="9.523809523809524" width="69.04761904761905" x="160.97619047619048" y="33.333333333333336"/>
</svg>