<svg xmlns="http://www.w3.org/2000/svg">
<line stroke="#000" x1="10" x2="220" y1="50" y2="50"/>
<line stroke="#000" x1="10" x2="220" y1="70" y2="70"/>
<line stroke="#000" x1="10" x2="220" y1="90" y2="90"/>
<line stroke="#000" x1="10" x2="220" y1="110" y2="110"/>
<line stroke="#000" x1="10" x2="220" y1="130" y2="130"/>
<line stroke="#000" x1="10" x2="10" y1="50" y2="130"/>
<line stroke="#000" x1="220" x2="220" y1="50" y2="130"/>
<ellipse cx="30" cy="80" fill="none" rx="10" ry="5" stroke="black"/>
<ellipse cx="30" cy="60" fill="none" rx="10" ry="5" stroke="black"/>
<ellipse cx="30" cy="40" fill="none" rx="10" ry="5" stroke="black"/>
<line fill="none" stroke="black" x1="20" x2="20" y1="120" y2="40"/>
<ellipse cx="130" cy="150" fill="blue" rx="10" ry="5"/>
<line fill="none" stroke="black" x1="140" x2="140" y1="150" y2="110"/>
<ellipse cx="180" cy="150" fill="blue" rx="10" ry="5"/>
<ellipse cx="180" cy="130" fill="blue" rx="10" ry="5"/>
<ellipse cx="180" cy="110" fill="blue" rx="10" ry="5"/>
<line fill="none" stroke="black" x1="190" x2="190" y1="150" y2="70"/>
<ellipse cx="260" cy="150" fill="black" rx="10" ry="5"/>
<ellipse cx="260" cy="130" fill="black" rx="10" ry="5"/>
<ellipse cx="260" cy="110" fill="black" rx="10" ry="5"/>
<line stroke="#000" stroke-width="4" x1="140" x2="190" y1="112" y2="72"/>
<line fill="none" stroke="black" x1="270" x2="270" y1="150" y2="70"/>
</svg>