<svg xmlns="http://www.w3.org/2000/svg">
<rect fill="#fff" height="200" width="74" x="0" y="0"/>
<path d="M38.574707 63.33184Q36.560158 63.33184,35.28008 62.38752Q34 61.4432,34 59.512592Q34 57.37213,35.196136 55.672356Q36.392277 53.97258,38.322887 52.98629Q40.253498 52,42.435925 52Q44.282597 52,45.37381 52.98629Q46.465027 53.97258,46.465027 55.77728Q46.465027 57.8338,45.37381 59.55456Q44.282597 61.275322,42.49888 62.30358Q40.715164 63.33184,38.574707 63.33184Z" fill="#000"/>
<path d="M38.574707 33.33184Q36.560158 33.33184,35.28008 32.38752Q34 31.443201,34 29.51259Q34 27.372131,35.196136 25.672356Q36.392277 23.97258,38.322887 22.98629Q40.253498 22,42.435925 22Q44.282597 22,45.37381 22.98629Q46.465027 23.97258,46.465027 25.777279Q46.465027 27.8338,45.37381 29.55456Q44.282597 31.275322,42.49888 32.30358Q40.715164 33.33184,38.574707 33.33184Z" fill="#000"/>
<path d="M38.574707 15.331842Q36.560158 15.331842,35.28008 14.387522Q34 13.443202,34 11.512591Q34 9.372133,35.196136 7.6723566Q36.392277 5.97258,38.322887 4.98629Q40.253498 4,42.435925 4Q44.282597 4,45.37381 4.98629Q46.465027 5.97258,46.465027 7.777281Q46.465027 9.8338,45.37381 11.554562Q44.282597 13.275322,42.49888 14.303582Q40.715164 15.331842,38.574707 15.331842Z" fill="#000"/>
<line stroke="#000" stroke-width="2" x1="34" x2="34" y1="7" y2="94"/>
<line stroke="#000" stroke-width="2" x1="13" x2="66" y1="10" y2="10"/>
<line stroke="#000" stroke-width="2" x1="13" x2="66" y1="22" y2="22"/>
<line stroke="#000" stroke-width="2" x1="13" x2="66" y1="34" y2="34"/>
<line stroke="#000" stroke-width="2" x1="13" x2="66" y1="46" y2="46"/>
<line stroke="#000" stroke-width="2" x1="13" x2="66" y1="58" y2="58"/>
<line stroke="#000" stroke-width="2" x1="13" x2="13" y1="9" y2="59"/>
<line stroke="#000" stroke-width="2" x1="67" x2="67" y1="9" y2="59"/>
</svg>