<svg xmlns="http://www.w3.org/2000/svg">
<rect fill="#fff" height="100" width="200" x="0" y="0"/>
<path d="M24.104086 73.80526L24.104086 67.40347L22 67.94068L22 63.463905L24.104086 62.881927L24.104086 54.107445L25.491886 54.107445L25.491886 62.523785L28.491325 61.8075L28.491325 53.077785L29.879128 53.077785L29.879128 61.449356L32.072746 60.956913L32.072746 65.38892L29.879128 66.01567L29.879128 72.41746L32.072746 71.88025L32.072746 76.491325L29.879128 77.02854L29.879128 85.44488L28.491325 85.44488L28.491325 77.38668L25.491886 78.192505L25.491886 86.92222L24.104086 86.92222L24.104086 78.505875L22 79.04309L22 74.43201L24.104086 73.80526ZM28.491325 72.730835L28.491325 66.28428L25.491886 67.04533L25.491886 73.44712L28.491325 72.730835Z" fill="#000"/>
<path d="M41.647453 75.33184Q39.632904 75.33184,38.352825 74.38752Q37.072746 73.4432,37.072746 71.51259Q37.072746 69.37213,38.268887 67.672356Q39.465027 65.97258,41.395634 64.98629Q43.326244 64,45.508675 64Q47.355347 64,48.44656 64.98629Q49.537773 65.97258,49.537773 67.77728Q49.537773 69.8338,48.44656 71.55456Q47.355347 73.27532,45.57163 74.30358Q43.787914 75.33184,41.647453 75.33184Z" fill="#000"/>
<line stroke="#000" stroke-width="2" x1="48.50131961277553" x2="48.50131961277553" y1="34" y2="68.5"/>
<path d="M73.0291 18L79.74426 26.184107Q77.645775 28.660324,76.512596 30.465023Q75.37941 32.269722,75.37941 34.116394Q75.37941 35.669277,76.38668 37.369053Q77.39396 39.06883,79.576385 41.670956L78.90487 42.59429Q77.0582 41.419136,75.46335 41.419136Q74.28819 41.419136,73.700615 42.19558Q73.11304 42.97202,73.11304 44.063232Q73.11304 45.406265,73.679634 46.602406Q74.24622 47.798546,75.21153 48.88976L74.665924 49.687183Q71.770004 47.588696,70.385 45.867935Q69 44.147175,69 42.13262Q69 40.327923,70.13319 39.488525Q71.26637 38.64913,72.86122 38.64913Q74.120316 38.64913,76.134865 39.614437L76.134865 39.5305L69.67152 30.926691Q73.91047 27.191381,73.91047 23.959707Q73.91047 21.399551,71.2244 18L73.0291 18Z" fill="#000"/>
<path d="M96 46.005596L97.3878 46.005596L97.3878 63.465027Q99.044205 61.808617,101.14829 61.808617Q102.580864 61.808617,103.74483 62.771126Q104.90878 63.73363,104.90878 65.56911Q104.90878 67.00168,104.0582 68.21041Q103.20761 69.419136,101.77504 70.62787L98.686066 73.269165Q97.83548 73.98545,97.16396 74.67935Q96.49245 75.37325,96 76L96 46.005596ZM97.3878 73.00056Q98.551765 71.74706,99.35758 70.69502Q100.16341 69.642975,100.611084 68.83716Q101.10352 67.98657,101.34975 67.27029Q101.59597 66.554,101.59597 65.92725Q101.59597 64.67375,101.01399 64.11416Q100.43201 63.55456,99.76049 63.55456Q99.044205 63.55456,98.35031 64.06939Q97.65641 64.58422,97.3878 65.479576L97.3878 73.00056Z" fill="#000"/>
<path d="M103.87913 37.78512L103.87913 61.82541L102.491325 61.82541L102.491325 52.33464L96 53.99105L96 30.174597L97.47733 30.174597L97.47733 39.441525L103.87913 37.78512ZM102.580864 48.17124L102.580864 42.440964L97.3878 43.73923L97.3878 49.424736L102.580864 48.17124Z" fill="#000"/>
<path d="M125.453835 75.33184Q123.439285 75.33184,122.15921 74.38752Q120.87913 73.4432,120.87913 71.51259Q120.87913 69.37213,122.075264 67.672356Q123.27141 65.97258,125.20202 64.98629Q127.13263 64,129.31505 64Q131.16173 64,132.25294 64.98629Q133.34415 65.97258,133.34415 67.77728Q133.34415 69.8338,132.25294 71.55456Q131.16173 73.27532,129.378 74.30358Q127.59429 75.33184,125.453835 75.33184ZM122.012314 72.51987Q122.012314 72.93956,122.32709 73.27532Q122.64186 73.61108,123.18747 73.61108Q124.65641 73.61108,126.83884 72.39396Q128.30779 71.55456,129.50392 70.5263Q130.70006 69.49804,131.41354 68.46978Q132.12703 67.44152,132.12703 66.728035Q132.12703 66.266365,131.8962 65.95159Q131.66536 65.63682,131.07779 65.63682Q130.28036 65.63682,129.14717 66.14046Q128.01399 66.6441,126.77589 67.44152Q125.53777 68.238945,124.44656 69.183266Q123.35535 70.12759,122.68383 71.00896Q122.012314 71.89032,122.012314 72.51987Z" fill="#000"/>
<path d="M113.453835 69.33184Q111.439285 69.33184,110.15921 68.38752Q108.87913 67.4432,108.87913 65.51259Q108.87913 63.37213,110.075264 61.672356Q111.27141 59.97258,113.20202 58.98629Q115.13263 58,117.315056 58Q119.16173 58,120.25294 58.98629Q121.344154 59.97258,121.344154 61.77728Q121.344154 63.8338,120.25294 65.55456Q119.16173 67.27532,117.378006 68.30358Q115.59429 69.33184,113.453835 69.33184ZM110.012314 66.51987Q110.012314 66.93956,110.32709 67.27532Q110.64186 67.61108,111.18747 67.61108Q112.65641 67.61108,114.83884 66.39396Q116.30778 65.55456,117.50392 64.5263Q118.70006 63.49804,119.41354 62.46978Q120.12703 61.44152,120.12703 60.728035Q120.12703 60.26637,119.896194 59.951595Q119.66536 59.63682,119.07779 59.63682Q118.28036 59.63682,117.14718 60.140457Q116.01399 60.644096,114.77589 61.44152Q113.53777 62.23895,112.44656 63.183266Q111.35535 64.12759,110.68383 65.00896Q110.012314 65.89032,110.012314 66.51987Z" fill="#000"/>
<path d="M125.453835 63.33184Q123.439285 63.33184,122.15921 62.38752Q120.87913 61.4432,120.87913 59.512592Q120.87913 57.37213,122.075264 55.672356Q123.27141 53.97258,125.20202 52.98629Q127.13263 52,129.31505 52Q131.16173 52,132.25294 52.98629Q133.34415 53.97258,133.34415 55.77728Q133.34415 57.8338,132.25294 59.55456Q131.16173 61.275322,129.378 62.30358Q127.59429 63.33184,125.453835 63.33184ZM122.012314 60.519867Q122.012314 60.939564,122.32709 61.275322Q122.64186 61.61108,123.18747 61.61108Q124.65641 61.61108,126.83884 60.393955Q128.30779 59.55456,129.50392 58.526302Q130.70006 57.49804,131.41354 56.46978Q132.12703 55.44152,132.12703 54.728035Q132.12703 54.26637,131.8962 53.951595Q131.66536 53.63682,131.07779 53.63682Q130.28036 53.63682,129.14717 54.140457Q128.01399 54.644096,126.77589 55.44152Q125.53777 56.23895,124.44656 57.183266Q123.35535 58.127586,122.68383 59.008953Q122.012314 59.89032,122.012314 60.519867Z" fill="#000"/>
<path d="M113.453835 51.33184Q111.439285 51.33184,110.15921 50.38752Q108.87913 49.4432,108.87913 47.512592Q108.87913 45.37213,110.075264 43.672356Q111.27141 41.97258,113.20202 40.98629Q115.13263 40,117.315056 40Q119.16173 40,120.25294 40.98629Q121.344154 41.97258,121.344154 43.77728Q121.344154 45.8338,120.25294 47.55456Q119.16173 49.275322,117.378006 50.30358Q115.59429 51.33184,113.453835 51.33184ZM110.012314 48.519867Q110.012314 48.939564,110.32709 49.275322Q110.64186 49.61108,111.18747 49.61108Q112.65641 49.61108,114.83884 48.393955Q116.30778 47.55456,117.50392 46.526302Q118.70006 45.49804,119.41354 44.46978Q120.12703 43.44152,120.12703 42.728035Q120.12703 42.26637,119.896194 41.951595Q119.66536 41.63682,119.07779 41.63682Q118.28036 41.63682,117.14718 42.140457Q116.01399 42.644096,114.77589 43.44152Q113.53777 44.23895,112.44656 45.183266Q111.35535 46.127586,110.68383 47.008953Q110.012314 47.89032,110.012314 48.519867Z" fill="#000"/>
<line stroke="#000" stroke-width="2" x1="120.30769893101284" x2="120.30769893101284" y1="10" y2="68.5"/>
<line stroke="#000" stroke-width="2" x1="13" x2="180" y1="10" y2="10"/>
<line stroke="#000" stroke-width="2" x1="13" x2="180" y1="22" y2="22"/>
<line stroke="#000" stroke-width="2" x1="13" x2="180" y1="34" y2="34"/>
<line stroke="#000" stroke-width="2" x1="13" x2="180" y1="46" y2="46"/>
<line stroke="#000" stroke-width="2" x1="13" x2="180" y1="58" y2="58"/>
<line stroke="#000" stroke-width="2" x1="13" x2="13" y1="9" y2="59"/>
<line stroke="#000" stroke-width="2" x1="181" x2="181" y1="9" y2="59"/>
</svg>