<svg xmlns="http://www.w3.org/2000/svg">
<rect fill="#fff" height="200" width="178" x="0" y="0"/>
<path d="M 3.17 11.207 A 7.059 7.059 0 0 0 4.578 11.34 Q 6.72 11.34 8.505 10.311 Q 10.29 9.282 11.382 7.56 Q 12.474 5.838 12.474 3.78 Q 12.474 1.974 11.382 0.987 Q 10.29 0 8.442 0 Q 6.258 0 4.326 0.987 Q 2.394 1.974 1.197 3.675 Q 0 5.376 0 7.518 A 4.784 4.784 0 0 0 0.092 8.481 A 3.048 3.048 0 0 0 1.281 10.395 A 4.26 4.26 0 0 0 1.565 10.587 Q 2.269 11.024 3.17 11.207 Z" fill="#000" fill-rule="evenodd" transform="translate(27, 67)"/>
<path d="M 3.17 11.207 A 7.059 7.059 0 0 0 4.578 11.34 Q 6.72 11.34 8.505 10.311 Q 10.29 9.282 11.382 7.56 Q 12.474 5.838 12.474 3.78 Q 12.474 1.974 11.382 0.987 Q 10.29 0 8.442 0 Q 6.258 0 4.326 0.987 Q 2.394 1.974 1.197 3.675 Q 0 5.376 0 7.518 A 4.784 4.784 0 0 0 0.092 8.481 A 3.048 3.048 0 0 0 1.281 10.395 A 4.26 4.26 0 0 0 1.565 10.587 Q 2.269 11.024 3.17 11.207 Z" fill="#000" fill-rule="evenodd" transform="translate(39, 97)"/>
<path d="M 3.17 11.207 A 7.059 7.059 0 0 0 4.578 11.34 Q 6.72 11.34 8.505 10.311 Q 10.29 9.282 11.382 7.56 Q 12.474 5.838 12.474 3.78 Q 12.474 1.974 11.382 0.987 Q 10.29 0 8.442 0 Q 6.258 0 4.326 0.987 Q 2.394 1.974 1.197 3.675 Q 0 5.376 0 7.518 A 4.784 4.784 0 0 0 0.092 8.481 A 3.048 3.048 0 0 0 1.281 10.395 A 4.26 4.26 0 0 0 1.565 10.587 Q 2.269 11.024 3.17 11.207 Z" fill="#000" fill-rule="evenodd" transform="translate(27, 103)"/>
<path d="M 3.17 11.207 A 7.059 7.059 0 0 0 4.578 11.34 Q 6.72 11.34 8.505 10.311 Q 10.29 9.282 11.382 7.56 Q 12.474 5.838 12.474 3.78 Q 12.474 1.974 11.382 0.987 Q 10.29 0 8.442 0 Q 6.258 0 4.326 0.987 Q 2.394 1.974 1.197 3.675 Q 0 5.376 0 7.518 A 4.784 4.784 0 0 0 0.092 8.481 A 3.048 3.048 0 0 0 1.281 10.395 A 4.26 4.26 0 0 0 1.565 10.587 Q 2.269 11.024 3.17 11.207 Z" fill="#000" fill-rule="evenodd" transform="translate(39, 109)"/>
<line stroke="#000" stroke-width="2" x1="22" x2="56" y1="103" y2="103"/>
<line stroke="#000" stroke-width="2" x1="32" x2="54" y1="115" y2="115"/>
<line stroke="#000" stroke-width="2" x1="39" x2="39" y1="37" y2="118"/>
<path d="M 3.17 11.207 A 7.059 7.059 0 0 0 4.578 11.34 Q 6.72 11.34 8.505 10.311 Q 10.29 9.282 11.382 7.56 Q 12.474 5.838 12.474 3.78 Q 12.474 1.974 11.382 0.987 Q 10.29 0 8.442 0 Q 6.258 0 4.326 0.987 Q 2.394 1.974 1.197 3.675 Q 0 5.376 0 7.518 A 4.784 4.784 0 0 0 0.092 8.481 A 3.048 3.048 0 0 0 1.281 10.395 A 4.26 4.26 0 0 0 1.565 10.587 Q 2.269 11.024 3.17 11.207 Z M 1.134 8.526 A 1.053 1.053 0 0 0 1.38 9.202 A 1.395 1.395 0 0 0 1.449 9.282 A 1.039 1.039 0 0 0 2.037 9.594 A 1.511 1.511 0 0 0 2.31 9.618 Q 3.7 9.618 5.729 8.529 A 16.782 16.782 0 0 0 5.964 8.4 A 17.34 17.34 0 0 0 8.251 6.848 A 15.712 15.712 0 0 0 8.631 6.531 Q 9.743 5.576 10.438 4.62 A 8.096 8.096 0 0 0 10.542 4.473 A 6.124 6.124 0 0 0 10.887 3.92 Q 11.205 3.338 11.249 2.876 A 1.531 1.531 0 0 0 11.256 2.73 A 1.533 1.533 0 0 0 11.215 2.367 A 1.152 1.152 0 0 0 11.025 1.953 Q 10.843 1.704 10.438 1.652 A 1.811 1.811 0 0 0 10.206 1.638 A 3.225 3.225 0 0 0 9.568 1.708 Q 9.26 1.77 8.914 1.889 A 7.889 7.889 0 0 0 8.274 2.142 A 15.777 15.777 0 0 0 6.965 2.802 A 20.425 20.425 0 0 0 5.901 3.444 Q 4.662 4.242 3.57 5.187 A 15.549 15.549 0 0 0 2.695 6.002 Q 2.312 6.389 2.004 6.765 A 8.805 8.805 0 0 0 1.806 7.014 A 5.114 5.114 0 0 0 1.489 7.478 Q 1.134 8.068 1.134 8.526 Z" fill="#000" fill-rule="evenodd" transform="translate(70, 73)"/>
<path d="M 3.17 11.207 A 7.059 7.059 0 0 0 4.578 11.34 Q 6.72 11.34 8.505 10.311 Q 10.29 9.282 11.382 7.56 Q 12.474 5.838 12.474 3.78 Q 12.474 1.974 11.382 0.987 Q 10.29 0 8.442 0 Q 6.258 0 4.326 0.987 Q 2.394 1.974 1.197 3.675 Q 0 5.376 0 7.518 A 4.784 4.784 0 0 0 0.092 8.481 A 3.048 3.048 0 0 0 1.281 10.395 A 4.26 4.26 0 0 0 1.565 10.587 Q 2.269 11.024 3.17 11.207 Z M 1.134 8.526 A 1.053 1.053 0 0 0 1.38 9.202 A 1.395 1.395 0 0 0 1.449 9.282 A 1.039 1.039 0 0 0 2.037 9.594 A 1.511 1.511 0 0 0 2.31 9.618 Q 3.7 9.618 5.729 8.529 A 16.782 16.782 0 0 0 5.964 8.4 A 17.34 17.34 0 0 0 8.251 6.848 A 15.712 15.712 0 0 0 8.631 6.531 Q 9.743 5.576 10.438 4.62 A 8.096 8.096 0 0 0 10.542 4.473 A 6.124 6.124 0 0 0 10.887 3.92 Q 11.205 3.338 11.249 2.876 A 1.531 1.531 0 0 0 11.256 2.73 A 1.533 1.533 0 0 0 11.215 2.367 A 1.152 1.152 0 0 0 11.025 1.953 Q 10.843 1.704 10.438 1.652 A 1.811 1.811 0 0 0 10.206 1.638 A 3.225 3.225 0 0 0 9.568 1.708 Q 9.26 1.77 8.914 1.889 A 7.889 7.889 0 0 0 8.274 2.142 A 15.777 15.777 0 0 0 6.965 2.802 A 20.425 20.425 0 0 0 5.901 3.444 Q 4.662 4.242 3.57 5.187 A 15.549 15.549 0 0 0 2.695 6.002 Q 2.312 6.389 2.004 6.765 A 8.805 8.805 0 0 0 1.806 7.014 A 5.114 5.114 0 0 0 1.489 7.478 Q 1.134 8.068 1.134 8.526 Z" fill="#000" fill-rule="evenodd" transform="translate(58, 43)"/>
<path d="M 3.17 11.207 A 7.059 7.059 0 0 0 4.578 11.34 Q 6.72 11.34 8.505 10.311 Q 10.29 9.282 11.382 7.56 Q 12.474 5.838 12.474 3.78 Q 12.474 1.974 11.382 0.987 Q 10.29 0 8.442 0 Q 6.258 0 4.326 0.987 Q 2.394 1.974 1.197 3.675 Q 0 5.376 0 7.518 A 4.784 4.784 0 0 0 0.092 8.481 A 3.048 3.048 0 0 0 1.281 10.395 A 4.26 4.26 0 0 0 1.565 10.587 Q 2.269 11.024 3.17 11.207 Z M 1.134 8.526 A 1.053 1.053 0 0 0 1.38 9.202 A 1.395 1.395 0 0 0 1.449 9.282 A 1.039 1.039 0 0 0 2.037 9.594 A 1.511 1.511 0 0 0 2.31 9.618 Q 3.7 9.618 5.729 8.529 A 16.782 16.782 0 0 0 5.964 8.4 A 17.34 17.34 0 0 0 8.251 6.848 A 15.712 15.712 0 0 0 8.631 6.531 Q 9.743 5.576 10.438 4.62 A 8.096 8.096 0 0 0 10.542 4.473 A 6.124 6.124 0 0 0 10.887 3.92 Q 11.205 3.338 11.249 2.876 A 1.531 1.531 0 0 0 11.256 2.73 A 1.533 1.533 0 0 0 11.215 2.367 A 1.152 1.152 0 0 0 11.025 1.953 Q 10.843 1.704 10.438 1.652 A 1.811 1.811 0 0 0 10.206 1.638 A 3.225 3.225 0 0 0 9.568 1.708 Q 9.26 1.77 8.914 1.889 A 7.889 7.889 0 0 0 8.274 2.142 A 15.777 15.777 0 0 0 6.965 2.802 A 20.425 20.425 0 0 0 5.901 3.444 Q 4.662 4.242 3.57 5.187 A 15.549 15.549 0 0 0 2.695 6.002 Q 2.312 6.389 2.004 6.765 A 8.805 8.805 0 0 0 1.806 7.014 A 5.114 5.114 0 0 0 1.489 7.478 Q 1.134 8.068 1.134 8.526 Z" fill="#000" fill-rule="evenodd" transform="translate(70, 49)"/>
<path d="M 3.17 11.207 A 7.059 7.059 0 0 0 4.578 11.34 Q 6.72 11.34 8.505 10.311 Q 10.29 9.282 11.382 7.56 Q 12.474 5.838 12.474 3.78 Q 12.474 1.974 11.382 0.987 Q 10.29 0 8.442 0 Q 6.258 0 4.326 0.987 Q 2.394 1.974 1.197 3.675 Q 0 5.376 0 7.518 A 4.784 4.784 0 0 0 0.092 8.481 A 3.048 3.048 0 0 0 1.281 10.395 A 4.26 4.26 0 0 0 1.565 10.587 Q 2.269 11.024 3.17 11.207 Z M 1.134 8.526 A 1.053 1.053 0 0 0 1.38 9.202 A 1.395 1.395 0 0 0 1.449 9.282 A 1.039 1.039 0 0 0 2.037 9.594 A 1.511 1.511 0 0 0 2.31 9.618 Q 3.7 9.618 5.729 8.529 A 16.782 16.782 0 0 0 5.964 8.4 A 17.34 17.34 0 0 0 8.251 6.848 A 15.712 15.712 0 0 0 8.631 6.531 Q 9.743 5.576 10.438 4.62 A 8.096 8.096 0 0 0 10.542 4.473 A 6.124 6.124 0 0 0 10.887 3.92 Q 11.205 3.338 11.249 2.876 A 1.531 1.531 0 0 0 11.256 2.73 A 1.533 1.533 0 0 0 11.215 2.367 A 1.152 1.152 0 0 0 11.025 1.953 Q 10.843 1.704 10.438 1.652 A 1.811 1.811 0 0 0 10.206 1.638 A 3.225 3.225 0 0 0 9.568 1.708 Q 9.26 1.77 8.914 1.889 A 7.889 7.889 0 0 0 8.274 2.142 A 15.777 15.777 0 0 0 6.965 2.802 A 20.425 20.425 0 0 0 5.901 3.444 Q 4.662 4.242 3.57 5.187 A 15.549 15.549 0 0 0 2.695 6.002 Q 2.312 6.389 2.004 6.765 A 8.805 8.805 0 0 0 1.806 7.014 A 5.114 5.114 0 0 0 1.489 7.478 Q 1.134 8.068 1.134 8.526 Z" fill="#000" fill-rule="evenodd" transform="translate(58, 55)"/>
<line stroke="#000" stroke-width="2" x1="70" x2="70" y1="46" y2="115"/>
<path d="M 3.17 11.207 A 7.059 7.059 0 0 0 4.578 11.34 Q 6.72 11.34 8.505 10.311 Q 10.29 9.282 11.382 7.56 Q 12.474 5.838 12.474 3.78 Q 12.474 1.974 11.382 0.987 Q 10.29 0 8.442 0 Q 6.258 0 4.326 0.987 Q 2.394 1.974 1.197 3.675 Q 0 5.376 0 7.518 A 4.784 4.784 0 0 0 0.092 8.481 A 3.048 3.048 0 0 0 1.281 10.395 A 4.26 4.26 0 0 0 1.565 10.587 Q 2.269 11.024 3.17 11.207 Z" fill="#000" fill-rule="evenodd" transform="translate(96, 73)"/>
<path d="M 3.17 11.207 A 7.059 7.059 0 0 0 4.578 11.34 Q 6.72 11.34 8.505 10.311 Q 10.29 9.282 11.382 7.56 Q 12.474 5.838 12.474 3.78 Q 12.474 1.974 11.382 0.987 Q 10.29 0 8.442 0 Q 6.258 0 4.326 0.987 Q 2.394 1.974 1.197 3.675 Q 0 5.376 0 7.518 A 4.784 4.784 0 0 0 0.092 8.481 A 3.048 3.048 0 0 0 1.281 10.395 A 4.26 4.26 0 0 0 1.565 10.587 Q 2.269 11.024 3.17 11.207 Z" fill="#000" fill-rule="evenodd" transform="translate(84, 67)"/>
<path d="M 3.17 11.207 A 7.059 7.059 0 0 0 4.578 11.34 Q 6.72 11.34 8.505 10.311 Q 10.29 9.282 11.382 7.56 Q 12.474 5.838 12.474 3.78 Q 12.474 1.974 11.382 0.987 Q 10.29 0 8.442 0 Q 6.258 0 4.326 0.987 Q 2.394 1.974 1.197 3.675 Q 0 5.376 0 7.518 A 4.784 4.784 0 0 0 0.092 8.481 A 3.048 3.048 0 0 0 1.281 10.395 A 4.26 4.26 0 0 0 1.565 10.587 Q 2.269 11.024 3.17 11.207 Z" fill="#000" fill-rule="evenodd" transform="translate(84, 79)"/>
<line stroke="#000" stroke-width="2" x1="96" x2="96" y1="37" y2="88"/>
<path d="M 3.17 11.207 A 7.059 7.059 0 0 0 4.578 11.34 Q 6.72 11.34 8.505 10.311 Q 10.29 9.282 11.382 7.56 Q 12.474 5.838 12.474 3.78 Q 12.474 1.974 11.382 0.987 Q 10.29 0 8.442 0 Q 6.258 0 4.326 0.987 Q 2.394 1.974 1.197 3.675 Q 0 5.376 0 7.518 A 4.784 4.784 0 0 0 0.092 8.481 A 3.048 3.048 0 0 0 1.281 10.395 A 4.26 4.26 0 0 0 1.565 10.587 Q 2.269 11.024 3.17 11.207 Z M 1.134 8.526 A 1.053 1.053 0 0 0 1.38 9.202 A 1.395 1.395 0 0 0 1.449 9.282 A 1.039 1.039 0 0 0 2.037 9.594 A 1.511 1.511 0 0 0 2.31 9.618 Q 3.7 9.618 5.729 8.529 A 16.782 16.782 0 0 0 5.964 8.4 A 17.34 17.34 0 0 0 8.251 6.848 A 15.712 15.712 0 0 0 8.631 6.531 Q 9.743 5.576 10.438 4.62 A 8.096 8.096 0 0 0 10.542 4.473 A 6.124 6.124 0 0 0 10.887 3.92 Q 11.205 3.338 11.249 2.876 A 1.531 1.531 0 0 0 11.256 2.73 A 1.533 1.533 0 0 0 11.215 2.367 A 1.152 1.152 0 0 0 11.025 1.953 Q 10.843 1.704 10.438 1.652 A 1.811 1.811 0 0 0 10.206 1.638 A 3.225 3.225 0 0 0 9.568 1.708 Q 9.26 1.77 8.914 1.889 A 7.889 7.889 0 0 0 8.274 2.142 A 15.777 15.777 0 0 0 6.965 2.802 A 20.425 20.425 0 0 0 5.901 3.444 Q 4.662 4.242 3.57 5.187 A 15.549 15.549 0 0 0 2.695 6.002 Q 2.312 6.389 2.004 6.765 A 8.805 8.805 0 0 0 1.806 7.014 A 5.114 5.114 0 0 0 1.489 7.478 Q 1.134 8.068 1.134 8.526 Z" fill="#000" fill-rule="evenodd" transform="translate(127, 49)"/>
<path d="M 3.17 11.207 A 7.059 7.059 0 0 0 4.578 11.34 Q 6.72 11.34 8.505 10.311 Q 10.29 9.282 11.382 7.56 Q 12.474 5.838 12.474 3.78 Q 12.474 1.974 11.382 0.987 Q 10.29 0 8.442 0 Q 6.258 0 4.326 0.987 Q 2.394 1.974 1.197 3.675 Q 0 5.376 0 7.518 A 4.784 4.784 0 0 0 0.092 8.481 A 3.048 3.048 0 0 0 1.281 10.395 A 4.26 4.26 0 0 0 1.565 10.587 Q 2.269 11.024 3.17 11.207 Z M 1.134 8.526 A 1.053 1.053 0 0 0 1.38 9.202 A 1.395 1.395 0 0 0 1.449 9.282 A 1.039 1.039 0 0 0 2.037 9.594 A 1.511 1.511 0 0 0 2.31 9.618 Q 3.7 9.618 5.729 8.529 A 16.782 16.782 0 0 0 5.964 8.4 A 17.34 17.34 0 0 0 8.251 6.848 A 15.712 15.712 0 0 0 8.631 6.531 Q 9.743 5.576 10.438 4.62 A 8.096 8.096 0 0 0 10.542 4.473 A 6.124 6.124 0 0 0 10.887 3.92 Q 11.205 3.338 11.249 2.876 A 1.531 1.531 0 0 0 11.256 2.73 A 1.533 1.533 0 0 0 11.215 2.367 A 1.152 1.152 0 0 0 11.025 1.953 Q 10.843 1.704 10.438 1.652 A 1.811 1.811 0 0 0 10.206 1.638 A 3.225 3.225 0 0 0 9.568 1.708 Q 9.26 1.77 8.914 1.889 A 7.889 7.889 0 0 0 8.274 2.142 A 15.777 15.777 0 0 0 6.965 2.802 A 20.425 20.425 0 0 0 5.901 3.444 Q 4.662 4.242 3.57 5.187 A 15.549 15.549 0 0 0 2.695 6.002 Q 2.312 6.389 2.004 6.765 A 8.805 8.805 0 0 0 1.806 7.014 A 5.114 5.114 0 0 0 1.489 7.478 Q 1.134 8.068 1.134 8.526 Z" fill="#000" fill-rule="evenodd" transform="translate(115, 55)"/>
<path d="M 3.17 11.207 A 7.059 7.059 0 0 0 4.578 11.34 Q 6.72 11.34 8.505 10.311 Q 10.29 9.282 11.382 7.56 Q 12.474 5.838 12.474 3.78 Q 12.474 1.974 11.382 0.987 Q 10.29 0 8.442 0 Q 6.258 0 4.326 0.987 Q 2.394 1.974 1.197 3.675 Q 0 5.376 0 7.518 A 4.784 4.784 0 0 0 0.092 8.481 A 3.048 3.048 0 0 0 1.281 10.395 A 4.26 4.26 0 0 0 1.565 10.587 Q 2.269 11.024 3.17 11.207 Z M 1.134 8.526 A 1.053 1.053 0 0 0 1.38 9.202 A 1.395 1.395 0 0 0 1.449 9.282 A 1.039 1.039 0 0 0 2.037 9.594 A 1.511 1.511 0 0 0 2.31 9.618 Q 3.7 9.618 5.729 8.529 A 16.782 16.782 0 0 0 5.964 8.4 A 17.34 17.34 0 0 0 8.251 6.848 A 15.712 15.712 0 0 0 8.631 6.531 Q 9.743 5.576 10.438 4.62 A 8.096 8.096 0 0 0 10.542 4.473 A 6.124 6.124 0 0 0 10.887 3.92 Q 11.205 3.338 11.249 2.876 A 1.531 1.531 0 0 0 11.256 2.73 A 1.533 1.533 0 0 0 11.215 2.367 A 1.152 1.152 0 0 0 11.025 1.953 Q 10.843 1.704 10.438 1.652 A 1.811 1.811 0 0 0 10.206 1.638 A 3.225 3.225 0 0 0 9.568 1.708 Q 9.26 1.77 8.914 1.889 A 7.889 7.889 0 0 0 8.274 2.142 A 15.777 15.777 0 0 0 6.965 2.802 A 20.425 20.425 0 0 0 5.901 3.444 Q 4.662 4.242 3.57 5.187 A 15.549 15.549 0 0 0 2.695 6.002 Q 2.312 6.389 2.004 6.765 A 8.805 8.805 0 0 0 1.806 7.014 A 5.114 5.114 0 0 0 1.489 7.478 Q 1.134 8.068 1.134 8.526 Z" fill="#000" fill-rule="evenodd" transform="translate(127, 61)"/>
<path d="M 3.17 11.207 A 7.059 7.059 0 0 0 4.578 11.34 Q 6.72 11.34 8.505 10.311 Q 10.29 9.282 11.382 7.56 Q 12.474 5.838 12.474 3.78 Q 12.474 1.974 11.382 0.987 Q 10.29 0 8.442 0 Q 6.258 0 4.326 0.987 Q 2.394 1.974 1.197 3.675 Q 0 5.376 0 7.518 A 4.784 4.784 0 0 0 0.092 8.481 A 3.048 3.048 0 0 0 1.281 10.395 A 4.26 4.26 0 0 0 1.565 10.587 Q 2.269 11.024 3.17 11.207 Z M 1.134 8.526 A 1.053 1.053 0 0 0 1.38 9.202 A 1.395 1.395 0 0 0 1.449 9.282 A 1.039 1.039 0 0 0 2.037 9.594 A 1.511 1.511 0 0 0 2.31 9.618 Q 3.7 9.618 5.729 8.529 A 16.782 16.782 0 0 0 5.964 8.4 A 17.34 17.34 0 0 0 8.251 6.848 A 15.712 15.712 0 0 0 8.631 6.531 Q 9.743 5.576 10.438 4.62 A 8.096 8.096 0 0 0 10.542 4.473 A 6.124 6.124 0 0 0 10.887 3.92 Q 11.205 3.338 11.249 2.876 A 1.531 1.531 0 0 0 11.256 2.73 A 1.533 1.533 0 0 0 11.215 2.367 A 1.152 1.152 0 0 0 11.025 1.953 Q 10.843 1.704 10.438 1.652 A 1.811 1.811 0 0 0 10.206 1.638 A 3.225 3.225 0 0 0 9.568 1.708 Q 9.26 1.77 8.914 1.889 A 7.889 7.889 0 0 0 8.274 2.142 A 15.777 15.777 0 0 0 6.965 2.802 A 20.425 20.425 0 0 0 5.901 3.444 Q 4.662 4.242 3.57 5.187 A 15.549 15.549 0 0 0 2.695 6.002 Q 2.312 6.389 2.004 6.765 A 8.805 8.805 0 0 0 1.806 7.014 A 5.114 5.114 0 0 0 1.489 7.478 Q 1.134 8.068 1.134 8.526 Z" fill="#000" fill-rule="evenodd" transform="translate(127, 7)"/>
<line stroke="#000" stroke-width="2" x1="120" x2="142" y1="31" y2="31"/>
<line stroke="#000" stroke-width="2" x1="120" x2="142" y1="19" y2="19"/>
<line stroke="#000" stroke-width="2" x1="127" x2="127" y1="10" y2="103"/>
<line stroke="#000" stroke-width="2" x1="13" x2="170" y1="43" y2="43"/>
<line stroke="#000" stroke-width="2" x1="13" x2="170" y1="55" y2="55"/>
<line stroke="#000" stroke-width="2" x1="13" x2="170" y1="67" y2="67"/>
<line stroke="#000" stroke-width="2" x1="13" x2="170" y1="79" y2="79"/>
<line stroke="#000" stroke-width="2" x1="13" x2="170" y1="91" y2="91"/>
<line stroke="#000" stroke-width="2" x1="13" x2="13" y1="42" y2="92"/>
<line stroke="#000" stroke-width="2" x1="171" x2="171" y1="42" y2="92"/>
</svg>