<svg xmlns="http://www.w3.org/2000/svg">
<rect fill="#fff" height="200" width="74" x="0" y="0"/>
<path d="M 3.17 11.207 A 7.059 7.059 0 0 0 4.578 11.34 Q 6.72 11.34 8.505 10.311 Q 10.29 9.282 11.382 7.56 Q 12.474 5.838 12.474 3.78 Q 12.474 1.974 11.382 0.987 Q 10.29 0 8.442 0 Q 6.258 0 4.326 0.987 Q 2.394 1.974 1.197 3.675 Q 0 5.376 0 7.518 A 4.784 4.784 0 0 0 0.092 8.481 A 3.048 3.048 0 0 0 1.281 10.395 A 4.26 4.26 0 0 0 1.565 10.587 Q 2.269 11.024 3.17 11.207 Z" fill="#000" fill-rule="evenodd" transform="translate(34, 52)"/>
<path d="M 3.17 11.207 A 7.059 7.059 0 0 0 4.578 11.34 Q 6.72 11.34 8.505 10.311 Q 10.29 9.282 11.382 7.56 Q 12.474 5.838 12.474 3.78 Q 12.474 1.974 11.382 0.987 Q 10.29 0 8.442 0 Q 6.258 0 4.326 0.987 Q 2.394 1.974 1.197 3.675 Q 0 5.376 0 7.518 A 4.784 4.784 0 0 0 0.092 8.481 A 3.048 3.048 0 0 0 1.281 10.395 A 4.26 4.26 0 0 0 1.565 10.587 Q 2.269 11.024 3.17 11.207 Z" fill="#000" fill-rule="evenodd" transform="translate(34, 22)"/>
<path d="M 3.17 11.207 A 7.059 7.059 0 0 0 4.578 11.34 Q 6.72 11.34 8.505 10.311 Q 10.29 9.282 11.382 7.56 Q 12.474 5.838 12.474 3.78 Q 12.474 1.974 11.382 0.987 Q 10.29 0 8.442 0 Q 6.258 0 4.326 0.987 Q 2.394 1.974 1.197 3.675 Q 0 5.376 0 7.518 A 4.784 4.784 0 0 0 0.092 8.481 A 3.048 3.048 0 0 0 1.281 10.395 A 4.26 4.26 0 0 0 1.565 10.587 Q 2.269 11.024 3.17 11.207 Z" fill="#000" fill-rule="evenodd" transform="translate(34, 4)"/>
<line stroke="#000" stroke-width="2" x1="34" x2="34" y1="7" y2="94"/>
<line stroke="#000" stroke-width="2" x1="13" x2="66" y1="10" y2="10"/>
<line stroke="#000" stroke-width="2" x1="13" x2="66" y1="22" y2="22"/>
<line stroke="#000" stroke-width="2" x1="13" x2="66" y1="34" y2="34"/>
<line stroke="#000" stroke-width="2" x1="13" x2="66" y1="46" y2="46"/>
<line stroke="#000" stroke-width="2" x1="13" x2="66" y1="58" y2="58"/>
<line stroke="#000" stroke-width="2" x1="13" x2="13" y1="9" y2="59"/>
<line stroke="#000" stroke-width="2" x1="67" x2="67" y1="9" y2="59"/>
</svg>