<svg xmlns="http://www.w3.org/2000/svg">
<rect fill="#fff" height="200" width="94" x="0" y="0"/>
<path d="M38.574707 63.33184Q36.560158 63.33184,35.28008 62.38752Q34 61.4432,34 59.512592Q34 57.37213,35.196136 55.672356Q36.392277 53.97258,38.322887 52.98629Q40.253498 52,42.435925 52Q44.282597 52,45.37381 52.98629Q46.465027 53.97258,46.465027 55.77728Q46.465027 57.8338,45.37381 59.55456Q44.282597 61.275322,42.49888 62.30358Q40.715164 63.33184,38.574707 63.33184Z" fill="#000"/>
<path d="M38.574707 33.33184Q36.560158 33.33184,35.28008 32.38752Q34 31.443201,34 29.51259Q34 27.372131,35.196136 25.672356Q36.392277 23.97258,38.322887 22.98629Q40.253498 22,42.435925 22Q44.282597 22,45.37381 22.98629Q46.465027 23.97258,46.465027 25.777279Q46.465027 27.8338,45.37381 29.55456Q44.282597 31.275322,42.49888 32.30358Q40.715164 33.33184,38.574707 33.33184Z" fill="#000"/>
<path d="M38.574707 15.331842Q36.560158 15.331842,35.28008 14.387522Q34 13.443202,34 11.512591Q34 9.372133,35.196136 7.6723566Q36.392277 5.97258,38.322887 4.98629Q40.253498 4,42.435925 4Q44.282597 4,45.37381 4.98629Q46.465027 5.97258,46.465027 7.777281Q46.465027 9.8338,45.37381 11.554562Q44.282597 13.275322,42.49888 14.303582Q40.715164 15.331842,38.574707 15.331842Z" fill="#000"/>
<line stroke="#000" stroke-width="2" x1="34" x2="34" y1="7" y2="94"/>
<path d="M71.0291 18L77.74426 26.184107Q75.645775 28.660324,74.512596 30.465023Q73.37941 32.269722,73.37941 34.116394Q73.37941 35.669277,74.38668 37.369053Q75.39396 39.06883,77.576385 41.670956L76.90487 42.59429Q75.0582 41.419136,73.46335 41.419136Q72.28819 41.419136,71.700615 42.19558Q71.11304 42.97202,71.11304 44.063232Q71.11304 45.406265,71.679634 46.602406Q72.24622 47.798546,73.21153 48.88976L72.665924 49.687183Q69.770004 47.588696,68.385 45.867935Q67 44.147175,67 42.13262Q67 40.327923,68.13319 39.488525Q69.26637 38.64913,70.86122 38.64913Q72.120316 38.64913,74.134865 39.614437L74.134865 39.5305L67.67152 30.926691Q71.91047 27.191381,71.91047 23.959707Q71.91047 21.399551,69.2244 18L71.0291 18Z" fill="#000"/>
<line stroke="#000" stroke-width="2" x1="13" x2="91" y1="10" y2="10"/>
<line stroke="#000" stroke-width="2" x1="13" x2="91" y1="22" y2="22"/>
<line stroke="#000" stroke-width="2" x1="13" x2="91" y1="34" y2="34"/>
<line stroke="#000" stroke-width="2" x1="13" x2="91" y1="46" y2="46"/>
<line stroke="#000" stroke-width="2" x1="13" x2="91" y1="58" y2="58"/>
<line stroke="#000" stroke-width="2" x1="13" x2="13" y1="9" y2="59"/>
<line stroke="#000" stroke-width="2" x1="92" x2="92" y1="9" y2="59"/>
</svg>