<svg xmlns="http://www.w3.org/2000/svg">
<ellipse cx="28" cy="122" fill="black" rx="8" ry="6" stroke-width="2"/>
<line fill="none" stroke="black" stroke-width="8" x1="36" x2="63" y1="68" y2="68"/>
<line fill="none" stroke="black" stroke-width="2" x1="35" x2="35" y1="122" y2="64"/>
<line fill="none" stroke="black" stroke-width="2" x1="63" x2="63" y1="116" y2="64"/>
<ellipse cx="70" cy="116" fill="black" rx="8" ry="6" stroke-width="2"/>
<ellipse cx="54" cy="110" fill="black" rx="8" ry="6" stroke-width="2"/>
<ellipse cx="70" cy="104" fill="black" rx="8" ry="6" stroke-width="2"/>
<ellipse cx="96" cy="38" fill="black" rx="8" ry="6" stroke-width="2"/>
<line fill="none" stroke="black" stroke-width="2" x1="89" x2="89" y1="78" y2="38"/>
<line stroke="#000" stroke-width="2" x1="10" x2="124" y1="50" y2="50"/>
<line stroke="#000" stroke-width="2" x1="10" x2="124" y1="62" y2="62"/>
<line stroke="#000" stroke-width="2" x1="10" x2="124" y1="74" y2="74"/>
<line stroke="#000" stroke-width="2" x1="10" x2="124" y1="86" y2="86"/>
<line stroke="#000" stroke-width="2" x1="10" x2="124" y1="98" y2="98"/>
<line stroke="#000" x1="10" x2="10" y1="50" y2="98"/>
<line stroke="#000" x1="124" x2="124" y1="50" y2="98"/>
</svg>