<svg xmlns="http://www.w3.org/2000/svg">
<line stroke="#000" x1="0" x2="500" y1="50" y2="50"/>
<line stroke="#000" x1="0" x2="500" y1="70" y2="70"/>
<line stroke="#000" x1="0" x2="500" y1="90" y2="90"/>
<line stroke="#000" x1="0" x2="500" y1="110" y2="110"/>
<line stroke="#000" x1="0" x2="500" y1="130" y2="130"/>
<ellipse cx="20" cy="80" fill="none" rx="10" ry="5" stroke="black"/>
<ellipse cx="20" cy="60" fill="none" rx="10" ry="5" stroke="black"/>
<ellipse cx="20" cy="40" fill="none" rx="10" ry="5" stroke="black"/>
<line fill="none" stroke="black" x1="10" x2="10" y1="120" y2="40"/>
<ellipse cx="120" cy="150" fill="black" rx="10" ry="5"/>
<ellipse cx="120" cy="130" fill="black" rx="10" ry="5"/>
<ellipse cx="120" cy="110" fill="black" rx="10" ry="5"/>
<line fill="none" stroke="black" x1="130" x2="130" y1="150" y2="70"/>
<ellipse cx="170" cy="150" fill="black" rx="10" ry="5"/>
<ellipse cx="170" cy="130" fill="black" rx="10" ry="5"/>
<ellipse cx="170" cy="110" fill="black" rx="10" ry="5"/>
<line fill="none" stroke="black" x1="180" x2="180" y1="150" y2="70"/>
</svg>