<svg xmlns="http://www.w3.org/2000/svg">
<path d="M20 99M34.0544 55.8288C34.112 55.800000000000004,34.1696 55.800000000000004,34.256 55.800000000000004C34.6016 55.800000000000004,35.0048 56.088,35.580799999999996 56.808C37.9136 59.4864,39.5552 64.152,39.5552 67.9536C39.5552 68.2416,39.4976 68.47200000000001,39.4976 68.76C39.2384 73.2816,37.3952 76.99680000000001,33.7376 80.5104L32.7584 81.4608L32.4128 81.8352L32.4128 81.9504L32.6144 82.8144L32.931200000000004 84.3696L33.248 85.8096C33.68 87.768,33.8528 88.776,33.8528 88.776C33.8528 88.776,33.8528 88.776,33.8528 88.776C33.8528 88.776,33.968 88.776,34.112 88.74719999999999C34.256 88.74719999999999,34.7168 88.6896,35.2064 88.6896C35.552 88.6896,35.8976 88.74719999999999,36.0704 88.74719999999999C40.1312 89.2656,43.270399999999995 92.1744,44.1632 96.264C44.336 96.9264,44.3936 97.6464,44.3936 98.3664C44.3936 102.2544,42.0608 105.9696,38.172799999999995 107.7264C37.9424 107.8704,37.855999999999995 107.89920000000001,37.855999999999995 107.89920000000001L37.855999999999995 107.928C37.855999999999995 107.928,38.028800000000004 108.5904,38.172799999999995 109.3392L38.6048 111.528L39.007999999999996 113.2848C39.2384 114.408,39.3536 115.2144,39.3536 115.9344C39.3536 116.568,39.2672 117.144,39.1232 117.8064C38.144 121.8096,34.6592 124.2,31.0304 124.2C29.244799999999998 124.2,27.401600000000002 123.624,25.788800000000002 122.328C24.3488 121.11840000000001,23.7152 120.024,23.7152 118.584C23.7152 116.0496,25.759999999999998 114.264,27.891199999999998 114.264C28.64 114.264,29.3888 114.4944,30.108800000000002 114.9264C31.3184 115.7616,31.8656 117.0288,31.8656 118.2672C31.8656 120.168,30.540799999999997 122.03999999999999,28.2656 122.184L28.0352 122.184L28.208 122.2992C29.1584 122.7024,30.108800000000002 122.904,31.0304 122.904C33.3632 122.904,35.552 121.72319999999999,36.8768 119.6784C37.6256 118.5264,38.028800000000004 117.1728,38.028800000000004 115.8192C38.028800000000004 115.3008,37.9424 114.7824,37.827200000000005 114.2064C37.827200000000005 114.1488,37.7408 113.688,37.6256 113.256C36.992000000000004 110.1456,36.617599999999996 108.3312,36.617599999999996 108.3312C36.617599999999996 108.3312,36.617599999999996 108.3312,36.617599999999996 108.3312C36.56 108.3312,36.4448 108.3312,36.3584 108.3888C36.0704 108.4464,35.4656 108.5904,35.2064 108.6192C34.5728 108.7056,33.968 108.7344,33.391999999999996 108.7344C27.7472 108.7344,22.5056 104.9328,20.6912 99.3168C20.2304 97.8192,19.9712 96.3216,19.9712 94.824C19.9712 91.8288,20.9216 88.8912,22.7648 86.2704C24.7808 83.4192,26.7968 80.9712,29.273600000000002 78.4368L30.1376 77.544L29.936 76.4784L29.5616 74.7216L29.072 72.4752C28.927999999999997 71.64,28.755200000000002 70.8336,28.726399999999998 70.6608C28.5824 69.71039999999999,28.496000000000002 68.78880000000001,28.496000000000002 67.83840000000001C28.496000000000002 64.2096,29.6768 60.7248,31.894399999999997 57.931200000000004C32.556799999999996 57.0672,33.7376 55.9152,34.0544 55.8288M35.8112 61.5312C35.7536 61.5312,35.6672 61.5312,35.580799999999996 61.5312C34.4 61.5312,32.873599999999996 62.6256,31.8368 64.2384C30.7712 65.8224,30.224 67.9248,30.224 70.0848C30.224 70.6608,30.2528 71.2656,30.339199999999998 71.8704C30.4256 72.3024,30.4544 72.5904,30.6848 73.6272L31.088 75.4416C31.2032 75.9888,31.2896 76.4208,31.2896 76.4784L31.2896 76.4784C31.3184 76.4784,32.2112 75.4992,32.4992 75.1536C35.3792 71.89920000000001,37.1072 68.47200000000001,37.4816 65.44800000000001C37.510400000000004 65.16,37.510400000000004 64.9296,37.510400000000004 64.64160000000001C37.510400000000004 63.7488,37.3952 62.8848,37.1936 62.424C36.9632 61.9632,36.4448 61.5888,35.8112 61.5312M31.4624 83.7936C31.4048 83.3904,31.3184 83.0736,31.3184 83.016C31.3184 83.016,31.3184 83.016,31.2896 83.016C31.232 83.016,29.9936 84.456,29.1296 85.464C27.660800000000002 87.2496,26.1056 89.3808,25.472 90.4176C24.2624 92.4624,23.6576 94.7376,23.6576 96.984C23.6576 98.4528,23.9456 99.864,24.464 101.2176C26.019199999999998 105.2208,29.5904 107.7264,33.4784 107.7264C33.9392 107.7264,34.4576 107.6976,34.947199999999995 107.6112C35.580799999999996 107.496,36.3584 107.2656,36.3584 107.1792L36.3584 107.1792C36.3584 107.1792,36.300799999999995 106.8912,36.2144 106.5744L35.3792 102.456L34.7168 99.3744L34.2848 97.2432L33.824 95.1696C33.5936 93.9312,33.5072 93.6144,33.5072 93.6144C33.5072 93.6144,33.5072 93.5856,33.4784 93.5856C33.3056 93.5856,32.384 94.0464,31.980800000000002 94.3344C30.4832 95.3712,29.7056 97.0128,29.7056 98.6256C29.7056 100.152,30.4544 101.6784,31.894399999999997 102.5712C32.2112 102.7728,32.3264 102.9456,32.3264 103.1472C32.3264 103.176,32.3264 103.2624,32.3264 103.2912C32.2688 103.6368,32.0672 103.7808,31.7792 103.7808C31.664 103.7808,31.52 103.752,31.3472 103.6656C28.6976 102.5136,26.912 99.7776,26.912 96.7824L26.912 96.7824C26.912 93.3264,29.072 90.3312,32.384 89.1504L32.556799999999996 89.0928L32.2688 87.6528L31.4624 83.7936M35.782399999999996 93.4128C35.552 93.384,35.321600000000004 93.384,35.1488 93.384C35.0912 93.384,35.0048 93.384,34.947199999999995 93.384L34.803200000000004 93.384L34.9184 93.9024L35.5232 96.7248L35.8976 98.568L36.300799999999995 100.3824L37.1072 104.3856L37.424 105.912C37.5392 106.3152,37.5968 106.6608,37.6256 106.6608C37.6256 106.6608,37.6256 106.6608,37.6256 106.6608C37.654399999999995 106.6608,38.144 106.3728,38.4608 106.1424C39.9296 105.1056,41.024 103.4928,41.4272 101.8224C41.571200000000005 101.2752,41.6288 100.6992,41.6288 100.152C41.6288 96.8112,39.152 93.7872,35.782399999999996 93.4128" transform="translate(0, -11)"/>
<line stroke="black" stroke-width="2" x1="64" x2="92" y1="98" y2="98"/>
<line stroke="black" stroke-width="2" x1="64" x2="92" y1="110" y2="110"/>
<line stroke="black" stroke-width="2" x1="64" x2="92" y1="122" y2="122"/>
<ellipse cx="86" cy="122" fill="black" rx="8" ry="6"/>
<line fill="none" stroke="black" stroke-width="2" x1="85" x2="85" y1="122" y2="64"/>
<line fill="none" stroke="black" stroke-width="2" x1="96" x2="96" y1="116" y2="64"/>
<line fill="none" stroke="black" stroke-width="8" x1="76" x2="186" y1="68" y2="68"/>
<line stroke="black" stroke-width="2" x1="64" x2="92" y1="98" y2="98"/>
<line stroke="black" stroke-width="2" x1="64" x2="92" y1="110" y2="110"/>
<ellipse cx="86" cy="116" fill="black" rx="8" ry="6"/>
<line stroke="black" stroke-width="2" x1="64" x2="92" y1="98" y2="98"/>
<line stroke="black" stroke-width="2" x1="64" x2="92" y1="110" y2="110"/>
<ellipse cx="102" cy="110" fill="black" rx="8" ry="6"/>
<line stroke="black" stroke-width="2" x1="64" x2="92" y1="98" y2="98"/>
<ellipse cx="86" cy="104" fill="black" rx="8" ry="6"/>
<rect height="6" width="20" x="158" y="68"/>
<line stroke="black" stroke-width="2" x1="203" x2="231" y1="98" y2="98"/>
<line stroke="black" stroke-width="2" x1="203" x2="231" y1="86" y2="86"/>
<line stroke="black" stroke-width="2" x1="203" x2="231" y1="74" y2="74"/>
<line stroke="black" stroke-width="2" x1="203" x2="231" y1="62" y2="62"/>
<line stroke="black" stroke-width="2" x1="203" x2="231" y1="50" y2="50"/>
<line stroke="black" stroke-width="2" x1="203" x2="231" y1="38" y2="38"/>
<ellipse cx="225" cy="38" fill="black" rx="8" ry="6"/>
<line stroke="black" stroke-width="2" x1="210" x2="210" y1="78" y2="38"/>
<line stroke="#000" stroke-width="2" x1="10" x2="247" y1="50" y2="50"/>
<line stroke="#000" stroke-width="2" x1="10" x2="247" y1="62" y2="62"/>
<line stroke="#000" stroke-width="2" x1="10" x2="247" y1="74" y2="74"/>
<line stroke="#000" stroke-width="2" x1="10" x2="247" y1="86" y2="86"/>
<line stroke="#000" stroke-width="2" x1="10" x2="247" y1="98" y2="98"/>
<line stroke="#000" x1="10" x2="10" y1="50" y2="98"/>
<line stroke="#000" x1="247" x2="247" y1="50" y2="98"/>
</svg>