<svg xmlns="http://www.w3.org/2000/svg">
<rect fill="#fff" height="100" width="200" x="0" y="0"/>
<path d="M30.864017 21.895914Q30.393955 20.116394,30.091774 18.370451Q29.789593 16.624508,29.789593 14.811413Q29.789593 13.233349,30.007835 11.839954Q30.226078 10.446556,30.628986 9.271404Q31.065474 7.9283714,31.770565 6.7364273Q32.47566 5.544487,33.26469 4.7722435Q34.053722 4,34.65809 4Q35.463905 4,36.874092 6.853943Q37.579185 8.297703,37.91494 9.976494Q38.2507 11.655289,38.2507 13.569107Q38.2507 15.9529915,37.61276 18.320087Q36.97482 20.687183,35.749302 22.768885Q34.52378 24.850586,32.811417 26.42865L33.986572 32.06939Q34.490208 32.002235,34.825966 31.96866Q35.161724 31.935085,35.329605 31.935085Q37.377728 31.935085,38.98937 33.093452Q40.601006 34.251816,41.55792 36.132065Q42.51483 38.01231,42.51483 40.26189Q42.51483 42.84723,41.188583 44.91214Q39.86234 46.977055,37.209846 47.950752Q37.377728 48.52154,38.183548 52.71852Q38.385002 53.725796,38.485733 54.313374Q38.586456 54.90095,38.620033 55.337437Q38.65361 55.773922,38.65361 56.34471Q38.65361 58.023502,37.831 59.349747Q37.008392 60.67599,35.614998 61.41466Q34.2216 62.153328,32.50923 62.153328Q30.76329 62.153328,29.420258 61.4986Q28.077225 60.843872,27.304981 59.685505Q26.532738 58.527138,26.532738 57.016228Q26.532738 55.404587,27.422497 54.330162Q28.312256 53.255733,29.95747 53.255733Q31.367657 53.255733,32.257416 54.279797Q33.147175 55.30386,33.147175 56.714043Q33.147175 57.922775,32.307777 58.829323Q31.468384 59.73587,30.12535 59.73587L29.789593 59.73587Q30.662563 61.045326,32.54281 61.045326Q34.859543 61.045326,36.169 59.534416Q37.478455 58.023502,37.478455 55.673195Q37.478455 55.102406,37.344154 54.145493Q37.209846 53.188583,36.874092 51.84555Q36.53833 50.502518,36.35367 49.629547Q36.169 48.756573,36.101845 48.38724Q34.96027 48.723,33.41578 48.723Q30.52826 48.723,27.775042 47.04421Q25.088976 45.365417,23.544489 42.612198Q22 39.85898,22 36.669277Q22 33.647453,23.37661 30.994963Q24.753218 28.342472,26.784555 26.126467Q28.815893 23.910463,30.864017 21.895914ZM31.770565 21.056519Q32.54281 20.653608,33.41578 19.562393Q34.288754 18.47118,35.094574 17.060995Q35.90039 15.65081,36.40403 14.223839Q36.90767 12.796864,36.90767 11.655289Q36.90767 10.446556,36.53833 9.7414665Q36.169 9.036373,35.26245 9.036373Q34.45663 9.036373,33.701176 9.77504Q32.94572 10.51371,32.358143 11.739227Q31.770565 12.964745,31.434807 14.475655Q31.099049 15.986568,31.099049 17.564632Q31.099049 18.63906,31.317291 19.51203Q31.535534 20.385002,31.770565 21.056519ZM33.684387 36.06491Q32.77784 36.266365,31.97202 36.921097Q31.1662 37.575825,30.679352 38.49916Q30.192501 39.422493,30.192501 40.463345Q30.192501 41.302742,30.628986 42.1925Q31.065474 43.08226,31.703415 43.619473Q32.1399 44.02238,32.576385 44.22384Q33.080025 44.45887,33.080025 44.660324Q33.080025 44.76105,32.744263 44.86178Q31.468384 44.559597,30.44432 43.7202Q29.420258 42.880806,28.83268 41.68886Q28.245104 40.49692,28.245104 39.15389Q28.245104 37.71013,28.83268 36.367096Q29.420258 35.024063,30.477896 33.949635Q31.535534 32.87521,32.878567 32.337997L31.90487 27.268045Q28.010073 30.424173,26.180191 33.462784Q24.350307 36.501396,24.350307 39.489647Q24.350307 41.672073,25.491886 43.552322Q26.633465 45.432568,28.614437 46.590935Q30.595411 47.7493,33.080025 47.7493Q33.75154 47.7493,34.439842 47.614994Q35.128147 47.480694,35.90039 47.279236L33.684387 36.06491ZM36.941242 46.943478Q40.231674 45.533295,40.231674 41.168438Q40.231674 39.724678,39.493004 38.532734Q38.754337 37.340794,37.51203 36.6357Q36.269726 35.93061,34.72524 35.93061L36.941242 46.943478Z" fill="#000"/>
<path d="M54.618916 50.727474L54.618916 44.325684L52.51483 44.8629L52.51483 40.38612L54.618916 39.80414L54.618916 31.029657L56.006718 31.029657L56.006718 39.446L59.006157 38.729713L59.006157 30L60.39396 30L60.39396 38.37157L62.587578 37.879128L62.587578 42.311134L60.39396 42.937885L60.39396 49.339676L62.587578 48.80246L62.587578 53.41354L60.39396 53.950756L60.39396 62.367096L59.006157 62.367096L59.006157 54.308895L56.006718 55.114716L56.006718 63.84443L54.618916 63.84443L54.618916 55.428093L52.51483 55.965305L52.51483 51.354225L54.618916 50.727474ZM59.006157 49.65305L59.006157 43.20649L56.006718 43.967545L56.006718 50.36933L59.006157 49.65305Z" fill="#000"/>
<path d="M65.691666 32.727474L65.691666 26.325684L63.587578 26.862898L63.587578 22.38612L65.691666 21.80414L65.691666 13.029657L67.07947 13.029657L67.07947 21.446L70.0789 20.729713L70.0789 12L71.466705 12L71.466705 20.37157L73.660324 19.879128L73.660324 24.311134L71.466705 24.937885L71.466705 31.339674L73.660324 30.802462L73.660324 35.41354L71.466705 35.950756L71.466705 44.367096L70.0789 44.367096L70.0789 36.308895L67.07947 37.114716L67.07947 45.84443L65.691666 45.84443L65.691666 37.428093L63.587578 37.965305L63.587578 33.354225L65.691666 32.727474ZM70.0789 31.65305L70.0789 25.20649L67.07947 25.967543L67.07947 32.36933L70.0789 31.65305Z" fill="#000"/>
<path d="M76.76441 56.727474L76.76441 50.325684L74.660324 50.8629L74.660324 46.38612L76.76441 45.80414L76.76441 37.029655L78.15221 37.029655L78.15221 45.446L81.15165 44.729713L81.15165 36L82.53945 36L82.53945 44.37157L84.73307 43.879128L84.73307 48.311134L82.53945 48.937885L82.53945 55.339676L84.73307 54.80246L84.73307 59.41354L82.53945 59.950756L82.53945 68.367096L81.15165 68.367096L81.15165 60.308895L78.15221 61.114716L78.15221 69.84443L76.76441 69.84443L76.76441 61.428093L74.660324 61.965305L74.660324 57.354225L76.76441 56.727474ZM81.15165 55.65305L81.15165 49.20649L78.15221 49.967545L78.15221 56.36933L81.15165 55.65305Z" fill="#000"/>
<path d="M87.837166 38.727474L87.837166 32.325684L85.73308 32.8629L85.73308 28.38612L87.837166 27.80414L87.837166 19.029657L89.22496 19.029657L89.22496 27.446L92.2244 26.729713L92.2244 18L93.612206 18L93.612206 26.37157L95.805824 25.879128L95.805824 30.311134L93.612206 30.937885L93.612206 37.339676L95.805824 36.80246L95.805824 41.41354L93.612206 41.950756L93.612206 50.367096L92.2244 50.367096L92.2244 42.308895L89.22496 43.114716L89.22496 51.84443L87.837166 51.84443L87.837166 43.428093L85.73308 43.965305L85.73308 39.354225L87.837166 38.727474ZM92.2244 37.65305L92.2244 31.20649L89.22496 31.967543L89.22496 38.36933L92.2244 37.65305Z" fill="#000"/>
<path d="M98.90991 20.727476L98.90991 14.325685L96.805824 14.862898L96.805824 10.386121L98.90991 9.80414L98.90991 1.0296574L100.297714 1.0296574L100.297714 9.445998L103.29715 8.729713L103.29715 0L104.68495 0L104.68495 8.371572L106.87857 7.8791265L106.87857 12.311135L104.68495 12.937884L104.68495 19.339674L106.87857 18.802462L106.87857 23.413542L104.68495 23.950754L104.68495 32.367096L103.29715 32.367096L103.29715 24.308897L100.297714 25.114716L100.297714 33.84443L98.90991 33.84443L98.90991 25.428091L96.805824 25.965303L96.805824 21.354225L98.90991 20.727476ZM103.29715 19.65305L103.29715 13.2064905L100.297714 13.967543L100.297714 20.369333L103.29715 19.65305Z" fill="#000"/>
<path d="M109.98266 44.727474L109.98266 38.325684L107.87857 38.8629L107.87857 34.38612L109.98266 33.80414L109.98266 25.029657L111.37045 25.029657L111.37045 33.446L114.369896 32.729713L114.369896 24L115.7577 24L115.7577 32.37157L117.95132 31.879128L117.95132 36.311134L115.7577 36.937885L115.7577 43.339676L117.95132 42.80246L117.95132 47.41354L115.7577 47.950756L115.7577 56.367096L114.369896 56.367096L114.369896 48.308895L111.37045 49.114716L111.37045 57.84443L109.98266 57.84443L109.98266 49.428093L107.87857 49.965305L107.87857 45.354225L109.98266 44.727474ZM114.369896 43.65305L114.369896 37.20649L111.37045 37.967545L111.37045 44.36933L114.369896 43.65305Z" fill="#000"/>
<path d="M131.0554 73.80526L131.0554 67.40347L128.95132 67.94068L128.95132 63.463905L131.0554 62.881927L131.0554 54.107445L132.4432 54.107445L132.4432 62.523785L135.44266 61.8075L135.44266 53.077785L136.83044 53.077785L136.83044 61.449356L139.02408 60.956913L139.02408 65.38892L136.83044 66.01567L136.83044 72.41746L139.02408 71.88025L139.02408 76.491325L136.83044 77.02854L136.83044 85.44488L135.44266 85.44488L135.44266 77.38668L132.4432 78.192505L132.4432 86.92222L131.0554 86.92222L131.0554 78.505875L128.95132 79.04309L128.95132 74.43201L131.0554 73.80526ZM135.44266 72.730835L135.44266 66.28428L132.4432 67.04533L132.4432 73.44712L135.44266 72.730835Z" fill="#000"/>
<path d="M148.59877 75.33184Q146.58421 75.33184,145.30414 74.38752Q144.02406 73.4432,144.02406 71.51259Q144.02406 69.37213,145.2202 67.672356Q146.41634 65.97258,148.34694 64.98629Q150.27756 64,152.45998 64Q154.30666 64,155.39787 64.98629Q156.48907 65.97258,156.48907 67.77728Q156.48907 69.8338,155.39787 71.55456Q154.30666 73.27532,152.52293 74.30358Q150.73923 75.33184,148.59877 75.33184Z" fill="#000"/>
<line stroke="#000" stroke-width="2" x1="156.02406692504883" x2="156.02406692504883" y1="34" y2="73"/>
<path d="M179.98042 18L186.69559 26.184107Q184.5971 28.660324,183.46391 30.465023Q182.33073 32.269722,182.33073 34.116394Q182.33073 35.669277,183.33801 37.369053Q184.34528 39.06883,186.52771 41.670956L185.8562 42.59429Q184.00952 41.419136,182.41467 41.419136Q181.23952 41.419136,180.65195 42.19558Q180.06436 42.97202,180.06436 44.063232Q180.06436 45.406265,180.63095 46.602406Q181.19756 47.798546,182.16286 48.88976L181.61725 49.687183Q178.72133 47.588696,177.33633 45.867935Q175.95132 44.147175,175.95132 42.13262Q175.95132 40.327923,177.0845 39.488525Q178.2177 38.64913,179.81255 38.64913Q181.07164 38.64913,183.08618 39.614437L183.08618 39.5305L176.62285 30.926691Q180.86179 27.191381,180.86179 23.959707Q180.86179 21.399551,178.17572 18L179.98042 18Z" fill="#000"/>
<path d="M202.95132 55.002796L204.33913 55.002796L204.33913 72.46223Q205.99553 70.80582,208.09962 70.80582Q209.53218 70.80582,210.69615 71.768326Q211.8601 72.730835,211.8601 74.56631Q211.8601 75.99888,211.00952 77.20761Q210.15894 78.416336,208.72636 79.62507L205.63739 82.266365Q204.7868 82.98265,204.11528 83.67655Q203.44377 84.37045,202.95132 84.9972L202.95132 55.002796ZM204.33913 81.99776Q205.50308 80.74426,206.30891 79.69222Q207.11473 78.640175,207.56241 77.83436Q208.05486 76.98377,208.30107 76.26749Q208.5473 75.5512,208.5473 74.92445Q208.5473 73.67096,207.96532 73.11136Q207.38333 72.55176,206.71182 72.55176Q205.99553 72.55176,205.30164 73.06659Q204.60773 73.58142,204.33913 74.476776L204.33913 81.99776Z" fill="#000"/>
<path d="M210.83044 37.78512L210.83044 61.82541L209.44266 61.82541L209.44266 52.33464L202.95132 53.99105L202.95132 30.174597L204.42867 30.174597L204.42867 39.441525L210.83044 37.78512ZM209.53218 48.17124L209.53218 42.440964L204.33913 43.73923L204.33913 49.424736L209.53218 48.17124Z" fill="#000"/>
<path d="M232.40515 75.33184Q230.3906 75.33184,229.11052 74.38752Q227.83044 73.4432,227.83044 71.51259Q227.83044 69.37213,229.02658 67.672356Q230.22272 65.97258,232.15332 64.98629Q234.08394 64,236.26636 64Q238.11304 64,239.20425 64.98629Q240.29547 65.97258,240.29547 67.77728Q240.29547 69.8338,239.20425 71.55456Q238.11304 73.27532,236.32932 74.30358Q234.54561 75.33184,232.40515 75.33184ZM228.96362 72.51987Q228.96362 72.93956,229.2784 73.27532Q229.59317 73.61108,230.13878 73.61108Q231.60771 73.61108,233.79015 72.39396Q235.2591 71.55456,236.45523 70.5263Q237.65137 69.49804,238.36485 68.46978Q239.07834 67.44152,239.07834 66.728035Q239.07834 66.266365,238.8475 65.95159Q238.61667 65.63682,238.0291 65.63682Q237.23167 65.63682,236.09848 66.14046Q234.9653 66.6441,233.72719 67.44152Q232.48909 68.238945,231.39787 69.183266Q230.30666 70.12759,229.63513 71.00896Q228.96362 71.89032,228.96362 72.51987Z" fill="#000"/>
<path d="M220.40515 69.33184Q218.3906 69.33184,217.11052 68.38752Q215.83044 67.4432,215.83044 65.51259Q215.83044 63.37213,217.02658 61.672356Q218.22272 59.97258,220.15332 58.98629Q222.08394 58,224.26636 58Q226.11304 58,227.20425 58.98629Q228.29547 59.97258,228.29547 61.77728Q228.29547 63.8338,227.20425 65.55456Q226.11304 67.27532,224.32932 68.30358Q222.54561 69.33184,220.40515 69.33184ZM216.96362 66.51987Q216.96362 66.93956,217.2784 67.27532Q217.59317 67.61108,218.13878 67.61108Q219.60771 67.61108,221.79015 66.39396Q223.2591 65.55456,224.45523 64.5263Q225.65137 63.49804,226.36485 62.46978Q227.07834 61.44152,227.07834 60.728035Q227.07834 60.26637,226.8475 59.951595Q226.61667 59.63682,226.0291 59.63682Q225.23167 59.63682,224.09848 60.140457Q222.9653 60.644096,221.72719 61.44152Q220.48909 62.23895,219.39787 63.183266Q218.30666 64.12759,217.63513 65.00896Q216.96362 65.89032,216.96362 66.51987Z" fill="#000"/>
<path d="M232.40515 63.33184Q230.3906 63.33184,229.11052 62.38752Q227.83044 61.4432,227.83044 59.512592Q227.83044 57.37213,229.02658 55.672356Q230.22272 53.97258,232.15332 52.98629Q234.08394 52,236.26636 52Q238.11304 52,239.20425 52.98629Q240.29547 53.97258,240.29547 55.77728Q240.29547 57.8338,239.20425 59.55456Q238.11304 61.275322,236.32932 62.30358Q234.54561 63.33184,232.40515 63.33184ZM228.96362 60.519867Q228.96362 60.939564,229.2784 61.275322Q229.59317 61.61108,230.13878 61.61108Q231.60771 61.61108,233.79015 60.393955Q235.2591 59.55456,236.45523 58.526302Q237.65137 57.49804,238.36485 56.46978Q239.07834 55.44152,239.07834 54.728035Q239.07834 54.26637,238.8475 53.951595Q238.61667 53.63682,238.0291 53.63682Q237.23167 53.63682,236.09848 54.140457Q234.9653 54.644096,233.72719 55.44152Q232.48909 56.23895,231.39787 57.183266Q230.30666 58.127586,229.63513 59.008953Q228.96362 59.89032,228.96362 60.519867Z" fill="#000"/>
<path d="M220.40515 51.33184Q218.3906 51.33184,217.11052 50.38752Q215.83044 49.4432,215.83044 47.512592Q215.83044 45.37213,217.02658 43.672356Q218.22272 41.97258,220.15332 40.98629Q222.08394 40,224.26636 40Q226.11304 40,227.20425 40.98629Q228.29547 41.97258,228.29547 43.77728Q228.29547 45.8338,227.20425 47.55456Q226.11304 49.275322,224.32932 50.30358Q222.54561 51.33184,220.40515 51.33184ZM216.96362 48.519867Q216.96362 48.939564,217.2784 49.275322Q217.59317 49.61108,218.13878 49.61108Q219.60771 49.61108,221.79015 48.393955Q223.2591 47.55456,224.45523 46.526302Q225.65137 45.49804,226.36485 44.46978Q227.07834 43.44152,227.07834 42.728035Q227.07834 42.26637,226.8475 41.951595Q226.61667 41.63682,226.0291 41.63682Q225.23167 41.63682,224.09848 42.140457Q222.9653 42.644096,221.72719 43.44152Q220.48909 44.23895,219.39787 45.183266Q218.30666 46.127586,217.63513 47.008953Q216.96362 47.89032,216.96362 48.519867Z" fill="#000"/>
<line stroke="#000" stroke-width="2" x1="227.83044624328613" x2="227.83044624328613" y1="10" y2="73"/>
<line stroke="#000" stroke-width="2" x1="13" x2="286.9513187408447" y1="10" y2="10"/>
<line stroke="#000" stroke-width="2" x1="13" x2="286.9513187408447" y1="22" y2="22"/>
<line stroke="#000" stroke-width="2" x1="13" x2="286.9513187408447" y1="34" y2="34"/>
<line stroke="#000" stroke-width="2" x1="13" x2="286.9513187408447" y1="46" y2="46"/>
<line stroke="#000" stroke-width="2" x1="13" x2="286.9513187408447" y1="58" y2="58"/>
<line stroke="#000" stroke-width="2" x1="13" x2="13" y1="9" y2="59"/>
<line stroke="#000" stroke-width="2" x1="287.9513187408447" x2="287.9513187408447" y1="9" y2="59"/>
</svg>