<svg xmlns="http://www.w3.org/2000/svg">
<rect fill="#fff" height="100" width="200" x="0" y="0"/>
<path d="M30.864017 21.895914Q30.393955 20.116394,30.091774 18.370451Q29.789593 16.624508,29.789593 14.811413Q29.789593 13.233349,30.007835 11.839954Q30.226078 10.446556,30.628986 9.271404Q31.065474 7.9283714,31.770565 6.7364273Q32.47566 5.544487,33.26469 4.7722435Q34.053722 4,34.65809 4Q35.463905 4,36.874092 6.853943Q37.579185 8.297703,37.91494 9.976494Q38.2507 11.655289,38.2507 13.569107Q38.2507 15.9529915,37.61276 18.320087Q36.97482 20.687183,35.749302 22.768885Q34.52378 24.850586,32.811417 26.42865L33.986572 32.06939Q34.490208 32.002235,34.825966 31.96866Q35.161724 31.935085,35.329605 31.935085Q37.377728 31.935085,38.98937 33.093452Q40.601006 34.251816,41.55792 36.132065Q42.51483 38.01231,42.51483 40.26189Q42.51483 42.84723,41.188583 44.91214Q39.86234 46.977055,37.209846 47.950752Q37.377728 48.52154,38.183548 52.71852Q38.385002 53.725796,38.485733 54.313374Q38.586456 54.90095,38.620033 55.337437Q38.65361 55.773922,38.65361 56.34471Q38.65361 58.023502,37.831 59.349747Q37.008392 60.67599,35.614998 61.41466Q34.2216 62.153328,32.50923 62.153328Q30.76329 62.153328,29.420258 61.4986Q28.077225 60.843872,27.304981 59.685505Q26.532738 58.527138,26.532738 57.016228Q26.532738 55.404587,27.422497 54.330162Q28.312256 53.255733,29.95747 53.255733Q31.367657 53.255733,32.257416 54.279797Q33.147175 55.30386,33.147175 56.714043Q33.147175 57.922775,32.307777 58.829323Q31.468384 59.73587,30.12535 59.73587L29.789593 59.73587Q30.662563 61.045326,32.54281 61.045326Q34.859543 61.045326,36.169 59.534416Q37.478455 58.023502,37.478455 55.673195Q37.478455 55.102406,37.344154 54.145493Q37.209846 53.188583,36.874092 51.84555Q36.53833 50.502518,36.35367 49.629547Q36.169 48.756573,36.101845 48.38724Q34.96027 48.723,33.41578 48.723Q30.52826 48.723,27.775042 47.04421Q25.088976 45.365417,23.544489 42.612198Q22 39.85898,22 36.669277Q22 33.647453,23.37661 30.994963Q24.753218 28.342472,26.784555 26.126467Q28.815893 23.910463,30.864017 21.895914ZM31.770565 21.056519Q32.54281 20.653608,33.41578 19.562393Q34.288754 18.47118,35.094574 17.060995Q35.90039 15.65081,36.40403 14.223839Q36.90767 12.796864,36.90767 11.655289Q36.90767 10.446556,36.53833 9.7414665Q36.169 9.036373,35.26245 9.036373Q34.45663 9.036373,33.701176 9.77504Q32.94572 10.51371,32.358143 11.739227Q31.770565 12.964745,31.434807 14.475655Q31.099049 15.986568,31.099049 17.564632Q31.099049 18.63906,31.317291 19.51203Q31.535534 20.385002,31.770565 21.056519ZM33.684387 36.06491Q32.77784 36.266365,31.97202 36.921097Q31.1662 37.575825,30.679352 38.49916Q30.192501 39.422493,30.192501 40.463345Q30.192501 41.302742,30.628986 42.1925Q31.065474 43.08226,31.703415 43.619473Q32.1399 44.02238,32.576385 44.22384Q33.080025 44.45887,33.080025 44.660324Q33.080025 44.76105,32.744263 44.86178Q31.468384 44.559597,30.44432 43.7202Q29.420258 42.880806,28.83268 41.68886Q28.245104 40.49692,28.245104 39.15389Q28.245104 37.71013,28.83268 36.367096Q29.420258 35.024063,30.477896 33.949635Q31.535534 32.87521,32.878567 32.337997L31.90487 27.268045Q28.010073 30.424173,26.180191 33.462784Q24.350307 36.501396,24.350307 39.489647Q24.350307 41.672073,25.491886 43.552322Q26.633465 45.432568,28.614437 46.590935Q30.595411 47.7493,33.080025 47.7493Q33.75154 47.7493,34.439842 47.614994Q35.128147 47.480694,35.90039 47.279236L33.684387 36.06491ZM36.941242 46.943478Q40.231674 45.533295,40.231674 41.168438Q40.231674 39.724678,39.493004 38.532734Q38.754337 37.340794,37.51203 36.6357Q36.269726 35.93061,34.72524 35.93061L36.941242 46.943478Z" fill="#000"/>
<path d="M54.618916 13.805261L54.618916 7.40347L52.51483 7.9406834L52.51483 3.4639063L54.618916 2.8819256L54.618916 -5.892557L56.006718 -5.892557L56.006718 2.5237837L59.006157 1.8074989L59.006157 -6.9222145L60.39396 -6.9222145L60.39396 1.449357L62.587578 0.95691204L62.587578 5.388921L60.39396 6.01567L60.39396 12.41746L62.587578 11.880247L62.587578 16.491327L60.39396 17.02854L60.39396 25.444881L59.006157 25.444881L59.006157 17.386683L56.006718 18.192501L56.006718 26.922216L54.618916 26.922216L54.618916 18.505877L52.51483 19.043089L52.51483 14.43201L54.618916 13.805261ZM59.006157 12.730835L59.006157 6.284276L56.006718 7.045328L56.006718 13.447119L59.006157 12.730835Z" fill="#000"/>
<path d="M65.691666 31.805262L65.691666 25.40347L63.587578 25.940683L63.587578 21.463905L65.691666 20.881926L65.691666 12.107443L67.07947 12.107443L67.07947 20.523785L70.0789 19.807499L70.0789 11.0777855L71.466705 11.0777855L71.466705 19.449356L73.660324 18.956913L73.660324 23.38892L71.466705 24.01567L71.466705 30.41746L73.660324 29.880247L73.660324 34.491325L71.466705 35.02854L71.466705 43.44488L70.0789 43.44488L70.0789 35.38668L67.07947 36.1925L67.07947 44.92222L65.691666 44.92222L65.691666 36.505875L63.587578 37.04309L63.587578 32.43201L65.691666 31.805262ZM70.0789 30.730835L70.0789 24.284275L67.07947 25.045328L67.07947 31.447119L70.0789 30.730835Z" fill="#000"/>
<path d="M86.76441 73.80526L86.76441 67.40347L84.660324 67.94068L84.660324 63.463905L86.76441 62.881927L86.76441 54.107445L88.15221 54.107445L88.15221 62.523785L91.15165 61.8075L91.15165 53.077785L92.53945 53.077785L92.53945 61.449356L94.73307 60.956913L94.73307 65.38892L92.53945 66.01567L92.53945 72.41746L94.73307 71.88025L94.73307 76.491325L92.53945 77.02854L92.53945 85.44488L91.15165 85.44488L91.15165 77.38668L88.15221 78.192505L88.15221 86.92222L86.76441 86.92222L86.76441 78.505875L84.660324 79.04309L84.660324 74.43201L86.76441 73.80526ZM91.15165 72.730835L91.15165 66.28428L88.15221 67.04533L88.15221 73.44712L91.15165 72.730835Z" fill="#000"/>
<path d="M104.307785 75.33184Q102.293236 75.33184,101.01316 74.38752Q99.73308 73.4432,99.73308 71.51259Q99.73308 69.37213,100.929214 67.672356Q102.12536 65.97258,104.05597 64.98629Q105.98658 64,108.16901 64Q110.01568 64,111.10689 64.98629Q112.198105 65.97258,112.198105 67.77728Q112.198105 69.8338,111.10689 71.55456Q110.01568 73.27532,108.231964 74.30358Q106.44824 75.33184,104.307785 75.33184Z" fill="#000"/>
<line stroke="#000" stroke-width="2" x1="111.73307418823242" x2="111.73307418823242" y1="34" y2="73"/>
<path d="M135.68942 18L142.40459 26.184107Q140.3061 28.660324,139.17291 30.465023Q138.03973 32.269722,138.03973 34.116394Q138.03973 35.669277,139.04701 37.369053Q140.05428 39.06883,142.23671 41.670956L141.5652 42.59429Q139.71852 41.419136,138.12367 41.419136Q136.94852 41.419136,136.36095 42.19558Q135.77336 42.97202,135.77336 44.063232Q135.77336 45.406265,136.33995 46.602406Q136.90656 47.798546,137.87186 48.88976L137.32625 49.687183Q134.43033 47.588696,133.04533 45.867935Q131.66032 44.147175,131.66032 42.13262Q131.66032 40.327923,132.7935 39.488525Q133.9267 38.64913,135.52155 38.64913Q136.78064 38.64913,138.7952 39.614437L138.7952 39.5305L132.33185 30.926691Q136.57079 27.191381,136.57079 23.959707Q136.57079 21.399551,133.88472 18L135.68942 18Z" fill="#000"/>
<path d="M158.66032 46.005596L160.04813 46.005596L160.04813 63.465027Q161.70453 61.808617,163.80862 61.808617Q165.24118 61.808617,166.40515 62.771126Q167.5691 63.73363,167.5691 65.56911Q167.5691 67.00168,166.71852 68.21041Q165.86794 69.419136,164.43536 70.62787L161.34639 73.269165Q160.4958 73.98545,159.82428 74.67935Q159.15277 75.37325,158.66032 76L158.66032 46.005596ZM160.04813 73.00056Q161.21208 71.74706,162.01791 70.69502Q162.82373 69.642975,163.27141 68.83716Q163.76385 67.98657,164.01007 67.27029Q164.2563 66.554,164.2563 65.92725Q164.2563 64.67375,163.67432 64.11416Q163.09233 63.55456,162.42082 63.55456Q161.70453 63.55456,161.01064 64.06939Q160.31673 64.58422,160.04813 65.479576L160.04813 73.00056Z" fill="#000"/>
<path d="M166.53946 37.78512L166.53946 61.82541L165.15166 61.82541L165.15166 52.33464L158.66032 53.99105L158.66032 30.174597L160.13766 30.174597L160.13766 39.441525L166.53946 37.78512ZM165.24118 48.17124L165.24118 42.440964L160.04813 43.73923L160.04813 49.424736L165.24118 48.17124Z" fill="#000"/>
<path d="M188.11417 75.33184Q186.09961 75.33184,184.81953 74.38752Q183.53946 73.4432,183.53946 71.51259Q183.53946 69.37213,184.7356 67.672356Q185.93173 65.97258,187.86234 64.98629Q189.79295 64,191.97537 64Q193.82205 64,194.91327 64.98629Q196.00449 65.97258,196.00449 67.77728Q196.00449 69.8338,194.91327 71.55456Q193.82205 73.27532,192.03833 74.30358Q190.25462 75.33184,188.11417 75.33184ZM184.67264 72.51987Q184.67264 72.93956,184.98741 73.27532Q185.30219 73.61108,185.8478 73.61108Q187.31673 73.61108,189.49916 72.39396Q190.96811 71.55456,192.16425 70.5263Q193.36038 69.49804,194.07387 68.46978Q194.78735 67.44152,194.78735 66.728035Q194.78735 66.266365,194.55652 65.95159Q194.32568 65.63682,193.73811 65.63682Q192.94069 65.63682,191.8075 66.14046Q190.67432 66.6441,189.4362 67.44152Q188.1981 68.238945,187.10689 69.183266Q186.01567 70.12759,185.34415 71.00896Q184.67264 71.89032,184.67264 72.51987Z" fill="#000"/>
<path d="M176.11417 69.33184Q174.09961 69.33184,172.81953 68.38752Q171.53946 67.4432,171.53946 65.51259Q171.53946 63.37213,172.7356 61.672356Q173.93173 59.97258,175.86234 58.98629Q177.79295 58,179.97537 58Q181.82205 58,182.91327 58.98629Q184.00449 59.97258,184.00449 61.77728Q184.00449 63.8338,182.91327 65.55456Q181.82205 67.27532,180.03833 68.30358Q178.25462 69.33184,176.11417 69.33184ZM172.67264 66.51987Q172.67264 66.93956,172.98741 67.27532Q173.30219 67.61108,173.8478 67.61108Q175.31673 67.61108,177.49916 66.39396Q178.96811 65.55456,180.16425 64.5263Q181.36038 63.49804,182.07387 62.46978Q182.78735 61.44152,182.78735 60.728035Q182.78735 60.26637,182.55652 59.951595Q182.32568 59.63682,181.73811 59.63682Q180.94069 59.63682,179.8075 60.140457Q178.67432 60.644096,177.4362 61.44152Q176.1981 62.23895,175.10689 63.183266Q174.01567 64.12759,173.34415 65.00896Q172.67264 65.89032,172.67264 66.51987Z" fill="#000"/>
<path d="M188.11417 63.33184Q186.09961 63.33184,184.81953 62.38752Q183.53946 61.4432,183.53946 59.512592Q183.53946 57.37213,184.7356 55.672356Q185.93173 53.97258,187.86234 52.98629Q189.79295 52,191.97537 52Q193.82205 52,194.91327 52.98629Q196.00449 53.97258,196.00449 55.77728Q196.00449 57.8338,194.91327 59.55456Q193.82205 61.275322,192.03833 62.30358Q190.25462 63.33184,188.11417 63.33184ZM184.67264 60.519867Q184.67264 60.939564,184.98741 61.275322Q185.30219 61.61108,185.8478 61.61108Q187.31673 61.61108,189.49916 60.393955Q190.96811 59.55456,192.16425 58.526302Q193.36038 57.49804,194.07387 56.46978Q194.78735 55.44152,194.78735 54.728035Q194.78735 54.26637,194.55652 53.951595Q194.32568 53.63682,193.73811 53.63682Q192.94069 53.63682,191.8075 54.140457Q190.67432 54.644096,189.4362 55.44152Q188.1981 56.23895,187.10689 57.183266Q186.01567 58.127586,185.34415 59.008953Q184.67264 59.89032,184.67264 60.519867Z" fill="#000"/>
<path d="M176.11417 51.33184Q174.09961 51.33184,172.81953 50.38752Q171.53946 49.4432,171.53946 47.512592Q171.53946 45.37213,172.7356 43.672356Q173.93173 41.97258,175.86234 40.98629Q177.79295 40,179.97537 40Q181.82205 40,182.91327 40.98629Q184.00449 41.97258,184.00449 43.77728Q184.00449 45.8338,182.91327 47.55456Q181.82205 49.275322,180.03833 50.30358Q178.25462 51.33184,176.11417 51.33184ZM172.67264 48.519867Q172.67264 48.939564,172.98741 49.275322Q173.30219 49.61108,173.8478 49.61108Q175.31673 49.61108,177.49916 48.393955Q178.96811 47.55456,180.16425 46.526302Q181.36038 45.49804,182.07387 44.46978Q182.78735 43.44152,182.78735 42.728035Q182.78735 42.26637,182.55652 41.951595Q182.32568 41.63682,181.73811 41.63682Q180.94069 41.63682,179.8075 42.140457Q178.67432 42.644096,177.4362 43.44152Q176.1981 44.23895,175.10689 45.183266Q174.01567 46.127586,173.34415 47.008953Q172.67264 47.89032,172.67264 48.519867Z" fill="#000"/>
<line stroke="#000" stroke-width="2" x1="183.53945350646973" x2="183.53945350646973" y1="10" y2="73"/>
<line stroke="#000" stroke-width="2" x1="13" x2="242.66032600402832" y1="10" y2="10"/>
<line stroke="#000" stroke-width="2" x1="13" x2="242.66032600402832" y1="22" y2="22"/>
<line stroke="#000" stroke-width="2" x1="13" x2="242.66032600402832" y1="34" y2="34"/>
<line stroke="#000" stroke-width="2" x1="13" x2="242.66032600402832" y1="46" y2="46"/>
<line stroke="#000" stroke-width="2" x1="13" x2="242.66032600402832" y1="58" y2="58"/>
<line stroke="#000" stroke-width="2" x1="13" x2="13" y1="9" y2="59"/>
<line stroke="#000" stroke-width="2" x1="243.66032600402832" x2="243.66032600402832" y1="9" y2="59"/>
</svg>