<svg xmlns="http://www.w3.org/2000/svg">
<rect fill="#fff" height="200" width="120" x="0" y="0"/>
<path d="M38.574707 63.33184Q36.560158 63.33184,35.28008 62.38752Q34 61.4432,34 59.512592Q34 57.37213,35.196136 55.672356Q36.392277 53.97258,38.322887 52.98629Q40.253498 52,42.435925 52Q44.282597 52,45.37381 52.98629Q46.465027 53.97258,46.465027 55.77728Q46.465027 57.8338,45.37381 59.55456Q44.282597 61.275322,42.49888 62.30358Q40.715164 63.33184,38.574707 63.33184Z" fill="#000"/>
<path d="M38.574707 33.33184Q36.560158 33.33184,35.28008 32.38752Q34 31.443201,34 29.51259Q34 27.372131,35.196136 25.672356Q36.392277 23.97258,38.322887 22.98629Q40.253498 22,42.435925 22Q44.282597 22,45.37381 22.98629Q46.465027 23.97258,46.465027 25.777279Q46.465027 27.8338,45.37381 29.55456Q44.282597 31.275322,42.49888 32.30358Q40.715164 33.33184,38.574707 33.33184Z" fill="#000"/>
<path d="M38.574707 15.331842Q36.560158 15.331842,35.28008 14.387522Q34 13.443202,34 11.512591Q34 9.372133,35.196136 7.6723566Q36.392277 5.97258,38.322887 4.98629Q40.253498 4,42.435925 4Q44.282597 4,45.37381 4.98629Q46.465027 5.97258,46.465027 7.777281Q46.465027 9.8338,45.37381 11.554562Q44.282597 13.275322,42.49888 14.303582Q40.715164 15.331842,38.574707 15.331842Z" fill="#000"/>
<line stroke="#000" stroke-width="2" x1="34" x2="34" y1="7" y2="94"/>
<path d="M76.0291 18L82.74426 26.184107Q80.645775 28.660324,79.512596 30.465023Q78.37941 32.269722,78.37941 34.116394Q78.37941 35.669277,79.38668 37.369053Q80.39396 39.06883,82.576385 41.670956L81.90487 42.59429Q80.0582 41.419136,78.46335 41.419136Q77.28819 41.419136,76.700615 42.19558Q76.11304 42.97202,76.11304 44.063232Q76.11304 45.406265,76.679634 46.602406Q77.24622 47.798546,78.21153 48.88976L77.665924 49.687183Q74.770004 47.588696,73.385 45.867935Q72 44.147175,72 42.13262Q72 40.327923,73.13319 39.488525Q74.26637 38.64913,75.86122 38.64913Q77.120316 38.64913,79.134865 39.614437L79.134865 39.5305L72.67152 30.926691Q76.91047 27.191381,76.91047 23.959707Q76.91047 21.399551,74.2244 18L76.0291 18Z" fill="#000"/>
<path d="M118.57471 75.33184Q116.56016 75.33184,115.28008 74.38752Q114 73.4432,114 71.51259Q114 69.37213,115.19614 67.672356Q116.39228 65.97258,118.32289 64.98629Q120.2535 64,122.43593 64Q124.2826 64,125.37381 64.98629Q126.46503 65.97258,126.46503 67.77728Q126.46503 69.8338,125.37381 71.55456Q124.2826 73.27532,122.498886 74.30358Q120.715164 75.33184,118.57471 75.33184ZM115.13319 72.51987Q115.13319 72.93956,115.44796 73.27532Q115.76273 73.61108,116.30834 73.61108Q117.77728 73.61108,119.95971 72.39396Q121.42865 71.55456,122.624794 70.5263Q123.82093 69.49804,124.53442 68.46978Q125.2479 67.44152,125.2479 66.728035Q125.2479 66.266365,125.01707 65.95159Q124.78624 65.63682,124.19866 65.63682Q123.40123 65.63682,122.26805 66.14046Q121.134865 66.6441,119.89676 67.44152Q118.658646 68.238945,117.56744 69.183266Q116.47622 70.12759,115.8047 71.00896Q115.13319 71.89032,115.13319 72.51987Z" fill="#000"/>
<path d="M106.57471 69.33184Q104.56016 69.33184,103.28008 68.38752Q102 67.4432,102 65.51259Q102 63.37213,103.19614 61.672356Q104.39228 59.97258,106.32289 58.98629Q108.2535 58,110.43593 58Q112.2826 58,113.37381 58.98629Q114.46503 59.97258,114.46503 61.77728Q114.46503 63.8338,113.37381 65.55456Q112.2826 67.27532,110.498886 68.30358Q108.715164 69.33184,106.57471 69.33184ZM103.13319 66.51987Q103.13319 66.93956,103.44796 67.27532Q103.76273 67.61108,104.30834 67.61108Q105.77728 67.61108,107.95971 66.39396Q109.42865 65.55456,110.624794 64.5263Q111.82093 63.49804,112.53442 62.46978Q113.2479 61.44152,113.2479 60.728035Q113.2479 60.26637,113.01707 59.951595Q112.78624 59.63682,112.19866 59.63682Q111.40123 59.63682,110.26805 60.140457Q109.134865 60.644096,107.89676 61.44152Q106.658646 62.23895,105.56744 63.183266Q104.47622 64.12759,103.8047 65.00896Q103.13319 65.89032,103.13319 66.51987Z" fill="#000"/>
<path d="M118.57471 63.33184Q116.56016 63.33184,115.28008 62.38752Q114 61.4432,114 59.512592Q114 57.37213,115.19614 55.672356Q116.39228 53.97258,118.32289 52.98629Q120.2535 52,122.43593 52Q124.2826 52,125.37381 52.98629Q126.46503 53.97258,126.46503 55.77728Q126.46503 57.8338,125.37381 59.55456Q124.2826 61.275322,122.498886 62.30358Q120.715164 63.33184,118.57471 63.33184ZM115.13319 60.519867Q115.13319 60.939564,115.44796 61.275322Q115.76273 61.61108,116.30834 61.61108Q117.77728 61.61108,119.95971 60.393955Q121.42865 59.55456,122.624794 58.526302Q123.82093 57.49804,124.53442 56.46978Q125.2479 55.44152,125.2479 54.728035Q125.2479 54.26637,125.01707 53.951595Q124.78624 53.63682,124.19866 53.63682Q123.40123 53.63682,122.26805 54.140457Q121.134865 54.644096,119.89676 55.44152Q118.658646 56.23895,117.56744 57.183266Q116.47622 58.127586,115.8047 59.008953Q115.13319 59.89032,115.13319 60.519867Z" fill="#000"/>
<path d="M106.57471 51.33184Q104.56016 51.33184,103.28008 50.38752Q102 49.4432,102 47.512592Q102 45.37213,103.19614 43.672356Q104.39228 41.97258,106.32289 40.98629Q108.2535 40,110.43593 40Q112.2826 40,113.37381 40.98629Q114.46503 41.97258,114.46503 43.77728Q114.46503 45.8338,113.37381 47.55456Q112.2826 49.275322,110.498886 50.30358Q108.715164 51.33184,106.57471 51.33184ZM103.13319 48.519867Q103.13319 48.939564,103.44796 49.275322Q103.76273 49.61108,104.30834 49.61108Q105.77728 49.61108,107.95971 48.393955Q109.42865 47.55456,110.624794 46.526302Q111.82093 45.49804,112.53442 44.46978Q113.2479 43.44152,113.2479 42.728035Q113.2479 42.26637,113.01707 41.951595Q112.78624 41.63682,112.19866 41.63682Q111.40123 41.63682,110.26805 42.140457Q109.134865 42.644096,107.89676 43.44152Q106.658646 44.23895,105.56744 45.183266Q104.47622 46.127586,103.8047 47.008953Q103.13319 47.89032,103.13319 48.519867Z" fill="#000"/>
<line stroke="#000" stroke-width="2" x1="114" x2="114" y1="10" y2="73"/>
<line stroke="#000" stroke-width="2" x1="13" x2="152" y1="10" y2="10"/>
<line stroke="#000" stroke-width="2" x1="13" x2="152" y1="22" y2="22"/>
<line stroke="#000" stroke-width="2" x1="13" x2="152" y1="34" y2="34"/>
<line stroke="#000" stroke-width="2" x1="13" x2="152" y1="46" y2="46"/>
<line stroke="#000" stroke-width="2" x1="13" x2="152" y1="58" y2="58"/>
<line stroke="#000" stroke-width="2" x1="13" x2="13" y1="9" y2="59"/>
<line stroke="#000" stroke-width="2" x1="153" x2="153" y1="9" y2="59"/>
</svg>