<svg xmlns="http://www.w3.org/2000/svg">
<rect fill="#fff" height="100" width="200" x="0" y="0"/>
<path d="M30.864017 21.895914Q30.393955 20.116394,30.091774 18.370451Q29.789593 16.624508,29.789593 14.811413Q29.789593 13.233349,30.007835 11.839954Q30.226078 10.446556,30.628986 9.271404Q31.065474 7.9283714,31.770565 6.7364273Q32.47566 5.544487,33.26469 4.7722435Q34.053722 4,34.65809 4Q35.463905 4,36.874092 6.853943Q37.579185 8.297703,37.91494 9.976494Q38.2507 11.655289,38.2507 13.569107Q38.2507 15.9529915,37.61276 18.320087Q36.97482 20.687183,35.749302 22.768885Q34.52378 24.850586,32.811417 26.42865L33.986572 32.06939Q34.490208 32.002235,34.825966 31.96866Q35.161724 31.935085,35.329605 31.935085Q37.377728 31.935085,38.98937 33.093452Q40.601006 34.251816,41.55792 36.132065Q42.51483 38.01231,42.51483 40.26189Q42.51483 42.84723,41.188583 44.91214Q39.86234 46.977055,37.209846 47.950752Q37.377728 48.52154,38.183548 52.71852Q38.385002 53.725796,38.485733 54.313374Q38.586456 54.90095,38.620033 55.337437Q38.65361 55.773922,38.65361 56.34471Q38.65361 58.023502,37.831 59.349747Q37.008392 60.67599,35.614998 61.41466Q34.2216 62.153328,32.50923 62.153328Q30.76329 62.153328,29.420258 61.4986Q28.077225 60.843872,27.304981 59.685505Q26.532738 58.527138,26.532738 57.016228Q26.532738 55.404587,27.422497 54.330162Q28.312256 53.255733,29.95747 53.255733Q31.367657 53.255733,32.257416 54.279797Q33.147175 55.30386,33.147175 56.714043Q33.147175 57.922775,32.307777 58.829323Q31.468384 59.73587,30.12535 59.73587L29.789593 59.73587Q30.662563 61.045326,32.54281 61.045326Q34.859543 61.045326,36.169 59.534416Q37.478455 58.023502,37.478455 55.673195Q37.478455 55.102406,37.344154 54.145493Q37.209846 53.188583,36.874092 51.84555Q36.53833 50.502518,36.35367 49.629547Q36.169 48.756573,36.101845 48.38724Q34.96027 48.723,33.41578 48.723Q30.52826 48.723,27.775042 47.04421Q25.088976 45.365417,23.544489 42.612198Q22 39.85898,22 36.669277Q22 33.647453,23.37661 30.994963Q24.753218 28.342472,26.784555 26.126467Q28.815893 23.910463,30.864017 21.895914ZM31.770565 21.056519Q32.54281 20.653608,33.41578 19.562393Q34.288754 18.47118,35.094574 17.060995Q35.90039 15.65081,36.40403 14.223839Q36.90767 12.796864,36.90767 11.655289Q36.90767 10.446556,36.53833 9.7414665Q36.169 9.036373,35.26245 9.036373Q34.45663 9.036373,33.701176 9.77504Q32.94572 10.51371,32.358143 11.739227Q31.770565 12.964745,31.434807 14.475655Q31.099049 15.986568,31.099049 17.564632Q31.099049 18.63906,31.317291 19.51203Q31.535534 20.385002,31.770565 21.056519ZM33.684387 36.06491Q32.77784 36.266365,31.97202 36.921097Q31.1662 37.575825,30.679352 38.49916Q30.192501 39.422493,30.192501 40.463345Q30.192501 41.302742,30.628986 42.1925Q31.065474 43.08226,31.703415 43.619473Q32.1399 44.02238,32.576385 44.22384Q33.080025 44.45887,33.080025 44.660324Q33.080025 44.76105,32.744263 44.86178Q31.468384 44.559597,30.44432 43.7202Q29.420258 42.880806,28.83268 41.68886Q28.245104 40.49692,28.245104 39.15389Q28.245104 37.71013,28.83268 36.367096Q29.420258 35.024063,30.477896 33.949635Q31.535534 32.87521,32.878567 32.337997L31.90487 27.268045Q28.010073 30.424173,26.180191 33.462784Q24.350307 36.501396,24.350307 39.489647Q24.350307 41.672073,25.491886 43.552322Q26.633465 45.432568,28.614437 46.590935Q30.595411 47.7493,33.080025 47.7493Q33.75154 47.7493,34.439842 47.614994Q35.128147 47.480694,35.90039 47.279236L33.684387 36.06491ZM36.941242 46.943478Q40.231674 45.533295,40.231674 41.168438Q40.231674 39.724678,39.493004 38.532734Q38.754337 37.340794,37.51203 36.6357Q36.269726 35.93061,34.72524 35.93061L36.941242 46.943478Z" fill="#000"/>
<path d="M54.618916 13.805261L54.618916 7.40347L52.51483 7.9406834L52.51483 3.4639063L54.618916 2.8819256L54.618916 -5.892557L56.006718 -5.892557L56.006718 2.5237837L59.006157 1.8074989L59.006157 -6.9222145L60.39396 -6.9222145L60.39396 1.449357L62.587578 0.95691204L62.587578 5.388921L60.39396 6.01567L60.39396 12.41746L62.587578 11.880247L62.587578 16.491327L60.39396 17.02854L60.39396 25.444881L59.006157 25.444881L59.006157 17.386683L56.006718 18.192501L56.006718 26.922216L54.618916 26.922216L54.618916 18.505877L52.51483 19.043089L52.51483 14.43201L54.618916 13.805261ZM59.006157 12.730835L59.006157 6.284276L56.006718 7.045328L56.006718 13.447119L59.006157 12.730835Z" fill="#000"/>
<path d="M75.691666 73.80526L75.691666 67.40347L73.58758 67.94068L73.58758 63.463905L75.691666 62.881927L75.691666 54.107445L77.07947 54.107445L77.07947 62.523785L80.0789 61.8075L80.0789 53.077785L81.466705 53.077785L81.466705 61.449356L83.660324 60.956913L83.660324 65.38892L81.466705 66.01567L81.466705 72.41746L83.660324 71.88025L83.660324 76.491325L81.466705 77.02854L81.466705 85.44488L80.0789 85.44488L80.0789 77.38668L77.07947 78.192505L77.07947 86.92222L75.691666 86.92222L75.691666 78.505875L73.58758 79.04309L73.58758 74.43201L75.691666 73.80526ZM80.0789 72.730835L80.0789 66.28428L77.07947 67.04533L77.07947 73.44712L80.0789 72.730835Z" fill="#000"/>
<path d="M93.23503 75.33184Q91.22048 75.33184,89.94041 74.38752Q88.660324 73.4432,88.660324 71.51259Q88.660324 69.37213,89.85646 67.672356Q91.052605 65.97258,92.983215 64.98629Q94.913826 64,97.09625 64Q98.942924 64,100.034134 64.98629Q101.12535 65.97258,101.12535 67.77728Q101.12535 69.8338,100.034134 71.55456Q98.942924 73.27532,97.15921 74.30358Q95.37549 75.33184,93.23503 75.33184Z" fill="#000"/>
<line stroke="#000" stroke-width="2" x1="100.08889743259975" x2="100.08889743259975" y1="34" y2="68.5"/>
<path d="M111.71978 18L118.43495 26.184107Q116.33646 28.660324,115.20328 30.465023Q114.07009 32.269722,114.07009 34.116394Q114.07009 35.669277,115.07736 37.369053Q116.08464 39.06883,118.26707 41.670956L117.59555 42.59429Q115.74888 41.419136,114.15403 41.419136Q112.978874 41.419136,112.3913 42.19558Q111.80372 42.97202,111.80372 44.063232Q111.80372 45.406265,112.370316 46.602406Q112.936905 47.798546,113.902214 48.88976L113.356606 49.687183Q110.460686 47.588696,109.07568 45.867935Q107.69068 44.147175,107.69068 42.13262Q107.69068 40.327923,108.82387 39.488525Q109.957054 38.64913,111.5519 38.64913Q112.811 38.64913,114.82555 39.614437L114.82555 39.5305L108.3622 30.926691Q112.60115 27.191381,112.60115 23.959707Q112.60115 21.399551,109.915085 18L111.71978 18Z" fill="#000"/>
<path d="M121.79379 46.005596L123.181595 46.005596L123.181595 63.465027Q124.838 61.808617,126.942085 61.808617Q128.37465 61.808617,129.53862 62.771126Q130.70258 63.73363,130.70258 65.56911Q130.70258 67.00168,129.85199 68.21041Q129.0014 69.419136,127.56883 70.62787L124.47986 73.269165Q123.62927 73.98545,122.957756 74.67935Q122.28624 75.37325,121.79379 76L121.79379 46.005596ZM123.181595 73.00056Q124.34556 71.74706,125.151375 70.69502Q125.9572 69.642975,126.40488 68.83716Q126.897316 67.98657,127.14354 67.27029Q127.38976 66.554,127.38976 65.92725Q127.38976 64.67375,126.807785 64.11416Q126.2258 63.55456,125.55428 63.55456Q124.838 63.55456,124.144104 64.06939Q123.4502 64.58422,123.181595 65.479576L123.181595 73.00056Z" fill="#000"/>
<path d="M129.67291 37.78512L129.67291 61.82541L128.28513 61.82541L128.28513 52.33464L121.79379 53.99105L121.79379 30.174597L123.271126 30.174597L123.271126 39.441525L129.67291 37.78512ZM128.37465 48.17124L128.37465 42.440964L123.181595 43.73923L123.181595 49.424736L128.37465 48.17124Z" fill="#000"/>
<path d="M151.24762 75.33184Q149.23306 75.33184,147.95299 74.38752Q146.67291 73.4432,146.67291 71.51259Q146.67291 69.37213,147.86905 67.672356Q149.06519 65.97258,150.99579 64.98629Q152.9264 64,155.10883 64Q156.9555 64,158.04672 64.98629Q159.13794 65.97258,159.13794 67.77728Q159.13794 69.8338,158.04672 71.55456Q156.9555 73.27532,155.17178 74.30358Q153.38808 75.33184,151.24762 75.33184ZM147.80609 72.51987Q147.80609 72.93956,148.12086 73.27532Q148.43564 73.61108,148.98125 73.61108Q150.45018 73.61108,152.63261 72.39396Q154.10156 71.55456,155.2977 70.5263Q156.49384 69.49804,157.20732 68.46978Q157.9208 67.44152,157.9208 66.728035Q157.9208 66.266365,157.68997 65.95159Q157.45914 65.63682,156.87157 65.63682Q156.07414 65.63682,154.94095 66.14046Q153.80777 66.6441,152.56966 67.44152Q151.33156 68.238945,150.24034 69.183266Q149.14912 70.12759,148.4776 71.00896Q147.80609 71.89032,147.80609 72.51987Z" fill="#000"/>
<path d="M139.24762 69.33184Q137.23306 69.33184,135.95299 68.38752Q134.67291 67.4432,134.67291 65.51259Q134.67291 63.37213,135.86905 61.672356Q137.06519 59.97258,138.99579 58.98629Q140.9264 58,143.10883 58Q144.9555 58,146.04672 58.98629Q147.13794 59.97258,147.13794 61.77728Q147.13794 63.8338,146.04672 65.55456Q144.9555 67.27532,143.17178 68.30358Q141.38808 69.33184,139.24762 69.33184ZM135.80609 66.51987Q135.80609 66.93956,136.12086 67.27532Q136.43564 67.61108,136.98125 67.61108Q138.45018 67.61108,140.63261 66.39396Q142.10156 65.55456,143.2977 64.5263Q144.49384 63.49804,145.20732 62.46978Q145.9208 61.44152,145.9208 60.728035Q145.9208 60.26637,145.68997 59.951595Q145.45914 59.63682,144.87157 59.63682Q144.07414 59.63682,142.94095 60.140457Q141.80777 60.644096,140.56966 61.44152Q139.33156 62.23895,138.24034 63.183266Q137.14912 64.12759,136.4776 65.00896Q135.80609 65.89032,135.80609 66.51987Z" fill="#000"/>
<path d="M151.24762 63.33184Q149.23306 63.33184,147.95299 62.38752Q146.67291 61.4432,146.67291 59.512592Q146.67291 57.37213,147.86905 55.672356Q149.06519 53.97258,150.99579 52.98629Q152.9264 52,155.10883 52Q156.9555 52,158.04672 52.98629Q159.13794 53.97258,159.13794 55.77728Q159.13794 57.8338,158.04672 59.55456Q156.9555 61.275322,155.17178 62.30358Q153.38808 63.33184,151.24762 63.33184ZM147.80609 60.519867Q147.80609 60.939564,148.12086 61.275322Q148.43564 61.61108,148.98125 61.61108Q150.45018 61.61108,152.63261 60.393955Q154.10156 59.55456,155.2977 58.526302Q156.49384 57.49804,157.20732 56.46978Q157.9208 55.44152,157.9208 54.728035Q157.9208 54.26637,157.68997 53.951595Q157.45914 53.63682,156.87157 53.63682Q156.07414 53.63682,154.94095 54.140457Q153.80777 54.644096,152.56966 55.44152Q151.33156 56.23895,150.24034 57.183266Q149.14912 58.127586,148.4776 59.008953Q147.80609 59.89032,147.80609 60.519867Z" fill="#000"/>
<path d="M139.24762 51.33184Q137.23306 51.33184,135.95299 50.38752Q134.67291 49.4432,134.67291 47.512592Q134.67291 45.37213,135.86905 43.672356Q137.06519 41.97258,138.99579 40.98629Q140.9264 40,143.10883 40Q144.9555 40,146.04672 40.98629Q147.13794 41.97258,147.13794 43.77728Q147.13794 45.8338,146.04672 47.55456Q144.9555 49.275322,143.17178 50.30358Q141.38808 51.33184,139.24762 51.33184ZM135.80609 48.519867Q135.80609 48.939564,136.12086 49.275322Q136.43564 49.61108,136.98125 49.61108Q138.45018 49.61108,140.63261 48.393955Q142.10156 47.55456,143.2977 46.526302Q144.49384 45.49804,145.20732 44.46978Q145.9208 43.44152,145.9208 42.728035Q145.9208 42.26637,145.68997 41.951595Q145.45914 41.63682,144.87157 41.63682Q144.07414 41.63682,142.94095 42.140457Q141.80777 42.644096,140.56966 43.44152Q139.33156 44.23895,138.24034 45.183266Q137.14912 46.127586,136.4776 47.008953Q135.80609 47.89032,135.80609 48.519867Z" fill="#000"/>
<line stroke="#000" stroke-width="2" x1="146.10148784092493" x2="146.10148784092493" y1="10" y2="68.5"/>
<line stroke="#000" stroke-width="2" x1="13" x2="180" y1="10" y2="10"/>
<line stroke="#000" stroke-width="2" x1="13" x2="180" y1="22" y2="22"/>
<line stroke="#000" stroke-width="2" x1="13" x2="180" y1="34" y2="34"/>
<line stroke="#000" stroke-width="2" x1="13" x2="180" y1="46" y2="46"/>
<line stroke="#000" stroke-width="2" x1="13" x2="180" y1="58" y2="58"/>
<line stroke="#000" stroke-width="2" x1="13" x2="13" y1="9" y2="59"/>
<line stroke="#000" stroke-width="2" x1="181" x2="181" y1="9" y2="59"/>
</svg>