<svg xmlns="http://www.w3.org/2000/svg">
<path d="M 3.019 10.674 A 6.723 6.723 0 0 0 4.36 10.8 Q 6.4 10.8 8.1 9.82 Q 9.8 8.84 10.84 7.2 Q 11.88 5.56 11.88 3.6 Q 11.88 1.88 10.84 0.94 Q 9.8 0 8.04 0 Q 5.96 0 4.12 0.94 Q 2.28 1.88 1.14 3.5 Q 0 5.12 0 7.16 A 4.556 4.556 0 0 0 0.088 8.078 A 2.903 2.903 0 0 0 1.22 9.9 A 4.057 4.057 0 0 0 1.491 10.083 Q 2.161 10.499 3.019 10.674 Z" stroke="#000" transform="translate(17, 24)"/>
<path d="M 3.019 10.674 A 6.723 6.723 0 0 0 4.36 10.8 Q 6.4 10.8 8.1 9.82 Q 9.8 8.84 10.84 7.2 Q 11.88 5.56 11.88 3.6 Q 11.88 1.88 10.84 0.94 Q 9.8 0 8.04 0 Q 5.96 0 4.12 0.94 Q 2.28 1.88 1.14 3.5 Q 0 5.12 0 7.16 A 4.556 4.556 0 0 0 0.088 8.078 A 2.903 2.903 0 0 0 1.22 9.9 A 4.057 4.057 0 0 0 1.491 10.083 Q 2.161 10.499 3.019 10.674 Z" stroke="#000" transform="translate(29, 54)"/>
<path d="M 3.019 10.674 A 6.723 6.723 0 0 0 4.36 10.8 Q 6.4 10.8 8.1 9.82 Q 9.8 8.84 10.84 7.2 Q 11.88 5.56 11.88 3.6 Q 11.88 1.88 10.84 0.94 Q 9.8 0 8.04 0 Q 5.96 0 4.12 0.94 Q 2.28 1.88 1.14 3.5 Q 0 5.12 0 7.16 A 4.556 4.556 0 0 0 0.088 8.078 A 2.903 2.903 0 0 0 1.22 9.9 A 4.057 4.057 0 0 0 1.491 10.083 Q 2.161 10.499 3.019 10.674 Z" stroke="#000" transform="translate(17, 60)"/>
<path d="M 3.019 10.674 A 6.723 6.723 0 0 0 4.36 10.8 Q 6.4 10.8 8.1 9.82 Q 9.8 8.84 10.84 7.2 Q 11.88 5.56 11.88 3.6 Q 11.88 1.88 10.84 0.94 Q 9.8 0 8.04 0 Q 5.96 0 4.12 0.94 Q 2.28 1.88 1.14 3.5 Q 0 5.12 0 7.16 A 4.556 4.556 0 0 0 0.088 8.078 A 2.903 2.903 0 0 0 1.22 9.9 A 4.057 4.057 0 0 0 1.491 10.083 Q 2.161 10.499 3.019 10.674 Z" stroke="#000" transform="translate(29, 66)"/>
<line stroke="#000" stroke-width="2" x1="12" x2="46" y1="60" y2="60"/>
<line stroke="#000" stroke-width="2" x1="22" x2="44" y1="72" y2="72"/>
<path d="M 3.019 10.674 A 6.723 6.723 0 0 0 4.36 10.8 Q 6.4 10.8 8.1 9.82 Q 9.8 8.84 10.84 7.2 Q 11.88 5.56 11.88 3.6 Q 11.88 1.88 10.84 0.94 Q 9.8 0 8.04 0 Q 5.96 0 4.12 0.94 Q 2.28 1.88 1.14 3.5 Q 0 5.12 0 7.16 A 4.556 4.556 0 0 0 0.088 8.078 A 2.903 2.903 0 0 0 1.22 9.9 A 4.057 4.057 0 0 0 1.491 10.083 Q 2.161 10.499 3.019 10.674 Z" stroke="#000" transform="translate(60, 30)"/>
<path d="M 3.019 10.674 A 6.723 6.723 0 0 0 4.36 10.8 Q 6.4 10.8 8.1 9.82 Q 9.8 8.84 10.84 7.2 Q 11.88 5.56 11.88 3.6 Q 11.88 1.88 10.84 0.94 Q 9.8 0 8.04 0 Q 5.96 0 4.12 0.94 Q 2.28 1.88 1.14 3.5 Q 0 5.12 0 7.16 A 4.556 4.556 0 0 0 0.088 8.078 A 2.903 2.903 0 0 0 1.22 9.9 A 4.057 4.057 0 0 0 1.491 10.083 Q 2.161 10.499 3.019 10.674 Z" stroke="#000" transform="translate(48, 0)"/>
<path d="M 3.019 10.674 A 6.723 6.723 0 0 0 4.36 10.8 Q 6.4 10.8 8.1 9.82 Q 9.8 8.84 10.84 7.2 Q 11.88 5.56 11.88 3.6 Q 11.88 1.88 10.84 0.94 Q 9.8 0 8.04 0 Q 5.96 0 4.12 0.94 Q 2.28 1.88 1.14 3.5 Q 0 5.12 0 7.16 A 4.556 4.556 0 0 0 0.088 8.078 A 2.903 2.903 0 0 0 1.22 9.9 A 4.057 4.057 0 0 0 1.491 10.083 Q 2.161 10.499 3.019 10.674 Z" stroke="#000" transform="translate(60, 6)"/>
<path d="M 3.019 10.674 A 6.723 6.723 0 0 0 4.36 10.8 Q 6.4 10.8 8.1 9.82 Q 9.8 8.84 10.84 7.2 Q 11.88 5.56 11.88 3.6 Q 11.88 1.88 10.84 0.94 Q 9.8 0 8.04 0 Q 5.96 0 4.12 0.94 Q 2.28 1.88 1.14 3.5 Q 0 5.12 0 7.16 A 4.556 4.556 0 0 0 0.088 8.078 A 2.903 2.903 0 0 0 1.22 9.9 A 4.057 4.057 0 0 0 1.491 10.083 Q 2.161 10.499 3.019 10.674 Z" stroke="#000" transform="translate(48, 12)"/>
<path d="M 3.019 10.674 A 6.723 6.723 0 0 0 4.36 10.8 Q 6.4 10.8 8.1 9.82 Q 9.8 8.84 10.84 7.2 Q 11.88 5.56 11.88 3.6 Q 11.88 1.88 10.84 0.94 Q 9.8 0 8.04 0 Q 5.96 0 4.12 0.94 Q 2.28 1.88 1.14 3.5 Q 0 5.12 0 7.16 A 4.556 4.556 0 0 0 0.088 8.078 A 2.903 2.903 0 0 0 1.22 9.9 A 4.057 4.057 0 0 0 1.491 10.083 Q 2.161 10.499 3.019 10.674 Z" stroke="#000" transform="translate(91, 54)"/>
<path d="M 3.019 10.674 A 6.723 6.723 0 0 0 4.36 10.8 Q 6.4 10.8 8.1 9.82 Q 9.8 8.84 10.84 7.2 Q 11.88 5.56 11.88 3.6 Q 11.88 1.88 10.84 0.94 Q 9.8 0 8.04 0 Q 5.96 0 4.12 0.94 Q 2.28 1.88 1.14 3.5 Q 0 5.12 0 7.16 A 4.556 4.556 0 0 0 0.088 8.078 A 2.903 2.903 0 0 0 1.22 9.9 A 4.057 4.057 0 0 0 1.491 10.083 Q 2.161 10.499 3.019 10.674 Z" stroke="#000" transform="translate(79, 60)"/>
<path d="M 3.019 10.674 A 6.723 6.723 0 0 0 4.36 10.8 Q 6.4 10.8 8.1 9.82 Q 9.8 8.84 10.84 7.2 Q 11.88 5.56 11.88 3.6 Q 11.88 1.88 10.84 0.94 Q 9.8 0 8.04 0 Q 5.96 0 4.12 0.94 Q 2.28 1.88 1.14 3.5 Q 0 5.12 0 7.16 A 4.556 4.556 0 0 0 0.088 8.078 A 2.903 2.903 0 0 0 1.22 9.9 A 4.057 4.057 0 0 0 1.491 10.083 Q 2.161 10.499 3.019 10.674 Z" stroke="#000" transform="translate(91, 66)"/>
<line stroke="#000" stroke-width="2" x1="74" x2="108" y1="60" y2="60"/>
<line stroke="#000" stroke-width="2" x1="84" x2="106" y1="72" y2="72"/>
<path d="M 3.019 10.674 A 6.723 6.723 0 0 0 4.36 10.8 Q 6.4 10.8 8.1 9.82 Q 9.8 8.84 10.84 7.2 Q 11.88 5.56 11.88 3.6 Q 11.88 1.88 10.84 0.94 Q 9.8 0 8.04 0 Q 5.96 0 4.12 0.94 Q 2.28 1.88 1.14 3.5 Q 0 5.12 0 7.16 A 4.556 4.556 0 0 0 0.088 8.078 A 2.903 2.903 0 0 0 1.22 9.9 A 4.057 4.057 0 0 0 1.491 10.083 Q 2.161 10.499 3.019 10.674 Z" stroke="#000" transform="translate(110, 0)"/>
<path d="M 3.019 10.674 A 6.723 6.723 0 0 0 4.36 10.8 Q 6.4 10.8 8.1 9.82 Q 9.8 8.84 10.84 7.2 Q 11.88 5.56 11.88 3.6 Q 11.88 1.88 10.84 0.94 Q 9.8 0 8.04 0 Q 5.96 0 4.12 0.94 Q 2.28 1.88 1.14 3.5 Q 0 5.12 0 7.16 A 4.556 4.556 0 0 0 0.088 8.078 A 2.903 2.903 0 0 0 1.22 9.9 A 4.057 4.057 0 0 0 1.491 10.083 Q 2.161 10.499 3.019 10.674 Z" stroke="#000" transform="translate(122, 6)"/>
<path d="M 3.019 10.674 A 6.723 6.723 0 0 0 4.36 10.8 Q 6.4 10.8 8.1 9.82 Q 9.8 8.84 10.84 7.2 Q 11.88 5.56 11.88 3.6 Q 11.88 1.88 10.84 0.94 Q 9.8 0 8.04 0 Q 5.96 0 4.12 0.94 Q 2.28 1.88 1.14 3.5 Q 0 5.12 0 7.16 A 4.556 4.556 0 0 0 0.088 8.078 A 2.903 2.903 0 0 0 1.22 9.9 A 4.057 4.057 0 0 0 1.491 10.083 Q 2.161 10.499 3.019 10.674 Z" stroke="#000" transform="translate(110, 12)"/>
<line stroke="#000" stroke-width="2" x1="1" x2="158" y1="0" y2="0"/>
<line stroke="#000" stroke-width="2" x1="1" x2="158" y1="12" y2="12"/>
<line stroke="#000" stroke-width="2" x1="1" x2="158" y1="24" y2="24"/>
<line stroke="#000" stroke-width="2" x1="1" x2="158" y1="36" y2="36"/>
<line stroke="#000" stroke-width="2" x1="1" x2="158" y1="48" y2="48"/>
<line stroke="#000" stroke-width="2" x1="1" x2="1" y1="0" y2="49"/>
<line stroke="#000" stroke-width="2" x1="159" x2="159" y1="0" y2="49"/>
</svg>