<svg xmlns="http://www.w3.org/2000/svg">
<rect fill="#fff" height="100" width="200" x="0" y="0"/>
<path d="M26.574705 75.33184Q24.560156 75.33184,23.280079 74.38752Q22 73.4432,22 71.51259Q22 69.37213,23.196138 67.672356Q24.392277 65.97258,26.322887 64.98629Q28.253498 64,30.435925 64Q32.282597 64,33.37381 64.98629Q34.465027 65.97258,34.465027 67.77728Q34.465027 69.8338,33.37381 71.55456Q32.282597 73.27532,30.49888 74.30358Q28.715164 75.33184,26.574705 75.33184Z" fill="#000"/>
<line stroke="#000" stroke-width="2" x1="34" x2="34" y1="34" y2="73"/>
<line stroke="#000" stroke-width="2" x1="13" x2="94.5" y1="10" y2="10"/>
<line stroke="#000" stroke-width="2" x1="13" x2="94.5" y1="22" y2="22"/>
<line stroke="#000" stroke-width="2" x1="13" x2="94.5" y1="34" y2="34"/>
<line stroke="#000" stroke-width="2" x1="13" x2="94.5" y1="46" y2="46"/>
<line stroke="#000" stroke-width="2" x1="13" x2="94.5" y1="58" y2="58"/>
<line stroke="#000" stroke-width="2" x1="13" x2="13" y1="9" y2="59"/>
<line stroke="#000" stroke-width="2" x1="95.5" x2="95.5" y1="9" y2="59"/>
</svg>