<svg xmlns="http://www.w3.org/2000/svg">
<rect fill="#fff" height="100" width="200" x="0" y="0"/>
<path d="M30.864017 21.895914Q30.393955 20.116394,30.091774 18.370451Q29.789593 16.624508,29.789593 14.811413Q29.789593 13.233349,30.007835 11.839954Q30.226078 10.446556,30.628986 9.271404Q31.065474 7.9283714,31.770565 6.7364273Q32.47566 5.544487,33.26469 4.7722435Q34.053722 4,34.65809 4Q35.463905 4,36.874092 6.853943Q37.579185 8.297703,37.91494 9.976494Q38.2507 11.655289,38.2507 13.569107Q38.2507 15.9529915,37.61276 18.320087Q36.97482 20.687183,35.749302 22.768885Q34.52378 24.850586,32.811417 26.42865L33.986572 32.06939Q34.490208 32.002235,34.825966 31.96866Q35.161724 31.935085,35.329605 31.935085Q37.377728 31.935085,38.98937 33.093452Q40.601006 34.251816,41.55792 36.132065Q42.51483 38.01231,42.51483 40.26189Q42.51483 42.84723,41.188583 44.91214Q39.86234 46.977055,37.209846 47.950752Q37.377728 48.52154,38.183548 52.71852Q38.385002 53.725796,38.485733 54.313374Q38.586456 54.90095,38.620033 55.337437Q38.65361 55.773922,38.65361 56.34471Q38.65361 58.023502,37.831 59.349747Q37.008392 60.67599,35.614998 61.41466Q34.2216 62.153328,32.50923 62.153328Q30.76329 62.153328,29.420258 61.4986Q28.077225 60.843872,27.304981 59.685505Q26.532738 58.527138,26.532738 57.016228Q26.532738 55.404587,27.422497 54.330162Q28.312256 53.255733,29.95747 53.255733Q31.367657 53.255733,32.257416 54.279797Q33.147175 55.30386,33.147175 56.714043Q33.147175 57.922775,32.307777 58.829323Q31.468384 59.73587,30.12535 59.73587L29.789593 59.73587Q30.662563 61.045326,32.54281 61.045326Q34.859543 61.045326,36.169 59.534416Q37.478455 58.023502,37.478455 55.673195Q37.478455 55.102406,37.344154 54.145493Q37.209846 53.188583,36.874092 51.84555Q36.53833 50.502518,36.35367 49.629547Q36.169 48.756573,36.101845 48.38724Q34.96027 48.723,33.41578 48.723Q30.52826 48.723,27.775042 47.04421Q25.088976 45.365417,23.544489 42.612198Q22 39.85898,22 36.669277Q22 33.647453,23.37661 30.994963Q24.753218 28.342472,26.784555 26.126467Q28.815893 23.910463,30.864017 21.895914ZM31.770565 21.056519Q32.54281 20.653608,33.41578 19.562393Q34.288754 18.47118,35.094574 17.060995Q35.90039 15.65081,36.40403 14.223839Q36.90767 12.796864,36.90767 11.655289Q36.90767 10.446556,36.53833 9.7414665Q36.169 9.036373,35.26245 9.036373Q34.45663 9.036373,33.701176 9.77504Q32.94572 10.51371,32.358143 11.739227Q31.770565 12.964745,31.434807 14.475655Q31.099049 15.986568,31.099049 17.564632Q31.099049 18.63906,31.317291 19.51203Q31.535534 20.385002,31.770565 21.056519ZM33.684387 36.06491Q32.77784 36.266365,31.97202 36.921097Q31.1662 37.575825,30.679352 38.49916Q30.192501 39.422493,30.192501 40.463345Q30.192501 41.302742,30.628986 42.1925Q31.065474 43.08226,31.703415 43.619473Q32.1399 44.02238,32.576385 44.22384Q33.080025 44.45887,33.080025 44.660324Q33.080025 44.76105,32.744263 44.86178Q31.468384 44.559597,30.44432 43.7202Q29.420258 42.880806,28.83268 41.68886Q28.245104 40.49692,28.245104 39.15389Q28.245104 37.71013,28.83268 36.367096Q29.420258 35.024063,30.477896 33.949635Q31.535534 32.87521,32.878567 32.337997L31.90487 27.268045Q28.010073 30.424173,26.180191 33.462784Q24.350307 36.501396,24.350307 39.489647Q24.350307 41.672073,25.491886 43.552322Q26.633465 45.432568,28.614437 46.590935Q30.595411 47.7493,33.080025 47.7493Q33.75154 47.7493,34.439842 47.614994Q35.128147 47.480694,35.90039 47.279236L33.684387 36.06491ZM36.941242 46.943478Q40.231674 45.533295,40.231674 41.168438Q40.231674 39.724678,39.493004 38.532734Q38.754337 37.340794,37.51203 36.6357Q36.269726 35.93061,34.72524 35.93061L36.941242 46.943478Z" fill="#000"/>
<path d="M54.618916 13.805261L54.618916 7.40347L52.51483 7.9406834L52.51483 3.4639063L54.618916 2.8819256L54.618916 -5.892557L56.006718 -5.892557L56.006718 2.5237837L59.006157 1.8074989L59.006157 -6.9222145L60.39396 -6.9222145L60.39396 1.449357L62.587578 0.95691204L62.587578 5.388921L60.39396 6.01567L60.39396 12.41746L62.587578 11.880247L62.587578 16.491327L60.39396 17.02854L60.39396 25.444881L59.006157 25.444881L59.006157 17.386683L56.006718 18.192501L56.006718 26.922216L54.618916 26.922216L54.618916 18.505877L52.51483 19.043089L52.51483 14.43201L54.618916 13.805261ZM59.006157 12.730835L59.006157 6.284276L56.006718 7.045328L56.006718 13.447119L59.006157 12.730835Z" fill="#000"/>
<path d="M75.691666 73.80526L75.691666 67.40347L73.58758 67.94068L73.58758 63.463905L75.691666 62.881927L75.691666 54.107445L77.07947 54.107445L77.07947 62.523785L80.0789 61.8075L80.0789 53.077785L81.466705 53.077785L81.466705 61.449356L83.660324 60.956913L83.660324 65.38892L81.466705 66.01567L81.466705 72.41746L83.660324 71.88025L83.660324 76.491325L81.466705 77.02854L81.466705 85.44488L80.0789 85.44488L80.0789 77.38668L77.07947 78.192505L77.07947 86.92222L75.691666 86.92222L75.691666 78.505875L73.58758 79.04309L73.58758 74.43201L75.691666 73.80526ZM80.0789 72.730835L80.0789 66.28428L77.07947 67.04533L77.07947 73.44712L80.0789 72.730835Z" fill="#000"/>
<path d="M93.23503 75.33184Q91.22048 75.33184,89.94041 74.38752Q88.660324 73.4432,88.660324 71.51259Q88.660324 69.37213,89.85646 67.672356Q91.052605 65.97258,92.983215 64.98629Q94.913826 64,97.09625 64Q98.942924 64,100.034134 64.98629Q101.12535 65.97258,101.12535 67.77728Q101.12535 69.8338,100.034134 71.55456Q98.942924 73.27532,97.15921 74.30358Q95.37549 75.33184,93.23503 75.33184Z" fill="#000"/>
<line stroke="#000" stroke-width="2" x1="100.08889743259975" x2="100.08889743259975" y1="34" y2="68.5"/>
<path d="M124.61668 18L131.33185 26.184107Q129.23335 28.660324,128.10017 30.465023Q126.96699 32.269722,126.96699 34.116394Q126.96699 35.669277,127.97426 37.369053Q128.98154 39.06883,131.16397 41.670956L130.49245 42.59429Q128.64578 41.419136,127.05093 41.419136Q125.87577 41.419136,125.28819 42.19558Q124.700615 42.97202,124.700615 44.063232Q124.700615 45.406265,125.26721 46.602406Q125.8338 47.798546,126.79911 48.88976L126.2535 49.687183Q123.35758 47.588696,121.97258 45.867935Q120.58758 44.147175,120.58758 42.13262Q120.58758 40.327923,121.720764 39.488525Q122.85395 38.64913,124.4488 38.64913Q125.70789 38.64913,127.72244 39.614437L127.72244 39.5305L121.259094 30.926691Q125.49805 27.191381,125.49805 23.959707Q125.49805 21.399551,122.81198 18L124.61668 18Z" fill="#000"/>
<path d="M147.58759 46.005596L148.97539 46.005596L148.97539 63.465027Q150.63179 61.808617,152.73589 61.808617Q154.16844 61.808617,155.33241 62.771126Q156.49637 63.73363,156.49637 65.56911Q156.49637 67.00168,155.64578 68.21041Q154.7952 69.419136,153.36263 70.62787L150.27365 73.269165Q149.42307 73.98545,148.75154 74.67935Q148.08003 75.37325,147.58759 76L147.58759 46.005596ZM148.97539 73.00056Q150.13934 71.74706,150.94518 70.69502Q151.75099 69.642975,152.19867 68.83716Q152.69112 67.98657,152.93733 67.27029Q153.18356 66.554,153.18356 65.92725Q153.18356 64.67375,152.60158 64.11416Q152.01959 63.55456,151.34808 63.55456Q150.63179 63.55456,149.9379 64.06939Q149.24399 64.58422,148.97539 65.479576L148.97539 73.00056Z" fill="#000"/>
<path d="M155.4667 37.78512L155.4667 61.82541L154.07892 61.82541L154.07892 52.33464L147.58759 53.99105L147.58759 30.174597L149.06493 30.174597L149.06493 39.441525L155.4667 37.78512ZM154.16844 48.17124L154.16844 42.440964L148.97539 43.73923L148.97539 49.424736L154.16844 48.17124Z" fill="#000"/>
<path d="M177.04141 75.33184Q175.02686 75.33184,173.74678 74.38752Q172.4667 73.4432,172.4667 71.51259Q172.4667 69.37213,173.66284 67.672356Q174.85898 65.97258,176.78958 64.98629Q178.7202 64,180.90262 64Q182.7493 64,183.84052 64.98629Q184.93173 65.97258,184.93173 67.77728Q184.93173 69.8338,183.84052 71.55456Q182.7493 73.27532,180.96558 74.30358Q179.18187 75.33184,177.04141 75.33184ZM173.59988 72.51987Q173.59988 72.93956,173.91466 73.27532Q174.22943 73.61108,174.77504 73.61108Q176.24397 73.61108,178.4264 72.39396Q179.89536 71.55456,181.09149 70.5263Q182.28763 69.49804,183.00111 68.46978Q183.7146 67.44152,183.7146 66.728035Q183.7146 66.266365,183.48376 65.95159Q183.25293 65.63682,182.66536 65.63682Q181.86794 65.63682,180.73474 66.14046Q179.60156 66.6441,178.36345 67.44152Q177.12535 68.238945,176.03413 69.183266Q174.94292 70.12759,174.2714 71.00896Q173.59988 71.89032,173.59988 72.51987Z" fill="#000"/>
<path d="M165.04141 69.33184Q163.02686 69.33184,161.74678 68.38752Q160.4667 67.4432,160.4667 65.51259Q160.4667 63.37213,161.66284 61.672356Q162.85898 59.97258,164.78958 58.98629Q166.7202 58,168.90262 58Q170.7493 58,171.84052 58.98629Q172.93173 59.97258,172.93173 61.77728Q172.93173 63.8338,171.84052 65.55456Q170.7493 67.27532,168.96558 68.30358Q167.18187 69.33184,165.04141 69.33184ZM161.59988 66.51987Q161.59988 66.93956,161.91466 67.27532Q162.22943 67.61108,162.77504 67.61108Q164.24397 67.61108,166.4264 66.39396Q167.89536 65.55456,169.09149 64.5263Q170.28763 63.49804,171.00111 62.46978Q171.7146 61.44152,171.7146 60.728035Q171.7146 60.26637,171.48376 59.951595Q171.25293 59.63682,170.66536 59.63682Q169.86794 59.63682,168.73474 60.140457Q167.60156 60.644096,166.36345 61.44152Q165.12535 62.23895,164.03413 63.183266Q162.94292 64.12759,162.2714 65.00896Q161.59988 65.89032,161.59988 66.51987Z" fill="#000"/>
<path d="M177.04141 63.33184Q175.02686 63.33184,173.74678 62.38752Q172.4667 61.4432,172.4667 59.512592Q172.4667 57.37213,173.66284 55.672356Q174.85898 53.97258,176.78958 52.98629Q178.7202 52,180.90262 52Q182.7493 52,183.84052 52.98629Q184.93173 53.97258,184.93173 55.77728Q184.93173 57.8338,183.84052 59.55456Q182.7493 61.275322,180.96558 62.30358Q179.18187 63.33184,177.04141 63.33184ZM173.59988 60.519867Q173.59988 60.939564,173.91466 61.275322Q174.22943 61.61108,174.77504 61.61108Q176.24397 61.61108,178.4264 60.393955Q179.89536 59.55456,181.09149 58.526302Q182.28763 57.49804,183.00111 56.46978Q183.7146 55.44152,183.7146 54.728035Q183.7146 54.26637,183.48376 53.951595Q183.25293 53.63682,182.66536 53.63682Q181.86794 53.63682,180.73474 54.140457Q179.60156 54.644096,178.36345 55.44152Q177.12535 56.23895,176.03413 57.183266Q174.94292 58.127586,174.2714 59.008953Q173.59988 59.89032,173.59988 60.519867Z" fill="#000"/>
<path d="M165.04141 51.33184Q163.02686 51.33184,161.74678 50.38752Q160.4667 49.4432,160.4667 47.512592Q160.4667 45.37213,161.66284 43.672356Q162.85898 41.97258,164.78958 40.98629Q166.7202 40,168.90262 40Q170.7493 40,171.84052 40.98629Q172.93173 41.97258,172.93173 43.77728Q172.93173 45.8338,171.84052 47.55456Q170.7493 49.275322,168.96558 50.30358Q167.18187 51.33184,165.04141 51.33184ZM161.59988 48.519867Q161.59988 48.939564,161.91466 49.275322Q162.22943 49.61108,162.77504 49.61108Q164.24397 49.61108,166.4264 48.393955Q167.89536 47.55456,169.09149 46.526302Q170.28763 45.49804,171.00111 44.46978Q171.7146 43.44152,171.7146 42.728035Q171.7146 42.26637,171.48376 41.951595Q171.25293 41.63682,170.66536 41.63682Q169.86794 41.63682,168.73474 42.140457Q167.60156 42.644096,166.36345 43.44152Q165.12535 44.23895,164.03413 45.183266Q162.94292 46.127586,162.2714 47.008953Q161.59988 47.89032,161.59988 48.519867Z" fill="#000"/>
<line stroke="#000" stroke-width="2" x1="171.89527675083704" x2="171.89527675083704" y1="10" y2="68.5"/>
<line stroke="#000" stroke-width="2" x1="13" x2="231.58757781982422" y1="10" y2="10"/>
<line stroke="#000" stroke-width="2" x1="13" x2="231.58757781982422" y1="22" y2="22"/>
<line stroke="#000" stroke-width="2" x1="13" x2="231.58757781982422" y1="34" y2="34"/>
<line stroke="#000" stroke-width="2" x1="13" x2="231.58757781982422" y1="46" y2="46"/>
<line stroke="#000" stroke-width="2" x1="13" x2="231.58757781982422" y1="58" y2="58"/>
<line stroke="#000" stroke-width="2" x1="13" x2="13" y1="9" y2="59"/>
<line stroke="#000" stroke-width="2" x1="232.58757781982422" x2="232.58757781982422" y1="9" y2="59"/>
</svg>