<svg xmlns="http://www.w3.org/2000/svg">
<path d="M 3.019 10.674 A 6.723 6.723 0 0 0 4.36 10.8 Q 6.4 10.8 8.1 9.82 Q 9.8 8.84 10.84 7.2 Q 11.88 5.56 11.88 3.6 Q 11.88 1.88 10.84 0.94 Q 9.8 0 8.04 0 Q 5.96 0 4.12 0.94 Q 2.28 1.88 1.14 3.5 Q 0 5.12 0 7.16 A 4.556 4.556 0 0 0 0.088 8.078 A 2.903 2.903 0 0 0 1.22 9.9 A 4.057 4.057 0 0 0 1.491 10.083 Q 2.161 10.499 3.019 10.674 Z" stroke="#000" transform="translate(17, 57)"/>
<path d="M 3.019 10.674 A 6.723 6.723 0 0 0 4.36 10.8 Q 6.4 10.8 8.1 9.82 Q 9.8 8.84 10.84 7.2 Q 11.88 5.56 11.88 3.6 Q 11.88 1.88 10.84 0.94 Q 9.8 0 8.04 0 Q 5.96 0 4.12 0.94 Q 2.28 1.88 1.14 3.5 Q 0 5.12 0 7.16 A 4.556 4.556 0 0 0 0.088 8.078 A 2.903 2.903 0 0 0 1.22 9.9 A 4.057 4.057 0 0 0 1.491 10.083 Q 2.161 10.499 3.019 10.674 Z" stroke="#000" transform="translate(29, 87)"/>
<path d="M 3.019 10.674 A 6.723 6.723 0 0 0 4.36 10.8 Q 6.4 10.8 8.1 9.82 Q 9.8 8.84 10.84 7.2 Q 11.88 5.56 11.88 3.6 Q 11.88 1.88 10.84 0.94 Q 9.8 0 8.04 0 Q 5.96 0 4.12 0.94 Q 2.28 1.88 1.14 3.5 Q 0 5.12 0 7.16 A 4.556 4.556 0 0 0 0.088 8.078 A 2.903 2.903 0 0 0 1.22 9.9 A 4.057 4.057 0 0 0 1.491 10.083 Q 2.161 10.499 3.019 10.674 Z" stroke="#000" transform="translate(17, 93)"/>
<path d="M 3.019 10.674 A 6.723 6.723 0 0 0 4.36 10.8 Q 6.4 10.8 8.1 9.82 Q 9.8 8.84 10.84 7.2 Q 11.88 5.56 11.88 3.6 Q 11.88 1.88 10.84 0.94 Q 9.8 0 8.04 0 Q 5.96 0 4.12 0.94 Q 2.28 1.88 1.14 3.5 Q 0 5.12 0 7.16 A 4.556 4.556 0 0 0 0.088 8.078 A 2.903 2.903 0 0 0 1.22 9.9 A 4.057 4.057 0 0 0 1.491 10.083 Q 2.161 10.499 3.019 10.674 Z" stroke="#000" transform="translate(29, 99)"/>
<line stroke="#000" stroke-width="2" x1="12" x2="46" y1="93" y2="93"/>
<line stroke="#000" stroke-width="2" x1="22" x2="44" y1="105" y2="105"/>
<path d="M 3.019 10.674 A 6.723 6.723 0 0 0 4.36 10.8 Q 6.4 10.8 8.1 9.82 Q 9.8 8.84 10.84 7.2 Q 11.88 5.56 11.88 3.6 Q 11.88 1.88 10.84 0.94 Q 9.8 0 8.04 0 Q 5.96 0 4.12 0.94 Q 2.28 1.88 1.14 3.5 Q 0 5.12 0 7.16 A 4.556 4.556 0 0 0 0.088 8.078 A 2.903 2.903 0 0 0 1.22 9.9 A 4.057 4.057 0 0 0 1.491 10.083 Q 2.161 10.499 3.019 10.674 Z" stroke="#000" transform="translate(60, 63)"/>
<path d="M 3.019 10.674 A 6.723 6.723 0 0 0 4.36 10.8 Q 6.4 10.8 8.1 9.82 Q 9.8 8.84 10.84 7.2 Q 11.88 5.56 11.88 3.6 Q 11.88 1.88 10.84 0.94 Q 9.8 0 8.04 0 Q 5.96 0 4.12 0.94 Q 2.28 1.88 1.14 3.5 Q 0 5.12 0 7.16 A 4.556 4.556 0 0 0 0.088 8.078 A 2.903 2.903 0 0 0 1.22 9.9 A 4.057 4.057 0 0 0 1.491 10.083 Q 2.161 10.499 3.019 10.674 Z" stroke="#000" transform="translate(48, 33)"/>
<path d="M 3.019 10.674 A 6.723 6.723 0 0 0 4.36 10.8 Q 6.4 10.8 8.1 9.82 Q 9.8 8.84 10.84 7.2 Q 11.88 5.56 11.88 3.6 Q 11.88 1.88 10.84 0.94 Q 9.8 0 8.04 0 Q 5.96 0 4.12 0.94 Q 2.28 1.88 1.14 3.5 Q 0 5.12 0 7.16 A 4.556 4.556 0 0 0 0.088 8.078 A 2.903 2.903 0 0 0 1.22 9.9 A 4.057 4.057 0 0 0 1.491 10.083 Q 2.161 10.499 3.019 10.674 Z" stroke="#000" transform="translate(60, 39)"/>
<path d="M 3.019 10.674 A 6.723 6.723 0 0 0 4.36 10.8 Q 6.4 10.8 8.1 9.82 Q 9.8 8.84 10.84 7.2 Q 11.88 5.56 11.88 3.6 Q 11.88 1.88 10.84 0.94 Q 9.8 0 8.04 0 Q 5.96 0 4.12 0.94 Q 2.28 1.88 1.14 3.5 Q 0 5.12 0 7.16 A 4.556 4.556 0 0 0 0.088 8.078 A 2.903 2.903 0 0 0 1.22 9.9 A 4.057 4.057 0 0 0 1.491 10.083 Q 2.161 10.499 3.019 10.674 Z" stroke="#000" transform="translate(48, 45)"/>
<path d="M 3.019 10.674 A 6.723 6.723 0 0 0 4.36 10.8 Q 6.4 10.8 8.1 9.82 Q 9.8 8.84 10.84 7.2 Q 11.88 5.56 11.88 3.6 Q 11.88 1.88 10.84 0.94 Q 9.8 0 8.04 0 Q 5.96 0 4.12 0.94 Q 2.28 1.88 1.14 3.5 Q 0 5.12 0 7.16 A 4.556 4.556 0 0 0 0.088 8.078 A 2.903 2.903 0 0 0 1.22 9.9 A 4.057 4.057 0 0 0 1.491 10.083 Q 2.161 10.499 3.019 10.674 Z" stroke="#000" transform="translate(91, 87)"/>
<path d="M 3.019 10.674 A 6.723 6.723 0 0 0 4.36 10.8 Q 6.4 10.8 8.1 9.82 Q 9.8 8.84 10.84 7.2 Q 11.88 5.56 11.88 3.6 Q 11.88 1.88 10.84 0.94 Q 9.8 0 8.04 0 Q 5.96 0 4.12 0.94 Q 2.28 1.88 1.14 3.5 Q 0 5.12 0 7.16 A 4.556 4.556 0 0 0 0.088 8.078 A 2.903 2.903 0 0 0 1.22 9.9 A 4.057 4.057 0 0 0 1.491 10.083 Q 2.161 10.499 3.019 10.674 Z" stroke="#000" transform="translate(79, 93)"/>
<path d="M 3.019 10.674 A 6.723 6.723 0 0 0 4.36 10.8 Q 6.4 10.8 8.1 9.82 Q 9.8 8.84 10.84 7.2 Q 11.88 5.56 11.88 3.6 Q 11.88 1.88 10.84 0.94 Q 9.8 0 8.04 0 Q 5.96 0 4.12 0.94 Q 2.28 1.88 1.14 3.5 Q 0 5.12 0 7.16 A 4.556 4.556 0 0 0 0.088 8.078 A 2.903 2.903 0 0 0 1.22 9.9 A 4.057 4.057 0 0 0 1.491 10.083 Q 2.161 10.499 3.019 10.674 Z" stroke="#000" transform="translate(91, 99)"/>
<line stroke="#000" stroke-width="2" x1="74" x2="108" y1="93" y2="93"/>
<line stroke="#000" stroke-width="2" x1="84" x2="106" y1="105" y2="105"/>
<path d="M 3.019 10.674 A 6.723 6.723 0 0 0 4.36 10.8 Q 6.4 10.8 8.1 9.82 Q 9.8 8.84 10.84 7.2 Q 11.88 5.56 11.88 3.6 Q 11.88 1.88 10.84 0.94 Q 9.8 0 8.04 0 Q 5.96 0 4.12 0.94 Q 2.28 1.88 1.14 3.5 Q 0 5.12 0 7.16 A 4.556 4.556 0 0 0 0.088 8.078 A 2.903 2.903 0 0 0 1.22 9.9 A 4.057 4.057 0 0 0 1.491 10.083 Q 2.161 10.499 3.019 10.674 Z" stroke="#000" transform="translate(110, 33)"/>
<path d="M 3.019 10.674 A 6.723 6.723 0 0 0 4.36 10.8 Q 6.4 10.8 8.1 9.82 Q 9.8 8.84 10.84 7.2 Q 11.88 5.56 11.88 3.6 Q 11.88 1.88 10.84 0.94 Q 9.8 0 8.04 0 Q 5.96 0 4.12 0.94 Q 2.28 1.88 1.14 3.5 Q 0 5.12 0 7.16 A 4.556 4.556 0 0 0 0.088 8.078 A 2.903 2.903 0 0 0 1.22 9.9 A 4.057 4.057 0 0 0 1.491 10.083 Q 2.161 10.499 3.019 10.674 Z" stroke="#000" transform="translate(122, 39)"/>
<path d="M 3.019 10.674 A 6.723 6.723 0 0 0 4.36 10.8 Q 6.4 10.8 8.1 9.82 Q 9.8 8.84 10.84 7.2 Q 11.88 5.56 11.88 3.6 Q 11.88 1.88 10.84 0.94 Q 9.8 0 8.04 0 Q 5.96 0 4.12 0.94 Q 2.28 1.88 1.14 3.5 Q 0 5.12 0 7.16 A 4.556 4.556 0 0 0 0.088 8.078 A 2.903 2.903 0 0 0 1.22 9.9 A 4.057 4.057 0 0 0 1.491 10.083 Q 2.161 10.499 3.019 10.674 Z" stroke="#000" transform="translate(110, 45)"/>
<path d="M 3.019 10.674 A 6.723 6.723 0 0 0 4.36 10.8 Q 6.4 10.8 8.1 9.82 Q 9.8 8.84 10.84 7.2 Q 11.88 5.56 11.88 3.6 Q 11.88 1.88 10.84 0.94 Q 9.8 0 8.04 0 Q 5.96 0 4.12 0.94 Q 2.28 1.88 1.14 3.5 Q 0 5.12 0 7.16 A 4.556 4.556 0 0 0 0.088 8.078 A 2.903 2.903 0 0 0 1.22 9.9 A 4.057 4.057 0 0 0 1.491 10.083 Q 2.161 10.499 3.019 10.674 Z" stroke="#000" transform="translate(122, -3)"/>
<line stroke="#000" stroke-width="2" x1="1" x2="158" y1="33" y2="33"/>
<line stroke="#000" stroke-width="2" x1="1" x2="158" y1="45" y2="45"/>
<line stroke="#000" stroke-width="2" x1="1" x2="158" y1="57" y2="57"/>
<line stroke="#000" stroke-width="2" x1="1" x2="158" y1="69" y2="69"/>
<line stroke="#000" stroke-width="2" x1="1" x2="158" y1="81" y2="81"/>
<line stroke="#000" stroke-width="2" x1="1" x2="1" y1="33" y2="82"/>
<line stroke="#000" stroke-width="2" x1="159" x2="159" y1="33" y2="82"/>
</svg>