<svg xmlns="http://www.w3.org/2000/svg">
<rect fill="#fff" height="100" width="400" x="0" y="0"/>
<path d="M26.574705 75.33184Q24.560156 75.33184,23.280079 74.38752Q22 73.4432,22 71.51259Q22 69.37213,23.196138 67.672356Q24.392277 65.97258,26.322887 64.98629Q28.253498 64,30.435925 64Q32.282597 64,33.37381 64.98629Q34.465027 65.97258,34.465027 67.77728Q34.465027 69.8338,33.37381 71.55456Q32.282597 73.27532,30.49888 74.30358Q28.715164 75.33184,26.574705 75.33184Z" fill="#000"/>
<line stroke="#000" stroke-width="2" x1="33.42857142857143" x2="33.42857142857143" y1="34" y2="68.5"/>
<path d="M73.57471 63.33184Q71.56016 63.33184,70.28008 62.38752Q69 61.4432,69 59.512592Q69 57.37213,70.19614 55.672356Q71.39228 53.97258,73.32289 52.98629Q75.2535 52,77.43593 52Q79.2826 52,80.37381 52.98629Q81.46503 53.97258,81.46503 55.77728Q81.46503 57.8338,80.37381 59.55456Q79.2826 61.275322,77.498886 62.30358Q75.715164 63.33184,73.57471 63.33184Z" fill="#000"/>
<line stroke="#000" stroke-width="2" x1="80.42857142857143" x2="80.42857142857143" y1="22" y2="56.5"/>
<path d="M120.57471 51.33184Q118.56016 51.33184,117.28008 50.38752Q116 49.4432,116 47.512592Q116 45.37213,117.19614 43.672356Q118.39228 41.97258,120.32289 40.98629Q122.2535 40,124.43593 40Q126.2826 40,127.37381 40.98629Q128.46503 41.97258,128.46503 43.77728Q128.46503 45.8338,127.37381 47.55456Q126.2826 49.275322,124.498886 50.30358Q122.715164 51.33184,120.57471 51.33184Z" fill="#000"/>
<line stroke="#000" stroke-width="2" x1="127.42857142857143" x2="127.42857142857143" y1="10" y2="44.5"/>
<path d="M167.5747 75.33184Q165.56015 75.33184,164.28008 74.38752Q163 73.4432,163 71.51259Q163 69.37213,164.19614 67.672356Q165.39227 65.97258,167.32288 64.98629Q169.2535 64,171.43591 64Q173.2826 64,174.37381 64.98629Q175.46503 65.97258,175.46503 67.77728Q175.46503 69.8338,174.37381 71.55456Q173.2826 73.27532,171.49887 74.30358Q169.71516 75.33184,167.5747 75.33184Z" fill="#000"/>
<line stroke="#000" stroke-width="2" x1="174.42857142857142" x2="174.42857142857142" y1="34" y2="68.5"/>
<line stroke="#000" stroke-width="2" x1="13" x2="222" y1="10" y2="10"/>
<line stroke="#000" stroke-width="2" x1="13" x2="222" y1="22" y2="22"/>
<line stroke="#000" stroke-width="2" x1="13" x2="222" y1="34" y2="34"/>
<line stroke="#000" stroke-width="2" x1="13" x2="222" y1="46" y2="46"/>
<line stroke="#000" stroke-width="2" x1="13" x2="222" y1="58" y2="58"/>
<line stroke="#000" stroke-width="2" x1="13" x2="13" y1="9" y2="59"/>
<line stroke="#000" stroke-width="2" x1="223" x2="223" y1="9" y2="59"/>
<path d="M236.5747 75.33184Q234.56015 75.33184,233.28008 74.38752Q232 73.4432,232 71.51259Q232 69.37213,233.19614 67.672356Q234.39227 65.97258,236.32288 64.98629Q238.2535 64,240.43591 64Q242.2826 64,243.37381 64.98629Q244.46503 65.97258,244.46503 67.77728Q244.46503 69.8338,243.37381 71.55456Q242.2826 73.27532,240.49887 74.30358Q238.71516 75.33184,236.5747 75.33184Z" fill="#000"/>
<line stroke="#000" stroke-width="2" x1="243.42857142857142" x2="243.42857142857142" y1="34" y2="68.5"/>
<path d="M283.5747 63.33184Q281.56018 63.33184,280.2801 62.38752Q279 61.4432,279 59.512592Q279 57.37213,280.19614 55.672356Q281.39227 53.97258,283.3229 52.98629Q285.2535 52,287.43594 52Q289.2826 52,290.3738 52.98629Q291.46503 53.97258,291.46503 55.77728Q291.46503 57.8338,290.3738 59.55456Q289.2826 61.275322,287.4989 62.30358Q285.71518 63.33184,283.5747 63.33184Z" fill="#000"/>
<line stroke="#000" stroke-width="2" x1="290.42857142857144" x2="290.42857142857144" y1="22" y2="56.5"/>
<path d="M330.5747 51.33184Q328.56018 51.33184,327.2801 50.38752Q326 49.4432,326 47.512592Q326 45.37213,327.19614 43.672356Q328.39227 41.97258,330.3229 40.98629Q332.2535 40,334.43594 40Q336.2826 40,337.3738 40.98629Q338.46503 41.97258,338.46503 43.77728Q338.46503 45.8338,337.3738 47.55456Q336.2826 49.275322,334.4989 50.30358Q332.71518 51.33184,330.5747 51.33184Z" fill="#000"/>
<line stroke="#000" stroke-width="2" x1="337.42857142857144" x2="337.42857142857144" y1="10" y2="44.5"/>
<path d="M389.5747 33.33184Q387.56018 33.33184,386.2801 32.38752Q385 31.443201,385 29.51259Q385 27.372131,386.19614 25.672356Q387.39227 23.97258,389.3229 22.98629Q391.2535 22,393.43594 22Q395.2826 22,396.3738 22.98629Q397.46503 23.97258,397.46503 25.777279Q397.46503 27.8338,396.3738 29.55456Q395.2826 31.275322,393.4989 32.30358Q391.71518 33.33184,389.5747 33.33184Z" fill="#000"/>
<line stroke="#000" stroke-width="2" x1="384.42857142857144" x2="384.42857142857144" y1="25" y2="64"/>
<line stroke="#000" stroke-width="2" x1="223" x2="432" y1="10" y2="10"/>
<line stroke="#000" stroke-width="2" x1="223" x2="432" y1="22" y2="22"/>
<line stroke="#000" stroke-width="2" x1="223" x2="432" y1="34" y2="34"/>
<line stroke="#000" stroke-width="2" x1="223" x2="432" y1="46" y2="46"/>
<line stroke="#000" stroke-width="2" x1="223" x2="432" y1="58" y2="58"/>
<line stroke="#000" stroke-width="2" x1="223" x2="223" y1="9" y2="59"/>
<line stroke="#000" stroke-width="2" x1="433" x2="433" y1="9" y2="59"/>
</svg>