<svg xmlns="http://www.w3.org/2000/svg">
<rect fill="#fff" height="100" width="200" x="0" y="0"/>
<path d="M30.864017 21.895914Q30.393955 20.116394,30.091774 18.370451Q29.789593 16.624508,29.789593 14.811413Q29.789593 13.233349,30.007835 11.839954Q30.226078 10.446556,30.628986 9.271404Q31.065474 7.9283714,31.770565 6.7364273Q32.47566 5.544487,33.26469 4.7722435Q34.053722 4,34.65809 4Q35.463905 4,36.874092 6.853943Q37.579185 8.297703,37.91494 9.976494Q38.2507 11.655289,38.2507 13.569107Q38.2507 15.9529915,37.61276 18.320087Q36.97482 20.687183,35.749302 22.768885Q34.52378 24.850586,32.811417 26.42865L33.986572 32.06939Q34.490208 32.002235,34.825966 31.96866Q35.161724 31.935085,35.329605 31.935085Q37.377728 31.935085,38.98937 33.093452Q40.601006 34.251816,41.55792 36.132065Q42.51483 38.01231,42.51483 40.26189Q42.51483 42.84723,41.188583 44.91214Q39.86234 46.977055,37.209846 47.950752Q37.377728 48.52154,38.183548 52.71852Q38.385002 53.725796,38.485733 54.313374Q38.586456 54.90095,38.620033 55.337437Q38.65361 55.773922,38.65361 56.34471Q38.65361 58.023502,37.831 59.349747Q37.008392 60.67599,35.614998 61.41466Q34.2216 62.153328,32.50923 62.153328Q30.76329 62.153328,29.420258 61.4986Q28.077225 60.843872,27.304981 59.685505Q26.532738 58.527138,26.532738 57.016228Q26.532738 55.404587,27.422497 54.330162Q28.312256 53.255733,29.95747 53.255733Q31.367657 53.255733,32.257416 54.279797Q33.147175 55.30386,33.147175 56.714043Q33.147175 57.922775,32.307777 58.829323Q31.468384 59.73587,30.12535 59.73587L29.789593 59.73587Q30.662563 61.045326,32.54281 61.045326Q34.859543 61.045326,36.169 59.534416Q37.478455 58.023502,37.478455 55.673195Q37.478455 55.102406,37.344154 54.145493Q37.209846 53.188583,36.874092 51.84555Q36.53833 50.502518,36.35367 49.629547Q36.169 48.756573,36.101845 48.38724Q34.96027 48.723,33.41578 48.723Q30.52826 48.723,27.775042 47.04421Q25.088976 45.365417,23.544489 42.612198Q22 39.85898,22 36.669277Q22 33.647453,23.37661 30.994963Q24.753218 28.342472,26.784555 26.126467Q28.815893 23.910463,30.864017 21.895914ZM31.770565 21.056519Q32.54281 20.653608,33.41578 19.562393Q34.288754 18.47118,35.094574 17.060995Q35.90039 15.65081,36.40403 14.223839Q36.90767 12.796864,36.90767 11.655289Q36.90767 10.446556,36.53833 9.7414665Q36.169 9.036373,35.26245 9.036373Q34.45663 9.036373,33.701176 9.77504Q32.94572 10.51371,32.358143 11.739227Q31.770565 12.964745,31.434807 14.475655Q31.099049 15.986568,31.099049 17.564632Q31.099049 18.63906,31.317291 19.51203Q31.535534 20.385002,31.770565 21.056519ZM33.684387 36.06491Q32.77784 36.266365,31.97202 36.921097Q31.1662 37.575825,30.679352 38.49916Q30.192501 39.422493,30.192501 40.463345Q30.192501 41.302742,30.628986 42.1925Q31.065474 43.08226,31.703415 43.619473Q32.1399 44.02238,32.576385 44.22384Q33.080025 44.45887,33.080025 44.660324Q33.080025 44.76105,32.744263 44.86178Q31.468384 44.559597,30.44432 43.7202Q29.420258 42.880806,28.83268 41.68886Q28.245104 40.49692,28.245104 39.15389Q28.245104 37.71013,28.83268 36.367096Q29.420258 35.024063,30.477896 33.949635Q31.535534 32.87521,32.878567 32.337997L31.90487 27.268045Q28.010073 30.424173,26.180191 33.462784Q24.350307 36.501396,24.350307 39.489647Q24.350307 41.672073,25.491886 43.552322Q26.633465 45.432568,28.614437 46.590935Q30.595411 47.7493,33.080025 47.7493Q33.75154 47.7493,34.439842 47.614994Q35.128147 47.480694,35.90039 47.279236L33.684387 36.06491ZM36.941242 46.943478Q40.231674 45.533295,40.231674 41.168438Q40.231674 39.724678,39.493004 38.532734Q38.754337 37.340794,37.51203 36.6357Q36.269726 35.93061,34.72524 35.93061L36.941242 46.943478Z" fill="#000"/>
<path d="M67.08954 75.33184Q65.07499 75.33184,63.79491 74.38752Q62.51483 73.4432,62.51483 71.51259Q62.51483 69.37213,63.71097 67.672356Q64.90711 65.97258,66.83772 64.98629Q68.76833 64,70.95076 64Q72.79743 64,73.88864 64.98629Q74.97986 65.97258,74.97986 67.77728Q74.97986 69.8338,73.88864 71.55456Q72.79743 73.27532,71.01372 74.30358Q69.229996 75.33184,67.08954 75.33184Z" fill="#000"/>
<line stroke="#000" stroke-width="2" x1="74.51482963562012" x2="74.51482963562012" y1="34" y2="73"/>
<path d="M100.58954 63.33184Q98.57499 63.33184,97.294914 62.38752Q96.01483 61.4432,96.01483 59.512592Q96.01483 57.37213,97.21097 55.672356Q98.40711 53.97258,100.33772 52.98629Q102.26833 52,104.45076 52Q106.29743 52,107.38864 52.98629Q108.47986 53.97258,108.47986 55.77728Q108.47986 57.8338,107.38864 59.55456Q106.29743 61.275322,104.51372 62.30358Q102.729996 63.33184,100.58954 63.33184Z" fill="#000"/>
<line stroke="#000" stroke-width="2" x1="108.01482963562012" x2="108.01482963562012" y1="22" y2="61"/>
<path d="M134.08954 51.33184Q132.075 51.33184,130.7949 50.38752Q129.51483 49.4432,129.51483 47.512592Q129.51483 45.37213,130.71097 43.672356Q131.9071 41.97258,133.83772 40.98629Q135.76833 40,137.95076 40Q139.79742 40,140.88864 40.98629Q141.97986 41.97258,141.97986 43.77728Q141.97986 45.8338,140.88864 47.55456Q139.79742 49.275322,138.01372 50.30358Q136.23 51.33184,134.08954 51.33184Z" fill="#000"/>
<line stroke="#000" stroke-width="2" x1="141.51482963562012" x2="141.51482963562012" y1="10" y2="49"/>
<path d="M179.58954 33.33184Q177.57498 33.33184,176.2949 32.38752Q175.01483 31.443201,175.01483 29.51259Q175.01483 27.372131,176.21097 25.672356Q177.4071 23.97258,179.3377 22.98629Q181.26833 22,183.45074 22Q185.29742 22,186.38864 22.98629Q187.47986 23.97258,187.47986 25.777279Q187.47986 27.8338,186.38864 29.55456Q185.29742 31.275322,183.5137 32.30358Q181.73 33.33184,179.58954 33.33184Z" fill="#000"/>
<line stroke="#000" stroke-width="2" x1="175.01482963562012" x2="175.01482963562012" y1="25" y2="64"/>
<line stroke="#000" stroke-width="2" x1="13" x2="220.51482963562012" y1="10" y2="10"/>
<line stroke="#000" stroke-width="2" x1="13" x2="220.51482963562012" y1="22" y2="22"/>
<line stroke="#000" stroke-width="2" x1="13" x2="220.51482963562012" y1="34" y2="34"/>
<line stroke="#000" stroke-width="2" x1="13" x2="220.51482963562012" y1="46" y2="46"/>
<line stroke="#000" stroke-width="2" x1="13" x2="220.51482963562012" y1="58" y2="58"/>
<line stroke="#000" stroke-width="2" x1="13" x2="13" y1="9" y2="59"/>
<line stroke="#000" stroke-width="2" x1="221.51482963562012" x2="221.51482963562012" y1="9" y2="59"/>
</svg>