<svg xmlns="http://www.w3.org/2000/svg">
<rect fill="#fff" height="100" width="400" x="0" y="0"/>
<path d="M26.574705 75.33184Q24.560156 75.33184,23.280079 74.38752Q22 73.4432,22 71.51259Q22 69.37213,23.196138 67.672356Q24.392277 65.97258,26.322887 64.98629Q28.253498 64,30.435925 64Q32.282597 64,33.37381 64.98629Q34.465027 65.97258,34.465027 67.77728Q34.465027 69.8338,33.37381 71.55456Q32.282597 73.27532,30.49888 74.30358Q28.715164 75.33184,26.574705 75.33184Z" fill="#000"/>
<line stroke="#000" stroke-width="2" x1="33.42857142857143" x2="33.42857142857143" y1="34" y2="68.5"/>
<path d="M81.10409 61.80526L81.10409 55.40347L79 55.94068L79 51.463905L81.10409 50.881927L81.10409 42.107445L82.49188 42.107445L82.49188 50.523785L85.491325 49.8075L85.491325 41.077785L86.87913 41.077785L86.87913 49.449356L89.07275 48.956913L89.07275 53.38892L86.87913 54.01567L86.87913 60.41746L89.07275 59.880245L89.07275 64.491325L86.87913 65.02854L86.87913 73.44488L85.491325 73.44488L85.491325 65.38668L82.49188 66.192505L82.49188 74.92222L81.10409 74.92222L81.10409 66.505875L79 67.04309L79 62.43201L81.10409 61.80526ZM85.491325 60.730835L85.491325 54.284275L82.49188 55.045326L82.49188 61.44712L85.491325 60.730835Z" fill="#000"/>
<path d="M98.64745 63.33184Q96.632904 63.33184,95.35283 62.38752Q94.07275 61.4432,94.07275 59.512592Q94.07275 57.37213,95.26888 55.672356Q96.46503 53.97258,98.39564 52.98629Q100.32625 52,102.508675 52Q104.35535 52,105.446556 52.98629Q106.53777 53.97258,106.53777 55.77728Q106.53777 57.8338,105.446556 59.55456Q104.35535 61.275322,102.571625 62.30358Q100.78791 63.33184,98.64745 63.33184ZM95.20593 60.519867Q95.20593 60.939564,95.520706 61.275322Q95.83548 61.61108,96.38109 61.61108Q97.85003 61.61108,100.032455 60.393955Q101.501396 59.55456,102.69754 58.526302Q103.89368 57.49804,104.60716 56.46978Q105.32065 55.44152,105.32065 54.728035Q105.32065 54.26637,105.08981 53.951595Q104.85898 53.63682,104.27141 53.63682Q103.473976 53.63682,102.3408 54.140457Q101.20761 54.644096,99.969505 55.44152Q98.73139 56.23895,97.64018 57.183266Q96.548965 58.127586,95.87745 59.008953Q95.20593 59.89032,95.20593 60.519867Z" fill="#000"/>
<line stroke="#000" stroke-width="2" x1="105.50131961277553" x2="105.50131961277553" y1="22" y2="56.5"/>
<path d="M177.5747 51.33184Q175.56015 51.33184,174.28008 50.38752Q173 49.4432,173 47.512592Q173 45.37213,174.19614 43.672356Q175.39227 41.97258,177.32288 40.98629Q179.2535 40,181.43591 40Q183.2826 40,184.37381 40.98629Q185.46503 41.97258,185.46503 43.77728Q185.46503 45.8338,184.37381 47.55456Q183.2826 49.275322,181.49887 50.30358Q179.71516 51.33184,177.5747 51.33184Z" fill="#000"/>
<line stroke="#000" stroke-width="2" x1="184.42857142857142" x2="184.42857142857142" y1="10" y2="44.5"/>
<line stroke="#000" stroke-width="2" x1="13" x2="242" y1="10" y2="10"/>
<line stroke="#000" stroke-width="2" x1="13" x2="242" y1="22" y2="22"/>
<line stroke="#000" stroke-width="2" x1="13" x2="242" y1="34" y2="34"/>
<line stroke="#000" stroke-width="2" x1="13" x2="242" y1="46" y2="46"/>
<line stroke="#000" stroke-width="2" x1="13" x2="242" y1="58" y2="58"/>
<line stroke="#000" stroke-width="2" x1="13" x2="13" y1="9" y2="59"/>
<line stroke="#000" stroke-width="2" x1="243" x2="243" y1="9" y2="59"/>
<path d="M268.5747 15.331842Q266.56018 15.331842,265.2801 14.387522Q264 13.443202,264 11.512591Q264 9.372133,265.19614 7.6723566Q266.39227 5.97258,268.3229 4.98629Q270.2535 4,272.43594 4Q274.2826 4,275.3738 4.98629Q276.46503 5.97258,276.46503 7.777281Q276.46503 9.8338,275.3738 11.554562Q274.2826 13.275322,272.4989 14.303582Q270.71518 15.331842,268.5747 15.331842ZM265.13318 12.519867Q265.13318 12.939564,265.44797 13.275322Q265.76273 13.611081,266.30835 13.611081Q267.77728 13.611081,269.95972 12.393957Q271.42865 11.554562,272.6248 10.526302Q273.82092 9.498042,274.53442 8.469782Q275.24792 7.4415226,275.24792 6.728036Q275.24792 6.266369,275.0171 5.9515953Q274.78625 5.6368217,274.19867 5.6368217Q273.40125 5.6368217,272.26807 6.140459Q271.1349 6.6440964,269.89676 7.4415226Q268.65866 8.238949,267.56744 9.183269Q266.47623 10.127588,265.80472 11.008954Q265.13318 11.89032,265.13318 12.519867Z" fill="#000"/>
<line stroke="#000" stroke-width="2" x1="264.8571428571429" x2="264.8571428571429" y1="11.5" y2="46"/>
<path d="M346 34.005596L347.3878 34.005596L347.3878 51.465027Q349.0442 49.808617,351.1483 49.808617Q352.58084 49.808617,353.7448 50.771126Q354.90878 51.73363,354.90878 53.56911Q354.90878 55.00168,354.0582 56.210407Q353.20758 57.41914,351.77502 58.62787L348.68607 61.269165Q347.83545 61.98545,347.16394 62.67935Q346.49243 63.373253,346 64L346 34.005596ZM347.3878 61.00056Q348.55176 59.747063,349.35757 58.69502Q350.1634 57.64298,350.61105 56.83716Q351.10352 55.98657,351.34973 55.270287Q351.59595 54.554,351.59595 53.927254Q351.59595 52.673756,351.01398 52.11416Q350.432 51.55456,349.76047 51.55456Q349.0442 51.55456,348.35028 52.06939Q347.6564 52.58422,347.3878 53.479576L347.3878 61.00056Z" fill="#000"/>
<path d="M364.4835 63.33184Q362.46896 63.33184,361.18887 62.38752Q359.90878 61.4432,359.90878 59.512592Q359.90878 57.37213,361.10492 55.672356Q362.30106 53.97258,364.2317 52.98629Q366.1623 52,368.34473 52Q370.19138 52,371.2826 52.98629Q372.3738 53.97258,372.3738 55.77728Q372.3738 57.8338,371.2826 59.55456Q370.19138 61.275322,368.40768 62.30358Q366.62396 63.33184,364.4835 63.33184Z" fill="#000"/>
<line stroke="#000" stroke-width="2" x1="371.33735724857877" x2="371.33735724857877" y1="22" y2="56.5"/>
<path d="M419.5747 33.33184Q417.56018 33.33184,416.2801 32.38752Q415 31.443201,415 29.51259Q415 27.372131,416.19614 25.672356Q417.39227 23.97258,419.3229 22.98629Q421.2535 22,423.43594 22Q425.2826 22,426.3738 22.98629Q427.46503 23.97258,427.46503 25.777279Q427.46503 27.8338,426.3738 29.55456Q425.2826 31.275322,423.4989 32.30358Q421.71518 33.33184,419.5747 33.33184Z" fill="#000"/>
<line stroke="#000" stroke-width="2" x1="415.8571428571429" x2="415.8571428571429" y1="29.5" y2="64"/>
<line stroke="#000" stroke-width="2" x1="243" x2="472" y1="10" y2="10"/>
<line stroke="#000" stroke-width="2" x1="243" x2="472" y1="22" y2="22"/>
<line stroke="#000" stroke-width="2" x1="243" x2="472" y1="34" y2="34"/>
<line stroke="#000" stroke-width="2" x1="243" x2="472" y1="46" y2="46"/>
<line stroke="#000" stroke-width="2" x1="243" x2="472" y1="58" y2="58"/>
<line stroke="#000" stroke-width="2" x1="243" x2="243" y1="9" y2="59"/>
<line stroke="#000" stroke-width="2" x1="473" x2="473" y1="9" y2="59"/>
</svg>