<svg xmlns="http://www.w3.org/2000/svg">
<rect fill="#fff" height="100" width="400" x="0" y="0"/>
<path d="M26.574705 75.33184Q24.560156 75.33184,23.280079 74.38752Q22 73.4432,22 71.51259Q22 69.37213,23.196138 67.672356Q24.392277 65.97258,26.322887 64.98629Q28.253498 64,30.435925 64Q32.282597 64,33.37381 64.98629Q34.465027 65.97258,34.465027 67.77728Q34.465027 69.8338,33.37381 71.55456Q32.282597 73.27532,30.49888 74.30358Q28.715164 75.33184,26.574705 75.33184Z" fill="#000"/>
<line stroke="#000" stroke-width="2" x1="33.42857142857143" x2="33.42857142857143" y1="34" y2="68.5"/>
<path d="M71.10409 61.80526L71.10409 55.40347L69 55.94068L69 51.463905L71.10409 50.881927L71.10409 42.107445L72.49188 42.107445L72.49188 50.523785L75.491325 49.8075L75.491325 41.077785L76.87913 41.077785L76.87913 49.449356L79.07275 48.956913L79.07275 53.38892L76.87913 54.01567L76.87913 60.41746L79.07275 59.880245L79.07275 64.491325L76.87913 65.02854L76.87913 73.44488L75.491325 73.44488L75.491325 65.38668L72.49188 66.192505L72.49188 74.92222L71.10409 74.92222L71.10409 66.505875L69 67.04309L69 62.43201L71.10409 61.80526ZM75.491325 60.730835L75.491325 54.284275L72.49188 55.045326L72.49188 61.44712L75.491325 60.730835Z" fill="#000"/>
<path d="M88.64745 63.33184Q86.632904 63.33184,85.35283 62.38752Q84.07275 61.4432,84.07275 59.512592Q84.07275 57.37213,85.26888 55.672356Q86.46503 53.97258,88.39564 52.98629Q90.32625 52,92.508675 52Q94.35535 52,95.446556 52.98629Q96.53777 53.97258,96.53777 55.77728Q96.53777 57.8338,95.446556 59.55456Q94.35535 61.275322,92.571625 62.30358Q90.78791 63.33184,88.64745 63.33184Z" fill="#000"/>
<line stroke="#000" stroke-width="2" x1="95.50131961277553" x2="95.50131961277553" y1="22" y2="56.5"/>
<path d="M120.57471 51.33184Q118.56016 51.33184,117.28008 50.38752Q116 49.4432,116 47.512592Q116 45.37213,117.19614 43.672356Q118.39228 41.97258,120.32289 40.98629Q122.2535 40,124.43593 40Q126.2826 40,127.37381 40.98629Q128.46503 41.97258,128.46503 43.77728Q128.46503 45.8338,127.37381 47.55456Q126.2826 49.275322,124.498886 50.30358Q122.715164 51.33184,120.57471 51.33184Z" fill="#000"/>
<line stroke="#000" stroke-width="2" x1="127.42857142857143" x2="127.42857142857143" y1="10" y2="44.5"/>
<path d="M167.5747 75.33184Q165.56015 75.33184,164.28008 74.38752Q163 73.4432,163 71.51259Q163 69.37213,164.19614 67.672356Q165.39227 65.97258,167.32288 64.98629Q169.2535 64,171.43591 64Q173.2826 64,174.37381 64.98629Q175.46503 65.97258,175.46503 67.77728Q175.46503 69.8338,174.37381 71.55456Q173.2826 73.27532,171.49887 74.30358Q169.71516 75.33184,167.5747 75.33184Z" fill="#000"/>
<line stroke="#000" stroke-width="2" x1="174.42857142857142" x2="174.42857142857142" y1="34" y2="68.5"/>
<line stroke="#000" stroke-width="2" x1="13" x2="222" y1="10" y2="10"/>
<line stroke="#000" stroke-width="2" x1="13" x2="222" y1="22" y2="22"/>
<line stroke="#000" stroke-width="2" x1="13" x2="222" y1="34" y2="34"/>
<line stroke="#000" stroke-width="2" x1="13" x2="222" y1="46" y2="46"/>
<line stroke="#000" stroke-width="2" x1="13" x2="222" y1="58" y2="58"/>
<line stroke="#000" stroke-width="2" x1="13" x2="13" y1="9" y2="59"/>
<line stroke="#000" stroke-width="2" x1="223" x2="223" y1="9" y2="59"/>
<path d="M236.5747 75.33184Q234.56015 75.33184,233.28008 74.38752Q232 73.4432,232 71.51259Q232 69.37213,233.19614 67.672356Q234.39227 65.97258,236.32288 64.98629Q238.2535 64,240.43591 64Q242.2826 64,243.37381 64.98629Q244.46503 65.97258,244.46503 67.77728Q244.46503 69.8338,243.37381 71.55456Q242.2826 73.27532,240.49887 74.30358Q238.71516 75.33184,236.5747 75.33184Z" fill="#000"/>
<line stroke="#000" stroke-width="2" x1="243.42857142857142" x2="243.42857142857142" y1="34" y2="68.5"/>
<path d="M279 34.005596L280.3878 34.005596L280.3878 51.465027Q282.0442 49.808617,284.1483 49.808617Q285.58084 49.808617,286.7448 50.771126Q287.90878 51.73363,287.90878 53.56911Q287.90878 55.00168,287.0582 56.210407Q286.20758 57.41914,284.77502 58.62787L281.68607 61.269165Q280.83545 61.98545,280.16394 62.67935Q279.49243 63.373253,279 64L279 34.005596ZM280.3878 61.00056Q281.55176 59.747063,282.35757 58.69502Q283.1634 57.64298,283.61105 56.83716Q284.10352 55.98657,284.34973 55.270287Q284.59595 54.554,284.59595 53.927254Q284.59595 52.673756,284.01398 52.11416Q283.432 51.55456,282.76047 51.55456Q282.0442 51.55456,281.35028 52.06939Q280.6564 52.58422,280.3878 53.479576L280.3878 61.00056Z" fill="#000"/>
<path d="M297.4835 63.33184Q295.46896 63.33184,294.18887 62.38752Q292.90878 61.4432,292.90878 59.512592Q292.90878 57.37213,294.10492 55.672356Q295.30106 53.97258,297.2317 52.98629Q299.1623 52,301.34473 52Q303.19138 52,304.2826 52.98629Q305.3738 53.97258,305.3738 55.77728Q305.3738 57.8338,304.2826 59.55456Q303.19138 61.275322,301.40768 62.30358Q299.62396 63.33184,297.4835 63.33184Z" fill="#000"/>
<line stroke="#000" stroke-width="2" x1="304.33735724857877" x2="304.33735724857877" y1="22" y2="56.5"/>
<path d="M330.5747 51.33184Q328.56018 51.33184,327.2801 50.38752Q326 49.4432,326 47.512592Q326 45.37213,327.19614 43.672356Q328.39227 41.97258,330.3229 40.98629Q332.2535 40,334.43594 40Q336.2826 40,337.3738 40.98629Q338.46503 41.97258,338.46503 43.77728Q338.46503 45.8338,337.3738 47.55456Q336.2826 49.275322,334.4989 50.30358Q332.71518 51.33184,330.5747 51.33184Z" fill="#000"/>
<line stroke="#000" stroke-width="2" x1="337.42857142857144" x2="337.42857142857144" y1="10" y2="44.5"/>
<path d="M389.5747 33.33184Q387.56018 33.33184,386.2801 32.38752Q385 31.443201,385 29.51259Q385 27.372131,386.19614 25.672356Q387.39227 23.97258,389.3229 22.98629Q391.2535 22,393.43594 22Q395.2826 22,396.3738 22.98629Q397.46503 23.97258,397.46503 25.777279Q397.46503 27.8338,396.3738 29.55456Q395.2826 31.275322,393.4989 32.30358Q391.71518 33.33184,389.5747 33.33184Z" fill="#000"/>
<line stroke="#000" stroke-width="2" x1="384.42857142857144" x2="384.42857142857144" y1="25" y2="64"/>
<line stroke="#000" stroke-width="2" x1="223" x2="432" y1="10" y2="10"/>
<line stroke="#000" stroke-width="2" x1="223" x2="432" y1="22" y2="22"/>
<line stroke="#000" stroke-width="2" x1="223" x2="432" y1="34" y2="34"/>
<line stroke="#000" stroke-width="2" x1="223" x2="432" y1="46" y2="46"/>
<line stroke="#000" stroke-width="2" x1="223" x2="432" y1="58" y2="58"/>
<line stroke="#000" stroke-width="2" x1="223" x2="223" y1="9" y2="59"/>
<line stroke="#000" stroke-width="2" x1="433" x2="433" y1="9" y2="59"/>
</svg>